<?xml version="1.0" encoding="UTF-8" standalone="no"?>
<!-- Created with Inkscape (http://www.inkscape.org/) -->

<svg
   xmlns:dc="http://purl.org/dc/elements/1.1/"
   xmlns:cc="http://creativecommons.org/ns#"
   xmlns:rdf="http://www.w3.org/1999/02/22-rdf-syntax-ns#"
   xmlns:svg="http://www.w3.org/2000/svg"
   xmlns="http://www.w3.org/2000/svg"
   xmlns:xlink="http://www.w3.org/1999/xlink"
   xmlns:sodipodi="http://sodipodi.sourceforge.net/DTD/sodipodi-0.dtd"
   xmlns:inkscape="http://www.inkscape.org/namespaces/inkscape"
   id="svg3819"
   version="1.1"
   inkscape:version="0.48.3.1 r9886"
   width="868.07928"
   height="2033.6465"
   sodipodi:docname="heros.svg">
  <metadata
     id="metadata3825">
    <rdf:RDF>
      <cc:Work
         rdf:about="">
        <dc:format>image/svg+xml</dc:format>
        <dc:type
           rdf:resource="http://purl.org/dc/dcmitype/StillImage" />
        <dc:title />
      </cc:Work>
    </rdf:RDF>
  </metadata>
  <defs
     id="defs3823">
    <linearGradient
       inkscape:collect="always"
       id="linearGradient3794">
      <stop
         style="stop-color:#ffffff;stop-opacity:1;"
         offset="0"
         id="stop3796" />
      <stop
         style="stop-color:#ffffff;stop-opacity:0;"
         offset="1"
         id="stop3798" />
    </linearGradient>
    <radialGradient
       inkscape:collect="always"
       xlink:href="#linearGradient3794"
       id="radialGradient3800"
       cx="416.97067"
       cy="985.29993"
       fx="416.97067"
       fy="985.29993"
       r="490.12341"
       gradientTransform="matrix(1,0,0,2.1442787,0,-1127.4577)"
       gradientUnits="userSpaceOnUse" />
  </defs>
  <sodipodi:namedview
     pagecolor="#ffffff"
     bordercolor="#666666"
     borderopacity="1"
     objecttolerance="10"
     gridtolerance="10"
     guidetolerance="10"
     inkscape:pageopacity="0"
     inkscape:pageshadow="2"
     inkscape:window-width="1364"
     inkscape:window-height="744"
     id="namedview3821"
     showgrid="false"
     inkscape:zoom="0.2050504"
     inkscape:cx="-630.42182"
     inkscape:cy="924.88797"
     inkscape:window-x="0"
     inkscape:window-y="22"
     inkscape:window-maximized="1"
     inkscape:current-layer="svg3819"
     fit-margin-top="0"
     fit-margin-left="0"
     fit-margin-right="0"
     fit-margin-bottom="0" />
  <path
     sodipodi:type="arc"
     style="fill:url(#radialGradient3800);fill-opacity:1;stroke:none"
     id="path3024"
     sodipodi:cx="416.97067"
     sodipodi:cy="985.29993"
     sodipodi:rx="490.12341"
     sodipodi:ry="1050.9612"
     d="m 907.09409,985.29993 a 490.12341,1050.9612 0 1 1 -0.74954,-58.1004"
     sodipodi:start="0"
     sodipodi:end="6.227874"
     sodipodi:open="true"
     transform="matrix(0.88557214,0,0,0.9675174,64.782029,63.528407)" />
  <path
     style="fill:#000000"
     d="m 531.34821,1982.7627 c -4.52767,-1.0066 -9.89088,-2.5163 -11.91825,-3.3549 -2.02736,-0.8386 -5.96335,-1.8277 -8.74665,-2.198 -4.39856,-0.5851 -5.55425,-1.2656 -8.83464,-5.2021 -2.67828,-3.2139 -3.52906,-4.9948 -2.93011,-6.1335 0.46421,-0.8825 1.39438,-3.6296 2.06703,-6.1046 1.13158,-4.1635 3.54303,-9.5529 7.12068,-15.9139 1.19043,-2.1166 5.67217,-7.9332 11.32762,-14.7015 0.5126,-0.6135 1.86227,-3.0999 2.99927,-5.5253 1.13697,-2.4255 3.72377,-6.7502 5.74841,-9.6105 2.02464,-2.8603 3.68116,-5.5135 3.68116,-5.896 0,-0.3824 0.66108,-1.4058 1.46906,-2.2741 2.95447,-3.175 18.47516,-33.1398 20.64122,-39.8506 1.01687,-3.1505 2.64658,-7.5281 3.62158,-9.7281 2.95432,-6.6662 6.0303,-14.8264 6.78506,-18 0.80095,-3.3678 3.0364,-7.9721 10.10254,-20.808 7.2028,-13.0842 7.87946,-15.5686 9.31273,-34.192 1.53378,-19.9295 1.25094,-33.1753 -1.00358,-47.0009 -0.89681,-5.4995 -2.04596,-12.6991 -2.55368,-15.9991 -1.08842,-7.0744 -5.49555,-27.3873 -7.80347,-35.967 -2.22144,-8.2581 -2.34003,-8.8763 -3.55573,-18.533 -0.58853,-4.675 -1.74352,-11.65 -2.56663,-15.5 -0.82311,-3.85 -2.18179,-10.825 -3.0193,-15.5 -0.83752,-4.675 -2.23689,-12.325 -3.10971,-17 -0.87283,-4.675 -2.33614,-15.025 -3.25179,-23 -0.91566,-7.975 -1.801,-15.625 -1.96744,-17 -1.93829,-16.0121 -2.45819,-21.4647 -2.57445,-27 -0.0751,-3.575 -0.97592,-11.225 -2.00184,-17 -1.02595,-5.775 -2.40672,-15.45 -3.06839,-21.5 -0.66168,-6.05 -1.61564,-14.15 -2.1199,-18 -0.50427,-3.85 -1.19709,-10.375 -1.5396,-14.5 -0.3425,-4.125 -1.03678,-9.3331 -1.5428,-11.5736 -0.50604,-2.2404 -1.41601,-9.2154 -2.02216,-15.5 -1.36698,-14.1728 -2.38875,-17.9672 -5.94349,-22.0716 -2.72447,-3.1458 -2.8082,-3.6166 -2.99812,-16.8566 -0.1525,-10.6316 -0.78738,-16.1186 -2.89316,-25.0045 -1.48378,-6.2611 -2.87429,-11.6615 -3.09003,-12.0007 -0.21574,-0.3392 -1.119,-5.0889 -2.00725,-10.5549 -0.88825,-5.466 -2.4905,-14.6631 -3.56056,-20.4381 -1.07007,-5.775 -2.9468,-16.8 -4.17053,-24.5 -2.34606,-14.762 -5.3582,-31.3251 -7.81992,-43 -0.81179,-3.85 -2.19984,-11.4913 -3.08454,-16.9808 -0.88471,-5.4894 -1.7653,-10.1331 -1.95685,-10.3192 -0.19157,-0.1862 -1.05309,2.5052 -1.9145,5.9808 -5.52907,22.3084 -12.3819,43.9445 -20.68863,65.3192 -4.32248,11.1225 -8.41035,22.432 -10.8436,30 -1.23786,3.85 -3.79484,10.825 -5.68219,15.5 -1.88734,4.675 -3.96692,10.3 -4.62129,12.5 -0.65437,2.2 -1.59016,4.9 -2.07955,6 -2.04394,4.5942 -5.56648,15.3129 -6.40839,19.5 -2.11511,10.5193 -2.1076,10.7208 0.56164,15.0707 2.48708,4.053 2.52404,4.3502 0.94214,7.5739 -0.90559,1.8455 -2.17709,3.3554 -2.82558,3.3554 -2.28727,0 -3.89802,4.697 -3.15182,9.1908 0.39356,2.37 0.94035,6.1092 1.2151,8.3092 0.27473,2.2 0.9159,6.025 1.42482,8.5 0.50893,2.475 1.22316,6.75 1.58719,9.5 0.36402,2.75 1.956,9.725 3.53775,15.5 1.58173,5.775 3.13047,11.625 3.44163,13 0.31115,1.375 2.02167,7.45 3.80115,13.5 4.33785,14.7481 13.28372,48.1183 13.92334,51.9372 0.28213,1.6846 0.7325,4.1878 1.00081,5.5628 1.13879,5.8357 5.77369,49.3628 6.28248,59 0.30489,5.775 0.79514,11.175 1.08945,12 0.2943,0.825 0.71363,16.8 0.93184,35.5 0.78467,67.2435 1.18085,73.6746 6.19125,100.5 1.93888,10.3807 3.35943,15 4.61283,15 1.4588,0 1.12521,3.6132 -0.45094,4.8844 -1.178,0.95 -1.15388,1.8818 0.15204,5.8724 0.85372,2.6088 2.57371,6.0932 3.82222,7.7432 1.24851,1.65 3.7313,5.7331 5.51733,9.0735 2.85925,5.3477 3.1123,6.4499 2.11751,9.2231 -0.63355,1.7662 -2.6712,4.0754 -4.63909,5.2573 -2.64574,1.5891 -3.39682,2.6415 -3.05223,4.2769 0.2514,1.1931 0.74346,4.3145 1.0935,6.9366 0.35002,2.622 2.02418,8.022 3.72033,12 3.54408,8.3118 5.51739,20.2333 5.52558,33.3819 l 0.006,9.1493 -4.21167,4.8507 c -5.7758,6.6522 -11.84837,9.2832 -25.77211,11.1659 -11.12171,1.5038 -11.63253,1.4885 -17.23358,-0.5166 -5.27833,-1.8895 -6.13601,-1.9445 -10.0251,-0.6424 -2.33911,0.7832 -6.18695,2.964 -8.55075,4.8464 -2.56796,2.0449 -6.75914,4.0614 -10.41302,5.0101 -11.69678,3.0368 -41.19158,7.5841 -55.50811,8.5579 -7.92344,0.5389 -19.49989,1.4617 -25.72545,2.0506 -6.22555,0.589 -14.09755,1.2823 -17.49331,1.5407 -3.39576,0.2584 -7.56328,0.866 -9.26117,1.3502 -6.21054,1.7712 -26.06544,3.4984 -39.61719,3.4465 -18.67499,-0.072 -26.8805,-3.0028 -31.22587,-11.1545 -0.82213,-1.5423 -3.01883,-4.3521 -4.88158,-6.2441 l -3.38679,-3.44 3.50616,-2.56 c 1.92838,-1.408 8.152,-6.8747 13.83025,-12.1482 5.67826,-5.2734 12.17635,-10.6604 14.44019,-11.971 2.26384,-1.3105 8.74665,-6.0065 14.40625,-10.4355 5.65961,-4.429 12.31261,-9.3774 14.78448,-10.9965 2.47187,-1.619 7.11692,-5.2084 10.32235,-7.9763 3.20543,-2.7679 8.36039,-6.6505 11.45548,-8.628 10.79072,-6.8945 23.16143,-14.2143 28.85112,-17.0715 3.15171,-1.5826 7.52346,-4.662 9.715,-6.843 l 3.98461,-3.9656 -1.71854,-3.5022 c -1.27437,-2.597 -1.46276,-4.156 -0.72887,-6.0318 5.56761,-14.231 5.55745,-42.9143 -0.0271,-76.4904 -1.05199,-6.325 -2.19771,-13.975 -2.54603,-17 -0.34833,-3.025 -1.28086,-9.325 -2.07229,-14 -1.27975,-7.5595 -2.26846,-15.7446 -4.10695,-34 -0.97977,-9.7288 -3.69433,-34.287 -4.58724,-41.5 -3.85259,-31.1221 -7.07032,-61.9735 -7.87448,-75.5 -0.24523,-4.125 -0.71175,-8.625 -1.0367,-10 -0.32495,-1.375 -0.79417,-3.625 -1.04269,-5 -0.24853,-1.375 -1.07984,-4.975 -1.84737,-8 -1.83983,-7.2512 -3.09718,-14.2668 -2.76969,-15.454 0.37648,-1.3647 -1.71568,-12.408 -4.55552,-24.046 -1.34209,-5.5 -3.5977,-15.724 -5.01246,-22.7201 -1.41478,-6.996 -3.20366,-13.971 -3.97532,-15.5 -2.99674,-5.9378 -6.30263,-21.6667 -6.25908,-29.7799 0.0444,-8.2885 1.69011,-18.1595 4.51336,-27.0727 1.60535,-5.0681 4.3474,-16.3501 6.09345,-25.0711 1.74604,-8.7209 3.63034,-18.1062 4.18733,-20.8562 1.35238,-6.6772 4.00138,-27.5065 5.15065,-40.5 0.77338,-8.7437 1.92455,-17.8085 2.53987,-20 0.17345,-0.6178 1.42778,-14.2368 2.11831,-23 0.2817,-3.575 0.94021,-10.1 1.46335,-14.5 0.52313,-4.4 1.89693,-16.0008 3.05289,-25.7797 1.15595,-9.7788 2.33848,-18.7788 2.62786,-20 0.28937,-1.2211 0.98169,-6.9453 1.53846,-12.7203 1.79991,-18.6688 6.3112,-48.8458 9.26864,-62 1.17474,-5.225 2.36874,-11.3 2.65334,-13.5 0.28461,-2.2 1.23411,-6.4486 2.11003,-9.4414 0.87591,-2.9927 2.66311,-11.3177 3.97157,-18.5 1.30845,-7.1822 2.6571,-14.1836 2.997,-15.5586 0.63948,-2.587 2.19852,-10.8907 3.19178,-17 0.31296,-1.925 1.44701,-7.1 2.52009,-11.5 1.07308,-4.4 2.24431,-11.4881 2.60274,-15.7513 0.35843,-4.2632 1.32882,-10.7882 2.1564,-14.5 2.39046,-10.7215 4.58138,-21.44538 5.17951,-25.35228 0.51195,-3.344 0.29074,-3.72394 -3.0708,-5.2741 -5.06602,-2.3362 -9.89556,-6.4826 -9.89556,-8.49586 0,-1.94748 3.63963,-12.75611 5.18629,-15.40183 1.48685,-2.54337 5.95633,-16.58871 6.59494,-20.72462 0.29723,-1.925 1.04816,-5.75 1.66873,-8.5 0.62056,-2.75 1.23811,-5.675 1.37232,-6.5 0.13422,-0.825 0.52101,-2.175 0.85956,-3 1.67561,-4.08326 2.13225,-8.65164 2.14909,-21.5 0.0363,-27.67994 -0.68923,-37.4659 -4.00338,-54 -3.80492,-18.98251 -9.00037,-40.52836 -13.16158,-54.58183 -5.71206,-19.29106 -6.75075,-24.82244 -6.06826,-32.31516 l 0.53713,-5.897 -10.17289,0.74181 c -33.99646,2.479 -40.74232,2.54936 -54.05394,0.5638 -8.25052,-1.23064 -24.02236,-8.76677 -29.83506,-14.25585 -4.30521,-4.0655 -4.83874,-5.08077 -5.45542,-10.38099 -0.53536,-4.60143 -0.22713,-7.15168 1.42214,-11.76593 1.1581,-3.24014 2.61073,-6.48258 3.22805,-7.20543 0.61731,-0.72284 1.51911,-5.72182 2.00396,-11.10884 1.59468,-17.71733 2.88925,-23.1016 11.01078,-45.79458 1.96838,-5.5 4.22498,-12.925 5.0147,-16.5 0.7897,-3.575 1.89953,-7.53332 2.46627,-8.79627 0.56675,-1.26295 2.62595,-7.56295 4.57599,-14 1.95003,-6.43705 5.88619,-18.3967 8.74701,-26.57699 2.86083,-8.18029 5.2015,-15.69228 5.2015,-16.6933 0,-1.00102 -0.8184,-2.40805 -1.81867,-3.12674 -3.60151,-2.58767 -5.50465,-6.66721 -4.80383,-10.29748 0.36502,-1.89088 1.30982,-3.9591 2.09956,-4.59604 2.03822,-1.64387 1.92611,-1.95049 -2.93744,-8.03323 -8.43241,-10.54625 -13.25394,-14.92327 -16.12756,-14.64071 -3.9612,0.38949 -4.0326,-3.19433 -0.14602,-7.32958 3.35722,-3.57203 3.19218,-4.28906 -1.21973,-5.2996 -2.63457,-0.60345 -2.8298,-0.42832 -2.8298,2.53847 0,5.59336 -3.32528,26.30163 -4.4439,27.67456 -1.93275,2.37213 -9.33371,5.52785 -14.59294,6.22234 -6.28535,0.83 -15.95972,-0.23958 -23.90376,-2.64274 -12.49124,-3.77875 -27.75968,-17.84764 -32.19314,-29.66391 -3.1281,-8.33721 -2.00571,-11.97175 8.41167,-27.23878 3.75289,-5.5 7.96206,-12.3107 9.35372,-15.13488 2.69417,-5.46747 2.51272,-6.70222 -1.59501,-10.85341 -1.09486,-1.10644 -2.65102,-3.50677 -3.45813,-5.33408 -0.80712,-1.8273 -3.07227,-5.54112 -5.03367,-8.25293 -1.9614,-2.71181 -4.32611,-6.84175 -5.25491,-9.17763 -0.92881,-2.33589 -2.08215,-4.67457 -2.563,-5.19707 -1.47335,-1.60096 -0.98774,-3.34882 1.6398,-5.90227 1.38274,-1.34375 2.88768,-2.60885 3.34432,-2.81132 5.4801,-2.42997 8.57896,-5.4016 10.06344,-9.65029 1.82527,-5.22407 4.1505,-7.21499 10.53219,-9.01792 2.38157,-0.67283 4.58925,-1.63078 4.90595,-2.12877 0.31671,-0.498 -1.22694,-2.17309 -3.43032,-3.72244 -8.39942,-5.90617 -16.50254,-12.89519 -17.17896,-14.81699 -0.38717,-1.1 -1.45952,-2.83428 -2.38301,-3.85395 -0.92349,-1.01967 -3.06825,-4.24654 -4.76612,-7.17083 -1.69788,-2.92428 -5.28658,-8.83059 -7.97489,-13.12514 -2.68831,-4.29454 -4.88784,-8.80075 -4.88784,-10.0138 0,-7.92337 6.82158,-26.72478 10.5321,-29.02825 0.71589,-0.44442 1.94642,-1.6064 2.73452,-2.5822 1.27653,-1.58053 1.01283,-2.18079 -2.41612,-5.5 -4.56036,-4.41439 -7.87461,-10.32031 -7.98918,-14.23655 -0.0454,-1.54958 1.13807,-5.08573 2.62977,-7.85812 1.66799,-3.10004 2.44279,-5.73185 2.01248,-6.83593 -1.11321,-2.85537 -10.36292,-11.29523 -12.37935,-11.29523 -1.0079,0 -2.41093,-0.9 -3.11782,-2 -1.61044,-2.50602 -3.32586,-2.58596 -3.32586,-0.15499 0,2.39871 -3.17401,5.15499 -5.93624,5.15499 -2.32457,0 -13.35799,-10.64459 -35.73899,-34.47953 -8.09727,-8.62327 -19.26143,-19.65101 -21.71637,-21.45099 -1.07309,-0.78678 -4.52451,-3.71178 -7.66987,-6.5 -7.65669,-6.78733 -18.31652,-15.9555 -21.83294,-18.77779 -3.845125,-3.08611 -4.149794,-5.78625 -1.296809,-11.493 4.132959,-8.26704 14.427509,-17.46624 21.822159,-19.50028 3.69238,-1.01565 11.15674,-1.72396 18.42505,-1.74839 1.85892,-0.006 3.94316,-0.84465 5.04731,-2.03033 1.92193,-2.06382 9.79401,-2.96777 9.79401,-1.12465 0,0.49227 1.14965,1.95477 2.55477,3.25 1.40512,1.29523 2.56276,2.67746 2.57254,3.07163 0.0103,0.39416 -1.63032,2.3183 -3.64468,4.27585 -2.42349,2.35515 -3.46052,4.14244 -3.06549,5.28333 0.71614,2.06828 6.88354,8.61479 11.87304,12.60284 3.85401,3.08048 31.51003,28.66727 48.7703,45.12131 14.36528,13.69428 15.69872,16.87163 8.51817,20.29728 l -2.71923,1.29729 6.14743,5.33056 c 8.49984,7.3704 15.78643,10.57487 24.04598,10.57487 4.88459,0 6.90621,0.43512 8.13068,1.75 0.89633,0.9625 1.6132,2.2 1.59305,2.75 -0.0201,0.55 1.98084,2.36586 4.44665,4.03524 2.46582,1.66939 7.72471,6.05892 11.68643,9.75453 3.96171,3.69561 8.01347,6.97257 9.0039,7.28214 0.99044,0.30958 1.80079,0.98254 1.80079,1.49548 0,0.51293 0.66339,0.93261 1.47418,0.93261 0.8108,0 1.73838,0.8089 2.06127,1.79757 0.32289,0.98866 5.79502,5.90357 12.16032,10.92202 6.36525,5.01845 13.00968,10.39704 14.76536,11.95243 1.75569,1.55539 4.30252,3.77088 5.6596,4.92332 1.35709,1.15244 5.64342,5.31494 9.52516,9.25 4.69088,4.75531 7.84067,7.15466 9.39242,7.15466 3.28481,0 5.15926,2.65893 5.15926,7.3185 0,3.36383 0.48458,4.27493 3.08705,5.80399 10.19378,5.98933 19.03944,6.97317 26.6015,2.95872 l 4.51876,-2.39886 2.44768,2.21563 c 1.73741,1.57268 2.46619,3.34928 2.5114,6.12226 0.0356,2.18527 0.82912,4.72852 1.80079,5.77193 2.03731,2.18773 2.29304,5.17933 0.45079,5.27378 -0.70745,0.0363 -5.68533,0.16916 -11.06194,0.29532 -5.37662,0.12615 -11.53539,0.60902 -13.68616,1.07304 -3.47222,0.74912 -4.23893,0.53786 -6.84119,-1.88495 -2.43157,-2.26389 -3.28636,-2.54365 -5.01888,-1.64257 -1.1485,0.59732 -2.82221,0.81231 -3.71934,0.47775 -1.89063,-0.70504 -4.69203,1.22817 -4.69203,3.2379 0,1.00203 1.53298,1.37756 5.6234,1.37756 4.57023,0 5.82966,0.37456 6.72482,2 1.35654,2.46325 0.003,5.29681 -3.63777,7.61501 -1.39499,0.88826 -2.53634,2.42068 -2.53634,3.40539 0,2.11911 6.55417,10.08935 9.36011,11.38241 1.07749,0.49655 1.95909,1.54047 1.95909,2.31983 0,2.13 6.07006,10.27736 7.65697,10.27736 2.76767,0 3.50618,5.85091 1.2652,10.02367 -2.06913,3.85277 -3.70968,8.61242 -6.3684,18.47633 -1.33423,4.95 -3.10732,11.3625 -3.9402,14.25 l -1.51436,5.25 2.806,0 c 2.51475,0 2.99869,-0.59683 4.66242,-5.75 1.02104,-3.1625 3.14907,-8.225 4.72896,-11.25 3.3414,-6.39773 12.70313,-16.13553 17.03405,-17.71832 1.648,-0.60228 8.92117,-1.61027 16.16258,-2.23996 7.24142,-0.6297 15.4524,-1.86245 18.24665,-2.73944 4.62172,-1.45056 5.13449,-1.91994 5.67889,-5.19841 0.96281,-5.79816 2.3678,-8.37664 4.19337,-7.69586 0.89104,0.33228 4.79988,1.0836 8.68632,1.6696 5.54904,0.83668 7.66632,0.7817 9.861,-0.25608 3.26493,-1.54386 6.68886,-7.59505 9.6544,-17.06243 2.31715,-7.3974 3.71042,-8.37098 10.82456,-7.56386 3.19854,0.36288 3.60698,0.1623 3.34152,-1.64091 -0.28233,-1.91773 -1.02086,-2.05933 -11.10713,-2.12947 -12.29455,-0.0855 -24.35633,-1.23946 -27.01311,-2.58438 -3.30874,-1.67495 -6.602,-9.99495 -8.35838,-21.1164 -0.936,-5.92675 -2.62125,-13.12675 -3.745,-16 -1.12376,-2.87324 -2.04344,-6.12603 -2.04372,-7.22841 -4.9e-4,-1.92397 -0.95743,-4.64142 -8.27384,-23.49567 -1.81416,-4.675 -3.46612,-9.75432 -3.67106,-11.28738 -0.20492,-1.53306 -0.82064,-3.60095 -1.36824,-4.5953 -3.39085,-6.15719 -2.94098,-21.75671 1.09217,-37.87202 2.34112,-9.35441 2.02291,-11.32108 -2.62856,-16.2453 -6.23419,-6.59974 -8.98991,-12.8944 -8.98991,-20.53493 0,-3.85818 -0.39132,-4.69957 -2.74404,-5.90006 -8.84844,-4.51497 -13.97056,-14.70009 -15.1722,-30.16939 -0.64589,-8.31451 -0.50917,-9.31881 1.89599,-13.92812 1.42564,-2.73213 3.56825,-5.82474 4.76133,-6.87249 1.19309,-1.04774 2.16926,-2.51024 2.16926,-3.25 0,-0.73975 0.64134,-1.34501 1.42518,-1.34501 0.78385,0 2.25394,-1.2375 3.26686,-2.75 2.04696,-3.05654 19.24405,-19.89878 22.71878,-22.25 1.21922,-0.825 5.8536,-4.23731 10.29862,-7.58292 7.72921,-5.81748 27.61081,-17.70381 37.40889,-22.36511 2.54682,-1.21161 8.33504,-3.58854 12.86272,-5.28205 7.11495,-2.66125 9.55883,-3.07915 18.00783,-3.07934 23.22195,-5e-4 50.8896,6.71062 61.59883,14.94155 1.33665,1.02733 4.79421,3.6828 7.68348,5.90105 2.88927,2.21824 7.25107,6.49324 9.69287,9.5 2.4418,3.00675 5.82973,7.04182 7.52871,8.96682 1.69901,1.925 3.58963,5.3 4.20142,7.5 0.6118,2.2 1.27646,4.5625 1.47704,5.25 0.20058,0.6875 1.59798,1.25 3.10533,1.25 5.80604,0 9.20838,3.39963 13.28276,13.27219 2.09456,5.07529 4.01872,10.33883 4.27591,11.69675 0.25719,1.35792 0.83732,2.93292 1.2892,3.5 0.45188,0.56708 1.65081,4.06856 2.66428,7.78106 1.0135,3.7125 2.22251,6.75 2.68671,6.75 0.4642,0 0.5891,0.64549 0.27758,1.43442 -0.50291,1.27361 -0.0958,5.48857 2.32459,24.06558 1.35431,10.39472 0.85214,28.38607 -0.88704,31.78016 -0.5017,0.97909 -1.07701,3.00409 -1.27848,4.5 -0.99202,7.36582 -13.48744,32.30399 -19.49751,38.91287 -0.61899,0.68066 -1.59238,1.81568 -2.16311,2.52227 -0.57072,0.70658 -3.39516,3.9847 -6.27655,7.2847 -11.37283,13.02513 -17.46897,24.74243 -15.40224,29.60441 0.6089,1.43243 1.72417,3.32333 2.47838,4.20201 1.92931,2.24773 0.57538,5.70446 -2.2124,5.64848 -4.13931,-0.0831 -7.92976,-2.42284 -10.4036,-6.42175 l -2.45402,-3.96686 -0.75558,4.89657 c -0.91165,5.90796 0.0717,23.59207 1.59904,28.75454 1.04188,3.5217 1.27377,3.68211 4.40497,3.04705 7.7693,-1.57575 8.07526,-1.38826 10.17567,6.23555 1.06072,3.85 3.18495,10.90538 4.72054,15.67861 2.47906,7.70589 3.17204,8.85474 6.18284,10.25 4.24334,1.96645 5.28734,1.96144 9.42652,-0.0452 3.62796,-1.75883 14.10026,-1.54754 15.34135,0.30952 1.67609,2.50797 20.97887,13.43782 42.76407,24.21437 13.07359,6.46715 24.00168,11.81076 24.28466,11.8747 2.66797,0.60281 18.40527,8.37604 19.46139,9.61269 0.80998,0.94845 2.94068,1.60534 5.20713,1.60534 3.07069,0 4.31962,0.61304 6.25895,3.07219 1.33253,1.6897 3.88902,3.66754 5.68108,4.3952 3.1965,1.29792 3.26112,1.45642 3.40706,8.35555 0.11687,5.5255 -0.48745,8.70879 -2.82004,14.85479 -3.76078,9.90906 -8.95986,20.43629 -13.18209,26.69142 -3.51042,5.20062 -5.06302,10.50626 -5.89089,20.13085 -1.03599,12.04419 -2.59357,20.29324 -8.30796,44 -0.79544,3.3 -1.72393,8.025 -2.06327,10.5 -0.33936,2.475 -1.00785,6.525 -1.48552,9 -4.70321,24.36831 -7.2693,40.05089 -7.85411,48 -0.38439,5.225 -1.31793,12.2 -2.07452,15.5 -1.60631,7.00624 -5.82348,33.58615 -8.17099,51.5 -0.90094,6.875 -2.10387,14.975 -2.67319,18 -2.09354,11.12373 -2.31516,37.61167 -0.48529,58 0.96258,10.725 2.26081,21.3 2.88494,23.5 1.53237,5.40145 1.37826,4.32911 2.80251,19.5 0.69708,7.425 1.88455,15.975 2.63885,19 4.1488,16.63811 6.8164,47.1162 7.13331,81.5 0.23741,25.75952 -0.29181,32.6585 -2.61214,34.0521 -0.57176,0.3434 -4.18505,0.62437 -8.02951,0.62437 l -6.98995,0 -1.91172,19.16177 c -2.04246,20.47212 -2.15175,28.42302 -1.72236,125.29642 0.13442,30.3241 0.0439,55.7491 -0.20096,56.5 -1.01327,3.1062 -1.50673,93.7488 -0.60084,110.3653 2.09432,38.4158 4.04127,60.6805 6.30673,72.1215 0.9278,4.6855 0.92934,7.3832 0.006,11.5 -4.70762,21.0028 -5.3283,26.425 -5.2518,45.8785 0.0422,10.725 -0.22634,21.3253 -0.59669,23.5562 -0.38605,2.3255 -8.5e-4,7.6591 0.90142,12.5 1.74337,9.3477 3.35235,22.2438 4.29732,34.4438 0.59537,7.6864 1.05665,12.3676 2.06929,21 3.81985,32.5627 6.30802,58.9246 7.12608,75.5 0.33931,6.875 0.82342,14.525 1.07581,17 0.2524,2.475 0.70544,8.775 1.00676,14 0.30132,5.225 1.24175,15.125 2.08985,22 2.61739,21.2174 6.56053,62.6658 6.80209,71.5 0.0602,2.2 -0.4881,25.2431 -1.21837,51.2068 -0.88622,31.5087 -0.98781,47.9695 -0.30548,49.5 0.56224,1.2613 0.99298,4.9932 0.95717,8.2932 l -0.0651,6 -4.4171,0.092 c -6.69927,0.1404 -6.89631,0.6833 -4.93074,13.5874 0.94835,6.2261 1.92208,12.7212 2.16383,14.4336 0.24177,1.7125 0.91518,4.3293 1.49649,5.8151 0.58131,1.4859 1.05694,4.2615 1.05694,6.168 0,1.9066 0.93362,6.1597 2.07471,9.4515 1.14109,3.2918 2.45066,8.6565 2.91017,11.9218 0.77005,5.4719 0.61401,6.2824 -1.99331,10.3534 -2.85666,4.4602 -4.46533,9.0611 -5.56969,15.93 -0.78445,4.879 -5.8643,10.7541 -28.37417,32.8162 -21.29947,20.8758 -27.41687,25.5186 -40.14256,30.4665 -5.27623,2.0515 -11.11833,4.5624 -12.98244,5.5799 -1.86409,1.0175 -3.38926,1.6438 -3.38926,1.3918 0,-0.252 -1.07743,-0.06 -2.39428,0.4264 -1.31685,0.4866 -5.09299,1.1641 -8.39141,1.5057 -3.29842,0.3416 -7.89346,1.0185 -10.2112,1.5043 -7.28003,1.5257 -25.16106,1.0264 -34.05557,-0.951 z"
     id="path3913"
     inkscape:connector-curvature="0" />
  <path
     style="fill:#000000"
     d="m 567.87837,1975.1496 c 4.81066,-0.7965 9.78686,-1.6181 11.05822,-1.8257 1.27137,-0.2076 5.67043,-1.9551 9.77567,-3.8834 4.10527,-1.9284 9.65591,-4.4146 12.33479,-5.5249 2.67888,-1.1103 6.61487,-3.2714 8.74666,-4.8024 5.27657,-3.7895 23.52897,-20.8261 35.33544,-32.9817 17.03803,-17.5419 16.86304,-17.3065 18.23311,-24.5324 0.68369,-3.6059 2.5474,-9.3485 4.14158,-12.7614 2.82632,-6.0507 2.86393,-6.3592 1.51036,-12.3867 -0.76347,-3.3998 -1.85689,-8.8814 -2.42978,-12.1814 -0.57292,-3.3 -1.70397,-9.15 -2.51345,-13 -0.80949,-3.85 -1.73141,-10.6 -2.04871,-15 -0.3173,-4.4 -0.83085,-10.726 -1.14123,-14.0577 -0.44421,-4.7683 -0.22014,-6.3352 1.05275,-7.3618 0.88938,-0.7174 2.20179,-1.0912 2.91645,-0.8308 0.71465,0.2605 2.22549,0.1527 3.35741,-0.2393 1.94141,-0.6725 2.06113,-1.6422 2.11265,-17.1116 0.03,-9.0194 0.4931,-26.7488 1.02903,-39.3988 1.56567,-36.9565 1.18934,-68.3252 -0.96575,-80.5 -0.61559,-3.4776 -1.5564,-13.0185 -2.21868,-22.5 -0.30734,-4.4 -0.99812,-11.6 -1.53507,-16 -0.8986,-7.3636 -1.9761,-21.4233 -3.60198,-47 -0.34963,-5.5 -1.03763,-16.3 -1.52888,-24 -0.72669,-11.3899 -4.53263,-50.9108 -6.64485,-69 -0.25689,-2.2 -0.73606,-8.5 -1.06481,-14 -0.32877,-5.5 -0.88381,-11.125 -1.2334,-12.5 -0.3496,-1.375 -0.56765,-2.8143 -0.48453,-3.1984 0.0832,-0.3841 -0.64256,-5.5591 -1.6126,-11.5 -1.37483,-8.42 -1.73275,-16.6047 -1.62333,-37.1214 0.15234,-28.566 0.38986,-31.7036 3.53391,-46.6802 1.79758,-8.5628 1.94352,-11.0779 1.01537,-17.5 -1.34247,-9.2889 -2.98252,-25.7471 -3.68704,-37 -0.69057,-11.0304 -1.7197,-25.4375 -2.17863,-30.5 -0.5341,-5.8915 -0.52434,-59.5054 0.011,-60.3471 0.48203,-0.7579 2.23265,-94.3451 1.95761,-104.6529 -0.33076,-12.3964 -0.26067,-103.4048 0.087,-113 0.19931,-5.5 0.91514,-15.33551 1.59074,-21.8567 0.6756,-6.52119 1.00574,-12.42047 0.73365,-13.10952 -0.65306,-1.65389 -24.47081,-1.98238 -41.31645,-0.56984 -6.79153,0.56949 -15.58963,1.26834 -19.55134,1.55301 -3.96172,0.28467 -8.82383,0.72637 -10.8047,0.98155 -6.52263,0.84028 -11.67225,1.46322 -24.96186,3.01959 -7.2205,0.8456 -14.31227,1.97497 -15.75953,2.50969 -4.92136,1.81834 -9.49878,1.20104 -11.33963,-1.52923 -0.92762,-1.3758 -3.11287,-2.86062 -4.85613,-3.2996 -1.77025,-0.44579 -3.87544,-1.97442 -4.7685,-3.46252 -2.88191,-4.80215 -8.93807,-8.54655 -15.01688,-9.28463 -3.07208,-0.373 -6.2451,-0.43225 -7.05117,-0.13167 -0.80604,0.30059 -3.47612,4.02711 -5.93349,8.28116 -5.52034,9.55642 -7.9448,11.01975 -19.51179,11.77672 -16.42775,1.07507 -23.05047,1.72689 -27.47505,2.70415 -7.6871,1.69786 -26.01192,3.22173 -36.81869,3.06178 l -10.39332,-0.15382 -1.63352,6.25495 c -0.89844,3.44023 -1.86921,7.37993 -2.15727,8.75493 -0.28807,1.375 -1.45631,6.55 -2.5961,11.5 -1.13979,4.95 -2.0906,11.2184 -2.11291,13.9297 -0.0223,2.7114 -1.15911,9.6864 -2.52623,15.5 -1.36713,5.8137 -3.43032,15.2953 -4.58487,21.0703 -1.15456,5.775 -2.77827,13.65 -3.60826,17.5 -0.82999,3.85 -1.78297,9.0894 -2.11775,11.6432 -0.33477,2.5538 -1.48144,7.9595 -2.54817,12.0127 -1.06671,4.0532 -2.25817,10.0638 -2.64768,13.3568 -0.98998,8.3695 -1.14925,9.235 -2.94201,15.9873 -1.352,5.0922 -6.61334,43.5078 -8.42297,61.5 -0.30424,3.025 -1.01294,8.875 -1.57487,13 -0.56193,4.125 -1.95858,14.7 -3.10369,23.5 -1.1451,8.8 -2.25407,17.125 -2.46438,18.5 -0.3795,2.4811 -0.95723,9.1259 -2.13013,24.5 -0.33567,4.4 -1.01588,10.925 -1.51158,14.5 -0.4957,3.575 -1.16536,9.65 -1.48814,13.5 -0.32278,3.85 -0.8,8.8 -1.06048,11 -0.26049,2.2 -0.75164,6.925 -1.09144,10.5 -1.4184,14.9232 -7.43403,50.4627 -9.90204,58.5 -0.67556,2.2 -1.14567,4.3327 -1.04468,4.7394 0.10094,0.4067 -0.93952,4.0067 -2.31221,8 -2.32576,6.7659 -5.1066,21.7014 -4.88943,26.2606 0.0523,1.1 0.59428,4.925 1.20418,8.5 0.60991,3.575 1.28518,7.9105 1.50059,9.6344 0.21543,1.724 2.01183,8.024 3.99202,14 1.9802,5.9761 3.85346,12.4406 4.1628,14.3656 0.78073,4.8583 3.45853,17.3207 5.26432,24.5 1.34659,5.3537 2.87105,14.2936 4.17779,24.5 0.90263,7.0501 1.75257,11.673 3.58514,19.5 1.03017,4.4 2.18438,11.825 2.56488,16.5 0.38051,4.675 0.87886,10.3 1.10744,12.5 0.22859,2.2 0.86616,8.725 1.41684,14.5 0.55066,5.775 1.9619,18.15 3.13606,27.5 1.17415,9.35 2.81357,22.625 3.64316,29.5 0.82958,6.875 1.71365,14.075 1.9646,16 0.25094,1.925 0.73205,7.1 1.06913,11.5 0.33707,4.4 0.81748,9.125 1.06757,10.5 0.25008,1.375 0.70088,4.75 1.00178,7.5 1.21976,11.1477 2.66142,20.2669 3.95296,25.0044 0.75034,2.7524 1.23582,5.855 1.07878,6.8947 -0.15701,1.0397 0.56085,7.5627 1.59527,14.4956 1.03441,6.9329 2.19747,15.5303 2.58455,19.1053 0.38708,3.575 0.89854,7.6998 1.13656,9.1661 2.46031,15.1566 3.1824,36.6105 1.39954,41.5806 -0.60079,1.6748 -1.21887,4.7795 -1.37351,6.8992 -0.15465,2.1198 -0.62846,5.0492 -1.05292,6.5099 -0.5323,1.8318 -0.2393,3.4455 0.94434,5.201 0.94385,1.3999 1.44528,3.3745 1.11429,4.3879 -1.11341,3.4091 -9.27979,9.9545 -18.1627,14.5575 -4.84997,2.5132 -12.49969,6.9608 -16.99934,9.8836 -4.49964,2.9228 -9.38973,5.9238 -10.86684,6.6689 -1.47711,0.7451 -5.63539,3.9291 -9.24063,7.0756 -3.60523,3.1465 -10.49096,8.3741 -15.30162,11.6169 -4.81066,3.2428 -9.20971,6.4254 -9.77567,7.0723 -2.23502,2.5548 -13.35698,10.7248 -18.8898,13.8761 -3.21631,1.8318 -7.6908,5.4839 -9.94332,8.1157 -2.2525,2.6319 -5.34404,5.8738 -6.87005,7.2044 -3.87631,3.3799 -4.49921,7.1493 -1.97577,11.9561 1.83312,3.4919 2.7941,4.142 8.55284,5.7854 6.62701,1.8912 25.36192,2.4629 32.21315,0.983 1.69788,-0.3668 5.5999,-0.8446 8.67116,-1.0619 3.07125,-0.2172 8.85948,-0.8617 12.86273,-1.4322 13.40114,-1.9096 25.67568,-3.0893 42.26524,-4.0622 20.82145,-1.2211 26.38296,-1.8017 33.56201,-3.5037 3.17818,-0.7535 9.89253,-1.8948 14.92075,-2.5364 5.02825,-0.6415 9.60532,-1.5077 10.17128,-1.9247 0.56596,-0.4171 2.83318,-1.0747 5.03828,-1.4614 4.06902,-0.7137 7.70339,-2.5171 11.42601,-5.67 2.57011,-2.1767 12.35037,-5.762 16.46429,-6.0355 1.69788,-0.1129 4.569,0.5492 6.38027,1.4713 1.81126,0.9221 5.23427,1.6765 7.60669,1.6765 4.77401,0 17.99195,-3.5067 18.96093,-5.0304 0.33916,-0.5333 1.66626,-0.9696 2.9491,-0.9696 3.44622,0 7.15965,-4.4718 8.49376,-10.2283 1.55147,-6.6944 -1.43791,-25.1628 -6.36837,-39.3438 -1.92603,-5.5396 -3.81178,-13.3126 -4.19056,-17.2732 l -0.6887,-7.2011 4.26606,-1.6285 c 5.44283,-2.0777 5.54409,-4.297 0.52359,-11.4746 -5.65975,-8.0916 -7.57303,-12.9649 -7.65592,-19.5002 -0.0408,-3.2177 -0.45193,-7.2003 -0.91361,-8.8503 -0.92046,-3.2896 -2.82381,-14.5262 -3.61001,-21.3119 -0.27478,-2.3716 -0.78685,-4.7636 -1.13794,-5.3157 -0.3511,-0.5521 -0.77955,-3.7965 -0.9521,-7.2098 -0.17256,-3.4134 -0.61196,-8.2213 -0.97648,-10.6844 -0.3645,-2.463 -0.85543,-26.0782 -1.09094,-52.4782 -0.23552,-26.4 -0.65748,-49.8 -0.9377,-52 -0.28023,-2.2 -0.74841,-7.825 -1.04041,-12.5 -0.75881,-12.1488 -3.36254,-37.9536 -5.21579,-51.6923 -1.39891,-10.3705 -7.53591,-35.341 -15.43626,-62.8077 -5.7491,-19.9875 -10.71722,-39.572 -11.30428,-44.5618 -0.34182,-2.9053 -0.83835,-5.6234 -1.10339,-6.0401 -0.51738,-0.8136 -2.29573,-13.0527 -3.14738,-21.6612 -0.48405,-4.8929 -0.29009,-5.4872 2.75736,-8.4487 l 3.27805,-3.1856 -2.24461,-6.356 c -1.95188,-5.5271 -2.08059,-6.8378 -0.98701,-10.0513 0.69169,-2.0324 1.38904,-4.5953 1.54971,-5.6953 0.46591,-3.1901 5.38388,-16.541 8.10394,-22 3.61924,-7.2636 9.5085,-22.4356 13.39166,-34.5 1.85881,-5.775 4.18181,-12.3 5.16221,-14.5 0.98041,-2.2 3.30149,-8.05 5.15795,-13 1.85646,-4.95 4.58754,-12.15 6.06907,-16 1.48152,-3.85 3.57238,-10.15 4.64637,-14 4.64025,-16.6344 7.45349,-26.2694 8.7789,-30.0665 0.78071,-2.2366 1.53283,-7.4116 1.67142,-11.5 0.1909,-5.6321 0.72425,-7.9505 2.2008,-9.5667 1.87698,-2.0545 1.88595,-2.4233 0.24346,-10 -0.93796,-4.3267 -1.93149,-11.4668 -2.20785,-15.8668 -0.27636,-4.4 -1.15954,-11.2435 -1.96265,-15.2078 -0.80309,-3.9644 -1.46018,-8.5019 -1.46018,-10.0834 0,-1.5815 -0.29174,-3.159 -0.64832,-3.5055 -0.35659,-0.3465 -0.73299,-2.559 -0.8365,-4.9167 -0.17396,-3.963 -0.97378,-14.6665 -3.72027,-49.7866 -0.58066,-7.425 -1.58349,-15.2229 -2.22851,-17.3286 -1.32409,-4.3226 0.16377,-6.3116 3.44484,-4.6052 2.00564,1.0431 2.54195,4.6159 3.51765,23.4338 0.34222,6.6 0.76079,13.125 0.93014,14.5 0.16938,1.375 0.62756,6.55 1.01823,11.5 0.75039,9.5085 4.48033,41.606 5.22929,45 0.24273,1.1 0.68952,4.475 0.99287,7.5 0.30334,3.025 0.77869,6.85 1.05632,8.5 0.27762,1.65 0.7347,4.35 1.01574,6 2.42879,14.2596 3.88938,23.4074 5.24027,32.8197 0.87101,6.0687 2.74787,16.4669 4.17079,23.1072 3.42389,15.9776 5.13517,25.3121 7.62166,41.5731 3.33403,21.8039 8.9811,51.5132 12.45004,65.5 2.59073,10.4458 3.27469,15.5004 3.48114,25.7262 0.24728,12.2478 0.37202,12.895 3.31863,17.2181 2.53598,3.7206 3.35493,6.5149 4.76945,16.2738 3.10909,21.4498 3.65092,25.6549 5.25462,40.7819 0.87464,8.25 1.7872,16.35 2.02793,18 0.24074,1.65 0.71596,5.25 1.05605,8 0.3401,2.75 0.79357,6.35 1.00771,8 0.21415,1.65 0.71731,5.7 1.11815,9 0.40084,3.3 1.09502,6.9528 1.54262,8.1173 0.4476,1.1645 1.10985,6.3395 1.47168,11.5 0.36184,5.1605 1.32672,15.2327 2.14419,22.3827 0.81749,7.15 1.71641,15.025 1.99764,17.5 0.2812,2.475 0.96345,9.0806 1.51608,14.6791 0.55263,5.5985 1.97868,14.3735 3.16901,19.5 1.19032,5.1265 2.5556,11.7959 3.03397,14.8209 0.47835,3.025 1.84444,11.575 3.03576,19 1.1913,7.425 2.30909,14.4 2.48397,15.5 0.17489,1.1 1.07705,5.15 2.00481,9 1.54041,6.3923 3.48604,14.7904 7.52949,32.5 0.81626,3.575 1.71718,8.525 2.00206,11 0.28489,2.475 0.7116,5.175 0.94826,6 1.9069,6.6478 3.72029,29.9458 3.15232,40.5 -1.27018,23.6031 -1.77897,29.0622 -3.12213,33.5 -1.49624,4.9436 -7.87916,17.5595 -11.58156,22.8911 -1.29518,1.8652 -3.5327,7.0145 -4.97227,11.443 -1.43955,4.4285 -3.22215,9.4275 -3.96132,11.1089 -2.79037,6.3472 -5.69493,14.1638 -6.33819,17.057 -1.23709,5.564 -20.65962,43.9267 -25.86679,51.0912 -1.16278,1.5998 -3.52002,5.6088 -5.23829,8.9088 -1.71827,3.3 -5.58683,9.375 -8.59681,13.5 -8.34992,11.4431 -11.60467,17.3546 -12.7099,23.0845 l -0.6914,3.5845 6.51393,2.7561 c 3.58266,1.5159 10.55005,3.7493 15.48306,4.9632 10.21643,2.514 22.63471,2.5113 37.8512,-0.01 z"
     id="path3911"
     inkscape:connector-curvature="0" />
  <path
     style="fill:#090909;fill-opacity:1"
     d="m 428.84629,982.79236 c 6.00561,-0.62819 14.8553,-1.77717 19.66596,-2.55329 11.265,-1.8174 16.38976,-2.41477 25.05118,-2.92005 7.09425,-0.41387 10.96446,-2.24989 10.96446,-5.20152 0,-0.73817 1.55926,-3.03092 3.46503,-5.09501 1.90577,-2.06408 3.80939,-4.82719 4.23028,-6.14023 0.74399,-2.32105 0.98358,-2.3697 8.62592,-1.75174 5.69173,0.46024 9.59913,1.46388 14.16108,3.63736 3.46522,1.65095 6.8209,3.00173 7.45709,3.00173 0.6362,0 3.38836,2.25 6.11591,5 5.58843,5.6344 5.80658,5.67589 18.7148,3.55962 4.81066,-0.78869 12.68264,-1.70928 17.49331,-2.04576 4.81067,-0.33647 11.06194,-1.04195 13.89174,-1.56773 2.82981,-0.52578 8.15497,-1.16722 11.83372,-1.42543 3.67874,-0.25821 11.55072,-0.8185 17.4933,-1.24509 11.93516,-0.85676 37.66729,-0.82479 48.89603,0.0608 3.97143,0.3132 7.73963,0.25315 8.37375,-0.13346 0.63412,-0.3866 1.98942,-2.50291 3.01177,-4.70291 2.90972,-6.26146 2.41308,-43.15761 -1.03231,-76.69232 -1.32577,-12.90401 -2.02619,-17.60363 -4.26604,-28.62382 -1.3768,-6.77391 -2.50327,-15.11687 -2.50327,-18.53994 0,-3.42307 -0.65552,-8.68081 -1.45672,-11.68386 -0.80119,-3.00306 -1.76298,-9.2851 -2.13733,-13.9601 -0.37434,-4.675 -1.08354,-10.975 -1.57601,-14 -1.50565,-9.2484 -2.14414,-36.9486 -1.08336,-47 1.77984,-16.86461 5.15859,-41.86342 7.36604,-54.5 0.57648,-3.3 1.22286,-7.35 1.43639,-9 0.21353,-1.65 1.33763,-8.4 2.49801,-15 1.1604,-6.6 2.58386,-17.175 3.16329,-23.5 0.57943,-6.325 1.50296,-13.75 2.05231,-16.5 0.54935,-2.75 1.87354,-9.275 2.94266,-14.5 1.06911,-5.225 2.95416,-14.86163 4.18898,-21.41474 1.23485,-6.5531 2.47398,-12.27453 2.75364,-12.71429 0.55796,-0.87733 5.31972,-23.27075 6.13915,-28.87097 1.06347,-7.26799 2.11675,-19 1.70578,-19 -0.77814,0 -4.80466,5.24362 -7.02054,9.14267 -1.19933,2.11035 -2.80195,4.56457 -3.56138,5.45382 -0.75944,0.88925 -1.86192,2.43866 -2.44997,3.44314 -0.58806,1.00448 -3.15296,5.19185 -5.69977,9.30527 -2.54683,4.11342 -5.55183,8.98108 -6.67779,10.81702 -1.12596,1.83595 -2.9782,4.70397 -4.11607,6.37339 -1.13788,1.66942 -4.38417,6.52646 -7.21396,10.79344 -14.93931,22.52655 -32.65024,48.10915 -38.24373,55.24124 -3.48097,4.43849 -10.06345,13.43849 -14.62773,20 l -8.2987,11.93001 7.19675,1.5 c 6.16838,1.28566 7.92885,2.17255 12.32001,6.2066 4.59234,4.21886 5.12409,5.15151 5.13128,9 0.004,2.36137 0.94872,7.8934 2.09845,12.2934 1.14974,4.4 2.80463,10.8125 3.67754,14.25 0.87291,3.4375 1.97556,6.25 2.45036,6.25 1.76043,0 2.12771,5.63662 0.55791,8.56209 -0.86707,1.61585 -1.57934,3.43367 -1.58283,4.0396 -0.003,0.60592 -1.27974,2.42295 -2.83613,4.03784 -1.55639,1.61488 -4.45051,4.7569 -6.43137,6.98227 -1.98085,2.22537 -4.93848,4.3699 -6.57249,4.76564 -1.63402,0.39573 -4.18084,2.08648 -5.6596,3.75723 -3.55999,4.02214 -15.24294,11.38969 -19.2599,12.14574 -1.75669,0.33064 -6.10766,2.26066 -9.66883,4.28895 -7.57493,4.31435 -11.92067,4.72622 -21.09478,1.99925 -3.39575,-1.00937 -11.26775,-2.14985 -17.4933,-2.53439 -13.50489,-0.83418 -21.89621,-3.10096 -26.30913,-7.107 -2.88301,-2.6172 -3.16929,-3.36409 -2.56483,-6.69162 0.37423,-2.06008 1.67406,-4.56437 2.88851,-5.56508 1.81573,-1.49617 1.94853,-1.97539 0.74732,-2.69684 -1.6959,-1.01857 -16.14338,-0.20682 -18.54442,1.04194 -0.92024,0.47862 -3.60628,0.3924 -6.19051,-0.19869 -4.96396,-1.13542 -15.45861,-1.28445 -67.73396,-0.96191 -20.41303,0.12595 -35.13429,0.61649 -36.27289,1.20867 -1.56208,0.81242 -1.90807,2.14562 -1.87154,7.21149 0.0247,3.41815 0.46654,8.01482 0.98198,10.21482 0.51544,2.2 1.35918,5.8 1.87497,8 0.51581,2.2 2.64626,9.625 4.73436,16.5 2.0881,6.875 4.70109,16.94008 5.80663,22.36684 1.10555,5.42676 2.92421,13.34609 4.04146,17.59853 1.11725,4.25243 2.47872,10.61235 3.0255,14.13316 0.54678,3.52081 1.22311,7.41537 1.50295,8.65459 0.77101,3.41418 2.0957,29.32028 2.13472,41.74688 0.0362,11.52756 -0.62815,15.32509 -7.3476,42 -3.38034,13.41928 -5.02412,18.5541 -7.5334,23.53282 -2.00324,3.97464 -2.23946,8.12048 -0.56516,9.9184 4.04601,4.34471 22.85318,6.14074 42.63507,4.07153 z"
     id="path3909"
     inkscape:connector-curvature="0" />
  <path
     style="fill:#fbdbc0;fill-opacity:1"
     d="m 566.97205,773.89045 c 1.35206,-1.03354 5.19703,-3.31909 8.54437,-5.079 3.34733,-1.75991 7.60248,-4.85178 9.45588,-6.87084 l 3.36982,-3.671 -5.15102,-0.30442 c -4.56718,-0.26992 -5.11458,-0.54201 -4.82953,-2.40051 0.23586,-1.53777 1.60728,-2.45902 5.14888,-3.4587 3.16734,-0.89405 5.56508,-2.36942 6.9726,-4.29036 1.17987,-1.61025 3.17507,-3.21951 4.43378,-3.57614 4.16854,-1.18107 7.94815,-2.94719 7.94815,-3.71398 0,-0.41574 0.57882,-0.7659 1.28627,-0.77813 0.70746,-0.0122 2.44392,-0.90222 3.85882,-1.97776 5.16137,-3.92343 9.04716,-1.70112 4.59343,2.62701 -2.12419,2.06428 -2.41826,2.82994 -1.34167,3.49307 2.30489,1.41971 2.96417,1.0269 4.57857,-2.72793 1.91198,-4.447 1.16881,-11.86826 -2.1923,-21.89215 -2.93191,-8.74386 -4.609,-16.49402 -4.60905,-21.29922 -3e-5,-4.7074 -4.50045,-8.48797 -11.86959,-9.97102 -7.12037,-1.43299 -11.55128,-0.56918 -13.5524,2.64207 -2.64895,4.25082 -7.85766,11.58691 -8.61115,12.12817 -0.38284,0.275 -2.02738,2.53229 -3.65455,5.0162 -3.98665,6.08571 -8.29726,11.44608 -13.24867,16.47514 -2.26384,2.29934 -5.63421,5.83154 -7.48971,7.84932 -1.85551,2.01778 -5.1731,4.82593 -7.37244,6.24034 -3.59036,2.30898 -5.05493,2.58244 -14.33865,2.67721 -6.48034,0.0662 -10.50212,0.51647 -10.77455,1.20642 -0.55048,1.39408 3.39968,5.91391 6.05997,6.93391 6.57531,2.52107 19.2026,2.57274 28.93992,0.11842 10.50206,-2.64707 20.67242,-0.8037 16.67367,3.0221 -1.18344,1.13225 -4.24986,1.99215 -8.48253,2.37871 -0.49521,0.0452 -0.64676,1.31973 -0.33677,2.83223 0.61595,3.00524 -1.13429,6.15996 -3.06641,5.52703 -0.66907,-0.21917 -2.61408,0.30383 -4.32223,1.16223 -4.29534,2.15858 -7.10661,1.956 -10.82841,-0.78029 -5.42129,-3.98576 -18.44097,-5.13857 -27.05574,-2.3956 -5.74808,1.83022 -5.45185,3.90541 1.01112,7.08317 5.00925,2.46297 6.78547,2.74806 19.33332,3.10305 10.31181,0.29173 15.25315,0.88809 19.47689,2.35063 7.33947,2.54142 8.49437,2.57378 11.44191,0.32062 z"
     id="path3907"
     inkscape:connector-curvature="0" />
  <path
     style="fill:#fbdbc0;fill-opacity:1"
     d="m 605.10047,748.09625 2.76424,-4.17336 -3.01627,1.02183 c -1.65894,0.562 -3.27427,1.42751 -3.58961,1.92336 -0.31534,0.49584 -1.37407,0.90153 -2.35274,0.90153 -1.54152,0 -9.41834,7.89532 -9.41834,9.44046 0,0.30775 0.92611,0.55954 2.05802,0.55954 1.26915,0 2.06297,0.67082 2.07088,1.75 0.0157,2.13455 7.30906,-5.12046 11.48382,-11.42336 z"
     id="path3905"
     inkscape:connector-curvature="0" />
  <path
     style="fill:#fbdbc0;fill-opacity:1"
     d="m 554.77323,758.17184 c 0.3383,-0.32877 0.38605,-1.17787 0.10608,-1.88688 -0.39325,-0.99585 -1.31349,-1.04919 -4.04518,-0.23445 -1.94487,0.58006 -3.53613,1.42916 -3.53613,1.88688 0,0.9449 6.53332,1.14981 7.47523,0.23445 z"
     id="path3903"
     inkscape:connector-curvature="0" />
  <path
     style="fill:#000000"
     d="m 517.04916,752.04044 c -0.34193,-0.33229 -0.58515,0.25834 -0.54047,1.3125 0.0495,1.16495 0.29321,1.4019 0.6217,0.60417 0.29724,-0.72187 0.2607,-1.58438 -0.0812,-1.91667 z"
     id="path3901"
     inkscape:connector-curvature="0" />
  <path
     style="fill:#090909;fill-opacity:1"
     d="m 348.02938,752.2646 c 12.27256,-0.76904 29.56777,-2.4293 30.37841,-2.91617 0.45129,-0.27105 12.58917,-0.77557 26.97309,-1.12115 14.38392,-0.34559 31.47775,-0.79489 37.98628,-0.99845 33.30674,-1.04168 39.27288,-0.91507 40.29224,0.85506 1.92185,3.3373 3.80843,1.93806 3.6242,-2.68799 -0.19328,-4.85329 0.37728,-4.37757 -15.10393,-12.59343 -10.32686,-5.48045 -14.57652,-8.66019 -18.75471,-14.03286 -1.92472,-2.475 -4.85936,-5.86569 -6.5214,-7.53487 -6.63176,-6.66025 -18.47711,-19.56558 -18.79777,-20.47992 -0.18734,-0.53416 -3.8918,-3.74474 -8.23214,-7.13462 -4.34035,-3.38987 -9.20663,-7.67741 -10.81396,-9.52786 -2.83194,-3.2603 -7.80817,-6.42908 -10.96932,-6.98508 -0.84895,-0.14931 -5.47953,-0.51301 -10.29019,-0.80822 -17.43018,-1.06961 -20.26681,-2.15467 -18.90104,-7.23004 0.39372,-1.46318 -0.0486,-2.17472 -1.59636,-2.56806 -2.70202,-0.68666 -2.71426,-2.71618 -0.077,-12.75408 l 2.06401,-7.85598 -5.27034,-6.76673 c -2.89868,-3.7217 -8.3931,-11.28986 -12.20978,-16.81813 -3.81669,-5.52827 -8.04632,-11.3403 -9.39915,-12.91562 -6.67603,-7.77396 -14.88247,-16.2168 -16.54695,-17.0236 -1.02439,-0.49655 -1.86253,-1.28405 -1.86253,-1.75 0,-2.74838 -2.18481,0.11005 -4.8939,6.40281 -3.92439,9.11568 -16.57503,48.41491 -18.26815,56.75 -0.39102,1.925 -3.65471,12.275 -7.25263,23 -6.58558,19.63086 -6.85898,21.00841 -9.08777,45.79058 -0.21223,2.35982 -1.0892,5.05982 -1.94882,6 -1.9974,2.18458 -3.81242,8.61729 -3.8198,13.53795 -0.005,3.10032 0.72824,4.53571 3.85309,7.54653 2.12235,2.04489 5.0616,4.44997 6.53169,5.3446 5.24141,3.18971 15.93989,7.07157 21.50905,7.80439 5.19476,0.68355 21.80308,0.44865 37.40556,-0.52906 z"
     id="path3899"
     inkscape:connector-curvature="0" />
  <path
     style="fill:#000000"
     d="m 314.44282,698.76784 c -1.23936,-1.71954 -1.23299,-2.80225 0.0452,-7.67925 3.3561,-12.80556 19.30917,-30.13749 27.97958,-30.39793 1.44559,-0.0434 2.02152,-0.31499 1.27985,-0.60349 -2.44074,-0.9494 -10.89309,1.71711 -17.07158,5.38568 -5.80487,3.44674 -6.13351,3.5233 -7.47425,1.74144 -0.77132,-1.02509 -1.25419,-2.332 -1.07307,-2.90424 0.49471,-1.56283 13.85974,-8.25691 20.05891,-10.04681 5.99048,-1.72964 10.35069,-1.32455 17.45592,1.6218 3.42131,1.41872 4.37333,2.33879 4.37333,4.22659 0,2.69829 -2.41851,5.17754 -4.07827,4.18069 -0.59475,-0.35721 -1.35915,0.0541 -1.69869,0.91391 -0.46535,1.17847 -2.14376,1.56338 -6.81715,1.56338 -4.58874,0 -7.16727,0.5746 -9.92284,2.21122 -4.198,2.49332 -10.35157,8.68698 -10.38776,10.45545 -0.0132,0.64166 -0.38789,1.31666 -0.83281,1.5 -2.79997,1.15377 -6.13249,8.58158 -6.96591,15.5262 -0.55167,4.59688 -2.54035,5.5382 -4.87044,2.30536 z"
     id="path3897"
     inkscape:connector-curvature="0" />
  <path
     style="fill:#000000"
     d="m 509.73883,748.26961 c 0,-0.55 -3.85805,-1.98284 -8.57347,-3.18409 -7.19551,-1.83305 -8.47726,-1.94045 -7.97489,-0.66821 0.32923,0.83373 0.59858,2.38031 0.59858,3.43685 0,1.75113 0.70511,1.89862 7.9749,1.66821 4.45717,-0.14127 7.97488,-0.69386 7.97488,-1.25276 z"
     id="path3895"
     inkscape:connector-curvature="0" />
  <path
     style="fill:#090909;fill-opacity:1"
     d="m 510.68369,738.16262 c 0.89523,-0.33384 1.62769,-1.23384 1.62769,-2 0,-0.76615 0.63789,-1.39301 1.41754,-1.39301 0.77963,0 1.94932,-0.6227 2.59929,-1.38378 0.88059,-1.03113 3.07623,-1.26523 8.61539,-0.91857 14.55543,0.91092 15.5874,0.47492 26.16398,-11.05404 8.72589,-9.51162 10.12869,-11.34043 21.58772,-28.14361 17.66633,-25.90536 26.51637,-38.39626 32.50115,-45.87181 4.3502,-5.43381 19.80709,-27.41871 28.53908,-40.59219 4.81066,-7.25758 11.6688,-17.54719 15.24032,-22.8658 3.57151,-5.31861 9.10973,-14.1702 12.30713,-19.6702 3.19742,-5.5 8.79441,-14.24037 12.43778,-19.42304 3.64336,-5.18268 7.70708,-11.03268 9.03048,-13 1.32342,-1.96733 2.77929,-4.02696 3.23527,-4.57696 7.55023,-9.10692 17.9928,-29.9205 19.75802,-39.38066 1.21026,-6.48597 0.73392,-10.10727 -1.33335,-10.13662 -0.6693,-0.009 -2.27554,-1.10231 -3.56938,-2.42848 -1.29386,-1.32616 -3.84068,-2.72492 -5.6596,-3.10835 -1.81894,-0.38343 -3.53867,-1.02051 -3.82165,-1.41573 -0.28298,-0.39521 -5.1451,-2.86286 -10.8047,-5.48365 -5.65959,-2.62079 -11.91088,-5.57695 -13.89174,-6.56923 -36.2193,-18.14358 -41.6619,-21.03271 -51.46961,-27.32193 -4.80037,-3.07825 -9.6325,-6.285 -10.73802,-7.12609 -2.07889,-1.58161 -8.50896,-2.05554 -10.36474,-0.76395 -1.58685,1.10443 -7.68525,8.89721 -7.73069,9.87859 -0.0363,0.78376 -3.91266,5.98627 -16.37546,21.9776 -2.51976,3.23317 -7.84847,9.2535 -11.84157,13.3785 -3.99312,4.125 -8.64585,9.12833 -10.33944,11.11851 -1.69357,1.99018 -10.25661,10.94597 -19.02896,19.90176 -8.77235,8.95579 -17.3389,17.71776 -19.03679,19.47106 -6.19125,6.39331 -19.28391,22.30071 -21.48533,26.10435 -1.805,3.1187 -2.87305,3.91971 -5.30795,3.9808 -4.50162,0.11294 -5.27855,-0.35442 -8.17453,-4.91747 -1.45176,-2.28745 -4.23899,-6.18401 -6.19385,-8.65901 -7.03444,-8.9061 -13.14984,-18.53981 -16.57581,-26.11211 -1.91902,-4.24154 -3.48911,-8.20149 -3.48911,-8.79989 0,-0.5984 -0.3939,-1.088 -0.87533,-1.088 -2.41149,0 -13.81848,-54.03937 -13.11327,-62.12269 0.30024,-3.44154 -1.21595,-6.87731 -3.03495,-6.87731 -0.22674,0 -1.14056,2.4346 -2.0307,5.41023 -0.89014,2.97562 -2.35152,5.6836 -3.2475,6.01772 -4.07412,1.5193 -17.19714,3.52766 -26.57661,4.06731 -9.23786,0.5315 -10.76385,0.90314 -14.92199,3.63408 -2.54749,1.67312 -6.02044,4.89484 -7.71763,7.15939 -4.25443,5.67658 -9.60091,16.26518 -10.40438,20.60563 -0.36709,1.9831 -1.06443,4.09508 -1.54963,4.69328 -1.02243,1.26056 2.73053,9.49309 4.88331,10.71205 0.77678,0.43983 1.41232,1.38348 1.41232,2.09699 0,0.71352 0.92611,2.33501 2.05803,3.60332 1.13193,1.26831 2.05804,2.68717 2.05804,3.15301 0,1.70885 3.29578,0.78733 3.79304,-1.06056 0.51378,-1.9093 3.14783,-3.06208 7.01165,-3.06862 1.38027,-0.002 2.63558,1.22813 3.81172,3.73634 2.45267,5.23043 5.81206,10.77626 10.60441,17.50622 2.25841,3.17152 6.42149,9.31112 9.25129,13.64357 6.00306,9.19073 19.55326,26.41145 23.80597,30.25459 1.62168,1.4655 5.49533,4.49074 8.6081,6.72275 3.11278,2.23202 7.01288,5.08297 8.66686,6.33545 1.65402,1.25249 6.62146,4.75225 11.03879,7.77725 19.2265,13.16634 26.25149,18.60113 33.14887,25.64519 4.03867,4.12456 7.7611,8.36671 8.27206,9.427 1.15878,2.40461 4.9301,2.5004 7.001,0.17781 2.30528,-2.58548 8.69068,-15.07411 16.23366,-31.75 4.06786,-8.99317 4.55541,-9.97097 6.23287,-12.5 0.91202,-1.375 2.27542,-4.075 3.02981,-6 6.4842,-16.54613 22.18213,-41.88784 30.9725,-50 6.62642,-6.11515 13.38129,-11.06443 14.32628,-10.49685 1.51668,0.91092 -0.0371,3.19785 -6.85187,10.08467 -3.30885,3.34386 -7.86833,8.41394 -10.13217,11.26683 -2.26384,2.8529 -4.60132,5.74019 -5.19441,6.41622 -2.90611,3.31255 -12.05869,19.2815 -15.89292,27.72913 -2.37152,5.225 -6.17766,13.325 -8.45809,18 -2.28042,4.675 -5.88763,12.325 -8.01598,17 -5.74142,12.61113 -12.19075,24.27934 -14.45948,26.16029 -2.53587,2.10245 -2.52634,2.18746 0.61542,5.48187 3.52763,3.69903 3.01465,6.76307 -1.19898,7.16158 -2.93169,0.27727 -3.73737,-0.37632 -9.24542,-7.5 -9.68994,-12.53224 -19.94402,-23.27081 -26.1312,-27.36585 -4.06089,-2.68775 -4.45569,-2.98241 -8.74665,-6.528 -1.69788,-1.40296 -5.86541,-4.39053 -9.26116,-6.63905 -3.39576,-2.24853 -8.95359,-6.15432 -12.35071,-8.67954 -3.39714,-2.52521 -8.55635,-6.13548 -11.46493,-8.02281 -2.90858,-1.88733 -6.00581,-4.58733 -6.88275,-6 -0.87694,-1.41267 -3.5897,-4.77307 -6.02839,-7.46756 -4.38964,-4.85009 -11.94389,-14.96982 -19.11078,-25.60093 -2.03928,-3.025 -5.52778,-7.74251 -7.75222,-10.48335 -2.22445,-2.74084 -4.44604,-6.00984 -4.93688,-7.26444 -1.06859,-2.73137 -5.15838,-8.25221 -6.11316,-8.25221 -1.09432,0 -16.48184,10.21485 -23.1521,15.36927 -19.0048,14.68592 -39.59875,33.55555 -42.63094,39.06149 -1.46997,2.6692 -1.39391,2.80763 4.1293,7.51574 15.58646,13.28627 24.819,23.39013 34.58175,37.84543 8.56245,12.67809 10.55957,15.24942 21.41383,27.57065 11.13225,12.63682 28.04978,28.22488 42.73881,39.38017 5.93262,4.50541 19.89404,18.35534 31.47838,31.22702 2.21252,2.45837 5.38542,5.60837 7.0509,7 1.66547,1.39163 4.67534,4.05326 6.68862,5.91474 2.01325,1.86147 6.43881,4.69954 9.83458,6.3068 7.18385,3.40023 12.30123,6.13082 14.13675,7.54326 1.21735,0.93675 12.17339,4.59393 16.73379,5.58581 1.13192,0.24619 2.13593,0.49982 2.23112,0.56362 0.0952,0.0638 0.90557,-0.15714 1.80079,-0.49099 z"
     id="path3893"
     inkscape:connector-curvature="0" />
  <path
     style="fill:#000000"
     d="m 531.43324,698.51961 c -0.25777,-1.2375 -0.74362,-7.425 -1.07965,-13.75 -0.99335,-18.69768 -3.77538,-27.67957 -10.77326,-34.78198 -1.77851,-1.80508 -3.0779,-3.60508 -2.8875,-4 2.63957,-5.47493 3.34646,-6.21802 5.91511,-6.21802 3.16708,0 12.56559,6.22216 18.56794,12.29266 4.29036,4.33908 4.42755,4.62329 3.43947,7.12555 -1.13463,2.87344 -2.70806,2.06451 -7.35439,-3.78103 -2.37803,-2.99182 -11.37525,-9.63718 -13.04784,-9.63718 -0.53217,0 0.21116,1.2375 1.65184,2.75 3.46769,3.64055 5.49287,7.57685 7.33146,14.25 2.99984,10.88784 4.86253,32.17445 3.1868,36.41821 -0.95325,2.41409 -4.40498,1.94813 -4.94998,-0.66821 z"
     id="path3891"
     inkscape:connector-curvature="0" />
  <path
     style="fill:#000000"
     d="m 589.48775,499.69142 c 0,-1.15508 1.93353,-3.83034 4.35295,-6.0228 4.44879,-4.03144 17.20207,-11.89901 19.28821,-11.89901 0.63662,0 2.57908,-0.71441 4.3166,-1.58758 6.16464,-3.09796 29.68357,-8.79656 31.00495,-7.51244 1.40959,1.36983 -0.99667,4.16442 -2.95646,3.43359 -0.80756,-0.30115 -1.46828,-0.0494 -1.46828,0.55944 0,0.60885 -0.68625,1.10699 -1.525,1.10699 -2.99021,0 -29.8113,10.03019 -35.01227,13.09342 -2.91225,1.71523 -7.24779,4.8709 -9.63453,7.01259 -4.84758,4.34988 -8.36617,5.11355 -8.36617,1.8158 z"
     id="path3889"
     inkscape:connector-curvature="0" />
  <path
     style="fill:#000000"
     d="m 389.35564,658.59135 c 0.22957,-0.2231 -2.79365,-3.76176 -6.71825,-7.86369 -3.92464,-4.10193 -7.16258,-7.90805 -7.19547,-8.45805 -0.0329,-0.55 -0.93137,0.79152 -1.99663,2.98114 -2.03268,4.17809 -1.9142,5.51886 0.48767,5.51886 1.72945,0 3.49045,2.98003 2.82641,4.78299 -1.13528,3.08247 0.55196,4.07227 6.40307,3.75629 3.1767,-0.17156 5.96363,-0.49445 6.1932,-0.71754 z"
     id="path3887"
     inkscape:connector-curvature="0" />
  <path
     style="fill:#333333"
     d="m 275.05656,550.58857 c 2.54073,-1.19957 4.88329,-2.84909 5.20571,-3.6656 1.00346,-2.54125 1.96454,-12.30602 2.01512,-20.47411 l 0.0484,-7.82075 -5.65961,-3.03026 c -3.11277,-1.66665 -7.04877,-3.77231 -8.74665,-4.67926 -1.69788,-0.90694 -3.31858,-1.88035 -3.60156,-2.16313 -0.28298,-0.28278 -4.00609,-3.08537 -8.27357,-6.22797 -4.26748,-3.14259 -9.96662,-8.19872 -12.66477,-11.23584 -2.69812,-3.03712 -5.26848,-5.52204 -5.71187,-5.52204 -0.4434,0 -2.15318,2.32206 -3.79952,5.16013 -4.96248,8.55466 -5.96355,10.15071 -9.32209,14.8624 -3.9022,5.4744 -6.53397,11.37091 -6.53397,14.63943 0,5.92467 10.52649,19.49015 20.06585,25.85887 9.54812,6.37455 28.03049,8.52282 36.97853,4.29813 z"
     id="path3885"
     inkscape:connector-curvature="0" />
  <path
     style="fill:#ffffff"
     d="m 328.76762,541.0709 c 12.31098,-11.06107 21.59987,-19.08541 26.97332,-23.30129 2.45355,-1.925 5.46121,-4.32714 6.68367,-5.33809 1.22246,-1.01095 3.49607,-2.57047 5.05245,-3.46561 1.5564,-0.89513 2.82981,-1.90051 2.82981,-2.23418 0,-0.33366 -2.07878,-3.49914 -4.61948,-7.03439 -2.54072,-3.53525 -4.62448,-7.00606 -4.63058,-7.71291 -0.0169,-1.95653 -3.17007,-6.21482 -4.60194,-6.21482 -3.1317,0 -19.10323,10.39009 -23.70717,15.42242 -1.15917,1.26705 -14.11545,10.50345 -17.03752,12.14589 -2.85619,1.60541 -11.75318,9.891 -14.18578,13.21096 l -2.14011,2.92073 3.11805,2.9 c 1.71493,1.595 5.05418,5.37236 7.42055,8.39413 4.50485,5.75256 7.96872,9.08325 9.06905,8.72039 0.35778,-0.11799 4.75683,-3.90394 9.77568,-8.41323 z"
     id="path3883"
     inkscape:connector-curvature="0" />
  <path
     style="fill:#ffffff"
     d="m 484.71771,416.47786 c -2.72542,-0.31368 -7.64515,-1.72636 -10.93275,-3.13929 -3.2876,-1.41293 -6.61441,-2.56896 -7.39294,-2.56896 -0.7785,0 -1.41548,-0.7125 -1.41548,-1.58333 0,-2.56162 -2.36534,-1.04642 -3.34983,2.14583 -0.49824,1.61563 -1.55168,4.5125 -2.34098,6.4375 -0.78929,1.925 -1.92927,5.39773 -2.53328,7.71718 -0.90546,3.47703 -1.7701,4.50446 -4.92646,5.85403 -6.79856,2.90688 -12.5749,5.73271 -12.5749,6.15175 0,0.22469 0.43782,1.20353 0.97293,2.1752 0.53512,0.97167 1.25978,4.65459 1.61037,8.18426 0.35058,3.52967 0.80425,7.54258 1.00816,8.91758 0.20391,1.375 0.68179,5.11344 1.06194,8.30765 0.38016,3.19421 0.80348,6.34421 0.94071,7 1.53361,7.32894 1.96815,8.79002 2.75468,9.26241 0.50181,0.30139 0.91237,1.43561 0.91237,2.5205 0,6.29792 14.03361,36.13738 17.75057,37.74277 0.42446,0.18334 0.77176,0.86659 0.77176,1.51833 0,0.65175 1.73647,3.23046 3.85882,5.73047 2.12235,2.50001 5.01646,6.20119 6.43137,8.22484 1.41489,2.02365 3.10554,3.68244 3.75699,3.6862 0.65145,0.004 3.6331,-2.80567 6.6259,-6.24317 2.99278,-3.4375 5.97456,-6.7 6.62617,-7.25 0.65161,-0.55 3.64679,-3.925 6.65594,-7.5 3.00916,-3.575 8.9998,-9.875 13.31252,-14 16.33796,-15.62678 42.68367,-42.85553 47.03615,-48.6127 1.61637,-2.13801 3.71766,-4.7873 4.66957,-5.8873 0.95188,-1.1 3.87439,-4.475 6.49446,-7.5 2.62005,-3.025 6.19626,-7.975 7.94714,-11 1.75088,-3.025 3.90347,-6.31497 4.78357,-7.31105 1.39392,-1.57759 1.40649,-1.93011 0.0976,-2.73469 -0.82644,-0.508 -3.18238,-0.93053 -5.23544,-0.93895 -5.58637,-0.0229 -6.01567,-0.87461 -10.3406,-20.51531 -1.48887,-6.76132 -3.08161,-10.82001 -3.83074,-9.76171 -0.33999,0.48029 -2.4704,1.75567 -4.73424,2.83417 -5.42714,2.58551 -16.32722,8.63024 -16.9788,9.41573 -0.28298,0.34114 -4.21897,2.31837 -8.74665,4.39386 -5.6298,2.58069 -12.2983,4.55294 -21.09488,6.23891 -7.0745,1.35592 -13.55731,1.44141 -14.40624,1.68013 z"
     id="path3917"
     inkscape:connector-curvature="0" />
  <path
     style="fill:#fbdbc0;fill-opacity:1"
     d="m 496.88473,414.04519 c -3.43305,-2.09243 2.342,-1.87401 19.54274,-5.8007 11.11401,-2.53717 19.00353,-5.93105 31.16119,-13.40475 5.15358,-3.16809 6.83559,-4.73024 6.43006,-5.9719 -2.34182,-7.17032 -3.39344,-32.93856 -1.59321,-39.0386 0.55628,-1.88494 0.77435,-3.65757 0.48457,-3.93917 -0.28977,-0.2816 -4.79668,3.77647 -10.01534,9.01794 -9.28841,9.32899 -16.24146,14.31536 -48.88636,35.0588 -4.93129,3.13347 -9.40484,6.07997 -9.94124,6.54778 -0.53641,0.46782 -2.15712,0.68204 -3.60157,0.47604 -2.57958,-0.36788 -2.62628,-0.26201 -2.62628,5.95222 l 0,6.32676 5.91686,1.36521 c 5.2693,1.2158 8.05047,0.42224 8.05047,2.67008 z"
     id="path3881"
     inkscape:connector-curvature="0" />
  <path
     style="fill:#000000"
     d="m 454.64527,480.72968 c -3.49538,-3.39681 -4.27822,-6.87426 -3.56348,-15.82945 0.84765,-10.62051 2.69102,-14.35244 9.04726,-18.3162 5.00906,-3.12366 5.02563,-3.15169 2.62887,-4.44352 -1.32657,-0.71502 -3.44502,-1.31598 -4.70765,-1.33546 -1.56036,-0.0241 -2.49778,-0.818 -2.92667,-2.4786 -0.7369,-2.85325 0.0951,-4.55684 2.22538,-4.55684 2.58474,0 13.50768,5.81307 14.19537,7.55462 0.36097,0.91416 1.30881,1.40821 2.12075,1.10542 0.80743,-0.3011 4.1607,-0.84712 7.4517,-1.21336 3.291,-0.36624 6.20301,-0.86727 6.47116,-1.1134 0.26813,-0.24612 0.42637,-4.6968 0.35162,-9.89039 -0.12481,-8.67111 0.0246,-9.44289 1.82776,-9.44289 1.44944,0 1.97095,0.72015 1.99147,2.75 0.11839,11.71767 0.72008,17.21586 2.05506,18.77906 1.33872,1.56757 2.8658,1.6879 14.28419,1.1255 l 12.7852,-0.62971 4.04566,4.23757 c 4.35759,4.56433 8.99184,12.54537 8.99184,15.48564 0,0.998 -2.68262,4.39432 -5.96138,7.54737 -4.62533,4.44799 -7.56574,6.30288 -13.11998,8.27641 -10.21726,3.6304 -14.1731,2.90293 -20.94377,-3.85153 -2.85556,-2.84872 -5.47369,-6.42618 -5.81807,-7.9499 -0.86678,-3.83512 -2.58562,-3.4251 -5.60771,1.3377 -7.67164,12.09048 -21.86305,18.64537 -27.82458,12.85196 z"
     id="path3879"
     inkscape:connector-curvature="0" />
  <path
     style="fill:#000000"
     d="m 465.11956,476.19774 c 1.72032,-0.86453 4.52036,-2.77703 6.2223,-4.25 3.14943,-2.72571 11.6129,-13.92349 13.3926,-17.71937 0.75164,-1.60316 1.68053,-1.98998 3.98822,-1.66084 2.45083,0.34956 3.0094,0.91767 3.01408,3.06558 0.012,5.47713 2.3433,10.68246 6.66593,14.8832 3.51617,3.41701 5.09956,4.2533 8.05296,4.2533 2.02193,0 3.9404,-0.41538 4.26327,-0.92306 0.32287,-0.50769 1.93168,-1.21007 3.57511,-1.56085 1.64343,-0.35078 4.22411,-1.66993 5.73482,-2.93144 2.69962,-2.2543 6.66869,-7.44869 6.682,-8.74485 0.004,-0.36311 -1.89175,-2.9943 -4.21219,-5.84709 l -4.21897,-5.18689 -13.65093,0.71052 -13.65094,0.71052 -1.35331,-2.97115 -1.35333,-2.97116 -8.303,1.89533 c -14.37734,3.28191 -15.46335,3.55219 -17.35076,4.31817 -4.99218,2.02603 -8.3485,16.08918 -5.42999,22.75195 1.80889,4.12959 3.25742,4.52735 7.93213,2.17813 z"
     id="path3877"
     inkscape:connector-curvature="0" />
  <path
     style="fill:#000000"
     d="m 526.91266,445.01961 c 0.37726,-1.90854 14.77877,-9.48701 25.01592,-13.16408 3.39576,-1.21972 7.19173,-2.85796 8.43549,-3.64052 1.24375,-0.78256 2.99204,-1.15037 3.88508,-0.81734 2.51545,0.93805 0.26825,2.84486 -6.44415,5.468 -3.23202,1.26305 -11.20159,4.90739 -17.71013,8.09854 -6.50854,3.19115 -12.21496,5.80283 -12.68093,5.80375 -0.46596,9.1e-4 -0.69154,-0.78585 -0.50128,-1.74835 z"
     id="path3875"
     inkscape:connector-curvature="0" />
  <path
     style="fill:#fbdbc0;fill-opacity:1"
     d="m 304.71265,515.01961 c 3.18598,-3.24608 14.14648,-11.70607 19.10962,-14.75 0.89677,-0.55 3.57831,-2.7235 5.95897,-4.83001 2.38065,-2.10651 6.22154,-5.18294 8.5353,-6.83651 2.31376,-1.65358 4.20683,-3.36298 4.20683,-3.79867 0,-0.43569 1.42506,-1.3658 3.16677,-2.0669 3.75208,-1.51033 5.61232,-4.02713 6.99798,-9.46791 3.10573,-12.19455 5.61932,-20.74979 8.45191,-28.76696 l 3.17253,-8.9793 -4.09408,-4.12687 c -2.25175,-2.26978 -4.83853,-5.56611 -5.74842,-7.32518 -0.90988,-1.75907 -3.22667,-4.36377 -5.14843,-5.78823 -1.92177,-1.42446 -4.06529,-3.93001 -4.76341,-5.56788 -1.42623,-3.34613 -2.47746,-2.95901 -6.36235,2.34299 -2.13586,2.91495 -2.14077,3.02512 -0.28398,6.37574 1.67473,3.02211 1.71504,3.57904 0.35463,4.90108 -1.3604,1.32204 -1.77085,1.28944 -3.61198,-0.28693 -1.14245,-0.97815 -2.88794,-2.99443 -3.87888,-4.48061 -2.18537,-3.2776 -17.23869,-14.51461 -22.13938,-16.52664 -3.45775,-1.41961 -28.44352,-16.44146 -34.54261,-20.76757 -1.69788,-1.20431 -6.55999,-3.88826 -10.80469,-5.96432 -4.24471,-2.07606 -8.64375,-4.52971 -9.77567,-5.45254 -2.22991,-1.81801 -5.94663,-3.6227 -9.34652,-4.53829 -1.61315,-0.43443 -2.44047,0.0564 -3.34431,1.9842 -0.6605,1.40878 -1.20093,3.43378 -1.20093,4.50001 0,1.06623 -0.54278,3.9108 -1.20619,6.32128 -1.11614,4.05542 -1.00064,4.72357 1.54689,8.948 1.51419,2.51092 3.6265,4.83471 4.694,5.16397 2.86348,0.8832 12.40916,10.49437 13.10719,13.1971 0.8022,3.1061 -0.18041,5.33695 -2.35073,5.33695 -2.04284,0 -6.52999,3.79267 -6.52999,5.51933 0,2.12212 -3.58419,4.37438 -8.07083,5.07159 -4.85284,0.75412 -7.36444,2.58156 -7.36444,5.35838 0,2.78817 -2.97307,9.0507 -4.29673,9.0507 -0.65013,0 -3.16177,1.12747 -5.58141,2.50549 l -4.39935,2.50548 1.57588,4.49452 c 0.86673,2.47198 1.93921,4.49451 2.38331,4.49451 0.44409,0 1.36739,1.31369 2.05177,2.91931 0.68436,1.60561 2.81652,4.30965 4.73812,6.00896 1.9216,1.69931 3.80087,4.32312 4.17612,5.83069 1.88551,7.57494 18.7443,25.89437 30.73734,33.40045 10.26392,6.42386 17.02155,10.28532 20.58037,11.76006 7.16549,2.96932 14.44838,5.86489 15.01273,5.96883 0.33355,0.0614 2.26272,-1.5758 4.28705,-3.6383 z"
     id="path3873"
     inkscape:connector-curvature="0" />
  <path
     style="fill:#333333"
     d="m 338.40731,407.80187 c 1.4149,-1.81446 3.61583,-4.47649 4.89097,-5.91564 l 2.3184,-2.61662 -3.77789,-0.61994 c -7.38037,-1.2111 -8.17228,-6.26847 -2.08892,-13.34049 3.09525,-3.59828 4.28272,-4.36019 5.67055,-3.63839 0.9655,0.50214 3.05951,0.67073 4.65334,0.37464 2.02774,-0.37669 3.83488,0.13486 6.01835,1.70364 2.60597,1.87235 3.53404,2.05887 5.62897,1.13127 1.37969,-0.6109 5.89546,-1.11073 10.03504,-1.11073 7.47342,0 7.52305,-0.0176 7.03475,-2.5 -0.56518,-2.87318 -0.87032,-2.94304 -4.36793,-1 -1.49636,0.83127 -5.43449,1.44395 -9.41381,1.46456 -6.10604,0.0316 -7.87549,-0.46286 -16.46429,-4.60112 -5.29267,-2.5501 -10.4571,-5.3407 -11.47651,-6.20133 -1.72699,-1.45799 -2.39411,-1.01986 -9.77566,6.42021 -4.35722,4.39175 -8.8709,9.76985 -10.03043,11.95134 -1.15954,2.18149 -2.78024,3.96634 -3.60157,3.96634 -1.66343,0 -2.51839,-4.38699 -1.57036,-8.05779 0.90686,-3.51133 16.96351,-19.48683 21.68641,-21.57683 2.26385,-1.0018 3.53725,-1.83134 2.8298,-1.84342 -0.70745,-0.0121 -4.97551,-3.50946 -9.48458,-7.77196 -10.84661,-10.25349 -18.65836,-16.94631 -29.59618,-25.35697 -4.96421,-3.81724 -9.58512,-7.37977 -10.26867,-7.91673 -1.7835,-1.401 -2.7917,-1.23769 -7.18775,1.16423 -4.48151,2.44861 -12.82492,10.54306 -17.1533,16.64144 -2.23913,3.15477 -3.0626,5.65695 -3.43382,10.434 -0.66379,8.5416 2.11477,13.58714 11.07243,20.10634 3.64435,2.65227 7.32986,5.35227 8.19004,6 10.15156,7.64428 19.40597,12.67769 23.30918,12.67769 5.01677,0 7.61357,4.74186 3.74805,6.84411 -1.41244,0.76815 -0.40847,1.59515 5.40234,4.45003 3.92546,1.92859 10.3786,6.20627 14.34032,9.50594 8.00146,6.66435 7.02156,6.72285 12.86273,-0.76782 z"
     id="path3871"
     inkscape:connector-curvature="0" />
  <path
     style="fill:#333333"
     d="m 248.88272,408.32806 c 0,-1.95294 -11.88593,-10.72801 -14.02682,-10.35564 -1.12617,0.19587 -2.54384,-1.2224 -4.15835,-4.16015 -1.34732,-2.45154 -2.78471,-4.70154 -3.1942,-5 -0.40948,-0.29846 -2.04701,-3.01766 -3.63894,-6.04266 -1.59192,-3.025 -4.48813,-8.2 -6.436,-11.5 -3.46707,-5.87374 -4.49288,-12.25965 -2.40953,-15 0.41814,-0.55 0.87325,-1.45 1.01137,-2 0.99563,-3.96489 1.73249,-5.69654 5.25911,-12.3592 2.85058,-5.38546 3.65371,-7.80061 2.84977,-8.56979 -0.8002,-0.76559 -2.26483,0.21226 -5.13601,3.42899 -2.20912,2.475 -4.03041,4.88053 -4.04729,5.34563 -0.0169,0.4651 -0.967,2.12345 -2.11136,3.68524 -2.92629,3.99368 -4.58672,13.42579 -3.17158,18.01596 0.61089,1.98143 4.01054,7.96718 7.55479,13.30166 3.54425,5.33448 7.81182,11.82585 9.48347,14.42528 3.51847,5.47122 10.17956,11.55266 16.93268,15.45918 5.57184,3.22318 5.23889,3.13894 5.23889,1.3255 z"
     id="path3869"
     inkscape:connector-curvature="0" />
  <path
     style="fill:#fbdbc0;fill-opacity:1"
     d="m 481.95535,388.469 c 3.39575,-1.15644 8.66761,-3.69939 11.71524,-5.651 3.04762,-1.95162 6.25243,-3.99839 7.1218,-4.54839 0.86936,-0.55 2.31185,-1.54734 3.20552,-2.21631 3.80027,-2.84477 9.07426,-6.34298 12.42955,-8.24447 6.54538,-3.70937 18.89859,-12.66949 20.00613,-14.51102 1.00604,-1.67274 2.96216,-3.84592 10.44423,-11.6032 1.55167,-1.60875 3.18004,-2.925 3.6186,-2.925 0.91705,0 9.23141,-10.33821 11.14715,-13.86053 2.77825,-5.10818 5.27657,-16.47705 5.0558,-23.00702 -0.12333,-3.64785 0.32302,-7.61537 0.99189,-8.81671 0.66887,-1.20134 1.21612,-3.84132 1.21612,-5.86663 0,-3.36412 0.20011,-3.62053 2.31529,-2.96677 1.27341,0.39358 5.09363,0.93839 8.4894,1.21069 l 6.17411,0.49508 1.21175,-3.84625 c 2.62118,-8.32 4.84693,-28.15276 3.75494,-33.45877 -0.99073,-4.81387 -7.66971,-4.23668 -9.69327,0.83769 -2.96075,7.42452 -5.80878,11.75028 -9.86058,14.9768 -4.34839,3.46269 -4.55046,3.51471 -10.35914,2.66668 l -5.92424,-0.86489 0.1769,-13.49969 c 0.0974,-7.42482 0.58705,-14.82558 1.08832,-16.44613 1.05114,-3.39821 -0.10492,-13.19427 -2.24857,-19.05355 -1.49907,-4.09744 -3.69819,-17.57737 -4.136,-25.35234 -0.32066,-5.69459 -1.80591,-6.43261 -8.19334,-4.07127 -4.60087,1.70085 -16.36751,4.88614 -40.19626,10.88132 -3.96172,0.99675 -11.37065,2.57099 -16.46429,3.49833 -5.09364,0.92733 -14.81787,2.83287 -21.60938,4.23453 -12.28833,2.53612 -25.25998,3.16771 -37.30789,1.81651 -11.53597,-1.29378 -13.67321,-1.69539 -18.89725,-3.551 -3.02879,-1.07584 -5.57358,-1.95608 -5.65507,-1.95608 -0.0815,0 -0.22441,7.46168 -0.31757,16.58151 -0.16642,16.29003 -0.13236,16.57009 1.93754,15.93165 1.15884,-0.35743 9.33534,-0.71786 18.17,-0.80096 18.44546,-0.1735 16.74922,-0.96018 23.6004,10.94541 3.78566,6.57847 3.81535,6.71996 3.93296,18.73546 0.1224,12.50431 -0.76704,19.00925 -2.9544,21.60693 -0.69469,0.825 -1.53867,2.92404 -1.8755,4.66453 -0.33685,1.74048 -2.88644,8.06237 -5.66574,14.04864 -7.20062,15.50915 -7.11365,15.06058 -3.05971,15.78035 1.86769,0.3316 5.71108,0.72339 8.54088,0.87063 4.46921,0.23256 5.32634,0.63028 6.52489,3.02757 1.62336,3.24701 1.20025,3.8777 -2.64098,3.9367 -4.96375,0.0762 -19.082,-2.3072 -20.51558,-3.46343 -2.34257,-1.88931 -1.53385,-7.02844 2.33779,-14.85613 7.17212,-14.5006 8.59068,-17.55567 10.68366,-23.00886 1.16103,-3.025 2.39966,-8.09841 2.75253,-11.27425 0.59656,-5.36912 0.50476,-5.72658 -1.3084,-5.09477 -1.07248,0.37372 -2.41304,0.9983 -2.979,1.38795 -0.56597,0.38965 -1.7236,0.74215 -2.57254,0.78333 -0.84895,0.0412 -4.57944,0.62898 -8.29,1.30622 -5.91279,1.0792 -7.17319,1.02447 -10.19996,-0.4429 -1.89944,-0.92084 -3.54715,-1.5598 -3.6616,-1.41992 -2.68921,3.287 -5.12886,19.40126 -4.27364,28.22826 0.51938,5.36086 5.34036,20.61873 12.01494,38.02608 2.86494,7.47176 9.25142,29.45262 10.33032,35.55469 1.85733,10.50472 2.86889,12.63119 6.91901,14.54521 5.06891,2.39548 11.69285,3.07036 25.45893,2.59388 8.01232,-0.27732 13.12294,-1.00605 17.49331,-2.49439 z"
     id="path3867"
     inkscape:connector-curvature="0" />
  <path
     style="fill:#000000"
     d="m 447.74049,359.73845 c -2.63719,-1.03013 -2.73131,-1.34493 -1.22151,-4.08642 0.92875,-1.68648 1.76209,-1.8887 5.52405,-1.34046 3.12574,0.45551 5.36418,0.17631 7.60178,-0.94817 4.21101,-2.11619 7.08672,-2.01259 8.36096,0.3012 1.36212,2.47337 -0.70009,4.17412 -7.03163,5.79912 -5.59076,1.43488 -10.02777,1.52699 -13.23365,0.27473 z"
     id="path3865"
     inkscape:connector-curvature="0" />
  <path
     style="fill:#000000"
     d="m 433.30062,346.89361 c -0.79316,-2.00867 3.48065,-5.0894 7.35074,-5.2987 1.77667,-0.0961 8.09243,-0.27768 14.035,-0.40354 5.94259,-0.12586 12.88846,-0.48937 15.43527,-0.8078 14.68324,-1.83587 16.43606,-1.84905 17.11535,-0.12873 1.03689,2.62588 -1.55425,4.1438 -10.42673,6.10808 -10.88273,2.40934 -42.61496,2.79637 -43.50963,0.53069 z"
     id="path3863"
     inkscape:connector-curvature="0" />
  <path
     style="fill:#000000"
     d="m 575.8209,278.06817 c -0.61723,-1.04239 -0.14266,-3.90473 1.41733,-8.54856 0.9796,-2.91615 1.79513,-3.75 3.66756,-3.75 2.76701,0 3.07368,1.63118 0.8791,4.67602 -1.35231,1.87624 -1.35231,2.18683 0,2.69112 3.12076,1.16378 1.491,4.31183 -1.92388,3.71619 -0.48404,-0.0844 -1.4847,0.33414 -2.22368,0.93014 -0.73898,0.59601 -1.55638,0.7243 -1.81643,0.28509 z"
     id="path3861"
     inkscape:connector-curvature="0" />
  <path
     style="fill:#000000"
     d="m 489.47568,268.63746 c -1.75917,-0.63237 -3.57714,-2.6163 -4.98233,-5.4372 l -2.21249,-4.44152 2.56019,-4.24456 c 2.83117,-4.69378 8.70417,-9.65034 13.82166,-11.66487 2.82255,-1.11111 8.9357,-0.92426 13.64867,0.41719 14.1674,4.03243 16.46429,5.8722 16.46429,13.18753 0,3.6358 -0.59005,4.99807 -3.34431,7.72108 -2.93306,2.89979 -4.23008,3.39351 -10.54743,4.01503 -13.10429,1.28923 -22.60104,1.45642 -25.40825,0.44732 z"
     id="path3859"
     inkscape:connector-curvature="0" />
  <path
     style="fill:#ffffff"
     d="m 499.12251,260.6684 c -0.17937,-1.31933 -0.57136,-4.53629 -0.87107,-7.14879 -0.29972,-2.6125 -0.77607,-4.75 -1.05854,-4.75 -1.33826,0 -6.4324,4.24692 -6.92826,5.77598 -0.30748,0.94821 -0.186,3.07402 0.26997,4.72402 0.61421,2.22271 1.60981,3.16203 3.84251,3.62536 4.27975,0.88814 5.11555,0.49597 4.74539,-2.22657 z"
     id="path3857"
     inkscape:connector-curvature="0" />
  <path
     style="fill:#552200"
     d="m 519.77176,261.25809 c 2.22088,-0.55353 2.8298,-1.29416 2.8298,-3.4419 0,-3.40383 -2.77684,-5.93185 -7.89966,-7.19179 -2.16372,-0.53216 -5.41371,-1.33926 -7.22217,-1.79355 -3.14231,-0.78936 -3.30264,-0.68706 -3.61455,2.30638 -0.47888,4.59578 2.1222,9.63238 4.9745,9.63238 1.27667,0 2.60969,0.45358 2.96226,1.00796 0.63035,0.99118 2.36146,0.87835 7.96982,-0.51948 z"
     id="path3855"
     inkscape:connector-curvature="0" />
  <path
     style="fill:#000000"
     d="m 533.60334,258.06902 c -1.21821,-0.30674 -1.75131,-1.21647 -1.54353,-2.63399 0.41799,-2.85151 6.65025,-3.73002 7.69483,-1.08468 0.60887,1.54195 -2.0629,4.63656 -3.71526,4.30326 -0.31631,-0.0638 -1.41252,-0.32686 -2.43604,-0.58459 z"
     id="path3853"
     inkscape:connector-curvature="0" />
  <path
     style="fill:#000000"
     d="m 473.54024,242.01961 c -1.97049,-6.02901 -0.79047,-7.90846 6.67628,-10.6335 10.54402,-3.84812 21.08403,-5.55563 31.58036,-5.11613 18.26667,0.76486 22.55997,1.55446 24.1499,4.44149 0.74504,1.35285 0.50788,2.23465 -0.94452,3.51198 -1.65374,1.45442 -2.29286,1.51485 -4.34021,0.41043 -1.57969,-0.85215 -6.62445,-1.30696 -14.74911,-1.3297 -10.38115,-0.0291 -13.53666,0.35076 -19.80859,2.3843 -4.10321,1.33038 -7.46039,2.79288 -7.46039,3.25 0,0.45712 -0.58709,0.83113 -1.30466,0.83113 -0.71755,0 -3.00828,1.125 -5.09049,2.5 -4.99986,3.30168 -7.57188,3.22785 -8.70857,-0.25 z"
     id="path3851"
     inkscape:connector-curvature="0" />
  <path
     style="fill:#ffffff"
     d="m 234.43287,371.96995 c 0.052,-3.94059 2.40513,-8.7158 4.72028,-9.57916 0.91616,-0.34165 2.96828,-0.62118 4.56028,-0.62118 2.73775,0 2.85343,-0.17705 2.13588,-3.26887 -0.41726,-1.79787 -0.64595,-4.0151 -0.50819,-4.92716 0.14322,-0.94835 -2.96298,-4.68631 -7.25546,-8.73113 -7.0008,-6.59686 -9.7833,-8.35138 -9.7833,-6.16891 0,0.49717 -1.52058,3.53467 -3.3791,6.75 -1.8585,3.21534 -3.91285,7.64607 -4.56523,9.84607 -1.21396,4.09394 -0.74229,9.5 0.82886,9.5 0.48222,0 0.62,0.65025 0.30617,1.445 -0.31381,0.79475 0.78317,3.38225 2.43773,5.75 1.65457,2.36775 4.10877,6.47569 5.45377,9.12877 l 2.44547,4.82376 1.27962,-5.32376 c 0.70379,-2.92808 1.29924,-6.80862 1.32322,-8.62343 z"
     id="path3849"
     inkscape:connector-curvature="0" />
  <path
     style="fill:#000000"
     d="m 255.74069,362.30709 c -3.69809,-6.20343 -5.27837,-7.04695 -4.28543,-2.28748 0.59305,2.84272 4.92144,7.73097 6.85798,7.74503 0.3761,0.003 -0.78154,-2.45316 -2.57255,-5.45755 z"
     id="path3847"
     inkscape:connector-curvature="0" />
  <path
     style="fill:#3d1800;fill-opacity:1"
     d="m 565.46572,341.76961 c 3.75977,-8.77057 7.43349,-14.94884 12.18773,-20.49672 13.58146,-15.84863 16.41909,-19.83868 22.04875,-31.00328 7.11928,-14.11875 9.0194,-19.31415 10.36145,-28.33051 1.48291,-9.96288 1.24915,-18.39197 -0.95156,-34.31074 -2.42455,-17.53791 -3.27068,-21.16475 -7.31577,-31.35875 -1.74597,-4.4 -3.83314,-10.025 -4.63815,-12.5 -2.66499,-8.19343 -4.93998,-10.77946 -10.15098,-11.53887 -5.46808,-0.79686 -6.67157,-1.94301 -7.47812,-7.1219 -0.63435,-4.07311 -3.99164,-10.33923 -5.53962,-10.33923 -0.50829,0 -1.8173,-1.6875 -2.90888,-3.75 -1.69672,-3.20583 -13.51153,-15.25 -14.9596,-15.25 -0.27073,0 -3.40853,-1.96397 -6.97289,-4.36439 -9.26287,-6.23805 -16.18305,-8.42175 -35.29317,-11.13694 -20.92279,-2.97272 -32.15003,-1.26743 -50.28362,7.63753 -28.61365,14.05145 -46.96798,27.91274 -69.98403,52.85231 -6.78825,7.35557 -8.7246,10.53028 -9.24606,15.15927 -0.78668,6.98317 4.76823,23.34358 9.11673,26.85073 2.92699,2.36069 3.66883,-0.61773 3.4866,-13.99851 -0.20178,-14.81789 0.47887,-18.23689 3.54433,-17.80358 1.28818,0.18208 2.38227,1.27609 2.7338,2.73358 1.16905,4.84711 10.47656,7.36372 32.07967,8.67387 6.82971,0.4142 19.92398,-0.97478 29.67421,-3.1477 1.41491,-0.31532 5.81173,-0.99847 9.77073,-1.51811 3.95899,-0.51964 8.58957,-1.34512 10.29018,-1.83441 1.7006,-0.4893 7.72259,-1.88458 13.38218,-3.10064 16.71882,-3.59231 33.54103,-7.80319 39.84876,-9.97481 7.51377,-2.58684 11.14204,-2.56107 14.6283,0.1039 2.53576,1.93838 2.72983,2.55168 2.1359,6.75 -0.67498,4.77121 1.86325,24.52336 3.40653,26.50915 0.47392,0.60981 1.46849,3.6642 2.21017,6.78752 1.36302,5.73992 1.16552,10.94616 -0.97955,25.82123 -1.45287,10.07489 -0.75604,13 3.09687,13 6.55791,0 9.67651,-3.32866 14.28718,-15.24954 1.52152,-3.93384 6.81495,-6.74223 12.71668,-6.74672 4.40831,-0.003 5.02329,0.2774 5.98344,2.73157 1.69613,4.33533 1.22404,19.68443 -0.97696,31.76469 -0.60127,3.3 -1.35525,7.64373 -1.67553,9.65272 -0.76543,4.80137 -3.9857,6.76953 -12.31251,7.52517 l -6.58743,0.5978 -0.64528,7.61215 c -0.86567,10.21181 -3.32401,24.70655 -4.57582,26.97961 -0.55745,1.01223 -2.65415,3.74872 -4.65935,6.08109 -3.93038,4.57171 -4.46705,7.51397 -2.39899,13.15224 0.99593,2.71525 1.32693,2.99679 1.64505,1.39922 0.21903,-1.1 1.07341,-3.575 1.89863,-5.5 z"
     id="path3845"
     inkscape:connector-curvature="0" />
  <path
     style="fill:#333333"
     d="m 252.6119,345.01961 c 2.02457,-8.17177 12.67523,-21.46392 22.18567,-27.68801 l 4.83787,-3.16614 -8.43048,-7.68195 c -9.05727,-8.2531 -20.92782,-17.7139 -22.22579,-17.7139 -2.48879,0 -17.00747,4.18083 -20.45614,5.89059 -9.35929,4.64012 -16.38608,13.60241 -15.10587,19.26677 0.80003,3.5398 7.37002,10.10993 17.3423,17.34264 3.79162,2.75 9.76776,7.56627 13.28033,10.70282 3.51255,3.13655 6.72494,5.72405 7.13862,5.75 0.41369,0.026 1.05876,-1.19032 1.43349,-2.70282 z"
     id="path3843"
     inkscape:connector-curvature="0" />
  <path
     style="fill:#333333"
     d="m 220.80537,291.01961 c 1.49643,-0.9625 4.56753,-2.425 6.82467,-3.25 2.25713,-0.825 4.25448,-1.95 4.43853,-2.5 0.18405,-0.55 -1.16688,-2.0046 -3.00205,-3.23245 -1.83519,-1.22786 -4.99596,-3.72367 -7.02393,-5.54626 -9.95809,-8.94956 -13.21397,-9.69322 -20.29199,-4.63478 -2.37533,1.69758 -4.31879,3.51437 -4.31879,4.0373 0,2.14122 17.32406,16.87619 19.84153,16.87619 0.44619,0 2.03559,-0.7875 3.53203,-1.75 z"
     id="path3841"
     inkscape:connector-curvature="0" />
  <path
     style="fill:#333333"
     d="m 185.08359,278.28985 c 0,-0.81387 0.70989,-3.20392 1.57753,-5.31122 2.78296,-6.75916 17.5118,-15.45666 25.94871,-15.32293 4.59003,0.0728 4.258,-1.62341 -1.35798,-6.93699 -2.58626,-2.44701 -9.41637,-8.96335 -15.17801,-14.48076 -11.84576,-11.34359 -31.42209,-29.60463 -46.07668,-42.98084 l -9.87382,-9.0125 -8.57065,0.26602 c -5.08425,0.1578 -9.22986,0.79061 -10.1912,1.55563 -0.89131,0.70928 -2.85842,1.89026 -4.3714,2.6244 -4.15624,2.01672 -11.13975,9.59617 -12.25284,13.29844 -1.11741,3.71666 -1.01592,3.82695 19.12245,20.78051 13.98629,11.7744 20.92782,18.59634 40.12902,39.43769 7.30921,7.93356 18.33986,17.56231 20.11928,17.56231 0.53657,0 0.97559,-0.66589 0.97559,-1.47976 z"
     id="path3839"
     inkscape:connector-curvature="0" />
  <path
     style="fill:#ffffff"
     d="m 422.7868,267.63563 c 0,-0.62369 -0.53537,-2.87047 -1.1897,-4.99285 -0.944,-3.06191 -1.4753,-3.62854 -2.57254,-2.74358 -1.99258,1.60705 -1.72597,6.57682 0.41793,7.79031 2.37534,1.3445 3.34431,1.32889 3.34431,-0.0539 z"
     id="path3837"
     inkscape:connector-curvature="0" />
  <path
     style="fill:#552200"
     d="m 437.4573,265.91282 c 2.12245,-2.06261 -5.91945,-9.14321 -10.38455,-9.14321 -1.20702,0 -0.68847,4.10517 1.05529,8.35415 1.05333,2.56661 1.5341,2.79695 4.77211,2.28631 1.98042,-0.31232 4.03114,-0.98608 4.55715,-1.49725 z"
     id="path3835"
     inkscape:connector-curvature="0" />
  <path
     style="fill:#fbdbc0;fill-opacity:1"
     d="m 423.71069,250.28687 c 3.74917,-0.61556 5.28637,-0.23223 11.43968,2.85263 3.90969,1.96006 7.36556,3.15958 7.67971,2.66561 0.68643,-1.07936 -2.5768,-8.0355 -3.76958,-8.0355 -0.46114,0 -0.83843,-0.9 -0.83843,-2 0,-1.48829 -0.68601,-2 -2.68127,-2 -1.4747,0 -5.4274,-0.69153 -8.78377,-1.53672 -3.35637,-0.8452 -6.44476,-1.33116 -6.8631,-1.07991 -0.41831,0.25124 -3.75878,0.55909 -7.42326,0.68409 -3.66447,0.12501 -7.24149,0.66606 -7.94895,1.20236 -1.775,1.34555 -1.61568,4.67011 0.25726,5.36855 0.84894,0.31659 1.54352,0.93943 1.54352,1.38409 0,0.44467 1.50494,2.33022 3.34431,4.19011 l 3.34431,3.38163 3.18421,-3.18292 c 2.12262,-2.12176 4.62817,-3.41999 7.51536,-3.89402 z"
     id="path3833"
     inkscape:connector-curvature="0" />
  <path
     style="fill:#333333"
     d="m 150.05997,177.51961 c 0.0535,-1.08492 -0.71818,-0.93897 -4.14745,0.78436 -2.66873,1.34114 -2.90768,1.79866 -1.89747,3.63302 1.13954,2.06922 1.18976,2.05823 3.58183,-0.78436 1.33435,-1.58566 2.44274,-3.22052 2.46309,-3.63302 z"
     id="path3829"
     inkscape:connector-curvature="0" />
</svg>
