<?xml version="1.0" encoding="UTF-8" standalone="no"?>
<!-- Created with Inkscape (http://www.inkscape.org/) -->

<svg
   xmlns:dc="http://purl.org/dc/elements/1.1/"
   xmlns:cc="http://creativecommons.org/ns#"
   xmlns:rdf="http://www.w3.org/1999/02/22-rdf-syntax-ns#"
   xmlns:svg="http://www.w3.org/2000/svg"
   xmlns="http://www.w3.org/2000/svg"
   xmlns:sodipodi="http://sodipodi.sourceforge.net/DTD/sodipodi-0.dtd"
   xmlns:inkscape="http://www.inkscape.org/namespaces/inkscape"
   id="svg2985"
   version="1.1"
   inkscape:version="0.48.3.1 r9886"
   width="1151.6307"
   height="1311.3956"
   sodipodi:docname="livre-simp.svg">
  <metadata
     id="metadata2991">
    <rdf:RDF>
      <cc:Work
         rdf:about="">
        <dc:format>image/svg+xml</dc:format>
        <dc:type
           rdf:resource="http://purl.org/dc/dcmitype/StillImage" />
        <dc:title />
      </cc:Work>
    </rdf:RDF>
  </metadata>
  <defs
     id="defs2989" />
  <sodipodi:namedview
     pagecolor="#ffffff"
     bordercolor="#666666"
     borderopacity="1"
     objecttolerance="10"
     gridtolerance="10"
     guidetolerance="10"
     inkscape:pageopacity="0"
     inkscape:pageshadow="2"
     inkscape:window-width="1364"
     inkscape:window-height="744"
     id="namedview2987"
     showgrid="false"
     inkscape:zoom="0.42296511"
     inkscape:cx="209.15821"
     inkscape:cy="671.80185"
     inkscape:window-x="0"
     inkscape:window-y="22"
     inkscape:window-maximized="1"
     inkscape:current-layer="svg2985"
     fit-margin-top="0"
     fit-margin-left="0"
     fit-margin-right="0"
     fit-margin-bottom="0" />
  <path
     style="fill:#000000"
     d="m 611.90026,1310.4895 c 16.5419,-51.6385 37.45555,-101.8351 61.15625,-150.5938 44.5691,11.7519 100.32863,43.281 106.15625,-28.4996 61.51088,-127.1133 118.1761,-256.58604 186.0313,-380.56252 9.2377,-65.63958 40.11644,-125.83188 64.98974,-187.11311 39.5017,-94.00539 84.6344,-186.49865 121.397,-281.40104 -34.1747,-26.74364 -1.4333,-59.34985 -18.7305,-92.04835 -2.13,-44.45857 -91.5221,-39.63823 -129.6271,-51.04555 C 891.09836,113.11326 778.06709,91.529345 667.41973,59.156545 592.97723,36.289617 517.11162,18.452907 441.44264,0 390.08437,1.941799 390.81364,67.736515 365.19481,100.88992 248.81141,368.0764 117.98548,629.48524 11.087759,900.52068 c -31.06627,50.4242 9.7555,98.8338 41.40625,124.06252 -20.33364,47.4466 -16.49028,107.0833 -21.09375,150.3125 14.48975,-59.0655 56.29152,59.0068 44.17403,-11.7253 22.5271,-41.467 -13.76268,-105.6529 24.38359,-128.7699 95.767981,25.2031 190.982251,52.4936 287.754881,73.714 -42.19229,71.3105 -80.18058,147.5126 -143.375,203.2812 z"
     id="path3423"
     inkscape:connector-curvature="0"
     sodipodi:nodetypes="ccccccccccccccccccc" />
  <path
     style="fill:#000021;fill-opacity:1"
     d="m 607.30568,1307.1457 c 26.98929,-93.8769 82.95059,-177.2684 104.70631,-272.5392 -86.95876,11.2789 -171.86026,-18.6254 -249.7824,-53.87122 -42.7976,81.70342 -85.31896,163.74322 -135.94077,241.07712 -1.64908,29.7243 -87.00263,81.5453 -60.96545,89.0833 113.47069,0 226.94139,0 340.41208,0 l 1.55401,-3.7113 0.0162,-0.039 0,0 z"
     id="path3419"
     inkscape:connector-curvature="0" />
  <path
     style="fill:#800000"
     d="m 68.432229,1170.2122 c 17.86444,-64.4716 -8.40207,-133.347 40.890241,-188.55982 -13.701851,-13.6519 -5.51857,-0.481 -19.977941,-5.4777 -46.32011,23.36461 -40.46328,115.71652 -48.93368,165.98982 -9.73037,10.3271 25.93112,4.3611 28.24146,33.7312 l -0.22008,-5.6835 0,0 z"
     id="path3417"
     inkscape:connector-curvature="0" />
  <path
     style="fill:#ffff9d;fill-opacity:1"
     d="m 758.16318,1165.6457 c 51.00103,-108.5056 102.41348,-216.83212 153.66758,-325.24084 -56.8836,34.18633 -81.64995,85.81118 -104.12076,147.06213 -13.77964,47.38021 -38.141,65.09931 -48.38881,79.42871 -25.21824,15.8635 -32.27975,106.9364 -25.42835,30.0456 14.25904,-32.4836 50.76486,-67.3409 -13.39406,-66.2797 5.5768,47.5013 -83.45922,126.8439 -11.33648,133.1571 63.5331,21.991 21.15417,0.9988 29.28455,-21.0334 8.94309,2.8842 10.84868,53.2239 19.71633,22.8604 z"
     id="path3413"
     inkscape:connector-curvature="0" />
  <path
     style="fill:#ffff9d;fill-opacity:1"
     d="M 398.97745,1089.3329 C 416.34916,1039.6711 496.76004,958.80868 397.12268,963.76389 290.61805,939.90266 183.5535,915.18384 76.998439,893.51946 c -41.80946,18.42935 -91.02037,94.89293 -26.87639,116.09894 15.59073,2.9955 28.56927,-50.39221 5.01091,-42.01481 24.43167,-17.7999 81.545881,24.7357 120.010341,22.9592 68.11612,19.35161 139.20228,36.81961 206.01823,55.26971 -54.93716,-9.3046 -113.98145,-31.5651 -164.40118,-39.6901 -50.56489,-7.16241 -107.56207,-48.90491 -124.846001,21.525 99.563721,25.4184 198.027681,58.3152 299.202451,74.207 l 7.86065,-12.5415 0,0 z"
     id="path3353"
     inkscape:connector-curvature="0" />
  <path
     style="fill:#a02c2c"
     d="m 779.47592,1025.9211 c 14.09371,-40.19112 52.16742,-107.12261 49.03149,-130.30105 -22.09649,8.23516 -66.71199,36.50267 -23.34175,22.82618 -6.53511,15.24689 26.61907,-29.877 2.99298,12.87581 -25.97251,29.07405 -21.79599,118.87506 -75.6217,90.65306 -83.13536,-27.05531 28.04432,28.7353 45.6551,6.6464 l 1.28388,-2.7006 0,2e-4 z"
     id="path3291"
     inkscape:connector-curvature="0" />
  <path
     style="fill:#fed9c6;fill-opacity:1"
     d="m 681.79908,1029.0257 c 31.87442,-65.15891 80.56166,-118.48255 150.90657,-142.66223 71.08991,-24.01781 113.61731,-94.43582 134.07131,-162.42225 5.7611,-36.03922 11.2008,-67.12987 -12.026,-80.93429 20.1873,-26.80647 45.1499,-54.5997 -0.5354,-18.33932 -42.5286,41.14206 -16.4551,120.31162 -84.377,142.07454 -71.87252,39.51342 -15.0251,-62.60666 -8.9119,-93.23693 14.9748,-62.70701 20.0076,-128.14311 45.7511,-187.7762 30.2721,-55.47049 67.8835,-109.3059 84.31,-170.47248 -39.3601,-63.79647 15.58134,57.33873 -37.8395,31.1194 -17.9398,-9.21247 51.50374,6.91429 22.2859,-37.86477 -43.7726,23.36102 -72.1303,93.51224 -108.9851,135.88452 -9.8356,25.81031 -60.77126,153.30878 -47.32656,64.79812 19.70132,-67.20532 24.90862,-139.02375 60.95496,-200.4258 15.4152,-27.99276 36.6614,-109.23353 11.3896,-112.27742 24.5554,28.47558 -8.7693,83.32274 -33.3915,42.92584 56.3311,41.78011 33.7921,-86.65454 4.886,-16.56179 -31.88212,64.50933 -63.65093,129.07844 -85.49905,198.04104 -15.21165,32.05507 -40.3689,102.24663 -53.46157,105.44487 36.2776,-71.52138 61.57536,-147.70488 92.04378,-221.44487 27.40307,-21.12499 30.79054,-84.85274 -4.71879,-44 -32.31142,51.25286 -63.38776,102.7426 -88.52859,158.02238 -11.22813,30.37291 -72.10888,149.77628 -59.68949,54.57328 7.59193,-71.4241 51.42566,-133.54501 83.14899,-197.09566 4.55994,-54.54105 5.47759,-21.48401 -10.36044,9.81221 -61.50321,-14.97571 38.45348,2.9259 3.16736,-41.46249 -42.27596,47.53546 -82.42056,100.83348 -110.95077,158.65028 -42.4604,119.96883 -88.78643,240.95826 -97.79918,369.10081 -9.05113,71.54491 -19.78887,143.99454 -39.08484,213.05939 59.71237,26.61722 124.25982,49.05052 190.57011,43.46982 z"
     id="path3289"
     inkscape:connector-curvature="0" />
  <path
     style="fill:#000000"
     d="m 880.54076,846.9796 c 6.4402,-25.0947 30.7636,-4.08803 0,0 z"
     id="path3287"
     inkscape:connector-curvature="0" />
  <path
     style="fill:#000000"
     d="m 949.48256,743.63782 c -7.6097,-25.97955 35.0586,2.23846 0,0 z"
     id="path3285"
     inkscape:connector-curvature="0" />
  <path
     style="fill:#000000"
     d="m 846.38822,554.54633 c -25.36089,-15.37759 39.00404,1.97839 0,0 z"
     id="path3283"
     inkscape:connector-curvature="0" />
  <path
     style="fill:#000000"
     d="m 774.73703,536.29994 c -47.381,-0.33873 11.50891,-17.20286 0,0 l 0,0 z"
     id="path3281"
     inkscape:connector-curvature="0" />
  <path
     style="fill:#000000"
     d="m 689.76634,524.89568 c -30.57215,-11.87943 44.37478,0.23499 0,0 z"
     id="path3279"
     inkscape:connector-curvature="0" />
  <path
     style="fill:#000000"
     d="m 622.59387,516.92296 c -43.30129,-9.36159 52.60409,-3.50546 0,0 z"
     id="path3277"
     inkscape:connector-curvature="0" />
  <path
     style="fill:#000000"
     d="m 885.97616,441.39568 c -15.4868,-17.41541 41.2536,-0.73415 1.6085,1.4342 l -1.6085,-1.43453 0,3.3e-4 z"
     id="path3275"
     inkscape:connector-curvature="0" />
  <path
     style="fill:#000000"
     d="m 656.87509,368.39568 c -24.11247,-20.26053 42.62312,-0.89864 0,0 z"
     id="path3273"
     inkscape:connector-curvature="0" />
  <path
     style="fill:#000000"
     d="m 818.93872,366.36767 c -46.29476,-11.02719 28.91325,-9.75028 0,0 z"
     id="path3271"
     inkscape:connector-curvature="0" />
  <path
     style="fill:#000000"
     d="m 772.495,356.38275 c -48.80545,-6.2339 40.30383,-8.57149 0,0 z"
     id="path3269"
     inkscape:connector-curvature="0" />
  <path
     style="fill:#000000"
     d="m 701.71073,1027.8957 c 11.92276,-7.8874 -29.49451,2.6373 0,0 z"
     id="path3267"
     inkscape:connector-curvature="0" />
  <path
     style="fill:#000000"
     d="m 761.58363,1018.746 c 13.31282,-14.1184 -14.72682,3.8699 0,0 z"
     id="path3263"
     inkscape:connector-curvature="0" />
  <path
     style="fill:#000000"
     d="m 739.81893,1005.4387 c 5.98906,-51.71052 -15.3722,35.9101 0,0 z"
     id="path3261"
     inkscape:connector-curvature="0" />
  <path
     style="fill:#000000"
     d="m 705.39966,1004.9547 c -4.83778,-5.42682 -1.08836,3.7891 0,0 z"
     id="path3251"
     inkscape:connector-curvature="0" />
  <path
     style="fill:#000000"
     d="m 707.75575,999.39568 c -0.86226,-5.2814 -2.36856,5.24662 0,0 z"
     id="path3249"
     inkscape:connector-curvature="0" />
  <path
     style="fill:#000000"
     d="m 485.91443,980.95468 c -15.00939,-11.1223 -15.84661,2.585 0,0 z"
     id="path3237"
     inkscape:connector-curvature="0" />
  <path
     style="fill:#a02c2c"
     d="m 467.45772,969.47218 c 38.1817,15.896 45.50772,-73.44845 -5.48714,-57.92337 -76.5956,-21.97689 -155.7488,-33.69491 -229.56461,-64.70328 -48.4212,-6.68859 -118.63412,-11.07529 -73.53913,-71.44985 56.86333,-132.71426 111.30913,-266.58391 179.9273,-393.60294 45.91894,-97.80164 94.21409,-195.67855 124.06993,-299.527265 61.79148,2.73587 120.92062,40.135575 183.78735,48.317015 84.4311,18.90239 167.35592,44.69463 252.92984,57.84342 33.8923,36.93218 126.80344,9.0941 138.91184,51.46978 -45.77934,136.06791 -112.97474,263.62565 -161.52984,398.49999 4.7835,40.52374 -56.90602,114.92704 -24.91728,130.47288 47.58548,-13.5946 51.66668,-66.39572 70.31108,-104.97285 26.6636,-74.25248 63.0976,-145.49506 86.78234,-221.5 31.8651,-91.8243 80.5699,-179.77092 100.0315,-274.67588 C 1039.0547,143.43126 962.55216,140.07393 890.96446,118.79324 748.03697,93.313315 610.33846,43.952338 468.87643,12.843738 394.91505,-19.525527 393.11555,88.461325 363.09858,129.70056 255.86233,360.9359 148.56421,592.43393 47.870089,826.3957 c -4.54733,24.67766 -62.01431,128.45578 -8.90741,62.29629 63.275031,-7.93917 127.610761,24.21454 191.023851,32.1191 77.89628,16.05609 154.9201,38.44089 233.48053,50.01119 l 3.99064,-1.3501 2e-5,0 z"
     id="path3231"
     inkscape:connector-curvature="0" />
  <path
     style="fill:#000000"
     d="M 171.15267,894.47026 C 131.24589,878.70889 23.859829,890.79069 67.601209,821.89568 c 19.44467,-36.1042 44.423991,-157.98259 73.662571,-71.29706 10.01693,49.68708 -63.788261,87.95425 -6.68085,95.59352 23.06184,-4.59668 87.09268,49.8681 36.56974,48.27812 z"
     id="path3229"
     inkscape:connector-curvature="0" />
  <path
     style="fill:#000000"
     d="m 120.13395,872.39568 c 0.87566,-5.52193 -5.45576,5.76133 0,0 z"
     id="path3219"
     inkscape:connector-curvature="0" />
  <path
     style="fill:#000000"
     d="m 81.363249,808.46532 c -3.16526,-4.53607 -4.12856,4.39473 0,0 z"
     id="path3199"
     inkscape:connector-curvature="0" />
  <path
     style="fill:#ff0000"
     d="m 118.52591,732.31264 c 11.0202,-32.22771 -25.259131,12.36839 0,0 z m 17.02953,18.96343 c -8.68893,-38.06664 -11.88031,1.63901 0,0 z m -9.79631,0.0331 c -7.48845,-35.87109 -22.73749,18.65768 0,0 z m -2.19455,21.53468 c 9.70379,-36.43112 -72.853851,-20.47465 0,0 z m -12.55889,8.1929 c 18.21257,-26.96822 -43.079551,6.855 0,0 z m 3.59783,11.60895 c 2.83782,-23.68337 -56.940741,-2.25515 -7.41543,3.26878 l 4.46879,0.60303 2.94664,-3.87196 0,1.5e-4 z m -12.60208,11.61604 c -1.40436,-15.18187 -39.446701,4.92916 0,0 z m 22.14765,-3.37458 c 15.4851,-41.39999 10.90438,-52.22893 -4.38903,-6.99146 -8.55881,7.46624 1.52672,29.66776 4.38903,6.99146 z m -11.35954,13.94241 c -7.10774,-27.38936 -10.14455,16.57519 0,0 z m -9.46638,8.20164 c -30.664731,-28.1114 -38.882801,16.42943 0,0 z m -1.25847,10.2022 c -5.493761,-1.62238 -0.9966,1.75005 0,0 z m -31.597151,8.65795 c 55.145801,-9.09661 -20.74624,-28.63342 0,0 z m 4.8158,18.50555 c 57.824771,-25.6135 -26.08115,-20.53119 -5.91709,2.26293 l 5.91709,-2.26293 0,0 z m 47.565661,7.24878 c 24.2032,-21.15755 -25.066271,-18.93918 0,0 z m -8.47694,-4.06882 c -8.08678,-35.91534 -22.516491,26.85613 0,0 z m -19.540401,2.74901 c 44.315631,-50.33902 -44.29017,13.99014 0,0 z m 36.446641,8.12085 c 15.6973,-22.20987 -17.42,1.68057 0,0 z m 14.865,-1.20826 c 3.29812,-29.34448 -18.12549,13.59759 0,0 z m 7.67501,5.64603 c 2.68413,-17.14405 -12.38846,4.06868 0,0 z m 26.78428,4.47758 c -37.25468,-43.0449 -24.5793,15.88144 0,0 z"
     id="path3185"
     inkscape:connector-curvature="0" />
  <path
     style="fill:#000000"
     d="m 846.33991,765.29154 c 3.94921,-2.09906 0.93306,2.25217 0,0 z"
     id="path3183"
     inkscape:connector-curvature="0" />
  <path
     style="fill:#000000"
     d="m 1041.8706,311.56585 c -30.0704,-34.09524 45.2112,-101.9202 -32.9555,-103.06373 -50.07594,16.19045 -79.37164,-90.01298 -12.69754,-48.08563 40.52624,12.02355 132.03554,1.79512 82.81504,66.82711 -12.1597,24.8012 -13.5386,74.30136 -37.162,84.32225 z"
     id="path3181"
     inkscape:connector-curvature="0" />
  <path
     style="fill:#000000"
     d="m 1043.2116,274.16651 c -2.2496,0.93417 2.0992,3.9608 0,0 z"
     id="path3175"
     inkscape:connector-curvature="0" />
  <path
     style="fill:#ff0000"
     d="m 973.37926,182.14539 c 7.9826,-47.88022 -26.5865,-11.91709 0,0 z m 24.5587,10.00029 c 17.46534,-34.82563 -13.7184,-24.62359 0,0 z m -9.8461,-3.12598 c 18.31964,-58.25761 -27.885,12.08941 0,0 z m 32.93384,4.62598 c 14.1922,-46.18646 -19.7508,8.8446 0,0 z m 23.2727,2.05939 c 9.9105,-30.86409 -12.8128,17.64418 0,0 z m -34.3389,2.69061 c 16.3048,-57.96395 -20.35744,2.25284 0,0 l 0,0 z m 22.4233,6.75414 c 19.5115,-59.28896 -24.2703,-2.79725 0,0 l 0,0 z m 34.4743,3.51992 c 53.6563,-31.55574 -17.872,-18.37573 0,0 z m -15.9003,2.71544 c 19.211,-16.80055 27.5975,-44.90069 1.3882,-26.76855 5.3383,9.24231 -25.2175,29.85297 -1.3882,26.76855 z m 17.1047,11.5105 c 42.2471,-33.3087 -44.6628,11.59024 0,0 z m 0.4865,7 c -1.3127,-3.33507 -8.9092,2.95502 0,0 z m -1.2214,13.75 c -0.2106,-24.73946 -23.7013,22.34854 0,0 l 0,0 z m -8.7198,24.66709 c 2.3036,-27.91884 -19.6801,18.19896 0,0 z m -7.7746,22.08291 c 2.382,-33.22462 -16.981,30.80007 0,0 z m -3.2504,11.41667 c -5.0466,-3.34607 -1.2616,5.80659 0,0 z"
     id="path3149"
     inkscape:connector-curvature="0" />
  <path
     style="fill:#000000"
     d="M 406.35104,178.22126 C 353.35288,137.89273 415.93538,89.013495 420.41179,40.60586 445.7772,-4.089386 536.82519,44.656317 567.66481,57.412985 543.66989,119.61371 468.7716,34.686014 453.9893,81.395685 441.29295,112.76246 430.26738,159.83168 406.35104,178.22126 z"
     id="path3147"
     inkscape:connector-curvature="0" />
  <path
     style="fill:#000000"
     d="m 450.99632,74.777655 c -3.46713,-1.72245 -1.64002,4.66627 0,0 z"
     id="path3127"
     inkscape:connector-curvature="0" />
  <path
     style="fill:#ff0000"
     d="m 478.68334,40.125361 c -6.79785,-22.098071 -8.27122,26.767624 0,0 z m -27.49345,10.020324 c -10.35973,-50.806864 -31.20924,0.17848 0,0 z m 17.17559,0.7867 c -4.31285,-59.886129 -37.52464,2.15811 0,0 z m 33.54717,0.87702 c 4.95999,-31.85129 -15.3959,14.0112 0,0 z m -10.51109,-2.25873 c -10.22932,-40.755493 -12.25868,36.30598 0,0 z m -13.46842,10.31363 c -5.77369,-7.71204 -5.0957,5.3742 0,0 z m 48.73724,-7.86784 c -1.11633,-17.654755 -16.87971,26.39749 0,0 z m -15.52656,13.97961 c 25.21893,-54.417584 -28.41999,-3.1191 0,0 z m 22.4067,1.66637 c 28.50454,-52.349188 -35.90705,17.53802 0,0 z m -93.52846,3.69687 c -12.53151,-23.7604 -19.36812,7.84755 0,0 z m 96.33623,3.62463 c 44.2172,-25.99606 1.77493,-22.59463 -4.90353,1.83697 l 4.90353,-1.83697 0,0 z m -115.6712,1.2059 c 3.26543,-4.6285 7.74548,-29.90148 27.72682,-9.10306 -12.5242,-61.391924 -43.52754,8.05337 -27.72682,9.10306 z m 21.9946,8.89926 c -9.53726,-21.92134 -11.90608,17.596565 0,0 z m -12.83748,3.63279 c -19.17938,-12.88136 -8.09581,3.77451 3.02786,4.82949 l -3.02786,-4.82949 z m 7.15993,19.498445 c -5.24565,-32.385595 -56.64603,-20.677585 -11.44815,-4.71948 l 8.15829,7.33576 3.28986,-2.61628 z m -10.94932,4.33218 c -22.05907,-27.242815 -24.53675,5.56113 0,0 z m -3.25191,20.27291 c 25.30455,-29.69003 -63.19959,-16.85752 0,0 l 0,0 z m -15.26975,5.115 c 3.90445,-28.95736 -26.48743,2.00763 0,0 z m 15.88294,3.71632 c -6.94206,-9.24923 -7.19977,17.44751 0,0 z m -12.63161,27.61432 c 16.1286,-34.8919 -48.14876,-40.83808 -5.1817,-2.43428 l 3.48758,3.78499 1.69412,-1.35071 0,0 z"
     id="path3105"
     inkscape:connector-curvature="0" />
  <path
     style="fill:#000000"
     d="m 428.05015,34.705363 c -6.8111,-0.853863 0.0191,4.015278 0,0 z"
     id="path3103"
     inkscape:connector-curvature="0" />
  <path
     style="fill:#c83737"
     d="m 750.50641,965.88388 c 29.66337,-43.03355 -3.93841,-38.49573 -17.72332,-0.2814 4.73152,3.9845 13.91066,7.0304 17.72332,0.2814 z"
     id="path3099"
     inkscape:connector-curvature="0" />
  <path
     style="fill:#000000"
     d="m 813.69669,965.42778 c 4.62541,-14.165 -6.69402,12.52831 0,0 z"
     id="path3095"
     inkscape:connector-curvature="0" />
  <path
     style="fill:#ffff9d;fill-opacity:1"
     d="m 12.537249,958.87138 c -0.44126,-28.86303 87.618281,-87.36385 25.89856,-60.3116 -15.07439,11.95668 -32.1930298,53.2098 -25.89856,60.3116 z"
     id="path3093"
     inkscape:connector-curvature="0" />
  <path
     style="fill:#000000"
     d="m 819.97531,950.64568 c 8.02158,-17.38473 30.26831,-78.56016 6.64095,-23.25 -1.47549,1.5179 -19.32067,50.0701 -6.64095,23.25 z"
     id="path3091"
     inkscape:connector-curvature="0" />
  <path
     style="fill:#ff0000"
     d="m 799.17963,939.74218 c 0.40465,-38.67283 -27.27838,27.6812 0,0 z m -10.54924,8.7814 c -11.70527,-20.12326 -14.4412,13.1543 0,0 z m -30.28364,21.6221 c 6.62186,-21.1566 -9.31118,6.08301 0,0 z m 27.34415,-2.5 c 1.7418,-30.31585 -29.48342,6.1261 0,0 z m -9.45738,8.1731 c -8.64384,-16.206 -9.38542,2.8925 0,0 z m -19.9532,1.9877 c -29.9981,-4.2924 -49.61951,10.377 0,0 z m 19.01138,14.1308 c -18.22662,-49.963 -8.70531,28.64962 0,0 z m -9.48697,13.88272 c 0.39424,-22.83662 -12.2636,-17.34142 0,0 z m -43.71487,-1.2666 c 25.30697,-47.19882 -34.32589,14.9658 0,0 z m 8.37375,3.2682 c 6.01506,-26.56542 -8.37835,6.2338 0,0 z m 24.64785,4.2464 c -1.46362,-38.77092 -17.84996,3.3102 0,0 z"
     id="path3087"
     inkscape:connector-curvature="0" />
  <path
     style="fill:#800000"
     d="m 501.87699,915.53217 c 19.68334,-86.80996 24.09844,-176.18477 40.55064,-263.54098 7.14645,-32.12435 19.26311,-55.06008 29.17539,-97.13135 23.43251,-71.81151 5.38488,-22.81051 22.61168,-71.00201 25.16103,-44.83261 22.82003,-93.28516 55.40157,-131.57605 35.47681,-69.62448 38.25452,-49.41849 61.76935,-89.02955 36.71551,-52.25959 66.43548,-1.68001 18.61372,57.51447 -33.19074,70.13947 -48.91005,92.06191 -49.52199,101.12898 -55.86241,214.10145 61.32835,-50.07435 86.26796,-100.25874 31.17565,-35.83593 45.32625,-94.60881 86.20435,-122.90423 61.066,-10.92833 -61.62652,-21.89103 -81.23347,-33.45781 -96.46282,-21.36876 -192.49607,-44.98936 -285.89084,-76.984435 -50.5489,7.57851 -42.90982,109.014305 -76.70561,150.605215 -45.3194,110.2291 -104.51609,213.63243 -153.63265,322 -35.95719,87.26139 -78.16009,172.31195 -108.24617,261.8627 65.80652,13.50265 129.21697,33.90304 192.80277,55.11828 54.82844,8.5136 107.48775,27.24933 161.8333,37.65552 z"
     id="path3085"
     inkscape:connector-curvature="0"
     sodipodi:nodetypes="ccccccccccccccccc" />
  <path
     style="fill:#000000"
     d="m 847.67015,733.16651 c -2.24935,0.93399 2.09891,3.96083 0,0 z"
     id="path3041"
     inkscape:connector-curvature="0" />
  <path
     style="fill:#000000"
     d="m 906.92696,728.87067 c -4.9792,-12.14837 -12.136,18.33793 0,0 z"
     id="path3039"
     inkscape:connector-curvature="0" />
  <path
     style="fill:#ffff9d;fill-opacity:1"
     d="m 908.60536,714.89568 c 34.3218,-82.733 -12.7543,21.4311 0,0 z"
     id="path3037"
     inkscape:connector-curvature="0" />
  <path
     style="fill:#ffff9d;fill-opacity:1"
     d="m 979.13806,675.55172 c 43.17564,-112.54634 95.18484,-221.38565 141.94404,-332.33212 -50.5058,82.28066 -86.4694,171.31209 -128.05394,258.13712 42.22114,-100.76967 91.10524,-205.22694 146.37484,-301.96104 -1.616,-46.5403 -46.7884,73.07916 -59.8169,90.92964 -25.4079,53.53169 -49.0505,107.98878 -72.1829,162.68213 30.2946,-85.08119 70.4628,-167.55514 110.0301,-248.95504 22.7745,-28.53165 16.1422,-65.42245 11.8158,-94.02336 -3.6383,-83.70452 -36.2401,29.81066 -47.7098,60.31754 -31.9448,85.05147 -69.5124,168.15225 -96.47974,254.96769 35.41404,-62.99157 54.30734,-136.15067 88.14894,-201.17295 11.5629,-22.06776 41.1844,-116.05639 44.7466,-94.74565 -32.675,73.95766 -68.6475,151.69108 -95.8036,224.86383 -4.3872,5.81053 -35.89714,54.17121 -29.32824,61.34905 -15.3112,26.57559 -37.7938,84.52216 -8.0784,25.66139 -6.303,18.79491 -28.3926,79.82915 -19.2753,36.70491 -16.6111,39.12046 -20.979,48.41819 17.2904,20.56646 22.31824,1.9332 -17.8729,79.69716 -3.6219,77.0104 z"
     id="path3035"
     inkscape:connector-curvature="0" />
  <path
     style="fill:#fed9c6;fill-opacity:1"
     d="m 974.41186,649.76976 c 36.81804,-77.71424 -42.4922,6.66122 0,0 z"
     id="path3017"
     inkscape:connector-curvature="0" />
  <path
     style="fill:#800000"
     d="m 884.59886,603.12801 c 47.1405,-121.93651 108.133,-238.41566 148.34954,-363.02334 -16.3111,-26.7022 -94.53274,-26.53498 -122.34134,-30.45899 3.0593,40.59951 -5.4894,39.53505 -14.1942,77.17711 -9.7696,19.83225 -39.8808,106.90006 -54.14861,152.84969 -12.26322,34.50267 -35.61303,141.15509 -3.7163,54.7232 20.60671,-73.01215 81.58651,-122.94315 115.63411,-188.92995 72.81534,-50.49984 32.4904,72.47861 3.3877,97.87728 -26.3825,56.43117 -59.888,109.22903 -73.5615,170.55267 0.5831,1.88437 -7.8463,47.43221 0.5906,29.23233 z"
     id="path3015"
     inkscape:connector-curvature="0"
     sodipodi:nodetypes="cccccccccc" />
  <path
     style="fill:#800000"
     d="m 575.70384,454.19649 c 39.79114,-40.74502 -73.33004,-12.54215 -10.65413,1.16419 l 10.65413,-1.16419 z"
     id="path3011"
     inkscape:connector-curvature="0" />
  <path
     style="fill:#000000"
     d="m 699.26285,386.9692 c -3.71513,-23.62905 -5.09263,27.62501 0,0 z"
     id="path3009"
     inkscape:connector-curvature="0" />
  <path
     style="fill:#000000"
     d="m 734.23176,384.14568 c -6.57146,0.81905 1.23961,-2.16374 0,0 z"
     id="path3007"
     inkscape:connector-curvature="0" />
  <path
     style="fill:#000000"
     d="m 640.39101,366.95599 c 14.46001,-27.94951 -19.20815,24.68969 0,0 z"
     id="path3005"
     inkscape:connector-curvature="0" />
  <path
     style="fill:#fed9c6;fill-opacity:1"
     d="m 851.04428,235.64568 c 23.37668,-59.37549 -67.21592,21.81309 -5.24108,10.03823 l 5.24108,-10.03823 0,0 z"
     id="path2999"
     inkscape:connector-curvature="0" />
  <path
     style="fill:#fed9c6;fill-opacity:1"
     d="m 862.69146,210.09211 c -6.0728,-19.32787 -32.14335,8.96403 0,0 z"
     id="path2995"
     inkscape:connector-curvature="0" />
  <path
     id="path5716"
     style="fill:#000000;fill-opacity:1"
     d="m 627.17851,384.86747 c 0.46774,-2.11489 1.10327,-4.17417 1.92399,-6.17803 0.32323,-1.46105 0.8353,-2.87077 1.39154,-4.26338 0.0426,-0.12428 1.16513,-2.73562 0.59184,-1.3184 -0.008,0.0295 -0.0346,0.11758 -0.0246,0.0886 1.48367,-4.29315 2.69644,-8.64306 3.8208,-13.04237 0.42476,-1.76667 0.8903,-3.52574 1.24946,-5.30763 1.26938,-0.71616 2.45515,-1.60661 3.80815,-2.14848 0.37766,-0.15125 0.80811,0.0948 1.21267,0.13766 1.5333,0.16245 3.07018,0.28678 4.60733,0.40587 0.54794,0.0414 1.09606,0.0805 1.64454,0.11422 1.68456,0.14628 1.17999,5.95682 -0.50456,5.81054 l 0,0 c -0.55104,-0.0616 -1.10244,-0.11991 -1.65401,-0.17646 -1.54759,-0.15682 -3.09561,-0.30862 -4.64581,-0.43755 -0.38136,-0.0317 -1.31822,0.25078 -1.14447,-0.0902 0.49437,-0.97015 1.56519,-1.51412 2.34778,-2.27118 -0.48413,1.80476 -0.98403,3.60527 -1.47574,5.40797 -1.17495,4.27275 -2.38535,8.54685 -3.55482,12.815 -0.25296,0.76501 -0.56686,1.47807 -0.92647,2.20109 -0.59765,1.42115 -0.98705,2.87583 -1.41352,4.35031 -0.76544,1.70165 -1.31128,3.46573 -1.65047,5.30327 -0.40614,1.62456 -6.00973,0.22367 -5.60359,-1.40089 z m 35.12814,-76.0604 c 0.69549,-2.00634 1.70215,-3.87467 2.77285,-5.70051 0.36258,-1.28484 1.22133,-2.39603 2.07091,-3.40345 -0.0239,0.0162 -0.0432,0.0448 -0.0718,0.0486 -0.0738,0.01 0.22755,-0.55353 0.44837,-1.09931 0.23921,-0.59124 0.31145,-0.90235 0.49376,-1.52763 0.39112,-1.91481 1.19436,-3.70518 1.75063,-5.57118 0.25276,-1.50919 0.74297,-2.94866 1.20046,-4.40346 0.6673,-3.02845 -0.49176,-1.5026 5.93765,-1.40272 0.6242,1.12386 0.44005,2.48994 0.83627,3.66039 0.31697,1.01584 0.62548,2.00218 0.80221,3.05078 -0.007,1.27761 0.14561,2.49295 0.42187,3.73398 0.12061,0.80332 0.29918,1.52357 0.69228,2.2309 0.0209,0.0523 0.0654,0.0918 0.098,0.13774 0.94452,1.40553 -3.90359,4.66348 -4.84811,3.25795 l 0,0 c -0.15717,-0.24548 -0.30899,-0.49423 -0.438,-0.7561 -0.56601,-1.1586 -0.9698,-2.36875 -1.16333,-3.64609 -0.29607,-1.40255 -0.52956,-2.80316 -0.52588,-4.24089 0.11538,0.1615 -0.0892,-0.38711 -0.14629,-0.57719 -0.10329,-0.34363 -0.22596,-0.75906 -0.32151,-1.09917 -0.0677,-0.24085 -0.13248,-0.48249 -0.19872,-0.72373 -0.21609,-0.99502 -0.2576,-2.03562 -0.65725,-2.98041 5.76097,-0.57382 5.94355,-2.39024 5.03038,1.15023 -0.47313,1.41136 -0.95717,2.79828 -1.20442,4.27441 -0.5641,1.84752 -1.3286,3.63319 -1.74099,5.52422 -0.48558,1.65015 -0.98946,3.3692 -2.00812,4.77671 -0.70386,0.7608 -1.14876,1.59474 -1.49853,2.58256 -0.85269,1.36216 -1.64684,2.76619 -2.17041,4.29258 -0.46074,1.61258 -6.02302,0.0234 -5.56228,-1.58921 z m 222.40951,-2.20721 c 4.5225,1.2278 9.0376,4.60956 12.3748,3.21842 1.7657,-0.73604 4.1857,-1.3125 5.375,-1.3125 3.6885,0 8.0457,-6.02668 9.4063,-12.9375 1.9427,-9.86975 -1.2025,-20.9467 -4.7188,-23.40625 0,0 -1.0313,-1.57423 -1.8125,-2.96875 -2.2116,-2.5947 -4.0173,-3.65991 -5.7499,-4.81245 l -2.5311,8.78143 c 1.0787,-0.0283 3.8547,3.51154 5.3123,5.87477 2.4841,4.02861 3.0765,9.77667 1.7187,16.78125 -0.7429,3.8328 -1.5965,5.22366 -4.0937,6.75 -3.8797,2.37113 -7.4334,2.42618 -10.375,0.15625 l -2.7187,-1.2813 z M 751.96632,276.44334 c 4.2547,1.23384 15.9635,1.60518 21.0624,0.12494 6.245,-1.81293 13.285,-8.64532 17.75,-17.21875 3.1354,-6.02064 3.3116,-6.87138 3.2188,-16.34375 -0.081,-8.21824 -0.4998,-10.86495 -2.375,-14.8125 -5.569,-11.72154 -23.9629,-24.06475 -33.2813,-22.3125 -6.3107,1.18666 -10.2314,6.625 -4.7813,6.625 3.0773,0 7.115,2.43966 7.125,4.3125 0.01,2.04028 -5.7137,16.43244 -7.375,18.5625 -0.5895,0.75626 -0.9228,2.72138 -0.75,4.375 l 3.4997,12.75 c 2.4829,0 3.6623,-2.69048 4.25,-9.65625 0.5245,-6.2133 5.6117,-24.72262 7.3126,-26.625 0.047,-0.0533 0.1002,-0.0839 0.1874,-0.0937 l 0,-5e-5 c 0.611,-0.0691 2.1364,0.88785 3.6563,2.34375 1.7371,1.66389 3.627,3.03125 4.1875,3.03125 1.8149,0 8.0788,10.95094 9.5938,16.78125 1.6657,6.41181 1.1674,11.09686 -1.875,18.0625 -2.9849,6.83324 -10.0842,9.98511 -14.8121,12.74997 -6.1558,3.59992 -11.041,4.35519 -15.7187,1.68747 z m -16.2498,34.03139 c 3.2876,0 6.8975,1.54689 7.7235,-2e-4 1.2841,-2.40489 -1.4207,-4.74465 -4.4686,-5.90616 z m -8.7812,13.56238 c 4.312,1.15363 12.6358,1.01825 13.4684,-1.15633 0.873,-2.28036 -4.8659,-4.47669 -9.1246,-4.62492 z m -6.2809,11.46878 c 4.748,-0.11494 13.7454,-0.97677 12.2493,-3.65636 -0.7615,-1.36386 -6.5602,-2.3485 -10.187,-2.12494 z m 46.249,-14.3129 c -0.241,4.97407 5.8723,-11.42118 2.1868,-10.93554 -4.3786,0.57697 -8.2661,16.27655 -8.3432,12.71679 -0.077,-3.54684 -1.5333,-10.54271 -2.0624,-11.93721 -2.201,-5.80267 -8.9619,-1.05271 -11.5,8.09375 -2.0198,7.27979 -4.3199,13.48008 -5.625,15.0625 -1.4229,1.72625 -0.1157,3.3125 2.75,3.3125 1.7875,0 2.7138,-0.75181 3.4063,-2.75 0.5242,-1.5125 1.6349,-4.03668 2.4687,-5.59375 0.8343,-1.55707 1.5313,-3.66453 1.5313,-4.6875 0,-1.02297 0.4967,-2.17329 1.125,-2.5625 0.7941,-0.49192 0.9926,0.1349 0.625,2.0625 -0.6639,3.481 1.7589,12.70758 3.6249,13.78096 z M 560.74224,427.28496 c -3.99841,0.0693 -7.83271,0.31589 -9.96871,0.75 -8.7762,1.78362 -11.9059,4.49919 -10.2188,8.90625 0.3098,0.80862 0.1713,1.71973 -0.2812,2 -0.4525,0.28027 -1.102,2.8814 -1.4688,5.78125 -0.3667,2.89984 -1.2685,7.30625 -2,9.78125 -2.1738,7.35754 -3.9066,15.26623 -4.1562,19 -0.1288,1.925 -0.8325,5.45455 -1.5626,7.84375 -1.2148,3.97598 -1.1856,4.46041 0.5313,5.71875 1.6073,1.17802 2.2672,1.12754 4.5937,-0.25 1.8021,-1.06697 2.5601,-2.21783 2.25,-3.40625 -0.2568,-0.98489 0.4224,-4.1675 1.5,-7.09375 1.0779,-2.92625 2.2523,-7 2.625,-9.0625 0.7576,-4.19097 1.3897,-4.40628 9.2813,-2.8125 2.6331,0.53185 7.7151,1.09435 11.28131,1.25 6.4724,0.28251 6.4759,0.31961 8.4687,4.3125 1.0978,2.2 2.301,4.225 2.6563,4.5 1.5138,1.1715 5.7316,10.28352 6.9374,15 1.1222,4.38816 2.9323,6.11963 5.6876,6.03125 1.804,-0.0579 3.4374,-4.1875 3.4374,-4.1875 l -2.625,-6.1875 c -1.4411,-3.15799 -2.625,-5.98585 -2.625,-6.28125 0,-0.29539 -1.0883,-1.96795 -2.4062,-3.71875 -2.9162,-3.87429 -5.969,-11.04422 -4.875,-11.4375 0.4377,-0.15719 2.8932,-1.59806 5.4688,-3.21875 5.344,-3.36279 6.7712,-6.7795 6.7812,-16.1875 0.01,-5.59315 -0.04,-5.73645 -5.1875,-10.25 -2.8714,-2.51765 -5.9213,-4.5625 -6.7813,-4.5625 -0.8598,0 -2.1086,-0.5446 -2.75,-1.1875 -0.7737,-0.77556 -7.9297,-1.14681 -14.5937,-1.03125 z m 2.75,6.40625 c 8.2163,-0.18796 12.2116,1.17318 16.375,5.125 3.0558,2.90071 3.2256,3.42324 2.9063,8.90625 -0.3959,6.79661 -2.2626,8.74363 -9.6563,10.0625 -8.1906,1.46095 -13.3859,1.54161 -20.46871,0.3125 -8.9087,-1.54604 -9.5229,-1.95107 -8.875,-5.90625 1.353,-8.25983 3.8948,-16.69028 5.1874,-17.1875 0.7855,-0.30206 5.6108,-0.8004 10.71881,-1.125 1.3588,-0.0863 2.6386,-0.16065 3.8125,-0.1875 z m 132.84868,24.31457 -4.7187,1 c -4.4991,0.95376 -4.99,1.41613 -10.75,10 -3.3217,4.95 -7.1769,10.50617 -8.5313,12.375 -3.0619,4.2239 -3.0385,4.93093 -0.031,5.6875 2.654,0.66764 6.5626,-0.99139 6.5626,-2.78125 0,-1.57307 10.6858,-15.18736 11.7184,-15.18736 z m -9.6557,-54.28116 c 5.5286,-0.0148 10.156,2.59637 10.156,7.40616 0,3.49397 0.4731,4.63754 2.5,5.96875 2.0124,1.32168 2.7692,1.37287 3.9687,0.375 1.1913,-0.99097 1.4118,-3.0434 1.0313,-10.34375 -0.2617,-5.02099 -0.7081,-15.32393 -1,-22.875 l -1.1562,-14.03122 z M 903.90406,249.34959 c 2.401,-0.41736 10.3928,-0.65961 10.7182,-1.90631 0.6239,-2.393 -5.2021,-3.5197 -9.9372,-4.375 z m -49.6568,-41.56256 c 0.9526,-0.017 1.8996,0.019 2.8124,0.15625 4.6659,0.70128 5.8592,2.94683 3.0626,5.75 -0.7351,0.73661 -1.5247,1.86288 -1.75,2.5 -0.2583,0.72904 -1.457,0.24572 -3.2188,-1.28125 -1.5403,-1.33513 -4.2464,-2.50705 -6,-2.59375 -4.4095,-0.21798 -4.89,-0.15288 -7.1562,0.71875 -1.5231,0.5858 -1.4041,0.31994 0.5,-1.15625 3.2752,-2.5398 7.6219,-4.02003 11.75,-4.09375 z m -115.49974,26.1875 c 2.8123,-6.22885 1.8117,-15.50036 0.3437,-20.5 -3.8071,-12.96592 -17.0735,-19.31054 -31.5625,-15.09375 -4.2038,1.22345 -12.1408,7.00835 -12.2188,8.90625 -0.044,1.08153 -5.6423,9.21875 -6.3437,9.21875 -2.9351,0 -6.7805,25.83554 -4.0937,27.5 0.5486,0.33992 0.9687,1.39108 0.9687,2.34375 0,2.34905 6.9811,8.59909 13,11.65625 8.1396,4.1343 16.5417,2.69417 15.7813,-2.6875 -0.2936,-2.07429 -0.9172,-2.34468 -5.6876,-2.5625 -6.4535,-0.29469 -11.1228,-2.9382 -15.1874,-8.5625 -4.3682,-6.04403 -3.6784,-14.29231 2.1562,-25.6875 5.5549,-10.84896 10.8831,-15.15378 19.1875,-15.4375 6.2343,-0.213 9.3302,1.59501 13.8125,8.125 2.5424,3.70402 3.2337,5.86203 3.625,11.34375 0.4428,6.2036 0.2044,7.20713 -2.6562,12.21875 -2.9948,5.24649 -4.522,9.76011 -2.125,9.25 0,0 8.958,-5.50849 11,-10.03125 z m 244.01314,298.07781 c -3.2057,-2.24387 -0.8418,5.71592 0,0 z m 59.85964,-121.72097 c 9.0671,-24.14416 42.9696,-96.90767 46.4644,-88.27254 -18.3121,27.86609 -29.6484,59.62584 -46.4644,88.27254 z m -2.993,6.00567 c 1.5166,-8.06698 2.1502,5.87157 0,0 z m -1.9953,2.83333 c 1.6465,-3.293 1.9466,3.76286 0,0 z m -2.3028,5.07055 c 3.9385,-9.81828 2.1846,5.21157 0,0 z m -2.6855,6.48847 c 1.8566,-4.30779 3.0175,2.32437 0,0 z m -1.9953,6.5 c 1.655,-5.81605 1.9977,3.27783 0,0 z M 982.40096,589.9036 c 6.7626,-43.94808 29.07064,-84.94841 44.98894,-126.51248 26.1396,-57.24023 53.0945,-114.5041 82.7876,-169.81599 -10.9053,41.72553 -39.7352,77.68434 -55.6696,118.11627 -28.1708,57.64919 -52.5699,117.17303 -72.10694,178.2122 z m -13.5759,2.95215 c 4.9442,-18.10135 32.24484,-69.57268 12.3021,-22.28404 -4.0697,6.7812 -5.5495,17.61387 -12.3021,22.28404 z M 1043.2231,272.4412 c -2.2712,1.28315 2.2137,4.11506 0,0 z m -93.72904,469.47131 c -4.6631,-24.75381 29.2987,1.58795 0,0 z m -40.8772,-28.74213 c 10.3191,-21.76389 13.6029,-39.61 0.727,-5 -2.5469,2.00329 -6.6307,21.03954 -0.727,5 z m -88.63003,235.75 c 10.2648,-22.22452 26.89653,-72.03172 6.0282,-21.48668 -1.4852,2.00762 -18.3044,45.91459 -6.0282,21.48668 z m -6.2787,14.78211 c 4.2866,-12.42701 -6.9709,11.0669 0,0 z m -11.524,18.40889 c -3.0172,-3.5979 -1.5247,5.32031 0,0 z m -94.4169,15.559 c -0.4601,-5.5524 -2.8116,5.43452 0,0 z m -2.3561,5.55902 c -2.2767,-6.29462 -3.785,4.206 0,0 z m 34.4193,0.484 c 4.7429,-45.22862 -10.4113,29.5721 0,0 z m 21.7647,13.3073 c 15.4947,-13.9033 -15.7954,2.8379 0,0 z m 23.266,8.4568 c 9.6452,-20.5232 21.5699,-57.67392 4.7057,-17.0166 -0.052,1.0878 -15.0746,27.7269 -4.7057,17.0166 z m -83.1389,0.6929 c 10.6109,-8.1074 -32.1783,3.4245 0,0 z M 880.55226,845.25429 c 6.9765,-26.86093 31.0975,-0.95853 0,0 z m -21.5015,87.43892 c 5.7298,-22.28677 49.4654,-97.69185 20.9216,-37.19141 -6.996,12.15674 -10.3261,27.63344 -20.9216,37.19141 z m -4.4113,-30.27791 c -5.6314,5.05372 -0.01,7.8044 0,0 z m -27.28333,77.50508 c 9.8127,-20.8794 50.14623,-108.32465 18.65153,-46.3214 -7.09883,18.9614 -35.99273,68.39562 -14.29313,20.9913 11.342,-25.51247 25.41913,-49.37935 11.8588,-34.85228 3.49843,-16.71385 23.11823,-57.10844 12.98353,-19.96208 44.9254,-49.14158 -20.73363,60.60216 -28.78103,82.76056 z m -4.2211,9.1411 c 1.7018,-11.43599 5.1502,-0.718 0,0 z m -9.5546,7.8589 c 9.6996,-26.5888 7.8,-7.6141 0,0 z m 4.1932,4.45392 c 2.8501,-15.92422 7.9833,-7.40842 0,0 z m -3.6175,5.7961 c 1.6464,-3.2931 1.9467,3.763 0,0 z m -1.425,4.25 c 2.5655,-6.5167 2.9173,3.1262 0,0 z m -6.909,0.9847 c 8.5142,-21.59802 -6.0482,5.4716 0.1842,0.7626 z m 5.341,2.3243 c 1.5737,-5.6892 2.6876,3.6211 0,0 z m -4.8119,7.7669 c 4.4024,-11.386 0.2331,9.1745 0,0 z m -12.5091,26.1741 c 16.3032,-36.5769 14.5395,-14.0973 0,0 z m -48.5246,4.5 c -46.6063,-4.7903 11.6547,-5.6263 0,0 z m -14.8625,9.944 c -29.9874,-11.7384 31.0408,7.8048 0,0 z m -13.072,6.056 c 21.4036,-3.5755 30.2611,3.6905 0,0 z m 8.4801,10.4997 c -31.6315,-6.902 18.0757,-0.9277 0,0 z m 1.4965,7.5003 c -21.4708,-1.7493 -0.095,-7.4739 2.2741,-0.4113 z m -8.4801,8 c -30.6111,-4.3944 14.7137,-2.2567 0,0 z m 46.2905,4.25 c 9.7875,-18.9648 34.9226,-81.8378 38.5467,-77.7831 -13.2993,23.4847 -26.057,60.8294 -38.5467,77.7831 z m -9.8759,1.2768 c 6.044,-21.1571 31.3695,-58.8831 10.3297,-17.1872 -2.6752,6.0721 -4.8764,12.9032 -10.3297,17.1872 z m -33.9204,6.4732 c -25.5056,0 -7.5614,-7.1199 5.6365,0.075 z m -12.3846,6.9031 c -28.5578,-9.5263 32.9179,5.1675 0,0 z m 54.2863,4.2969 c 6.5379,-23.2504 46.0949,-97.81 17.6873,-36.1755 -5.8939,10.3143 -10.9719,32.2627 -17.6873,36.1755 z m -25.0341,3.5441 c 4.7046,-14.3974 39.7508,-86.019 19.8605,-36.3917 -4.0836,4.1305 -15.8099,44.3392 -19.8605,36.3917 z m -14.8723,9.2559 c -48.9433,-14.4957 -19.1147,-13.7633 0,0 z m -18.8708,4.8898 c -38.5901,-9.0473 44.282,4.7036 0,0 z m 44.81,14.4981 c 5.526,-21.547 15.3196,-10.9905 0,0 z m -46.3194,-1.5123 c -61.6296,-16.7276 59.7846,10.584 5.9074,1.2402 l -5.9074,-1.2402 z m 47.317,13.5912 c 28.9954,-70.269 69.6881,-135.0352 97.13473,-206.12572 -1.736,32.06581 -47.08593,97.18842 -63.39383,141.88952 -13.5601,18.7748 -19.2352,51.4138 -33.7409,64.2362 z M 72.894599,966.29348 c -15.2128,-10.6906 -14.2531,0.5356 0,0 z m 8.4801,-159.55347 c -2.7489,-5.3672 -4.9037,6.65638 0,0 z m 38.770701,63.93036 c -1.537,-4.76322 -3.9808,6.68248 0,0 z m 365.78049,108.55901 c -13.2077,-13.0685 -15.0108,5.2096 0,0 z m -301.2934,14.548 c -2.8886,-3.957 -4.2324,2.4572 0,0 z m 5.986,1.393 c -9.0672,-5.6824 0.347,3.6191 0,0 z M 93.845499,926.64474 c -23.4242,-3.11784 -60.1431,-18.50527 -15.8892,-6.03581 6.6475,1.07454 38.828401,11.05408 15.8892,6.03581 z m 20.950801,5.48987 c -24.551701,-9.25436 26.4734,6.26027 0,0 z m 20.0269,5.47077 c -21.7009,-8.01237 16.5365,4.163 0,0 z m 10.4018,3.0746 c -7.3988,-5.302 22.41389,6.2629 0,0 z m 27.93439,8.5064 c -23.45309,-5.5555 -3.9685,-6.68409 6.0897,1.691 z m 17.9579,4.984 c -22.5341,-7.447 9.2794,0.9793 0,0 z m -97.785291,0.61301 c 19.087601,-9.3611 42.654801,4.5694 7.277001,-0.045 z m 106.464191,2.4006 c -11.2775,-5.1078 17.284,3.5562 0,0 z m -77.01859,25.1251 c 5.0276,-2.5941 6.811,3.6622 0,0 z m 168.60459,1.9179 c -20.1183,-6.31211 -86.3073,-24.3071 -78.201,-24.06561 21.4625,6.86 95.7789,25.2272 85.1027,26.1058 z m -26.9369,8.53729 c -37.2095,-16.4436 -148.75739,-38.3484 -132.93059,-39.7698 -47.610001,-13.4646 43.68869,7.4886 55.91499,13.39 21.6942,8.58971 82.8963,20.3466 82.3318,24.1927 -29.6373,-8.9445 -17.2261,-3.1528 2.8259,3.8033 l -8.1421,-1.6162 z m 22.7782,2.5379 c -19.5248,-8.14149 22.9348,4.87232 0,0 z m 132.358,1.40001 c -82.4572,-28.9347 -167.2798,-51.4681 -253.778,-64.28267 72.0739,18.76027 141.7752,48.15247 216.0667,57.26917 -35.8085,2.9159 -77.0428,-15.964 -114.0058,-24.9058 -51.0732,-15.9058 -102.7931,-31.97917 -155.36569,-40.33114 27.5987,-2.88529 78.39789,10.26534 114.64039,16.64504 64.824,12.693 128.3102,31.2953 190.9771,51.8932 14.3403,6.7301 4.5623,5.4236 1.4653,3.7122 z m -133.1876,2.2814 c -25.3216,-10.1189 28.3408,7.23921 0,0 z m 75.3233,15.60391 c -20.4775,-4.3081 -93.9268,-25.27601 -38.4112,-11.791 4.2652,2.0546 71.1038,14.0151 38.4112,11.791 z m -23.9438,-0.8435 c -25.437,-5.5772 -51.1313,-16.77561 -10.8489,-4.7723 15.7255,2.6603 45.7506,13.4598 10.8489,4.7723 z m -29.7912,2.6989 c -67.1352,-23.15801 -138.2833,-35.33021 -206.07439,-57.42431 43.1006,5.3882 87.77339,25.72 132.18919,34.0996 10.6833,4.8762 97.0097,20.54791 73.8852,23.32471 z m -127.3403,9.8386 c -21.7373,-1.5257 -95.835491,-26.1727 -34.38099,-9.302 10.5851,3.0605 30.61939,4.824 34.38099,9.302 z m 110.9897,14.1832 c -7.7131,-6.0801 14.2216,3.9812 0,0 z m 17.2096,3.9926 c -11.0674,-5.2548 11.1793,1.9034 0,0 z m 17.4591,4.0445 c -30.653,-8.8282 26.2622,4.006 0,0 z m 16.6998,3.7092 c -14.2564,-4.895 16.1352,2.6283 0,0 z m -88.5314,0.9364 c -17.0002,-8.4303 -85.4137,-16.8906 -70.5261,-18.8598 8.2789,-0.7701 106.4903,25.6033 70.5261,18.8598 z m 85.015,6.83 c -59.2708,-23.5612 -122.967,-36.3866 -185.69059,-48.188 70.67069,7.9558 -89.583401,-27.67611 -14.0936,-12.11951 68.39949,23.13271 140.72769,32.95571 207.67489,60.36881 l -7.8907,-0.061 z m 39.6925,0.6212 c -18.2396,-3.4339 -40.5565,-11.6705 -7.0972,-4.6261 6.6444,-2.5286 21.7887,9.6288 7.0972,4.6261 z m -71.2957,7.9729 c -22.1784,-5.7473 -49.1304,-16.0091 -12.3321,-6.183 3.1048,-0.416 30.1026,11.5097 12.3321,6.183 z m 39.3223,1.744 c -52.0131,-19.2377 -107.3173,-27.0755 -160.4349,-42.7196 51.2411,10.921 102.932,22.6893 153.5089,37.0984 -2.1804,-7.1511 18.6067,11.3019 6.926,5.6212 z m -18.8957,4.1794 c -27.5152,-10.4065 30.4847,6.9703 0,0 z m 23.3748,7.2073 c -36.8413,-12.968 24.4196,4.8803 0,0 z m 13.5271,3.6414 c 5.4769,-2.4351 9.1277,3.284 0,0 z M 97.337299,976.69838 c -8.0935,-5.0984 20.072801,6.0134 0,0 z M 504.41089,200.21636 c -0.8455,-1.37138 0.3543,-5.62875 3.6132,-12.82103 1.5638,-3.45128 2.8433,-6.87175 2.8433,-7.60106 0,-0.72931 1.0449,-3.30554 2.3219,-5.72496 2.1782,-4.12668 6.6759,-15.53958 8.1614,-20.70971 l 0.6639,-2.31076 -5.3242,2.7243 c -6.6779,3.41697 -12.6938,4.65321 -14.3866,2.9564 -0.6782,-0.67973 -2.724,-3.66475 -4.5463,-6.63337 l -3.3134,-5.3975 -0.9599,2.73585 c -0.5279,1.50472 -1.3222,2.73585 -1.7649,2.73585 -0.4428,0 -0.8051,0.85221 -0.8051,1.89379 0,1.85958 -6.2228,18.50826 -10.0341,26.84531 -1.0658,2.33151 -1.9378,5.31391 -1.9378,6.62756 0,2.99962 -2.1916,4.88532 -5.1828,4.45949 -1.9615,-0.27923 -2.2583,-0.83555 -2.0185,-3.78315 0.1546,-1.90068 0.9402,-4.18584 1.7459,-5.07813 0.8056,-0.8923 1.4675,-2.03692 1.4709,-2.54361 0,-0.50669 0.6276,-2.11526 1.3873,-3.57459 0.7596,-1.45933 1.9184,-4.38433 2.5752,-6.5 0.6567,-2.11567 2.1129,-5.87167 3.2359,-8.34667 1.1231,-2.475 3.0785,-7.425 4.3454,-11 4.8953,-13.81358 5.6113,-15.55182 7.0777,-17.18256 2.4263,-2.6982 4.2152,-1.07213 8.3256,7.56772 4.5354,9.53311 6.5749,11.22974 11.5288,9.59096 1.8808,-0.62217 3.4196,-1.46656 3.4196,-1.87642 0,-0.40985 2.0218,-1.75725 4.4927,-2.99421 2.471,-1.23696 4.956,-3.11672 5.5223,-4.17725 1.0521,-1.97063 4.4008,-2.6279 5.3711,-1.05424 0.2964,0.4807 -0.5773,3.62751 -1.9416,6.99291 -1.3643,3.3654 -2.6252,6.9096 -2.802,7.876 -0.832,4.54763 -3.1363,10.3912 -4.8062,12.18777 -1.0151,1.09213 -1.8456,2.43878 -1.8456,2.99256 0,1.59851 -2.9373,10.3318 -4.3982,13.07676 -1.6983,3.19129 -3.3362,8.53563 -3.9764,12.97563 -0.2757,1.91159 -1.2837,4.04909 -2.24,4.75 -2.0529,1.50467 -4.9886,1.66631 -5.8185,0.32036 z m 46.3317,10.59294 c -0.2572,-0.2559 -4.7326,-0.75981 -9.9454,-1.1198 -12.0512,-0.83222 -14.3699,-1.87979 -14.7696,-6.67273 -0.4403,-5.28094 2.153,-14.24578 7.2826,-25.17507 2.4717,-5.26627 4.494,-9.7903 4.494,-10.05341 0,-0.2631 1.3468,-3.39505 2.993,-6.95988 1.6461,-3.56484 2.993,-7.05911 2.993,-7.76506 0,-0.70594 1.1613,-2.49859 2.5808,-3.98365 2.2257,-2.3286 3.015,-2.58251 5.7365,-1.84528 1.7357,0.47016 4.5026,1.09134 6.1487,1.38038 5.7537,1.01029 15.9773,3.35333 17.7085,4.05845 2.0304,0.82697 2.3061,3.78624 0.4933,5.29428 -2.6382,2.19464 -6.5084,2.30217 -12.7986,0.35561 -3.5205,-1.08945 -8.1049,-2.21956 -10.1878,-2.51135 -3.4061,-0.47719 -3.8889,-0.26173 -4.8008,2.14235 -0.5576,1.47011 -2.126,4.89242 -3.4854,7.60517 -1.3593,2.71274 -2.1171,5.28299 -1.6839,5.71167 0.4331,0.42867 3.0282,0.9189 5.7668,1.08939 3.7977,0.23644 5.058,0.72493 5.3106,2.05842 0.6319,3.33566 -2.5823,5.10933 -9.4626,5.2216 -6.255,0.10207 -8.2512,1.08692 -8.2945,4.09216 -0.01,0.58419 -0.8951,2.88753 -1.9705,5.11852 -2.0151,4.18056 -2.9695,10.71631 -1.7443,11.94444 0.3818,0.3827 5.2987,1.1047 10.9264,1.60445 17.8388,1.58413 18.5541,1.86991 15.4231,6.16184 -1.198,1.64219 -7.6497,3.30623 -8.7139,2.2475 z m 37.4704,11.40484 c -0.7868,-1.27614 0.2862,-7.02465 1.6224,-8.69174 0.5061,-0.63139 1.1208,-2.20639 1.366,-3.5 0.2452,-1.29361 1.0789,-3.70202 1.8526,-5.35203 4.4618,-9.5152 11.0889,-31.4057 9.8758,-32.62163 -0.5173,-0.51855 -5.5054,-1.68552 -11.0846,-2.59329 -10.6444,-1.7319 -11.7613,-2.56563 -8.7552,-6.53508 1.4885,-1.96534 6.1294,-2.27752 11.5808,-0.779 3.0308,0.83309 16.0744,2.8202 30.9275,4.71157 4.5766,0.58278 7.98134,2.6517 7.98134,4.84997 0,3.11179 -5.33874,4.54254 -11.47314,3.07473 -1.6462,-0.39389 -4.6406,-0.97108 -6.6543,-1.28264 -3.5364,-0.54716 -3.729,-0.41736 -5.6443,3.80444 -1.0907,2.40401 -3.2025,8.19593 -4.693,12.87093 -1.4905,4.675 -3.4991,10.3 -4.4636,12.5 -0.9644,2.2 -2.5622,7.4875 -3.5506,11.75 -1.3907,5.99741 -2.1886,7.75 -3.5283,7.75 -0.9523,0 -2.3961,0.25568 -3.2085,0.56817 -0.8125,0.3125 -1.7803,0.0765 -2.1509,-0.5244 z m 73.61384,17.33064 c -0.5742,-1.49978 3.9749,-16.59071 5.6896,-18.87441 0.413,-0.55 1.0487,-2.39797 1.4128,-4.10661 0.6436,-3.02105 0.53,-3.14217 -4.1249,-4.39756 -2.6327,-0.71003 -6.5825,-2.08407 -8.7774,-3.05345 -2.1948,-0.96938 -6.3087,-2.64493 -9.1419,-3.72346 l -5.1513,-1.96096 -1.6423,4.62102 c -0.9033,2.54156 -2.1048,5.46716 -2.6702,6.50132 -0.5654,1.03418 -1.2213,3.05917 -1.4576,4.5 -1.6308,9.94397 -2.8094,12.11971 -6.56514,12.11971 -3.9425,0 -4.8716,-2.47126 -2.6568,-7.06629 1.0173,-2.1104 1.8496,-4.32164 1.8496,-4.91386 0,-0.59221 1.5713,-4.39575 3.49184,-8.4523 1.9205,-4.05655 3.4918,-8.22875 3.4918,-9.27155 0,-1.0428 0.3747,-2.3235 0.8328,-2.846 0.458,-0.5225 1.5596,-2.975 2.448,-5.45 5.3569,-14.92371 5.871,-16 7.643,-16 3.6052,0 4.4443,2.59577 2.3403,7.24052 -2.3826,5.25988 -4.7497,12.65248 -4.1971,13.10799 0.2259,0.18621 6.2308,2.2395 13.3443,4.56285 14.5967,4.76751 14.4559,4.79625 16.6198,-3.39216 0.5841,-2.21056 1.469,-4.80059 1.9664,-5.75563 0.4973,-0.95504 0.9042,-2.81578 0.9042,-4.13499 0,-1.43466 0.9715,-3.03657 2.4174,-3.98619 2.2407,-1.47161 2.587,-1.44822 4.7389,0.32015 2.0783,1.70794 2.1574,2.0455 0.7548,3.22262 -0.8617,0.72316 -2.1636,3.78984 -2.8932,6.81484 -0.7295,3.025 -2.1748,7.49145 -3.2117,9.92544 -1.0369,2.43399 -1.6278,5.09802 -1.3131,5.92005 0.3147,0.82204 0.1645,1.75559 -0.3338,2.07456 -1.2571,0.80469 -7.201,17.84914 -7.6311,21.88249 -0.1937,1.8164 -0.8915,3.9539 -1.5506,4.75 -1.6161,1.95181 -5.8556,1.83786 -6.6274,-0.17813 z m 143.0178,6.95892 c -1.1261,-1.12869 -0.7382,-6.09546 0.7458,-9.5494 0.776,-1.80616 2.3781,-6.42508 3.5603,-10.26427 2.52,-8.18344 3.4103,-9.48901 6.007,-8.80836 3.618,0.94834 4.3582,2.95423 2.2153,6.00345 -1.9202,2.73218 -2.9384,5.23922 -3.666,9.02644 -0.201,1.04553 -1.0558,4.23148 -1.8997,7.07989 -0.8439,2.8484 -1.2218,5.21055 -0.8399,5.24921 0.9348,0.0946 -3.0102,1.77055 -4.3769,1.85942 -0.5945,0.0387 -1.3801,-0.22971 -1.7459,-0.59638 z m -225.47124,40 c -1.3517,-1.35489 -0.5781,-4.61204 2.8267,-11.9015 1.9205,-4.11163 3.4918,-7.88927 3.4918,-8.39475 0,-1.49486 1.8693,-2.21194 3.9996,-1.53424 2.1099,0.67123 2.6476,3.43435 0.9914,5.09445 -0.5472,0.5485 -2.7758,4.6885 -4.9524,9.2 -3.7611,7.79575 -4.8318,9.06496 -6.3571,7.53604 z m 11.5562,6.92058 c -1.4367,-0.48453 -1.7007,-5.85486 -0.3296,-6.70426 0.5047,-0.31261 1.914,-3.82667 3.132,-7.80902 1.2179,-3.98235 3.0803,-8.47813 4.1387,-9.99063 3.1686,-4.52819 6.1088,-3.25157 6.3335,2.75 0.1192,3.183 1.3655,9.47316 2.1366,10.78351 0.6511,1.1065 3.5369,-2.93446 6.1415,-8.59984 2.4892,-5.41451 5.0069,-5.99448 6.2238,-1.43367 0.4035,1.5125 0.4256,2.75 0.049,2.75 -0.7457,0 -2.567,3.36279 -6.624,12.23003 -2.9156,6.3726 -3.6976,7.15713 -6.3064,6.32718 -1.6739,-0.53253 -5.1681,-6.84342 -5.1681,-9.33421 0,-0.60773 -0.4318,-1.37245 -0.9595,-1.69938 -0.5277,-0.32692 -1.6681,1.84876 -2.5342,4.83484 -1.5245,5.2564 -3.2603,6.89814 -6.2335,5.89545 z m 35.5836,3.46467 c -2.6327,-3.69844 -3.9079,-8.691 -3.9079,-15.30042 0,-5.50549 0.2595,-6.36593 2.0958,-6.95011 3.0197,-0.96066 3.7427,0.28401 4.0848,7.03195 l 0.3042,6 5.12004,-5.22142 c 2.8161,-2.87178 5.3834,-5.90928 5.7053,-6.75 0.772,-2.01662 6.2718,-1.99932 7.4011,0.0233 0.6495,1.16333 -0.727,3.22886 -5.4976,8.25 -3.5002,3.68398 -7.0794,8.04814 -7.9538,9.69814 -1.4598,2.75459 -4.06064,5.43585 -5.27384,5.43677 -0.2744,2.1e-4 -1.2095,-0.99797 -2.0781,-2.21818 z m 20.87664,10.25274 c -11.1625,-3.1528 -11.8092,-9.33394 -2.0853,-19.93411 1.7846,-1.94546 3.5121,-4.36784 3.8388,-5.38306 0.5301,-1.64717 1.5462,-1.80862 9.4408,-1.5 6.6808,0.26117 9.264,0.76426 10.5507,2.05475 1.6067,1.61156 1.5482,1.76822 -1.0281,2.75 -1.5025,0.57261 -5.3414,1.0411 -8.5307,1.0411 -4.1912,0 -6.1785,0.46074 -7.1681,1.66183 -1.2482,1.51485 -0.9988,1.61232 2.8194,1.10206 5.5054,-0.73573 8.0505,0.93282 6.3321,4.15128 -1.0946,2.04998 -1.8149,2.22894 -7.8582,1.95236 -7.3573,-0.33671 -9.1474,0.29266 -9.1474,3.21624 0,3.66467 9.71,4.85065 13.7052,1.67397 1.9549,-1.55444 4.4325,-0.0469 4.0733,2.47843 -0.5155,3.62324 -9.1696,6.36568 -14.9425,4.73516 z m -237.25884,140.9463 c -3.0029,-0.41437 -5.6217,-1.24035 -5.8197,-1.83551 -0.1979,-0.59516 -0.8836,-1.08691 -1.5238,-1.09278 -1.2668,-0.0116 -8.7132,-6.80695 -12.5188,-11.42431 -3.1803,-3.85869 -6.123,-12.53532 -6.2211,-18.34305 -0.1111,-6.57886 4.4397,-18.58808 8.8573,-23.37388 1.9517,-2.11432 5.6097,-5.06149 8.1289,-6.54926 3.9882,-2.35527 5.6823,-2.7111 13.1022,-2.75193 6.4936,-0.0357 9.1565,0.3696 11.1886,1.7031 1.4667,0.9625 3.3379,1.75 4.1582,1.75 1.998,0 8.8605,7.53358 9.2615,10.16708 0.6837,4.49048 -4.951,6.81918 -6.2498,2.58292 -0.9511,-3.10214 -3.2067,-5.05329 -8.1057,-7.01144 l -4.1715,-1.66744 c -3.93278,0.33842 -6.24666,2.30323 -10.2768,1.92888 -2.1772,0 -4.7869,0.44431 -5.7992,0.98735 -5.6877,3.05111 -9.1055,17.58305 -6.5242,27.74004 1.1718,4.61075 2.3128,6.51529 5.6687,9.46251 10.0571,8.83204 21.0183,11.28233 29.9772,6.70112 2.3483,-1.2008 4.7201,-2.76141 5.2707,-3.468 1.7026,-2.18508 6.4881,-2.22224 6.4881,-0.0504 0,1.82482 -8.5085,9.62736 -10.4985,9.62736 -0.8602,0 -2.7012,1.13974 -4.0909,2.53276 -2.0614,2.06617 -3.6612,2.58853 -8.6842,2.83551 -3.3865,0.16651 -8.6143,-0.0363 -11.6172,-0.45065 z m 70.1787,15.82507 c -9.879,-2.97945 -17.8605,-11.68688 -18.555,-20.24269 -0.9411,-11.59346 6.1081,-29.49985 15.9282,-40.46118 2.1049,-2.34949 2.3299,-2.39434 3.9358,-0.78467 1.6059,1.60967 1.5781,1.93048 -0.4866,5.61271 -1.2044,2.148 -2.1898,4.56466 -2.1898,5.37036 0,0.80569 -1.106,3.54981 -2.4577,6.09803 -6.017,11.34296 -2.6807,24.82216 7.483,30.23216 4.1462,2.20697 4.7182,2.13197 12.6927,-1.66441 4.5245,-2.15399 6.9204,-4.04561 8.6971,-6.86665 3.0667,-4.86937 3.6733,-7.53242 3.9771,-17.45999 0.2228,-7.2801 0.4314,-7.99374 2.5695,-8.78648 1.7692,-0.65604 2.7978,-0.39093 4.2913,1.10607 2.5918,2.59793 3.3961,15.53561 1.3742,22.10406 -1.5189,4.93404 -10.1188,19 -11.6166,19 -0.5154,0 -1.1869,0.78913 -1.4923,1.75361 -0.7124,2.24986 -11.7745,7.34127 -15.3246,7.05327 -1.4912,-0.12098 -5.463,-1.04987 -8.8263,-2.0642 z m 27.1782,-96.23524 c -1.0357,-0.78591 -3.7294,-1.39985 -5.986,-1.3643 -5.7813,0.0911 -12.3759,-0.98192 -17.2679,-2.80958 -5.7341,-2.14228 -6.4625,-5.45509 -2.5193,-11.45692 2.4925,-3.79378 8.4793,-18.49537 8.705,-21.37665 0.043,-0.55 0.5779,-2.125 1.1885,-3.5 0.6106,-1.375 1.7319,-4.29724 2.4919,-6.49386 1.5234,-4.403 4.395,-5.77547 6.3828,-3.05061 1.0068,1.38017 0.5381,3.30982 -2.6776,11.02411 -2.144,5.14311 -3.8981,9.96412 -3.8981,10.71337 0,0.74924 -1.8027,4.89543 -4.0059,9.21374 -2.9139,5.71121 -3.721,8.19554 -2.9609,9.11365 1.2805,1.54649 8.5085,2.70903 16.1908,2.60409 9.5746,-0.1308 13.9053,2.80516 10.1967,6.91276 -2.0869,2.31142 -3.2864,2.408 -5.84,0.4702 z m 24.8506,4.88496 c -1.7427,-2.66592 -1.9933,-5.39241 -0.4956,-5.39241 1.2959,0 2.8569,-4.08492 4.0124,-10.5 0.4953,-2.75 2.3441,-10.0625 4.1085,-16.25 3.0875,-10.82776 3.3109,-11.25 5.9524,-11.25 1.5095,0 2.9632,0.35461 3.2304,0.78802 0.2672,0.43341 -0.8208,4.59591 -2.4178,9.25 -1.597,4.65409 -3.3579,11.16198 -3.913,14.46198 -2.814,16.72781 -3.9432,20.25329 -6.6536,20.77264 -1.6202,0.31045 -2.7572,-0.24864 -3.8237,-1.88022 z m 66.1477,21.40962 c -3.4158,-5.34771 -7.9587,-16.00985 -9.7624,-22.91225 -2.2886,-8.75799 -4.7194,-14.88977 -5.9027,-14.88977 -0.4668,0 -1.6074,2.1375 -2.5346,4.75 -0.9272,2.6125 -2.784,7.04496 -4.1262,9.84991 -1.3422,2.80496 -2.4403,6.27493 -2.4403,7.71105 0,5.54768 -8.0791,9.03169 -8.8168,3.80213 -0.1852,-1.3128 0.039,-2.6628 0.4988,-3 1.0604,-0.77812 5.4708,-10.53112 8.8691,-19.61309 1.4406,-3.85 3.2054,-8.35 3.9218,-10 0.7164,-1.65 1.6123,-4.4728 1.9909,-6.2729 0.551,-2.61965 1.1196,-3.21337 2.8488,-2.97468 3.3943,0.46854 4.6399,1.65487 4.4283,4.21764 -0.1077,1.30401 0.3007,3.41921 0.9074,4.70044 1.417,2.99225 3.4614,9.28409 6.2808,19.3295 2.6744,9.52899 5.0209,15.5 6.0913,15.5 1.2546,0 5.0137,-5.80065 5.1783,-7.99066 0.083,-1.10514 0.4248,-2.00934 0.7595,-2.00934 0.7697,0 4.1697,-6.84561 6.9533,-14 1.177,-3.025 2.9972,-6.42163 4.045,-7.54807 1.0479,-1.12645 2.1846,-3.44873 2.5262,-5.16064 0.5866,-2.93998 0.7812,-3.05661 3.509,-2.10346 1.5884,0.55501 3.152,1.43741 3.4748,1.96091 0.6914,1.12137 -1.6848,6.54518 -5.6303,12.85126 -1.5485,2.475 -4.443,8.325 -6.4322,13 -3.5318,8.3001 -6.483,14.96138 -8.8609,20 -1.6188,3.43034 -5.8212,3.86373 -7.7769,0.80203 z m -162.9422,214.26803 c -8.3073,-1.41474 -11.7151,-5.99411 -7.7211,-10.37542 2.7638,-3.03184 4.7242,-7.24409 6.3107,-13.5599 1.3758,-5.47685 3.1524,-7.28865 5.1671,-5.26932 1.2679,1.27089 -0.7691,8.02216 -4.9742,16.48582 -2.7407,5.51648 -2.4282,7.64877 1.1213,7.64877 5.8117,0 10.0705,3.82759 6.0006,5.39301 -0.8679,0.33385 -1.6536,0.55066 -1.7459,0.48181 -0.092,-0.0688 -1.9636,-0.43098 -4.1585,-0.80476 z m 16.9617,6.7345 c -0.2621,-0.71751 -0.5941,-2.41752 -0.7378,-3.77781 -0.3299,-3.1227 2.8699,-3.47491 4.7855,-0.52675 1.1405,1.75541 1.0016,2.22069 -1.1358,3.80456 -1.8755,1.38969 -2.5449,1.50464 -2.9119,0.5 z m 40.4038,12.11073 c -5.0548,-0.97457 -8.9789,-4.63942 -8.9789,-8.38562 0,-3.36363 5.935,-18.78848 7.8048,-20.28436 1.6371,-1.30977 3.595,-1.01956 8.7197,1.29253 1.6809,0.75835 4.8556,1.66724 7.0549,2.01976 4.9926,0.80021 7.3675,3.82638 4.2961,5.47402 -1.3909,0.74614 -3.0439,0.78116 -5.2276,0.11073 -1.7565,-0.53923 -5.2707,-1.26111 -7.8093,-1.60415 -3.7292,-0.50392 -4.7359,-0.31006 -5.241,1.00927 -0.9499,2.48132 0.014,3.27507 4.8595,4.00347 5.559,0.83558 7.6068,2.89865 4.8958,4.93249 -1.0416,0.7815 -3.0163,1.21576 -4.388,0.96502 -10.2726,-1.87765 -9.9766,-1.90579 -9.9766,0.94849 0,2.88983 2.3264,4.27153 8.2189,4.8814 1.7898,0.18525 4.1521,0.87306 5.2495,1.5285 1.9718,1.17765 1.9725,1.20938 0.059,2.69242 -2.1296,1.65031 -2.9493,1.68607 -9.5365,0.41603 z m 28.0793,8.69644 c -2.2015,-0.63217 -3.6892,-2.07374 -5.16,-5 -1.1367,-2.26144 -2.585,-4.86992 -3.2186,-5.79663 -0.8554,-1.25134 -0.8649,-2.28062 -0.037,-4 0.6134,-1.2733 1.9395,-4.21599 2.9469,-6.5393 1.8945,-4.36879 4.5991,-5.61068 5.7383,-2.6349 0.3456,0.9025 -0.067,2.70406 -0.9161,4.00347 -2.0948,3.20445 -1.8119,13.12161 0.4075,14.28773 2.4688,1.29718 9.4581,2.1757 10.5693,1.32851 2.7016,-2.05967 3.6437,-5.64118 2.9836,-11.34236 -0.655,-5.65621 -0.6064,-5.826 1.5475,-5.41022 2.8781,0.55557 2.7851,0.41354 3.2511,4.96651 0.5776,5.64392 -0.9219,11.1204 -3.99,14.57192 -2.2827,2.56792 -3.2855,2.9676 -6.8518,2.73086 -2.2977,-0.15252 -5.5696,-0.67704 -7.271,-1.16559 z m 3.3643,-75.12032 c -2.1853,-1.34541 -6.4322,-2.95787 -9.4377,-3.58326 -3.0055,-0.6254 -6.3804,-1.71595 -7.4998,-2.42347 -1.1194,-0.70751 -5.3315,-1.86045 -9.36,-2.5621 -6.2908,-1.09564 -7.4566,-1.62326 -8.2587,-3.73783 -0.5136,-1.35416 -0.6798,-2.71681 -0.3692,-3.02811 0.3106,-0.3113 2.9823,-0.50925 5.9372,-0.43991 3.69,0.0866 5.5349,-0.29781 5.8908,-1.22743 0.4134,-1.07997 2.0923,-0.82865 8.3073,1.24362 13.3387,4.44747 15.6424,5.58322 20.0921,9.90555 l 4.3217,4.19794 -2.077,2.0818 c -2.5706,2.57664 -2.6781,2.57056 -7.5467,-0.42681 z m 19.045,5.92681 c -1.5757,-4.11578 1.4873,-8.41821 5.993,-8.41821 2.4201,0 6.371,3.49248 6.371,5.63185 0,3.68139 -11.0666,6.17536 -12.364,2.78635 z"
     inkscape:connector-curvature="0"
     sodipodi:nodetypes="cccccccsscccccccccccccccccccsccccccccccccccccccccccccccssccccccccccccscccsscccccccccsccscccccccccccscccsccccsccsscccsscsccccscccccsccccccscccccscssccsssccsccccsscccsscsccccccccccccssccssscscsscscsscsccscccccccccccccccccccccccccccccccccccccccccccccccccccccccccccccccccccccccccccccccccccccccccccccccccccccccccccccccccccccccccccccccccccccccccccccccccccccccccccccccccccccccccccccccccccccccccccccccccccccccccccccccccccccccccccccccccccccccccsscccsccccsscssccccccsssssccsssssccsccscsscscsscssscccssscsssscccsscsccsssscscsscccccscsccssscssscsssssccsscscssssccccssccscccsssssssccccscscsssscccccsssccccsssccsscsccscscssccscccssssscscscccsscscsscsccssssssssssscscsssscssscssccsscssccscsssscsccsssssscsscsccsscscccscscccsssccsccscsccccscssscsccccsssccccccccccsccscssccsssscsscssccscssc" />
</svg>
