<?xml version="1.0" encoding="UTF-8" standalone="no"?>
<!-- Created with Inkscape (http://www.inkscape.org/) -->

<svg
   xmlns:dc="http://purl.org/dc/elements/1.1/"
   xmlns:cc="http://creativecommons.org/ns#"
   xmlns:rdf="http://www.w3.org/1999/02/22-rdf-syntax-ns#"
   xmlns:svg="http://www.w3.org/2000/svg"
   xmlns="http://www.w3.org/2000/svg"
   xmlns:xlink="http://www.w3.org/1999/xlink"
   xmlns:sodipodi="http://sodipodi.sourceforge.net/DTD/sodipodi-0.dtd"
   xmlns:inkscape="http://www.inkscape.org/namespaces/inkscape"
   id="svg2985"
   version="1.1"
   inkscape:version="0.48.3.1 r9886"
   width="1846.4244"
   height="2291.7896"
   sodipodi:docname="casiers-persos.svg">
  <metadata
     id="metadata2991">
    <rdf:RDF>
      <cc:Work
         rdf:about="">
        <dc:format>image/svg+xml</dc:format>
        <dc:type
           rdf:resource="http://purl.org/dc/dcmitype/StillImage" />
        <dc:title />
      </cc:Work>
    </rdf:RDF>
  </metadata>
  <defs
     id="defs2989">
    <linearGradient
       id="linearGradient6489">
      <stop
         style="stop-color:#ffffff;stop-opacity:0;"
         offset="0"
         id="stop6491" />
      <stop
         id="stop6497"
         offset="0.5"
         style="stop-color:#ffffff;stop-opacity:0;" />
      <stop
         style="stop-color:#ffffff;stop-opacity:1;"
         offset="1"
         id="stop6493" />
    </linearGradient>
    <linearGradient
       id="linearGradient6481">
      <stop
         style="stop-color:#000000;stop-opacity:0;"
         offset="0"
         id="stop6483" />
      <stop
         style="stop-color:#000000;stop-opacity:0;"
         offset="1"
         id="stop6485" />
    </linearGradient>
    <radialGradient
       inkscape:collect="always"
       xlink:href="#linearGradient6489"
       id="radialGradient6495"
       cx="1002.8766"
       cy="997.16693"
       fx="1002.8766"
       fy="997.16693"
       r="1133.1204"
       gradientTransform="matrix(1,0,0,1.0229886,0,-22.923452)"
       gradientUnits="userSpaceOnUse" />
  </defs>
  <sodipodi:namedview
     pagecolor="#ffffff"
     bordercolor="#666666"
     borderopacity="1"
     objecttolerance="10"
     gridtolerance="10"
     guidetolerance="10"
     inkscape:pageopacity="0"
     inkscape:pageshadow="2"
     inkscape:window-width="1364"
     inkscape:window-height="744"
     id="namedview2987"
     showgrid="false"
     inkscape:zoom="0.27145522"
     inkscape:cx="472.49911"
     inkscape:cy="1332.9564"
     inkscape:window-x="0"
     inkscape:window-y="22"
     inkscape:window-maximized="1"
     inkscape:current-layer="layer1"
     fit-margin-top="-0.5"
     fit-margin-left="-300"
     fit-margin-right="-300"
     fit-margin-bottom="0" />
  <g
     inkscape:groupmode="layer"
     id="layer2"
     inkscape:label="casier"
     style="display:inline"
     transform="translate(-190.59527,147.78952)">
    <rect
       style="fill:#a68f61;fill-opacity:1"
       id="rect3223"
       width="2443.3721"
       height="1990.124"
       x="-109.40473"
       y="-148.28952" />
    <path
       id="path3429"
       style="fill:#000000"
       d="m -107.77872,252.21595 0.245,-7 c 133.251675,0 266.50333,0 399.755,0 0.0735,-77.27107 -0.76513,-159.851673 -1.329,-224.000003 l -3.5855,-8.5e-4 -3.5855,-8.5e-4 0,13.75085 0,13.75085 c -23.66667,0 -47.33333,0 -71,0 l -0.2767,-15.3654 c -0.1887,-10.48051 0.089,-15.80559 0.8725,-16.75 19.08426,-2.51382 29.58762,-1.3846 52.9042,-1.3846 l 0,-27.8 c 0,-20.28889 0.3242,-28.12422 1.2,-29 0.7897,-0.78971 5.009,-1.2 12.3403,-1.2 l 11.1403,0 c 1.20506,-34.69357 1.31727,-72.193797 1.3171,-101.999997 l 7.2475,-0.32494 -0.7467,71.684677 c -0.4107,39.42658 -0.4106,127.24977 10e-5,195.162653 -0.72975,43.46716 2.02269,87.02668 0.5019,130.47796 -141.90628,-7.6e-4 -261.724265,-3.5e-4 -407.0005,-3.5e-4 z m 377,-210.500003 c 1.8208,-1.04085 2.0406,-1.43876 0.809,-1.46456 -0.93,-0.0195 -1.9691,0.41456 -2.309,0.96456 -0.3842,0.62161 -9.6771,1 -24.559,1 l -23.941,0 0,-9.98253 0,-9.98253 24.75,-0.28576 24.75,-0.28576 -25.25,-0.23171 -25.25,-0.23171 0,11 0,11 24.25,-0.0354 c 19.1379,-0.028 24.777,-0.3367 26.75,-1.46456 z m 3.693,-4.23097 c -0.2536,-0.97297 -0.4777,-0.41903 -0.4981,1.23097 -0.02,1.65 0.1871,2.44606 0.461,1.76903 0.274,-0.67703 0.2906,-2.02703 0.037,-3 z m -30.1475,0.27642 c 1.5472,-1.54723 2.4545,-3.59708 2.4545,-5.54545 0,-1.94837 -0.9073,-3.99822 -2.4545,-5.54545 -2.1446,-2.14453 -3.3502,-2.45455 -9.5455,-2.45455 -6.1953,0 -7.4009,0.31002 -9.5455,2.45455 -1.5472,1.54723 -2.4545,3.59708 -2.4545,5.54545 0,1.94837 0.9073,3.99822 2.4545,5.54545 2.1446,2.14453 3.3502,2.45455 9.5455,2.45455 6.1953,0 7.4009,-0.31002 9.5455,-2.45455 z m 31.1475,-7.27642 c -0.2536,-0.97297 -0.4777,-0.41903 -0.4981,1.23097 -0.02,1.65 0.1871,2.44606 0.461,1.76903 0.274,-0.67703 0.2906,-2.02703 0.037,-3 z m 0.923,-7.82744 c -0.3043,-0.79288 -1.3549,-1.38939 -2.3346,-1.32559 -1.6695,0.10872 -1.6715,0.14473 -0.031,0.57333 1.0737,0.28059 1.7948,1.49167 1.866,3.13399 0.078,1.79806 0.2698,2.08306 0.5846,0.86827 0.2577,-0.99463 0.2196,-2.45713 -0.085,-3.25 z m 7.634,-8.18666 -9.25,-0.32998 0,-24.92495 0,-24.92495 9.25,-0.32998 9.25,-0.32999 -9.75,-0.20754 -9.75,-0.20754 0,25.33333 c 0,13.9333401 0.3,25.63334 0.6667,26 0.3666,0.36667 4.7541,0.57328 9.75,0.45913 l 9.0833,-0.20754 z m 6.2955,-32.70948 c 4.9832,-4.98326 1.4442,-13.54545 -5.5988,-13.54545 -3.5065,0 -8.9467,4.86457 -8.9467,8 0,0.98367 1.3055,3.18608 2.9012,4.89424 3.6735,3.93245 8.1146,4.18082 11.6443,0.65121 z"
       inkscape:connector-curvature="0" />
    <use
       x="0"
       y="0"
       inkscape:tiled-clone-of="#path3429"
       xlink:href="#path3429"
       id="use3635"
       transform="translate(-4.9e-6,2.9e-6)"
       width="2232"
       height="2144" />
    <use
       x="0"
       y="0"
       inkscape:tiled-clone-of="#path3429"
       xlink:href="#path3429"
       transform="translate(-4.9e-6,397.32529)"
       id="use3637"
       width="2232"
       height="2144" />
    <use
       x="0"
       y="0"
       inkscape:tiled-clone-of="#path3429"
       xlink:href="#path3429"
       transform="translate(-4.9e-6,794.65058)"
       id="use3639"
       width="2232"
       height="2144" />
    <use
       x="0"
       y="0"
       inkscape:tiled-clone-of="#path3429"
       xlink:href="#path3429"
       transform="translate(-4.9e-6,1191.9759)"
       id="use3641"
       width="2232"
       height="2144" />
    <use
       x="0"
       y="0"
       inkscape:tiled-clone-of="#path3429"
       xlink:href="#path3429"
       transform="translate(-4.9e-6,1589.3012)"
       id="use3643"
       width="2232"
       height="2144" />
    <use
       x="0"
       y="0"
       inkscape:tiled-clone-of="#path3429"
       xlink:href="#path3429"
       transform="translate(407.4664,2.9e-6)"
       id="use3645"
       width="2232"
       height="2144" />
    <use
       x="0"
       y="0"
       inkscape:tiled-clone-of="#path3429"
       xlink:href="#path3429"
       transform="translate(407.4664,397.32529)"
       id="use3647"
       width="2232"
       height="2144" />
    <use
       x="0"
       y="0"
       inkscape:tiled-clone-of="#path3429"
       xlink:href="#path3429"
       transform="translate(407.4664,794.65058)"
       id="use3649"
       width="2232"
       height="2144" />
    <use
       x="0"
       y="0"
       inkscape:tiled-clone-of="#path3429"
       xlink:href="#path3429"
       transform="translate(407.4664,1191.9759)"
       id="use3651"
       width="2232"
       height="2144" />
    <use
       x="0"
       y="0"
       inkscape:tiled-clone-of="#path3429"
       xlink:href="#path3429"
       transform="translate(407.4664,1589.3012)"
       id="use3653"
       width="2232"
       height="2144" />
    <use
       x="0"
       y="0"
       inkscape:tiled-clone-of="#path3429"
       xlink:href="#path3429"
       transform="translate(814.93284,2.9e-6)"
       id="use3655"
       width="2232"
       height="2144" />
    <use
       x="0"
       y="0"
       inkscape:tiled-clone-of="#path3429"
       xlink:href="#path3429"
       transform="translate(814.93284,397.32529)"
       id="use3657"
       width="2232"
       height="2144" />
    <use
       x="0"
       y="0"
       inkscape:tiled-clone-of="#path3429"
       xlink:href="#path3429"
       transform="translate(814.93284,794.65058)"
       id="use3659"
       width="2232"
       height="2144" />
    <use
       x="0"
       y="0"
       inkscape:tiled-clone-of="#path3429"
       xlink:href="#path3429"
       transform="translate(814.93284,1191.9759)"
       id="use3661"
       width="2232"
       height="2144" />
    <use
       x="0"
       y="0"
       inkscape:tiled-clone-of="#path3429"
       xlink:href="#path3429"
       transform="translate(814.93284,1589.3012)"
       id="use3663"
       width="2232"
       height="2144" />
    <use
       x="0"
       y="0"
       inkscape:tiled-clone-of="#path3429"
       xlink:href="#path3429"
       transform="translate(1222.3992,2.9e-6)"
       id="use3665"
       width="2232"
       height="2144" />
    <use
       x="0"
       y="0"
       inkscape:tiled-clone-of="#path3429"
       xlink:href="#path3429"
       transform="translate(1222.3992,397.32529)"
       id="use3667"
       width="2232"
       height="2144" />
    <use
       x="0"
       y="0"
       inkscape:tiled-clone-of="#path3429"
       xlink:href="#path3429"
       transform="translate(1222.3992,794.65058)"
       id="use3669"
       width="2232"
       height="2144" />
    <use
       x="0"
       y="0"
       inkscape:tiled-clone-of="#path3429"
       xlink:href="#path3429"
       transform="translate(1222.3992,1191.9759)"
       id="use3671"
       width="2232"
       height="2144" />
    <use
       x="0"
       y="0"
       inkscape:tiled-clone-of="#path3429"
       xlink:href="#path3429"
       transform="translate(1222.3992,1589.3012)"
       id="use3673"
       width="2232"
       height="2144" />
    <use
       x="0"
       y="0"
       inkscape:tiled-clone-of="#path3429"
       xlink:href="#path3429"
       transform="translate(1629.8656,2.9e-6)"
       id="use3675"
       width="2232"
       height="2144" />
    <use
       x="0"
       y="0"
       inkscape:tiled-clone-of="#path3429"
       xlink:href="#path3429"
       transform="translate(1629.8656,397.32529)"
       id="use3677"
       width="2232"
       height="2144" />
    <use
       x="0"
       y="0"
       inkscape:tiled-clone-of="#path3429"
       xlink:href="#path3429"
       transform="translate(1629.8656,794.65058)"
       id="use3679"
       width="2232"
       height="2144" />
    <use
       x="0"
       y="0"
       inkscape:tiled-clone-of="#path3429"
       xlink:href="#path3429"
       transform="translate(1629.8656,1191.9759)"
       id="use3681"
       width="2232"
       height="2144" />
    <use
       x="0"
       y="0"
       inkscape:tiled-clone-of="#path3429"
       xlink:href="#path3429"
       transform="translate(1629.8656,1589.3012)"
       id="use3683"
       width="2232"
       height="2144" />
    <use
       x="0"
       y="0"
       inkscape:tiled-clone-of="#path3429"
       xlink:href="#path3429"
       transform="translate(2037.332,2.9e-6)"
       id="use3685"
       width="2232"
       height="2144" />
    <use
       x="0"
       y="0"
       inkscape:tiled-clone-of="#path3429"
       xlink:href="#path3429"
       transform="translate(2037.332,397.32529)"
       id="use3687"
       width="2232"
       height="2144" />
    <use
       x="0"
       y="0"
       inkscape:tiled-clone-of="#path3429"
       xlink:href="#path3429"
       transform="translate(2037.332,794.65058)"
       id="use3689"
       width="2232"
       height="2144" />
    <use
       x="0"
       y="0"
       inkscape:tiled-clone-of="#path3429"
       xlink:href="#path3429"
       transform="translate(2037.332,1191.9759)"
       id="use3691"
       width="2232"
       height="2144" />
    <use
       x="0"
       y="0"
       inkscape:tiled-clone-of="#path3429"
       xlink:href="#path3429"
       transform="translate(2037.332,1589.3012)"
       id="use3693"
       width="2232"
       height="2144" />
  </g>
  <g
     inkscape:groupmode="layer"
     id="layer1"
     inkscape:label="persos"
     style="display:inline"
     transform="translate(-190.59527,147.78952)">
    <path
       style="fill:#000000"
       d="m 1134.8222,2143.1791 c -12.8068,-59.5942 -0.5359,-164.0267 -29.87,-199.1646 -88.2253,34.6267 -135.4511,-57.5696 -96.7808,-128.0145 16.7434,-90.7124 83.2498,-167.4049 121.603,-251.464 39.9455,-74.9816 50.4554,-170.7399 126.9481,-220.394 54.3119,-68.0331 -12.0667,-133.2072 -36.6104,-193.9239 20.4537,-86.1757 -9.6477,-178.57018 -111.1432,-181.69559 C 1007.89,962.24808 1027.2935,881.45779 1082.3314,828 c 31.148,-65.28275 100.9005,-51.14516 158.1505,-38.43491 -2.2844,-42.59304 11.628,-176.679 53.357,-76.56509 18.2353,66.76354 78.1717,-98.91073 95.1335,8.3895 -2.1306,70.71911 18.6105,101.84556 88.112,111.75036 50.3472,38.93385 172.1839,83.53533 111.1518,162.30528 19.6064,57.12606 115.378,103.96316 112.0348,153.20046 -41.9114,3.7764 -112.5685,-14.2979 -52.7808,41.1966 24.299,59.3976 -35.4133,88.0901 20.0481,140.6578 24.2706,93.3617 73.9359,174.8552 125.8762,255.054 59.0033,94.2527 73.3151,207.6251 126.4968,304.9636 35.8352,76.0713 -67.8865,138.1619 -132.3107,111.4212 -61.9407,-19.1237 30.7402,138.0122 -24.4141,142.0612 -209.4539,-0.2052 -418.9165,0.5781 -628.3643,-0.8209 z"
       id="path3231"
       inkscape:connector-curvature="0" />
    <path
       style="fill:#000000"
       d="m 1771.222,2134.0598 c -4.3607,-59.4558 14.882,-149.2833 -61.0744,-166.0999 -42.5071,-29.5215 -167.5935,-93.4481 -150.7938,-81.3036 99.9724,26.7051 177.7072,120.2128 286.8137,114.7214 65.6087,-24.2538 95.1083,-91.4914 49.0359,-151.3182 -47.6201,-94.7625 -61.183,-203.8517 -124.9306,-291.0595 -49.7355,-67.1151 -81.0355,-143.1211 -107.9487,-221.4783 -9.5376,-67.6772 -89.6557,-101.9707 -96.0799,-19.7906 -99.6245,25.0956 -4.9883,131.2783 -88.4569,161.778 -68.9872,22.2894 -183.5345,-25.3374 -150.5886,-111.6348 -20.2836,-31.1855 -63.4312,-71.393 -82.1829,-4.903 -75.2826,50.9899 -73.1242,156.4513 -124.4663,225.8793 -33.3476,72.8806 -84.1099,139.476 -106.9074,216.1495 -27.01875,67.1042 -7.2427,164.7184 85.9119,134 84.7757,12.9291 84.1963,-96.3187 61.7574,-150.167 -1.0834,-72.4113 95.845,-134.8295 149.6278,-66.9311 39.8196,38.1877 40.8986,107.2662 80.3061,33.2889 36.1822,-45.6859 118.8002,-6.0002 121.0782,48.8266 -20.3731,68.3573 -12.9006,128.9101 -5.4102,212.4826 -0.5965,64.1005 -15.9672,147.9317 74.6482,118.9401 63.1734,-0.887 126.6285,2.6484 189.6605,-1.3804 z"
       id="path3229"
       inkscape:connector-curvature="0" />
    <path
       style="fill:#000000"
       d="m 1201.1808,2130.2216 c -15.3637,-59.1968 -34.4586,-157.1517 -48.8177,-194.1007 -65.0105,17.8502 -6.7308,152.8405 -8.5606,198.3312 16.9253,-2.7652 48.1638,4.7108 57.3783,-4.2305 z"
       id="path3227"
       inkscape:connector-curvature="0" />
    <path
       style="fill:#000000"
       d="m 1475.3316,2133.75 c -3.8559,-44.6996 13.084,-196.303 -16.9545,-75.6852 -39.8894,92.0132 -196.2103,26.1212 -240.5085,48.9352 26.4385,67.7028 157.2049,8.4078 222.2795,27.793 l 13.8839,-0.09 21.3003,-0.9529 -7e-4,0 z"
       id="path3225"
       inkscape:connector-curvature="0" />
    <path
       style="fill:#702d00;fill-opacity:1"
       d="m 1504.9141,2123.2603 c -4.9424,-85.4656 -2.599,-172.8918 -19.242,-256.7067 -6.8675,73.2683 -2.7103,166.8078 -5.1987,247.6292 -19.7554,22.3195 36.4774,31.7796 24.4407,9.0775 z"
       id="path3223"
       inkscape:connector-curvature="0" />
    <path
       style="fill:#702d00;fill-opacity:1"
       d="m 1217.9325,2131.75 c -4.2657,-90.5451 -45.8015,-31.1046 0,0 z"
       id="path3221"
       inkscape:connector-curvature="0" />
    <path
       style="fill:#702d00;fill-opacity:1"
       d="m 1308.8467,2098.5424 c 99.5094,29.389 173.6867,-45.8152 165.254,-143.5424 13.2358,-124.9009 -33.4437,54.7468 -100.4023,49.7819 -42.4932,19.2466 -97.3937,64.6628 -118.913,-10.2788 -48.0471,-17.4239 -56.399,-46.7113 -79.597,-95.5031 -15.0104,20.8564 -17.0356,188.9741 75.546,198.3901 19.2049,3.6805 38.751,0.8009 58.1123,1.1523 z"
       id="path3219"
       inkscape:connector-curvature="0" />
    <path
       style="fill:#ffcb00;fill-opacity:1"
       d="m 1314.6047,2034.633 c 54.083,-21.6306 -42.2879,-123.7731 -45.5358,-40.0854 -6.027,21.8448 24.3698,46.3121 45.5358,40.0854 z"
       id="path3217"
       inkscape:connector-curvature="0" />
    <path
       style="fill:#702d00;fill-opacity:1"
       d="m 1359.3183,2001.4377 c 59.2142,-1.2341 153.2517,-119.8489 83.9918,-143.3957 -32.0174,28.9343 -8.9858,146.8119 -47.6993,101.0217 -31.73,10.3404 -71.3834,-9.783 -62.6146,-71.3568 -14.7721,56.7025 -39.2058,11.0573 -41.829,36.4616 -23.9071,27.4479 -53.7627,41.3725 -59.9966,28.7537 15.1447,87.407 65.4335,-55.932 99.5085,31.269 9.7575,10.2727 0.1197,38.2676 28.6392,17.2465 z"
       id="path3215"
       inkscape:connector-curvature="0" />
    <path
       style="fill:#ffebc6;fill-opacity:1"
       d="m 1219.3279,1963.8426 c 48.8206,-21.1628 2.0419,-178.1688 29.2672,-86.3426 2.4131,45.5665 -16.9227,115.9222 21.1632,36.9152 20.7245,-45.991 -34.0415,-163.3137 10.8301,-59.4253 4.4719,31.1064 -25.0503,126.4751 12.3658,47.0101 34.0744,-36.5058 -36.3814,-165.9823 31.1319,-86.5988 13.2126,35.5496 -51.2923,153.0707 8.0452,62.572 52.9561,-64.8667 -8.8992,-163.8367 -82.6674,-175.0307 -70.1301,-2.9533 -94.8884,83.78 -66.4136,132.4999 53.6723,31.8355 30.7025,105.4033 36.2776,128.4002 z"
       id="path3213"
       inkscape:connector-curvature="0" />
    <path
       style="fill:#000000"
       d="m 1218.0099,1832.1399 c -0.1691,-23.0635 35.5536,-18.2374 0,0 z"
       id="path3211"
       inkscape:connector-curvature="0" />
    <path
       style="fill:#000000"
       d="m 1236.1231,1810.092 c 15.7263,-37.8133 22.4737,-5.8393 0,0 z"
       id="path3209"
       inkscape:connector-curvature="0" />
    <path
       style="fill:#000000"
       d="m 1260.6768,1788.3333 c -0.3192,-23.323 36.1961,-14.8667 0,0 z"
       id="path3207"
       inkscape:connector-curvature="0" />
    <path
       style="fill:#000000"
       d="m 1197.0702,1779.75 c 3.2559,-59.6736 13.8412,-31.9476 0,0 z"
       id="path3205"
       inkscape:connector-curvature="0" />
    <path
       style="fill:#000000"
       d="m 1294.473,1768.6855 c -1.3053,-21.9855 32.4853,-17.0367 0,0 z"
       id="path3203"
       inkscape:connector-curvature="0" />
    <path
       style="fill:#000000"
       d="m 1238.7305,1758.6186 c -9.9232,-20.2099 19.8792,11.7059 0,0 z"
       id="path3201"
       inkscape:connector-curvature="0" />
    <path
       style="fill:#000000"
       d="m 1243.5607,1728.8846 c -42.7069,-17.5191 32.1485,-2.0548 0,0 z"
       id="path3199"
       inkscape:connector-curvature="0" />
    <path
       style="fill:#ffebc6;fill-opacity:1"
       d="m 1411.695,1966.202 c 5.2299,-41.7283 6.2018,-146.9233 73.2227,-109.1666 84.8223,-73.215 -100.375,-176.2607 -122.9636,-53.1498 -10.7837,52.9687 -9.8367,34.3972 13.5911,7.1029 -38.1668,31.6152 -11.2774,212.8949 -6.3142,95.0115 -7.7469,-46.5301 37.309,-125.2412 6.3475,-36 -13.5725,43.0439 22.3194,137.8183 19.5426,37 -6.0379,-47.3962 34.8797,-110.8803 5.5472,-29 4.2452,21.0166 -5.8714,84.4014 11.0267,88.202 z"
       id="path3197"
       inkscape:connector-curvature="0" />
    <path
       style="fill:#000000"
       d="m 1419.559,1828.735 c -23.8626,-21.235 10.6389,-10.045 0,0 z"
       id="path3195"
       inkscape:connector-curvature="0" />
    <path
       style="fill:#000000"
       d="m 1466.2847,1809.1048 c 24.5528,-1.191 -77.0531,-53.3739 -20.6521,-35.9989 15.6904,19.2211 54.0174,28.708 20.6521,35.9989 z"
       id="path3193"
       inkscape:connector-curvature="0" />
    <path
       style="fill:#000000"
       d="m 1389.4188,1804.8697 c -40.9812,-35.2982 39.6496,7.1773 0,0 z"
       id="path3191"
       inkscape:connector-curvature="0" />
    <path
       style="fill:#702d00;fill-opacity:1"
       d="m 1211.1047,1939.2102 c 34.3916,-55.6282 -67.357,-126.5031 -23.9061,-33.7102 3.0178,3.2236 19.0984,48.9373 23.9061,33.7102 z"
       id="path3189"
       inkscape:connector-curvature="0" />
    <path
       style="fill:#ffeac7;fill-opacity:1"
       d="m 1350.0425,1941.1667 c 6.2443,-46.2127 0.6422,-133.9019 -11.019,-40.6667 3.8739,7.3383 0.057,44.1937 11.019,40.6667 z"
       id="path3187"
       inkscape:connector-curvature="0" />
    <path
       style="fill:#000000"
       d="m 1375.0326,1937.75 c -1.8168,0.991 1.6753,5.5037 0,0 z"
       id="path3185"
       inkscape:connector-curvature="0" />
    <path
       style="fill:#000000"
       d="m 1298.0389,1902.2708 c -2.3217,0.9462 2.1448,3.9395 0,0 z"
       id="path3183"
       inkscape:connector-curvature="0" />
    <path
       style="fill:#702d00;fill-opacity:1"
       d="m 1303.173,1894 c 51.8922,-29.4793 -17.6522,-137.233 8.9106,-46.2861 2.9787,2.8607 -24.0042,73.4495 -8.9106,46.2861 z"
       id="path3181"
       inkscape:connector-curvature="0" />
    <path
       style="fill:#672178"
       d="m 1406.4591,1475.2489 c -13.4918,-36.6613 -41.973,6.0483 0,0 z"
       id="path3179"
       inkscape:connector-curvature="0" />
    <path
       style="fill:#672178"
       d="m 1466.2371,1474.5391 c 68.2956,2.8816 52.6098,-169.2513 3.2745,-93.5391 -91.6851,31.2021 66.5679,-20.9129 50.854,-62.5583 -9.1329,71.6407 100.6431,-79.4094 46.5185,-42.158 36.4206,-56.8539 -30.5999,-71.3228 -28.0216,-2.6371 -24.71,72.1012 -182.115,12.2948 -139.4373,109.5951 73.1801,32.6944 -46.4603,-23.8612 -1.0343,42.2583 -8.1972,45.7705 31.9984,54.9617 67.8462,49.0391 z"
       id="path3177"
       inkscape:connector-curvature="0" />
    <path
       style="fill:#000000"
       d="m 1461.4139,1455.8377 c 10.1406,-14.4099 66.2048,-42.6553 7.5009,0.9165 l -7.5009,-0.9165 0,0 z"
       id="path3175"
       inkscape:connector-curvature="0" />
    <path
       style="fill:#000000"
       d="m 1431.7429,1443.75 c -55.2914,-109.3126 29.4337,18.1916 0,0 z"
       id="path3173"
       inkscape:connector-curvature="0" />
    <path
       style="fill:#000000"
       d="m 1444.0038,1361.25 c 26.6457,-31.1325 39.8559,-54.4123 5.9766,-1.5674 l -5.9766,1.5674 0,0 z"
       id="path3171"
       inkscape:connector-curvature="0" />
    <path
       style="fill:#672178"
       d="m 1386.0343,1455.8047 c 13.0919,-27.1066 -4.7947,-132.228 -6.1426,-121.9143 -44.419,16.4478 -141.9795,-82.8891 -75.1014,0.7507 53.7851,7.3572 33.2219,65.4382 81.9021,82.2583 -38.8027,-8.0478 -66.9862,-91.9503 -54.9846,-0.3994 5.9755,24.6195 26.7838,48.0808 54.3265,39.3047 z"
       id="path3169"
       inkscape:connector-curvature="0" />
    <path
       style="fill:#ffebc6;fill-opacity:1"
       d="m 1375.3836,1327.4906 c 72.1449,12.6832 47.1028,-54.5827 53.5841,-48.4621 46.3396,89.7685 153.3705,-37.4524 108.1266,-101.1375 -17.7704,-37.2273 76.6291,-67.3103 20.0497,-102.275 -13.7649,39.9609 -55.9513,75.778 -58.0965,1.884 12.669,-100.32883 -123.8058,-34.6776 -136.763,-65.6838 108.5574,-43.08112 -62.3862,-8.837 -99.0303,-25.90532 -35.4137,-36.2453 -69.2231,-22.46075 -43.8694,10.57789 75.1266,-26.64575 106.623,74.65953 75.7925,126.81533 -34.8938,52.8277 23.0101,104.0652 56.7639,53.1636 34.6923,34.5349 -122.3465,40.4276 -62.8285,-41.7772 5.5758,-37.1441 -42.0527,-2.6483 -5.4462,-30.2433 -64.8413,4.4967 -36.8951,-1.5948 7.3415,-12.9058 -61.7547,-11.0169 -71.7086,2.0671 -61.2871,70.4866 44.835,27.0469 54.1893,167.3648 97.2572,142.4717 -1.4798,-61.4025 4.7704,56.865 48.4055,22.9909 z"
       id="path3167"
       inkscape:connector-curvature="0" />
    <path
       style="fill:#000000"
       d="m 1343.7815,1261.2695 c 20.7911,-31.9262 57.6148,-13.713 0,0 z"
       id="path3165"
       inkscape:connector-curvature="0" />
    <path
       style="fill:#000000"
       d="m 1405.7127,1252.1067 c -27.2678,-30.3539 -56.9735,-124.5534 -15.2156,-35.1067 -1.8365,7.0489 29.5462,34.3698 15.2156,35.1067 z"
       id="path3163"
       inkscape:connector-curvature="0" />
    <path
       style="fill:#000000"
       d="m 1317.558,1247.3649 c -5.9749,-68.995 18.4726,-22.0705 0,0 z"
       id="path3161"
       inkscape:connector-curvature="0" />
    <path
       style="fill:#000000"
       d="m 1327.8202,1232.5333 c 28.0924,-19.1092 81.7446,-4.2449 10.4273,1.2872 l -10.4273,-1.2872 0,0 z"
       id="path3159"
       inkscape:connector-curvature="0" />
    <path
       style="fill:#000000"
       d="m 1436.7237,1207.25 c -25.6204,-36.9965 129.2234,-77.3838 69.6548,-73.3727 -11.034,34.0733 -74.5737,54.9095 -69.6548,73.3727 z"
       id="path3157"
       inkscape:connector-curvature="0" />
    <path
       style="fill:#000000"
       d="m 1352.8523,1135.994 c -17.2237,-54.8669 19.894,-42.6054 0,0 z"
       id="path3155"
       inkscape:connector-curvature="0" />
    <path
       style="fill:#000000"
       d="m 1406.356,1124.0116 c -84.8952,-53.131 33.6738,-136.22776 56.3574,-69.8597 -45.8381,-41.2492 -114.0106,27.7982 -32.3609,-6.0989 54.6108,21.3628 82.1188,31.0118 18.4102,46.3748 -67.4416,-11.8016 -51.0845,20.4811 4.3199,9.8816 -17.4018,22.1835 -50.1998,0.4852 -46.7266,19.7022 z"
       id="path3153"
       inkscape:connector-curvature="0" />
    <path
       style="fill:#786721"
       d="m 1423.5797,1086.0833 c 41.04,-62.6948 -85.0425,-3.9777 0,0 z"
       id="path3151"
       inkscape:connector-curvature="0" />
    <path
       style="fill:#000000"
       d="m 1408.3725,1079.3441 c 6.9398,-1.8341 1.2479,1.8214 0,0 z"
       id="path3149"
       inkscape:connector-curvature="0" />
    <path
       style="fill:#ffffff"
       d="m 1458.5868,1083.3692 c -12.3523,-68.4881 -50.6248,23.5932 0,0 z"
       id="path3147"
       inkscape:connector-curvature="0" />
    <path
       style="fill:#000000"
       d="m 1554.6606,1119.9053 c -15.6725,-47.0651 18.7578,-15.2346 0,0 z"
       id="path3145"
       inkscape:connector-curvature="0" />
    <path
       style="fill:#000000"
       d="m 1344.96,1079.3081 c -14.962,-55.9786 22.6997,-27.6753 0,0 z"
       id="path3143"
       inkscape:connector-curvature="0" />
    <path
       style="fill:#808080"
       d="m 1629.7198,1265.3172 c 81.0522,-67.2607 -80.4068,-112.7171 -37.2032,-166.3331 -46.0757,-52.9553 17.8671,110.1552 -46.5967,88.1956 6.3486,34.8609 43.1376,42.0969 50.9453,73.5405 10.5541,0.3072 22.5623,8.3648 32.8546,4.597 z"
       id="path3141"
       inkscape:connector-curvature="0" />
    <path
       style="fill:#008066"
       d="m 1564.6214,1178.4884 c 29.3563,-87.2177 -74.9383,-2.3315 0,0 z"
       id="path3139"
       inkscape:connector-curvature="0" />
    <path
       style="fill:#000000"
       d="m 1616.2348,1142.5472 c 44.8779,0.7711 118.9473,8.4929 47.5526,-40.5279 -40.277,-48.1633 -115.6467,-98.4809 -65.1322,-161.95439 -53.6477,-61.96131 -127.2624,-110.67966 -207.8954,-127.67062 17.2827,-62.51131 -32.0106,-176.9944 -75.2527,-69.55261 -25.7938,18.41794 -52.8641,-116.41737 -60.4696,-29.26515 7.7474,69.73803 -12.2262,104.42627 -82.9427,71.2778 -61.0698,-13.74549 -182.11772,132.74062 -101.8453,161.45523 45.0268,15.2199 186.2697,89.33384 113.9609,-5.22249 31.7413,-35.12242 -48.5467,-56.653 27.0509,-29.51848 122.0735,46.79074 246.6863,88.66241 359.5746,156.43121 89.3674,15.5156 -32.7392,62.4422 45.3989,74.5474 z"
       id="path3137"
       inkscape:connector-curvature="0" />
    <path
       style="fill:#808080"
       d="m 1526.3382,1116.25 c 42.965,-37.9106 11.0209,-74.5915 -26.837,-71.4357 8.0327,14.1283 0.1971,82.1437 26.837,71.4357 z"
       id="path3135"
       inkscape:connector-curvature="0" />
    <path
       style="fill:#786721"
       d="m 1263.0848,1086.8146 c 49.5217,-57.2624 -75.3295,-4.4216 0,0 z"
       id="path3133"
       inkscape:connector-curvature="0" />
    <path
       style="fill:#ffffff"
       d="m 1294.2918,1081.6702 c 11.8096,-44.6687 -44.581,17.5582 0,0 z"
       id="path3131"
       inkscape:connector-curvature="0" />
    <path
       style="fill:#ffebc6;fill-opacity:1"
       d="m 1235.0324,1063.496 c 23.2861,-23.9641 93.4674,8.1524 24.2324,-18.4595 -79.5482,-1.8878 35.7357,16.8392 36.3909,3.4589 -14.9316,-63.29932 -131.5129,-43.6125 -60.6233,15.0006 z"
       id="path3129"
       inkscape:connector-curvature="0" />
    <path
       style="fill:#999999"
       d="m 1329.1197,985.40634 c 74.7508,-11.24015 -66.5633,-37.26777 -96.8295,-57.05828 -52.6102,-46.35816 -39.7438,67.43289 -19.1472,22.02887 34.2927,21.64928 73.9395,41.57021 115.9767,35.02941 z"
       id="path3127"
       inkscape:connector-curvature="0" />
    <path
       style="fill:#000000"
       d="m 905.98642,2108.3349 c -44.58604,-18.2178 -143.35381,25.8748 -146.63949,-59.5802 -38.37366,-44.134 15.93123,-121.8983 -4.08298,-182.6835 -24.37187,-61.2104 7.13458,-187.3814 -37.45235,-216.5006 -94.15767,47.194 -120.83504,-60.476 -123.92765,-130.81 -18.14812,-79.9396 -38.42194,-179.5345 74.00403,-183.4906 14.14636,-79.8164 4.71209,-142.936 -38.12387,-204.6088 14.7717,-144.22613 31.23984,-288.99616 28.40228,-434.05413 5.37845,-68.31322 75.86653,-122.25514 58.76583,-186.7872 78.54414,0.85612 -48.73126,-69.41978 -22.87023,-119.0304 22.25159,-51.18238 -128.07251,-52.99164 -23.03411,-77.74176 57.77817,-17.63284 42.67368,-137.84101 135.85241,-91.88898 94.53491,-26.46013 76.08388,103.70068 162.41498,105.00192 -24.38497,41.38548 -109.05074,37.66363 -93.18735,110.59658 -22.13081,53.10408 -75.20319,115.39181 14.18624,117.2094 22.04672,65.89931 39.24266,140.84188 49.51972,213.77087 9.57188,116.68739 20.00044,233.4534 25.47726,350.2625 -3.17902,73.5422 -47.71318,159.9406 -20.98034,243.7786 8.41067,71.8595 32.02455,141.618 37.07424,213.6286 -75.25217,22.4607 -52.21863,100.9285 -66.56051,165.2063 -9.09318,80.5233 -22.80192,166.3809 -3.87466,244.2657 37.56461,52.0963 181.90843,27.3713 155.61803,108.4659 -45.3765,20.6775 -110.04454,8.7929 -160.58148,14.9898 z"
       id="path3125"
       inkscape:connector-curvature="0" />
    <path
       style="fill:#552200"
       d="m 842.56841,2098.5969 c 75.45078,-8.6787 -139.85302,-8.5682 -18.58926,0.7019 l 18.58926,-0.7019 0,0 z"
       id="path3123"
       inkscape:connector-curvature="0" />
    <path
       style="fill:#000000"
       d="m 949.32639,2098.3169 c -4.54394,-1.4576 -0.48415,1.9358 0,0 z"
       id="path3121"
       inkscape:connector-curvature="0" />
    <path
       style="fill:#552200"
       d="m 968.01017,2096.0649 c -6.48662,-2.3826 -29.23185,5.3248 0,0 z"
       id="path3119"
       inkscape:connector-curvature="0" />
    <path
       style="fill:#552200"
       d="m 938.73507,2090.534 c 41.03223,-5.2548 179.70253,0.6302 76.40623,-38.4929 -47.03798,-25.5896 -102.71674,-18.8344 -104.46059,-23.2014 6.7662,27.6397 -20.7443,20.7187 -15.75484,-1.1454 7.33556,-35.2723 -67.43978,-3.0418 -117.59479,17.0358 -32.64507,54.6758 72.24851,37.8501 105.56635,40.2637 12.02621,-4.8186 37.7501,21.1809 55.83764,5.5402 z"
       id="path3117"
       inkscape:connector-curvature="0" />
    <path
       style="fill:#552200"
       d="m 1066.6085,2070.9923 c -44.6195,-57.87 9.0215,32.0464 0,0 z"
       id="path3115"
       inkscape:connector-curvature="0" />
    <path
       style="fill:#784421"
       d="m 769.69403,2038.8563 c 38.70279,-25.83 151.42837,-27.6732 114.84105,-94.6959 -16.40907,-111.2402 12.38711,-221.4497 12.61388,-332.3772 -79.37083,16.8987 -198.19293,10.0186 -151.81407,125.1733 14.26087,90.8144 19.74413,181.8166 10.18181,270.3864 -0.26059,14.1534 -16.12469,48.7682 14.17733,31.5134 z"
       id="path3113"
       inkscape:connector-curvature="0" />
    <path
       style="fill:#552200"
       d="m 1017.7476,2042.607 c -4.0696,-3.2643 -4.1581,1.7765 0,0 z"
       id="path3111"
       inkscape:connector-curvature="0" />
    <path
       style="fill:#000000"
       d="m 1008.3909,2039.607 c -0.5034,-2.6898 -6.1372,0.913 0,0 z"
       id="path3109"
       inkscape:connector-curvature="0" />
    <path
       style="fill:#000000"
       d="m 986.11621,2032.1207 c -9.89374,-5.1646 -2.69595,1.2624 0,0 z"
       id="path3107"
       inkscape:connector-curvature="0" />
    <path
       style="fill:#552200"
       d="m 976.62992,2029.1589 c -29.02322,-11.896 -30.80319,-6.4625 0,0 z"
       id="path3105"
       inkscape:connector-curvature="0" />
    <path
       style="fill:#552200"
       d="m 943.93326,2019.669 c -29.52445,-24.8516 -21.1461,3.5829 0,0 z"
       id="path3103"
       inkscape:connector-curvature="0" />
    <path
       style="fill:#552200"
       d="m 922.1936,2007 c -11.57929,-18.0664 -9.66168,16.0437 0,0 z"
       id="path3101"
       inkscape:connector-curvature="0" />
    <path
       style="fill:#552200"
       d="m 910.28684,1998.0677 c -14.10802,-18.9689 -9.46253,25.1824 0,0 z"
       id="path3099"
       inkscape:connector-curvature="0" />
    <path
       style="fill:#784421"
       d="m 902.27156,1979.4322 c -19.17094,-123.7861 17.48523,-249.402 21.79535,-373.8476 -49.37943,40.116 -20.25389,156.8592 -37.94702,224.2342 -2.49828,46.565 1.54166,122.5992 16.15167,149.6134 z"
       id="path3097"
       inkscape:connector-curvature="0" />
    <path
       style="fill:#2b1100"
       d="m 695.45764,1648.3456 c 80.03573,-26.1004 174.94946,-26.5075 246.92702,-62.8456 -17.87081,-85.4115 -14.99717,-178.1616 -51.91029,-258.6329 -59.67694,-21.3615 -69.39401,5.8177 -129.09882,6.1693 -19.62444,50.9717 12.13194,105.7927 19.33433,153.8464 9.26407,105.246 -62.5183,-15.7876 -61.69927,-59.8482 -19.65241,-54.1846 1.70936,-95.9726 -46.94306,-84.1443 -103.49533,-2.6363 -99.33875,86.6959 -73.80994,160.1078 12.68477,54.1209 6.5014,175.5749 97.20003,145.3475 z"
       id="path3095"
       inkscape:connector-curvature="0" />
    <path
       style="fill:#2b1100"
       d="m 957.9684,1586.0768 c 42.7263,-46.0682 -18.28955,-123.5907 -11.60676,-181.0768 8.53763,-60.0657 -86.27249,-129.5329 -32.4179,-35.888 14.66614,72.6431 23.36671,146.4928 36.83065,219.0175 l 7.19425,-2.0527 -2.4e-4,0 z"
       id="path3093"
       inkscape:connector-curvature="0" />
    <path
       style="fill:#2b1100"
       d="m 775.97217,1522.75 c 21.35037,-52.1764 -57.74184,-13.328 0,0 z"
       id="path3091"
       inkscape:connector-curvature="0" />
    <path
       style="fill:#aa4400"
       d="m 768.61084,1490.9915 c 24.66215,-20.2798 -50.96716,14.4989 0,0 z"
       id="path3089"
       inkscape:connector-curvature="0" />
    <path
       style="fill:#000000"
       d="m 745.36211,1490.9405 c -1.49897,-3.8168 -4.70424,4.0037 0,0 z"
       id="path3087"
       inkscape:connector-curvature="0" />
    <path
       style="fill:#2b1100"
       d="m 762.51617,1482.4352 c 26.05493,-28.6434 -42.21124,6.6824 0,0 l 0,0 z"
       id="path3085"
       inkscape:connector-curvature="0" />
    <path
       style="fill:#aa4400"
       d="m 757.9779,1469.1247 c 20.09281,-14.7075 -64.81684,-0.8091 0,0 z"
       id="path3083"
       inkscape:connector-curvature="0" />
    <path
       style="fill:#2b1100"
       d="m 763.15146,1453.2905 c -21.24506,-35.6722 10.30482,-175.2117 -51.83381,-104.291 3.88732,30.3105 2.02289,118.342 51.83381,104.291 z"
       id="path3081"
       inkscape:connector-curvature="0" />
    <path
       style="fill:#2b1100"
       d="m 687.68157,1345.25 c -8.38821,-69.1753 -35.50431,-19.0917 0,0 z"
       id="path3079"
       inkscape:connector-curvature="0" />
    <path
       style="fill:#000000"
       d="m 698.19165,1334.7053 c -3.75539,-48.1786 -26.5756,7.6949 0,0 z"
       id="path3077"
       inkscape:connector-curvature="0" />
    <path
       style="fill:#784421"
       d="m 713.03551,1332.0941 c -8.01264,-29.5399 -22.17299,15.2802 0,0 z"
       id="path3075"
       inkscape:connector-curvature="0" />
    <path
       style="fill:#784421"
       d="m 931.15019,1326.25 c 8.26948,-99.3003 18.17371,-198.4296 11.74337,-298.2117 -89.78378,-17.5868 -9.23773,119.5571 -31.18918,162.9966 -54.02663,19.3745 -163.38763,-8.7647 -102.1144,68.4887 4.9707,75.7923 148.12278,79.7386 108.69384,-16.5236 17.45482,-123.3695 -10.51159,51.3826 10.1311,83.1372 l 1.78894,1.7908 0.94628,-1.678 5e-5,0 z"
       id="path3073"
       inkscape:connector-curvature="0" />
    <path
       style="fill:#000000"
       d="m 931.36178,1137.45 c -1.76315,-45.061 7.56294,-124.8064 4.73704,-33.5439 -5.75866,6.3047 7.69517,32.8857 -4.73704,33.5439 z"
       id="path3071"
       inkscape:connector-curvature="0" />
    <path
       style="fill:#ffe9cc;fill-opacity:1"
       d="m 732.22507,1322.8692 c 53.43004,0.362 54.38635,-29.3078 64.68435,-61.433 22.75505,-18.2791 -123.18027,26.2279 -112.69388,-1.4106 -18.71965,44.9322 7.6042,59.7369 48.00953,62.8436 z"
       id="path3069"
       inkscape:connector-curvature="0" />
    <path
       style="fill:#000000"
       d="m 769.88725,1322.9502 c 79.02339,-11.0082 -40.07683,-6.2183 -8.31712,1.9307 l 8.31712,-1.9307 0,0 z"
       id="path3067"
       inkscape:connector-curvature="0" />
    <path
       style="fill:#2b1100"
       d="m 824.89212,1324.0035 c 1.02221,-50.555 -56.42159,-59.4955 -7.49129,-16.7102 8.60301,-18.4554 -0.15151,24.1205 7.49129,16.7102 z"
       id="path3065"
       inkscape:connector-curvature="0" />
    <path
       style="fill:#000000"
       d="m 812.72897,1315.5347 c 0.60089,-16.6002 13.09378,-7.6345 0,0 l 0,0 z"
       id="path3063"
       inkscape:connector-curvature="0" />
    <path
       style="fill:#784421"
       d="m 803.11237,1308.7497 c 3.72675,-31.7746 -11.66262,6.32 0,0 z"
       id="path3061"
       inkscape:connector-curvature="0" />
    <path
       style="fill:#e3dbdb"
       d="m 768.46301,1240.9299 c 47.47376,-13.7264 -103.52797,-42.2733 -98.08845,-20.5004 11.9433,28.5358 71.89501,21.1526 98.08845,20.5004 z"
       id="path3059"
       inkscape:connector-curvature="0" />
    <path
       style="fill:#784421"
       d="m 750.31141,1230.0784 c 73.91348,-24.7366 18.02491,-157.0546 43.7224,-222.5207 5.85582,-103.32881 32.27578,-207.22919 20.28015,-310.558 -7.43854,-102.48237 21.0469,73.45543 6.46788,104.5 17.07878,67.25885 -63.56188,197.48767 4.72353,230.099 58.02582,-9.6352 19.72766,123.8236 -34.47866,109.5416 -43.87267,82.4241 131.70658,70.9137 116.05016,17.3622 -21.30153,-149.6049 -8.25548,-303.03286 -38.10224,-451.5 -38.00939,-66.17456 -47.57539,-112.15062 -50.65348,-120.96587 6.853,33.89453 69.09874,149.92265 39.9346,47.96337 17.3369,-65.98255 -159.89588,-169.5392 -136.75071,-68.43486 -68.68297,80.48904 -62.90765,185.31907 -61.76641,284.23801 -1.9702,99.28923 -26.25029,199.18045 -20.48088,297.59415 60.298,46.9408 18.60753,-126.4444 32.14006,-164.7473 7.44903,-101.84534 -7.46212,-204.62533 9.44734,-305.68527 -3.88546,76.7225 -1.68772,172.08175 -2.10218,256.10544 6.75805,90.86073 -18.0465,197.39483 -0.43451,278.92983 20.62209,12.8544 47.35742,23.0265 72.00295,18.0784 z"
       id="path3057"
       inkscape:connector-curvature="0" />
    <path
       style="fill:#000000"
       d="M 687.83539,653.33333 C 670.9179,602.83053 800.56755,559.54315 708.86944,608.83975 696.17443,619.1 695.30598,644.82822 687.83539,653.33333 z"
       id="path3055"
       inkscape:connector-curvature="0" />
    <path
       style="fill:#000000"
       d="m 793.8954,633.80005 c -38.45519,-53.80744 -9.47936,-44.45561 7.36539,2.58136 l -2.46246,2.41864 -4.90293,-5 0,0 z"
       id="path3053"
       inkscape:connector-curvature="0" />
    <path
       style="fill:#000000"
       d="m 820.43507,581.3935 c -43.15768,-17.62197 -126.01695,-41.97432 -27.76936,-19.38803 2.23552,0.10125 47.64056,18.425 27.76936,19.38803 z"
       id="path3051"
       inkscape:connector-curvature="0" />
    <path
       style="fill:#784421"
       d="m 957.33176,1167.4601 c 6.01493,-83.7401 -6.61803,-175.48225 -12.31977,-262.11392 -1.15742,-49.99365 -11.96382,-186.06599 -20.29631,-187.44611 5.28609,121.99544 29.75725,242.9361 23.84616,364.60043 5.93999,15.4152 -8.21656,102.3042 8.76992,84.9596 z"
       id="path3049"
       inkscape:connector-curvature="0" />
    <path
       style="fill:#784421"
       d="m 813.4585,1130.2569 c 72.39684,-23.9913 7.42678,-155.51644 -16.23562,-70.26 7.64987,16.8776 -25.73013,89.4379 16.23562,70.26 z"
       id="path3047"
       inkscape:connector-curvature="0" />
    <path
       style="fill:#2b1100"
       d="m 924.42747,1022.1813 c 7.64311,-65.55849 -64.09464,5.6655 0,0 z"
       id="path3045"
       inkscape:connector-curvature="0" />
    <path
       style="fill:#000000"
       d="m 945.78671,1010.4203 c -22.64423,-67.13909 -17.78797,52.2862 0,0 z"
       id="path3043"
       inkscape:connector-curvature="0" />
    <path
       style="fill:#6c5353"
       d="m 938.33747,1017.4747 c -16.27068,-50.09824 16.9526,4.683 0,0 z"
       id="path3041"
       inkscape:connector-curvature="0" />
    <path
       style="fill:#e3dbdb"
       d="M 919.24182,991.61566 C 975.5868,957.67095 907.51545,831.607 923.11336,764 c -5.1857,-61.95195 -18.23485,-134.63538 -51.01955,-181.76394 22.30466,71.29936 27.68662,155.78384 31.67065,234.62393 -3.90071,39.81057 68.13602,206.61061 -6.57425,121.64001 4.71995,17.93257 -12.71038,66.7027 22.05161,53.11566 z"
       id="path3039"
       inkscape:connector-curvature="0" />
    <path
       style="fill:#000000"
       d="M 927.34418,935.56396 C 878.18894,834.04162 910.3646,715.35788 871.3394,611.96144 845.83938,592.56505 883.92666,757.87913 880.52584,739.5 c 20.22859,72.88458 -11.16898,165.82103 45.21373,223.76071 0.58267,-9.22945 1.2516,-18.45386 1.60461,-27.69675 z"
       id="path3037"
       inkscape:connector-curvature="0" />
    <path
       style="fill:#000000"
       d="m 920.19668,691.76845 c -2.29758,1.45952 3.52968,4.63143 0,0 z"
       id="path3035"
       inkscape:connector-curvature="0" />
    <path
       style="fill:#000000"
       d="m 918.90862,682.84722 c -7.38869,-26.22769 3.80788,24.46529 0,0 z"
       id="path3033"
       inkscape:connector-curvature="0" />
    <path
       style="fill:#784421"
       d="m 911.08114,646.25 c -1.35283,-29.60104 -41.26801,-130.62863 -42.05723,-72.74441 24.2732,8.15975 35.8622,77.69765 42.05723,72.74441 z"
       id="path3031"
       inkscape:connector-curvature="0" />
    <path
       style="fill:#000000"
       d="m 856.08264,594.00327 c 35.17415,-39.32983 -51.83667,-52.71187 0,0 z"
       id="path3029"
       inkscape:connector-curvature="0" />
    <path
       style="fill:#e3dbdb"
       d="m 833.25214,554.93699 c 2.82367,-31.91374 -113.70359,-45.2964 -73.35937,-34.94996 26.22226,6.87744 47.74214,28.75657 73.35937,34.94996 z"
       id="path3027"
       inkscape:connector-curvature="0" />
    <path
       style="fill:#e3dbdb"
       d="m 847.44542,547.4048 c -12.15551,-29.1417 -23.55328,13.18921 0,0 z"
       id="path3025"
       inkscape:connector-curvature="0" />
    <path
       style="fill:#ffe9cc;fill-opacity:1"
       d="m 823.92427,519.79922 c 22.34123,-24.62548 83.57379,-135.84169 36.34288,-134.36052 -44.12509,37.67109 -130.89242,-49.48339 -133.48951,16.5969 -58.33265,-47.37351 -4.6248,45.78735 11.82681,69.50543 21.89351,21.52503 49.8925,60.78474 85.31982,48.25819 z"
       id="path3023"
       inkscape:connector-curvature="0" />
    <path
       style="fill:#000000"
       d="m 809.02406,483.86128 c -23.00639,-15.34785 45.78497,3.55892 0,0 z"
       id="path3021"
       inkscape:connector-curvature="0" />
    <path
       style="fill:#000000"
       d="m 787.74238,467.29215 c 17.55201,-24.76472 83.41864,9.45258 12.16318,1.07026 l -12.16318,-1.07026 z"
       id="path3019"
       inkscape:connector-curvature="0" />
    <path
       style="fill:#000000"
       d="m 805.90068,442.11437 c -52.30017,-73.10095 36.54811,19.04118 0,0 z"
       id="path3017"
       inkscape:connector-curvature="0" />
    <path
       style="fill:#000000"
       d="m 831.30565,438.33333 c 2.09863,-40.74318 14.07611,-51.40754 8.07832,-1.69326 l -8.07832,1.69326 z"
       id="path3015"
       inkscape:connector-curvature="0" />
    <path
       style="fill:#000000"
       d="m 707.29898,415.23469 c -14.20823,-23.83766 15.5472,-3.94885 0,0 z"
       id="path3013"
       inkscape:connector-curvature="0" />
    <path
       style="fill:#ffe9cc;fill-opacity:1"
       d="m 768.23418,511.68134 c -26.07903,-35.00716 -21.84929,2.07133 0,0 z"
       id="path3011"
       inkscape:connector-curvature="0" />
    <path
       style="fill:#000000"
       d="m 720.94619,460.25 c -10.43974,-42.64822 -15.90203,-16.78628 0,0 z"
       id="path3009"
       inkscape:connector-curvature="0" />
    <path
       style="fill:#000000"
       d="m 726.61097,382.06764 c -30.61736,-57.4891 -24.91215,28.82767 -1.2e-4,0 l 1.2e-4,0 z"
       id="path3007"
       inkscape:connector-curvature="0" />
    <path
       style="fill:#502d16"
       d="m 834.91617,384.46046 c 43.16646,-10.66849 199.55203,-57.47205 70.57307,-74.13911 -17.48312,-79.00935 -81.64823,-91.71441 -154.92893,-86.71513 -47.77477,30.44092 -30.54048,118.62359 -112.1574,105.02937 53.88386,24.84682 131.43618,53.91772 196.51326,55.82487 z"
       id="path3005"
       inkscape:connector-curvature="0" />
    <path
       style="fill:#000000"
       d="m 812.41886,351.06387 c -31.95459,-11.10945 -157.91139,-53.20012 -55.36605,-28.52694 44.63054,33.45171 102.71963,13.81221 127.36109,5.36129 -24.29888,5.96791 -44.92566,33.64864 -71.99504,23.16565 z"
       id="path3003"
       inkscape:connector-curvature="0" />
    <path
       style="fill:#000000"
       d="m 815.44403,264.85411 c -41.34072,-8.99225 -102.53546,-39.27754 -24.29052,-15.43548 41.14735,14.48703 104.33367,-8.10774 24.29052,15.43548 l 0,0 z"
       id="path3001"
       inkscape:connector-curvature="0" />
    <path
       style="fill:#000000"
       d="m 290,2044 c 1.27187,-3.6676 2.55587,3.5675 0,0 z"
       id="path2999"
       inkscape:connector-curvature="0" />
    <path
       style="fill:#000000"
       d="m 2220.0908,1924 c 3.7069,-3.8273 1.3169,3.9684 0,0 z"
       id="path2995"
       inkscape:connector-curvature="0" />
  </g>
</svg>
