<?xml version="1.0" encoding="UTF-8" standalone="no"?>
<!-- Created with Inkscape (http://www.inkscape.org/) -->

<svg
   xmlns:dc="http://purl.org/dc/elements/1.1/"
   xmlns:cc="http://creativecommons.org/ns#"
   xmlns:rdf="http://www.w3.org/1999/02/22-rdf-syntax-ns#"
   xmlns:svg="http://www.w3.org/2000/svg"
   xmlns="http://www.w3.org/2000/svg"
   xmlns:xlink="http://www.w3.org/1999/xlink"
   xmlns:sodipodi="http://sodipodi.sourceforge.net/DTD/sodipodi-0.dtd"
   xmlns:inkscape="http://www.inkscape.org/namespaces/inkscape"
   id="svg4427"
   version="1.1"
   inkscape:version="0.48.3.1 r9886"
   width="643"
   height="1815"
   sodipodi:docname="heroine.svg">
  <metadata
     id="metadata4433">
    <rdf:RDF>
      <cc:Work
         rdf:about="">
        <dc:format>image/svg+xml</dc:format>
        <dc:type
           rdf:resource="http://purl.org/dc/dcmitype/StillImage" />
        <dc:title />
      </cc:Work>
    </rdf:RDF>
  </metadata>
  <defs
     id="defs4431">
    <linearGradient
       inkscape:collect="always"
       id="linearGradient3837">
      <stop
         style="stop-color:#ffffff;stop-opacity:1;"
         offset="0"
         id="stop3839" />
      <stop
         style="stop-color:#ffffff;stop-opacity:0;"
         offset="1"
         id="stop3841" />
    </linearGradient>
    <linearGradient
       inkscape:collect="always"
       id="linearGradient4456">
      <stop
         style="stop-color:#ffffff;stop-opacity:1;"
         offset="0"
         id="stop4458" />
      <stop
         style="stop-color:#ffffff;stop-opacity:0;"
         offset="1"
         id="stop4460" />
    </linearGradient>
    <linearGradient
       inkscape:collect="always"
       id="linearGradient4442">
      <stop
         style="stop-color:#ff0000;stop-opacity:1;"
         offset="0"
         id="stop4444" />
      <stop
         style="stop-color:#ff0000;stop-opacity:0;"
         offset="1"
         id="stop4446" />
    </linearGradient>
    <linearGradient
       inkscape:collect="always"
       id="linearGradient4432">
      <stop
         style="stop-color:#ff0000;stop-opacity:1;"
         offset="0"
         id="stop4434" />
      <stop
         style="stop-color:#ff0000;stop-opacity:0;"
         offset="1"
         id="stop4436" />
    </linearGradient>
    <radialGradient
       inkscape:collect="always"
       xlink:href="#linearGradient4432"
       id="radialGradient4438"
       cx="325.20653"
       cy="302.55649"
       fx="325.20653"
       fy="302.55649"
       r="6.0550294"
       gradientTransform="matrix(1,0,0,0.58836313,0,124.5434)"
       gradientUnits="userSpaceOnUse" />
    <radialGradient
       inkscape:collect="always"
       xlink:href="#linearGradient4442"
       id="radialGradient4448"
       cx="331.39136"
       cy="328.54612"
       fx="331.39136"
       fy="328.54612"
       r="10.063956"
       gradientTransform="matrix(1,0,0,0.23437248,0,251.54395)"
       gradientUnits="userSpaceOnUse" />
    <radialGradient
       inkscape:collect="always"
       xlink:href="#linearGradient4456"
       id="radialGradient4462"
       cx="345.22222"
       cy="236.54092"
       fx="345.22222"
       fy="236.54092"
       r="1.4727316"
       gradientTransform="matrix(1,0,0,0.98100662,0,4.1028908)"
       gradientUnits="userSpaceOnUse" />
    <radialGradient
       inkscape:collect="always"
       xlink:href="#linearGradient4456-6"
       id="radialGradient4462-3"
       cx="345.22223"
       cy="236.54092"
       fx="345.22223"
       fy="236.54092"
       r="1.4727316"
       gradientTransform="matrix(1,0,0,0.98100662,0,4.4927104)"
       gradientUnits="userSpaceOnUse" />
    <linearGradient
       inkscape:collect="always"
       id="linearGradient4456-6">
      <stop
         style="stop-color:#ffffff;stop-opacity:1;"
         offset="0"
         id="stop4458-9" />
      <stop
         style="stop-color:#ffffff;stop-opacity:0;"
         offset="1"
         id="stop4460-7" />
    </linearGradient>
    <radialGradient
       r="1.4727316"
       fy="236.54092"
       fx="345.22223"
       cy="236.54092"
       cx="345.22223"
       gradientTransform="matrix(1.3308642,0,0,1.3118709,-109.87704,-80.009259)"
       gradientUnits="userSpaceOnUse"
       id="radialGradient4479"
       xlink:href="#linearGradient4456-6"
       inkscape:collect="always" />
    <radialGradient
       inkscape:collect="always"
       xlink:href="#linearGradient3837"
       id="radialGradient3843"
       cx="335.24484"
       cy="937.12628"
       fx="335.24484"
       fy="937.12628"
       r="369.54898"
       gradientTransform="matrix(1,0,0,2.2067509,0,-1130.878)"
       gradientUnits="userSpaceOnUse" />
  </defs>
  <sodipodi:namedview
     pagecolor="#ffffff"
     bordercolor="#666666"
     borderopacity="1"
     objecttolerance="10"
     gridtolerance="10"
     guidetolerance="10"
     inkscape:pageopacity="0"
     inkscape:pageshadow="2"
     inkscape:window-width="1364"
     inkscape:window-height="744"
     id="namedview4429"
     showgrid="false"
     inkscape:zoom="0.22674168"
     inkscape:cx="-170.43222"
     inkscape:cy="883.33329"
     inkscape:window-x="0"
     inkscape:window-y="22"
     inkscape:window-maximized="1"
     inkscape:current-layer="svg4427" />
  <path
     sodipodi:type="arc"
     style="fill:url(#radialGradient3843);fill-opacity:1;stroke:none"
     id="path3067"
     sodipodi:cx="335.24484"
     sodipodi:cy="937.12628"
     sodipodi:rx="369.54898"
     sodipodi:ry="815.50256"
     d="m 704.79382,937.12628 a 369.54898,815.50256 0 1 1 -0.56514,-45.08352"
     sodipodi:start="0"
     sodipodi:end="6.227874"
     sodipodi:open="true"
     transform="matrix(0.87860951,0,0,1.1101862,31.339874,-136.98161)" />
  <path
     style="fill:#000000"
     d="M 501.0625 67.625 C 499.2182 67.809291 497.38595 70.257791 496.09375 74.28125 C 495.62019 75.755775 495.19784 75.834874 493.5 74.84375 C 490.80364 73.269742 486.22197 75.089141 482.84375 79.0625 C 480.74373 81.532493 480.47537 82.645432 481.09375 86.5 C 481.94142 91.783772 484.25868 93.527453 488.46875 92.03125 C 490.06586 91.46365 491.21875 91.439278 491.21875 91.96875 C 491.21875 95.701928 485.57664 115.87013 482.6875 122.5 C 482.20814 123.6 481.21486 127.65 480.46875 131.5 C 479.06394 138.7489 472.44897 157.29725 468.71875 164.5 C 466.27826 169.21238 466.08152 171.82224 467.84375 175.4375 C 468.7234 177.24214 469.91153 178 471.9375 178 C 475.47511 178 476.16203 178.58436 475.46875 181.0625 C 475.05456 182.54294 473.97978 183 470.96875 183 C 465.39758 183 463.65742 184.66226 463.09375 190.5 C 462.62059 195.40017 459.94196 205.54027 458.09375 209.5 C 457.58033 210.6 456.91364 212.27868 456.59375 213.21875 C 456.27388 214.15882 454.40871 215.31072 452.46875 215.78125 L 448.9375 216.625 L 448.9375 226.0625 C 448.9375 231.32739 448.40321 236.384 447.71875 237.5 C 447.0441 238.6 445.90333 243.1 445.1875 247.5 C 443.5049 257.84231 441.40296 268.38019 439.9375 273.75 C 437.81376 281.53187 437.69724 284.86947 439.5 285.8125 C 440.48569 286.32812 441.30575 288.37791 441.5 290.8125 C 441.80732 294.66416 445.8961 304 447.28125 304 C 447.62381 304 448.49602 304.88701 449.21875 305.96875 C 450.33933 307.64602 450.12929 308.29704 447.90625 310.375 C 446.38594 311.79609 443.4023 313.09196 440.71875 313.5 C 436.65218 314.11833 427.0487 318.66913 427 320 C 426.98993 320.275 426.58381 321.09015 426.09375 321.8125 C 425.42252 322.8019 424.07996 322.14448 420.6875 319.1875 C 418.21069 317.02863 414.8967 314.7214 413.3125 314.03125 C 411.72831 313.3411 409.61547 312.36083 408.59375 311.875 C 407.57204 311.38917 404.09151 311 400.875 311 C 392.05388 311 389.5625 309.58914 389.5625 304.5625 C 389.5625 300.93678 391.60456 296.5294 394 294.96875 C 398.06547 292.32003 410.29999 281.11919 412.09375 278.40625 C 415.64734 273.03163 413.32329 264.74085 406.65625 259 C 405.69815 258.175 403.55514 255.33584 401.90625 252.6875 C 400.25735 250.03916 396.58235 245.46002 393.71875 242.53125 C 387.05195 235.71274 386.92952 234.24345 392.28125 222.5 C 398.06056 209.81829 399.6478 204.24764 399.6875 196.5 C 399.729 188.39242 399.49428 187.68634 393.21875 176.84375 C 392.372 175.38077 388.53368 171.10577 384.6875 167.34375 C 376.19287 159.03498 373.34695 154.20484 373.28125 148.09375 C 373.21982 142.39078 370.61787 136.49724 367.5 134.9375 C 364.87499 133.62431 360.17207 133.50517 346.78125 134.46875 C 337.69394 135.12266 337.69017 135.13539 332.125 131.65625 C 329.06209 129.74144 323.51618 126.72307 319.8125 124.96875 C 316.10882 123.21443 310.38549 120.23752 307.09375 118.34375 C 297.11423 112.60242 287.63617 110.05065 276.0625 109.96875 C 252.83821 109.80445 222.22567 119.0538 209.96875 129.9375 C 205.24422 134.1327 198.0625 142.16382 198.0625 143.25 C 198.0625 143.5022 195.49075 148.1501 192.3125 153.59375 C 186.413 163.69833 181.37963 177.21102 178.21875 191.5 C 175.98231 201.61005 175.68121 239.29891 177.6875 259 C 178.9941 271.83021 178.98473 272.72326 176.96875 277 C 174.26539 282.73496 166.18912 291.12183 160.34375 294.28125 C 157.85206 295.62801 152.46254 297.7531 148.34375 299 C 132.63404 303.75586 122.09611 308.39494 103.40625 318.78125 C 93.982023 324.01848 78.526262 336.60405 73.6875 343 C 66.889835 351.98525 59.192228 366.35949 56.46875 375.15625 C 54.575592 381.27109 53.861645 397.28682 55.21875 403 C 56.642297 408.99289 68.269845 427 70.71875 427 C 71.269824 427 73.419848 426.05348 75.5 424.90625 L 79.28125 422.84375 L 76 419.03125 C 74.059859 416.77455 72.500582 413.55591 72.15625 411.15625 C 71.616092 407.39189 71.830807 406.97538 75.1875 405.0625 C 80.353329 402.11866 83.59375 402.31106 83.59375 405.5625 C 83.59375 406.97366 83.176309 408.88616 82.65625 409.8125 C 82.136192 410.73884 81.456475 414.65 81.125 418.5 C 80.323421 427.81018 83.147586 438.38561 90.0625 451.78125 C 92.979262 457.43163 95.375 462.29044 95.375 462.59375 C 95.375 462.89706 97.599139 466.36055 100.3125 470.28125 C 104.58521 476.45515 111.50406 483.30495 122 491.75 C 125.73046 494.75154 135.44014 499.0023 138.4375 498.9375 C 142.95038 498.83989 148.31247 500.55014 148.65625 502.21875 C 148.96647 503.72446 144.06652 515.67392 141.15625 520.5 C 140.4929 521.6 136.57672 528.575 132.46875 536 C 128.36078 543.425 123.67482 551.75 122.03125 554.5 C 120.38767 557.25 118.09536 561.35789 116.9375 563.625 C 115.77967 565.8921 112.20532 571.5171 109 576.125 C 105.79467 580.73289 100.86456 588.55 98.0625 593.5 C 95.260455 598.45 89.950761 606.78386 86.25 612.03125 C 82.549241 617.27865 78.05737 624.25365 76.28125 627.53125 C 69.668912 639.73349 65.119175 664.07979 67.875 672.5 C 69.533571 677.56764 73.280369 684.2185 76.65625 688.125 C 78.425457 690.17229 80.586152 692.70753 81.46875 693.78125 C 85.218895 698.34343 110.17636 710.43971 123.71875 714.25 C 135.1141 717.4562 139.52462 718.41245 161.15625 722.46875 C 178.95017 725.8054 194.62971 730.32767 201.40625 734.0625 C 204.33854 735.67862 207.18007 737 207.71875 737 C 210.19629 737 214.125 742.5982 214.125 746.125 L 214.125 749.78125 L 210.15625 747.90625 C 205.74424 745.80367 201.13816 745.46137 198 747.03125 C 195.58733 748.23821 195.25119 751.82957 197.46875 752.625 C 198.9661 753.16208 203.4375 765.0901 203.4375 768.5625 C 203.4375 769.53381 204.09548 771.03794 204.90625 771.90625 C 205.71703 772.77456 206.98556 776.425 207.71875 780 C 210.00484 791.147 209.4831 795.50965 205.1875 801.65625 C 203.70448 803.77831 201.7022 807.41607 200.71875 809.75 C 199.7353 812.08394 198.56047 813.78283 198.125 813.53125 C 197.68951 813.27968 196.53815 815.7511 195.5625 819.03125 C 194.58688 822.31139 193.37992 825 192.875 825 C 189.83598 825 189.72685 872.81871 192.6875 912.5 C 193.83648 927.9 194.72495 941.625 194.65625 943 C 194.4518 947.0899 195.99582 966.00398 197.09375 973 C 198.7874 983.79207 200.67693 1005.8292 201.90625 1029 C 202.30018 1036.425 202.83416 1044.075 203.09375 1046 C 203.69968 1050.4936 203.56655 1100.7099 202.9375 1106.2812 C 202.67519 1108.6046 202.21851 1115.45 201.90625 1121.5 C 201.59398 1127.55 201.04821 1138.125 200.6875 1145 C 200.3268 1151.875 199.62787 1159.3 199.125 1161.5 C 198.05946 1166.1615 196.23807 1185.7389 195.40625 1201.5 C 193.16646 1243.9401 191.41529 1269.0122 190.0625 1278.5 C 189.19989 1284.55 187.97397 1293.775 187.34375 1299 C 186.71353 1304.225 185.54059 1313.225 184.71875 1319 C 183.89691 1324.775 182.91804 1331.975 182.5625 1335 C 182.20695 1338.025 180.95503 1348.15 179.78125 1357.5 C 176.98049 1379.8099 175.52004 1395.7172 172.9375 1431 C 172.00725 1443.7092 170.38979 1461.432 169.71875 1466.5938 C 169.51048 1468.1955 169.04307 1472.875 168.65625 1477 C 168.26945 1481.125 166.77421 1490.8 165.34375 1498.5 C 163.9133 1506.2 162.01003 1518.35 161.125 1525.5 C 160.23996 1532.65 158.82171 1541.875 157.96875 1546 C 156.42709 1553.4556 155.85816 1570.1069 155.96875 1604 C 156.0201 1619.7446 156.24745 1622.006 158.34375 1626.4062 C 161.502 1633.036 168.26301 1640.3369 175.5 1644.9688 C 183.72009 1650.2296 188.4375 1654.8005 188.4375 1657.5 C 188.4375 1659.6377 190.75039 1660.961 194.59375 1661 C 196.67546 1661.0213 196.19006 1655.4984 193.75 1651.4375 C 190.05 1645.2799 186.14175 1632.9372 184.84375 1623.4062 L 183.59375 1614.3125 L 190.03125 1608.3125 C 197.8238 1601.0315 204.98044 1596.5116 212.96875 1593.8438 C 216.25838 1592.7447 219.91695 1591.4575 221.09375 1590.9688 C 222.27055 1590.4794 224.6723 1589.8968 226.4375 1589.6562 C 228.20268 1589.4161 231.97758 1588.6572 234.84375 1587.9688 C 238.65523 1587.0531 243.96101 1586.9108 254.625 1587.5 C 262.64419 1587.9431 271.1464 1588.3735 273.5 1588.4375 C 276.16503 1588.5101 277.7541 1589.017 277.6875 1589.7812 C 277.62867 1590.4563 277.49445 1591.6413 277.40625 1592.4062 C 277.31801 1593.1716 274.95113 1596.0397 272.15625 1598.8125 C 262.35864 1608.5328 258.57706 1614.3474 254.78125 1625.4062 C 253.19314 1630.0333 254.06348 1641.7115 256.34375 1646.4062 C 257.86439 1649.5373 259.53263 1656.6812 260.6875 1665 C 261.0311 1667.475 261.51297 1670.175 261.75 1671 C 262.99625 1675.3379 263.24046 1705.6211 262.15625 1720 C 261.47196 1729.075 260.99031 1737.175 261.09375 1738 C 261.19717 1738.825 261.25055 1741.013 261.21875 1742.875 C 261.18688 1744.737 261.69879 1746.8672 262.34375 1747.5938 C 262.98929 1748.3202 263.29266 1749.2761 263 1749.7188 C 261.77886 1751.5653 265.2016 1753.9337 268.78125 1753.7188 C 274.17917 1753.3939 276.56342 1750.4948 275.53125 1745.5 C 274.25719 1739.3346 274.58172 1683.6808 275.90625 1681.4688 C 276.8853 1679.8332 277.19274 1680.1589 278.28125 1683.9375 C 281.0536 1693.5613 281.7602 1700.4815 282.0625 1722 C 282.24973 1735.3275 282.86217 1745.6457 283.5625 1747.3125 C 285.62612 1752.2238 293.42675 1759.7706 298.0625 1761.3438 C 303.02749 1763.0283 310.69908 1764.5896 318.4375 1765.5 C 321.37949 1765.846 325.2348 1766.3374 327 1766.5625 C 338.11879 1767.9801 349.91926 1769.0284 360.15625 1769.5 C 374.41075 1770.1568 383.77451 1771.2627 385.03125 1772.4375 C 385.85486 1773.2073 386.16158 1773.1881 393.15625 1771.875 C 396.49057 1771.2491 399.21875 1770.3491 399.21875 1769.875 C 399.21875 1769.401 401.67803 1769 404.6875 1769 C 411.55894 1769 420.59375 1764.8096 420.59375 1761.625 C 420.59375 1760.3504 417.03461 1756.2853 411.25 1751 C 392.62398 1733.9817 376.75 1718.4211 376.75 1717.1875 C 376.75 1716.4944 375.80537 1715.6161 374.65625 1715.2188 C 371.11384 1713.9935 362.96433 1704.1842 361.75 1699.6875 C 361.12669 1697.3793 359.9142 1693.7 359.0625 1691.5 C 358.21082 1689.3 357.01002 1685.25 356.40625 1682.5 C 355.80246 1679.75 355.04444 1676.375 354.71875 1675 L 354.125 1672.5 L 365.59375 1672.2812 C 378.09511 1672.0351 378.82182 1671.7629 387.4375 1664.7188 C 392.27169 1660.7662 407.87199 1654.0616 417.375 1651.8438 C 420.0228 1651.2254 424.48501 1649.1904 427.28125 1647.3438 C 430.07751 1645.4965 432.74757 1644.01 433.1875 1644 C 434.46872 1643.9774 442.29275 1636.8 445.03125 1633.1562 C 446.41109 1631.3205 447.98561 1628.3955 448.53125 1626.6562 C 449.08081 1624.905 449.50695 1603.4276 449.46875 1578.5 C 449.40238 1535.2727 449.24481 1529.6185 447.90625 1518.5 C 447.57517 1515.75 446.8168 1505.175 446.21875 1495 C 445.62066 1484.825 444.98213 1475.375 444.78125 1474 C 444.58037 1472.625 444.07056 1466.55 443.65625 1460.5 C 443.24193 1454.45 442.72608 1447.475 442.53125 1445 C 442.33641 1442.525 441.89864 1434.875 441.53125 1428 C 441.16385 1421.125 440.6429 1411.675 440.375 1407 C 440.1071 1402.325 439.59781 1392.7021 439.25 1385.625 C 438.90219 1378.5479 438.44336 1372.001 438.25 1371.0625 C 438.05664 1370.124 437.62039 1361.2969 437.25 1351.4375 C 436.87962 1341.5781 436.35167 1331.25 436.09375 1328.5 C 435.48666 1322.0273 433.6385 1286.7307 432.90625 1267.5 C 432.15019 1247.6437 431.27989 1231.6208 430.28125 1220 C 429.83224 1214.775 429.38085 1200.15 429.28125 1187.5 C 429.18162 1174.85 428.88644 1162.925 428.625 1161 C 428.36354 1159.075 427.89517 1150.5925 427.59375 1142.1562 C 427.29231 1133.7205 426.57579 1122.9203 426 1118.1562 C 424.95988 1109.5508 423.20382 1093.5285 422.15625 1083 C 421.85527 1079.975 421.12244 1073.9 420.53125 1069.5 C 417.4414 1046.5031 416.3886 1037.9037 415.90625 1032 C 415.61417 1028.425 414.83383 1019.2 414.1875 1011.5 C 412.39247 990.11463 411.88585 959.22538 413.25 954.53125 C 414.91759 948.79296 415.15704 944.67398 415.5625 915.5 C 416.24279 866.54985 413.7627 839.80956 405.09375 802.5 C 402.1744 789.93564 401.43589 787.33464 394.875 767 C 392.21654 758.76043 391.03899 753.39833 391.40625 751.25 C 392.02053 747.65682 390.26258 744.82226 387.9375 745.65625 C 386.24838 746.26212 385.91068 745.13083 384.3125 733.5 C 382.20547 718.16603 382.0836 715.32894 383.25 709.9375 C 383.89566 706.9531 385.05261 701.35 385.8125 697.5 C 386.57242 693.65 388.42788 687.59483 389.96875 684.0625 C 391.50961 680.53018 392.78125 677.27367 392.78125 676.8125 C 392.78125 676.35133 393.76071 673.96901 394.9375 671.5 C 396.11428 669.031 398.02636 665.00034 399.1875 662.5625 C 400.34863 660.12466 403.25847 653.03716 405.65625 646.8125 C 408.05406 640.58784 410.45628 634.48029 411 633.25 C 412.95808 628.81959 418.71723 607.29066 420.5625 597.53125 C 422.28299 588.43187 423.06074 578.71169 423.21875 564 L 423.28125 558.53125 L 428.40625 557.65625 C 433.05304 556.86177 434.00389 557.02667 438.5 559.625 C 443.06028 562.26041 448.20953 567.39485 458.03125 579 C 463.73317 585.73727 483.24298 605.17763 487.125 608 C 489.01625 609.375 491.88145 611.68889 493.5 613.15625 C 500.47534 619.48001 512.63104 627.74795 520.59375 631.5625 C 530.04645 636.09085 545.70456 639.72419 550.65625 638.5625 C 554.8527 637.578 561.86264 630.48822 565.25 623.8125 C 568.36212 617.67922 570.36273 604.40949 570.46875 589.25 C 570.52732 580.8706 570.30513 579.03896 567.125 564 C 566.02014 558.775 563.88012 548.2 562.375 540.5 C 560.86987 532.8 559.17103 524.59539 558.59375 522.25 C 558.01646 519.90461 557.53325 514.27961 557.53125 509.75 C 557.52952 505.22039 556.76263 494.525 555.8125 486 C 554.86234 477.475 553.93488 466 553.78125 460.5 C 553.52251 451.23608 555.43292 430.1551 557.09375 423.71875 C 557.99127 420.24059 559.19394 421.08305 564.09375 428.5 C 568.31816 434.89461 571.16798 436.13646 579.125 435.09375 C 586.6659 434.10556 592.81455 431.01516 597.625 425.78125 C 602.27319 420.72388 611.9311 402.20992 616.5625 389.5 C 619.55649 381.28358 619.74717 380.12293 618.59375 376.03125 C 617.89886 373.56621 616.02136 369.96411 614.4375 368.03125 C 612.85363 366.09838 610.40575 362.9271 609 361 C 605.51067 356.21656 593.51985 345.48872 583.6875 338.375 L 575.53125 332.5 L 576.34375 323.5 C 576.77517 318.55 577.16015 311.575 577.21875 308 L 577.3125 301.5 L 571.96875 301.21875 L 566.625 300.90625 L 567 294.90625 C 567.46489 287.25855 566.1586 285.6146 560.25 286.28125 C 557.87326 286.54941 555.30408 286.92219 554.53125 287.125 C 553.54873 287.38284 552.99826 286.03175 552.6875 282.625 C 552.0195 275.30203 551.00104 274.65654 541.78125 275.4375 C 532.58561 276.2164 532.84808 276.81293 536.8125 264.375 C 538.36602 259.50097 540.33298 253.25 541.15625 250.5 C 542.84231 244.86791 546.7971 227.18328 546.8125 225.25 C 546.81803 224.55556 544.0708 222.78417 540.6875 221.34375 C 535.58404 219.17099 532.48505 218.66008 522.5 218.25 C 515.88053 217.97814 510.46875 217.54486 510.46875 217.3125 C 510.46875 217.08014 511.41697 215.02674 512.59375 212.75 C 516.65475 204.89325 514.79348 193.05534 508.9375 189.46875 C 506.00293 187.67142 505.62083 186.39264 507.21875 184.03125 C 508.07117 182.77155 508.47467 182.80588 510.21875 184.28125 C 511.33071 185.22188 512.94681 186 513.8125 186 C 514.67818 186 515.94386 186.51956 516.625 187.15625 C 518.40789 188.82279 520.87885 186.65142 521.6875 182.6875 C 522.69985 177.72509 526.68437 163.72026 527.71875 161.5 C 528.23121 160.4 529.39582 156.35 530.3125 152.5 C 532.08811 145.04252 532.75245 142.39317 538.40625 120.5 C 542.31694 105.35671 543.36663 90.346775 540.6875 87.84375 C 539.952 87.156597 539.34375 85.674017 539.34375 84.53125 C 539.34375 82.384288 538.25364 81.256675 531.875 76.9375 C 526.89395 73.564675 509.13205 68.124991 501.4375 67.625 C 501.31466 67.617018 501.18545 67.612714 501.0625 67.625 z M 517.125 235.09375 C 521.75164 235.02891 531.89716 236.31071 533.5 237.40625 C 534.94936 238.39688 535.15701 239.49205 534.5625 242.78125 C 533.88779 246.51422 533.62374 246.80733 531.8125 245.75 C 529.26056 244.2603 519.80474 247.12261 515.75 250.625 C 512.05515 253.81656 511.127 253.61014 512 249.75 C 512.40427 247.9625 513.00197 244.12238 513.34375 241.21875 C 513.68555 238.31513 514.41611 235.69426 514.96875 235.375 C 515.27708 235.19688 516.05731 235.10871 517.125 235.09375 z M 457.625 325 C 458.29501 325 459.07049 326.72169 459.375 328.84375 C 459.67949 330.96581 460.76443 334.34081 461.78125 336.34375 C 463.96153 340.63849 467.57122 341.25727 470.09375 337.75 C 472.47097 334.44477 472.94693 335.83288 471.375 341.5 C 469.97271 346.55558 470.03641 348.86281 472.09375 366 C 473.43296 377.15519 476.7291 386.62939 479.78125 388.15625 C 480.9663 388.74907 483.44463 389.35372 485.28125 389.46875 C 491.58315 389.86346 503.09118 397.23493 507.28125 403.5625 C 510.91191 409.04527 512.8668 424.57952 512.1875 442.53125 C 511.68102 455.91599 510.85301 461.92172 507.125 479.03125 C 504.67078 490.2948 501.79949 503.775 500.75 509 C 499.70053 514.225 498.31605 520.1875 497.65625 522.25 C 496.33648 526.37559 496.01295 526.63917 494.75 524.625 C 494.01067 523.44588 491.50685 520.68417 481.21875 509.625 C 480.13291 508.45777 478.50296 506.15 477.59375 504.5 C 476.68456 502.85 474.44947 499.475 472.625 497 C 470.80052 494.525 468.38549 490.925 467.28125 489 C 466.17702 487.075 463.88321 483.55257 462.1875 481.1875 C 460.49177 478.82243 459.125 476.65005 459.125 476.34375 C 459.125 476.03744 454.53334 467.69057 448.9375 457.8125 C 438.44515 439.2909 431.9378 430.22421 419.34375 416.59375 C 415.33018 412.24989 412.03125 408.35234 412.03125 407.9375 C 412.03125 407.52266 413.35066 406.68336 414.96875 406.0625 C 425.23208 402.12449 432.20597 394.51235 436.84375 382.09375 C 440.67147 371.84424 439.12077 351.18476 433.5625 338 L 431.25 332.5 L 434.21875 335.75 C 435.84873 337.54246 438.13571 339.0143 439.3125 339 C 440.51077 338.98541 444.75574 335.87945 448.9375 331.96875 C 453.0443 328.12813 456.955 325 457.625 325 z M 214.53125 551.125 L 221.4375 564.3125 C 228.27981 577.3855 231.62819 582.38674 244.0625 598.0625 C 247.60061 602.52294 250.5 606.53982 250.5 607 C 250.5 607.46017 251.65728 609.12646 253.0625 610.6875 C 256.17124 614.14091 267.51801 634.59527 270.15625 641.5 C 271.207 644.25 272.46808 647.4 272.96875 648.5 C 277.50666 658.46972 279.73563 673.61886 279.1875 690.78125 C 278.85695 701.13143 278.35392 704.38158 276.46875 708.25 C 275.1956 710.8625 273.75565 712.97775 273.28125 712.96875 C 272.80687 712.95949 270.98394 712.111 269.21875 711.0625 C 266.0006 709.15098 255.56783 706.24308 236.59375 701.96875 C 221.98293 698.67733 216.16525 696.00265 209.03125 689.3125 C 203.3542 683.98866 195.9375 675.0348 195.9375 673.5 C 195.9375 673.1499 194.77879 671.4383 193.375 669.6875 C 191.97122 667.9367 189.74775 664.475 188.4375 662 C 187.12725 659.525 184.0907 655.025 181.65625 652 C 179.22179 648.975 176.74465 645.76475 176.15625 644.875 C 175.56785 643.98525 174.17568 642.06403 173.0625 640.59375 C 171.39046 638.3853 171.24082 637.47662 172.25 635.40625 C 172.92186 634.0279 173.46375 631.89912 173.46875 630.6875 C 173.48822 624.94023 184.24829 600.69529 190.625 592 C 191.63337 590.625 193.39405 587.7 194.5625 585.5 C 195.73094 583.3 198.92688 577.9 201.65625 573.5 C 204.38563 569.1 208.42038 562.26684 210.59375 558.3125 L 214.53125 551.125 z M 336.96875 1600.2812 C 337.2198 1600.2593 337.5659 1600.3495 337.96875 1600.5 C 338.99846 1600.8847 341.06622 1601.2648 342.5625 1601.375 C 344.05878 1601.4853 346.35309 1602.5965 347.6875 1603.8438 C 350.03085 1606.0342 350.13102 1606.8895 350.625 1628.5625 C 350.97052 1643.7223 350.78213 1651 350.03125 1651 C 349.41997 1651 348.9375 1649.4517 348.9375 1647.5625 C 348.9375 1645.6733 348.49891 1643.0534 347.96875 1641.75 C 347.4386 1640.4466 345.96258 1634.9074 344.6875 1629.4375 C 343.41241 1623.9676 342.21042 1619.05 342.03125 1618.5 C 341.85207 1617.95 341.32709 1615.9875 340.875 1614.1562 C 340.42291 1612.3249 339.15638 1610.3261 338.0625 1609.6875 C 336.61715 1608.8438 336.09375 1607.3293 336.09375 1604.1562 C 336.09375 1601.3378 336.2156 1600.3471 336.96875 1600.2812 z "
     id="path4557" />
  <path
     style="fill:#000000"
     d="m 392.78437,1761.2415 c 0,-0.9672 -2.74269,-4.0047 -6.09487,-6.75 -3.35218,-2.7453 -7.08317,-6.0831 -8.29107,-7.4173 -7.98314,-8.8177 -9.91307,-10.298 -12.03911,-9.2344 -1.20462,0.6026 -4.68777,0.8008 -8.16996,0.4648 -3.33855,-0.3221 -9.55764,-0.04 -13.82019,0.627 -19.00653,2.9737 -35.3717,2.7459 -39.39387,-0.5483 -0.92894,-0.7608 -2.07601,-1.3833 -2.54907,-1.3833 -1.47541,0 -4.85043,-4.2084 -7.17939,-8.9522 -1.22801,-2.5013 -3.26868,-9.2456 -4.53484,-14.9873 l -2.30207,-10.4395 -0.17959,17.9372 c -0.19847,19.8249 0.40031,23.9284 4.1331,28.3245 3.74702,4.4129 8.84402,5.9235 27.45726,8.1376 9.23912,1.099 17.5205,2.2513 18.4031,2.5607 0.88259,0.3095 8.82597,0.7753 17.65195,1.0352 8.82598,0.2598 18.45431,0.8496 21.39631,1.3105 2.94198,0.4609 7.6358,0.891 10.43069,0.9557 4.18354,0.097 5.08162,-0.1932 5.08162,-1.6409 z"
     id="path4555" />
  <path
     style="fill:#000000"
     d="m 409.90142,1760.9613 c 1.34941,-0.8477 1.11669,-1.3623 -1.46276,-3.2347 -3.30264,-2.3973 -4.43884,-3.4643 -20.0507,-18.8294 -9.44271,-9.2935 -10.47081,-10.0227 -12.61737,-8.9489 -2.3128,1.157 -2.29146,1.2199 2.06554,6.0843 2.42136,2.7033 8.02167,7.9429 12.44513,11.6435 4.99988,4.1828 8.65768,8.1652 9.66831,10.5261 1.40202,3.2754 2.08796,3.7957 4.98639,3.7825 1.84839,-0.01 4.08286,-0.469 4.96546,-1.0234 z"
     id="path4553" />
  <path
     style="fill:#000000"
     d="m 269.56816,1728.9981 c 0.36283,-18.7943 -1.05929,-24.6052 -2.42918,-9.9259 -0.77224,8.2749 0.2252,27.9293 1.4172,27.9259 0.3655,-10e-4 0.82091,-8.101 1.01198,-18 z"
     id="path4551" />
  <path
     style="fill:#ffe4cd;fill-opacity:1"
     d="m 341.64462,1730.9224 c 3.11994,-0.5752 8.22636,-1.0347 11.34763,-1.0212 l 5.67501,0.025 -3.34178,-3.944 c -1.83797,-2.1692 -4.63244,-4.8035 -6.20992,-5.8539 -2.10751,-1.4035 -3.24986,-3.4638 -4.30755,-7.769 -0.79167,-3.2224 -2.30122,-7.884 -3.35458,-10.359 -2.58904,-6.0833 -4.91084,-14.6864 -6.88189,-25.5 -4.73338,-25.9684 -8.18491,-41.6084 -12.35838,-56 -1.27596,-4.4 -2.46692,-8.9 -2.64655,-10 -0.17964,-1.1 -0.89633,-4.842 -1.59267,-8.3156 -0.86544,-4.3172 -0.93438,-7.3232 -0.2179,-9.5 0.57648,-1.7514 1.35406,-6.7844 1.72794,-11.1844 0.87771,-10.3293 5.63391,-41.2517 7.53671,-49 0.81041,-3.3 1.75272,-7.575 2.09401,-9.5 0.66774,-3.7663 1.80343,-8.0982 6.81627,-26 1.77112,-6.325 5.16189,-18.5187 7.53502,-27.0972 2.37313,-8.5784 4.8244,-16.8501 5.44727,-18.3814 0.62285,-1.5313 1.62124,-4.8626 2.21863,-7.4028 0.59738,-2.5402 2.47913,-8.2186 4.18166,-12.6186 2.78342,-7.1934 8.18913,-23.6554 9.03035,-27.5 0.18052,-0.825 0.61533,-2.175 0.96628,-3 0.93061,-2.1878 3.70801,-12.9792 4.29649,-16.6938 0.60531,-3.8208 2.80752,-10.4106 3.94542,-11.8062 1.73448,-2.1272 9.05526,-30.9289 10.16715,-40 0.40451,-3.3 1.44129,-9.15 2.30396,-13 0.86268,-3.85 1.74672,-8.35 1.96452,-10 2.50347,-18.9647 4.56518,-72.8131 2.86465,-74.82 -0.54992,-0.649 -1.33085,-6.6736 -1.73539,-13.3881 -0.40454,-6.7145 -1.19411,-13.6895 -1.75461,-15.5 -0.5605,-1.8105 -1.52021,-5.9919 -2.13266,-9.2919 -0.61246,-3.3 -1.83201,-9.825 -2.7101,-14.5 -0.8781,-4.675 -2.4935,-13.675 -3.58979,-20 -1.09629,-6.325 -2.72716,-14.2 -3.62415,-17.5 -0.89698,-3.3 -1.94451,-8.25 -2.32782,-11 -0.38329,-2.75 -1.59088,-8.825 -2.68351,-13.5 -1.7899,-7.6583 -5.42706,-24.7114 -6.93179,-32.5 -0.31876,-1.65 -1.0297,-4.8 -1.57987,-7 -0.55017,-2.2 -1.79171,-7.6 -2.75902,-12 -0.9673,-4.4 -2.44909,-9.8 -3.29286,-12 -0.84376,-2.2 -2.74403,-9.765 -4.22282,-16.8111 -1.47877,-7.0461 -3.21511,-14.0211 -3.85851,-15.5 -0.64339,-1.4789 -1.2662,-3.3639 -1.38404,-4.1889 -0.48028,-3.3628 -5.34111,-22.31142 -8.85014,-34.5 -2.05846,-7.15 -4.82963,-17.275 -6.15817,-22.5 -8.53817,-33.57954 -13.33583,-47.23259 -23.19229,-66 -6.10836,-11.63077 -18.17034,-30.41328 -21.19235,-33 -0.32127,-0.275 -1.47662,-1.85 -2.56743,-3.5 -1.09082,-1.65 -2.88763,-3.9 -3.99293,-5 -1.10526,-1.1 -5.08491,-5.6 -8.84361,-10 -3.75873,-4.4 -9.21399,-10.025 -12.12283,-12.5 -4.96098,-4.22109 -27.37737,-19 -28.81886,-19 -1.64067,0 -12.56578,9.69639 -15.02056,13.33124 -5.09223,7.5402 -11.7256,29.92808 -11.90172,40.16876 -0.0189,1.1 0.41589,8.075 0.96624,15.5 0.55034,7.425 1.24113,18.9 1.53509,25.5 0.80866,18.15679 1.45321,27.89802 2.64669,40 2.64747,26.84564 3.19401,31.11772 7.49368,58.575 0.48016,3.0663 2.68643,8.9163 4.90282,13 2.2164,4.0838 4.6344,9.675 5.3733,12.425 2.11986,7.8892 12.82631,34.8898 17.38808,43.851 2.2816,4.4819 6.48378,12.874 9.33822,18.649 2.85443,5.775 7.00514,13.2 9.22377,16.5 3.49572,5.1995 6.12482,9.9971 15.6183,28.5 0.98766,1.925 3.30112,5.75 5.14097,8.5 1.83987,2.75 4.8984,8.3157 6.79673,12.3682 1.89835,4.0526 5.03075,9.6776 6.9609,12.5 5.80467,8.4882 15.60728,27.4912 19.67011,38.1318 3.69632,9.6807 3.81972,10.463 3.86532,24.5 0.0449,13.848 -0.0491,14.5 -2.09254,14.5 -1.69218,0 -2.09404,-0.5987 -1.92166,-2.8631 0.2102,-2.7609 0.14476,-2.8012 -1.83189,-1.1291 -1.12743,0.9537 -2.61498,3.3671 -3.30565,5.3631 -0.69067,1.996 -2.59606,6.1041 -4.23419,9.1291 -1.63814,3.025 -3.74992,7.75 -4.69285,10.5 -0.94293,2.75 -2.11405,5.9 -2.60246,7 -4.88011,10.9908 -7.47076,21.1521 -11.85538,46.5 -2.87678,16.6311 -3.57813,58.6005 -1.80479,108 0.50349,14.025 1.03672,29.325 1.18499,34 0.40076,12.6353 2.29186,39.7444 3.2438,46.5 0.2325,1.65 0.75422,11.55 1.15937,22 0.77802,20.068 -0.2767,34.209 -3.35633,45 -0.94179,3.3 -1.94333,6.9 -2.22566,8 -0.82677,3.2212 -2.04777,35.8631 -1.8703,50 0.0898,7.15 0.6555,15.925 1.2572,19.5 2.49802,14.8417 5.56484,29.7833 6.97863,34 0.82985,2.475 1.83855,7.875 2.24157,12 1.10136,11.2728 5.7416,24.3073 9.04604,25.4104 0.96349,0.3216 3.43673,1.2312 5.49613,2.0213 4.20938,1.6149 22.33303,1.3291 32.30583,-0.5093 z"
     id="path4549" />
  <path
     style="fill:#000000"
     d="m 346.57507,1254.7375 c -3.22031,-8.0878 -5.44483,-19.4922 -5.36768,-27.5184 0.0521,-5.4146 1.45237,-8.2191 4.10389,-8.2191 1.14002,0 1.3925,1.4593 1.10812,6.4046 -0.43773,7.6117 1.67559,21.0356 4.53446,28.8027 1.50221,4.0813 1.73424,5.8723 0.86594,6.684 -0.65238,0.6098 -1.45092,1.1031 -1.77453,1.0962 -0.32363,-0.01 -1.88521,-3.2693 -3.4702,-7.25 z"
     id="path4547" />
  <path
     style="fill:#ffe4cd;fill-opacity:1"
     d="m 370.33351,1724.9924 c 1.79704,-0.899 1.86614,-1.3369 0.64089,-4.0607 -0.75533,-1.6792 -2.85894,-3.8975 -4.6747,-4.9297 -4.28915,-2.4382 -8.04738,-8.5572 -11.36367,-18.502 -2.58062,-7.7386 -3.17131,-10.1687 -6.48647,-26.684 -0.84835,-4.2263 -2.29264,-10.0454 -3.20956,-12.9315 -0.91692,-2.8861 -1.66712,-7.1158 -1.66712,-9.3993 0,-2.2835 -0.33488,-4.4649 -0.74418,-4.8475 -0.4093,-0.3826 -0.85821,-1.4701 -0.99759,-2.4166 -0.5103,-3.4657 -2.71076,-13.8344 -3.80413,-17.9254 -1.00492,-3.7599 -1.29536,-4.0438 -2.74824,-2.6857 -3.19482,2.9863 -3.75274,-0.1268 -3.6361,-20.2894 0.11018,-19.0507 0.58968,-25.4229 3.89931,-51.8206 2.26507,-18.0662 3.14708,-45.6004 1.16415,-36.3416 -0.15804,0.7379 -0.60409,2.4666 -0.99123,3.8416 -0.38714,1.375 -0.91262,4.075 -1.16772,6 -0.2551,1.925 -1.17411,5.75 -2.04225,8.5 -1.56928,4.971 -4.96548,22.2683 -5.4976,28 -0.15318,1.65 -0.80599,5.8787 -1.45069,9.3971 -0.6447,3.5184 -0.99672,6.6684 -0.78227,7 0.21446,0.3316 -0.21153,3.58 -0.94662,7.2186 -0.7351,3.6386 -1.18558,8.3636 -1.00106,10.5 0.18452,2.1364 0.34547,5.0093 0.35765,6.3843 0.0272,3.0661 1.55924,9.6738 4.985,21.5 2.55262,8.812 3.67577,13.6837 7.8573,34.0812 1.13667,5.5446 2.81816,13.11 3.73665,16.812 0.91849,3.702 1.66999,7.8559 1.66999,9.231 0,3.3676 9.4689,30.2781 11.64294,33.0891 0.95135,1.23 2.56232,2.5001 3.57989,2.8224 1.01758,0.3223 2.64131,1.8379 3.60827,3.368 0.96698,1.5302 3.02292,3.5158 4.56875,4.4126 3.37853,1.9599 3.02167,1.9161 5.50041,0.6761 z"
     id="path4545" />
  <path
     style="fill:#000000"
     d="m 269.649,1705.25 c -0.0868,-3.8715 -0.26506,-4.2876 -0.96318,-2.25 -1.2381,3.6137 -1.2381,7 0,7 0.5884,0 1.02183,-2.1375 0.96318,-4.75 z"
     id="path4543" />
  <path
     style="fill:#000000"
     d="m 287.61012,1693.25 c -0.26908,-0.9625 -0.48925,-0.175 -0.48925,1.75 0,1.925 0.22017,2.7125 0.48925,1.75 0.26909,-0.9625 0.26909,-2.5375 0,-3.5 z"
     id="path4541" />
  <path
     style="fill:#000000"
     d="m 270.3154,1682.7348 c 0.54387,-13.5501 0.53813,-13.5923 -2.23228,-16.4099 l -2.77755,-2.8249 0.63715,2.5 c 0.35044,1.375 0.89254,7 1.20469,12.5 0.66462,11.7107 1.51092,18.859 2.16083,18.2515 0.25404,-0.2374 0.70728,-6.545 1.00716,-14.0167 z"
     id="path4539" />
  <path
     style="fill:#000000"
     d="m 281.54732,1668.0414 c -2.26284,-3.9522 -2.90468,-19.8063 -2.18017,-53.8534 0.13239,-6.2216 -0.01,-11.5463 -0.31622,-11.8326 -0.98562,-0.9213 -7.1048,4.867 -11.19232,10.5871 -5.65178,7.9092 -8.65626,17.0247 -7.62372,23.1302 1.18876,7.0293 7.5236,19.9527 13.10245,26.7297 2.67522,3.2498 5.7319,7.6237 6.79262,9.7199 l 1.92856,3.8112 0.33153,-3.1205 c 0.18236,-1.7163 -0.19687,-4.0435 -0.84273,-5.1716 z"
     id="path4537" />
  <path
     style="fill:#000000"
     d="m 381.93336,1659.5113 c 2.95923,-2.7661 5.79029,-4.5113 7.31825,-4.5113 1.3706,0 3.32792,-0.417 4.34964,-0.9267 3.43506,-1.7135 21.45694,-8.0016 24.32729,-8.4881 3.68126,-0.624 17.64844,-9.5366 17.64844,-11.2617 0,-0.7279 0.43567,-1.3235 0.96817,-1.3235 0.53249,0 2.33779,-2.1375 4.0118,-4.75 l 3.04364,-4.75 0.16067,-47.5 c 0.0884,-26.125 -0.22023,-50.65 -0.68579,-54.5 -0.46554,-3.85 -1.15167,-13.3 -1.5247,-21 -0.64782,-13.3719 -1.53769,-25.8186 -2.27058,-31.759 -0.18722,-1.5174 -0.63032,-7.1424 -0.98467,-12.5 -0.35436,-5.3575 -0.84787,-11.091 -1.09668,-12.741 -0.24883,-1.65 -0.73672,-11.55 -1.08419,-22 -0.34746,-10.45 -1.07469,-23.95 -1.61604,-30 -0.54136,-6.05 -1.25939,-15.95 -1.59564,-22 -0.33624,-6.05 -0.85222,-14.15 -1.14663,-18 -0.72052,-9.4224 -2.10973,-37.1589 -3.10537,-62 -0.69296,-17.2899 -1.55124,-35.7112 -2.16649,-46.5 -0.23522,-4.125 -0.75292,-13.35 -1.15044,-20.5 -0.39752,-7.15 -0.88191,-13.2622 -1.0764,-13.5827 -0.19449,-0.3204 -0.42934,-11.5704 -0.52189,-25 -0.0926,-13.4295 -0.54974,-27.1173 -1.016,-30.4173 -0.46625,-3.3 -1.10352,-11.175 -1.41618,-17.5 -0.62489,-12.6424 -4.32805,-48.0287 -6.01735,-57.5 -1.5706,-8.8059 -4.18755,-29.8054 -4.86017,-39 -0.32188,-4.4 -0.81687,-9.575 -1.09997,-11.5 -2.31576,-15.7461 -3.70108,-67.24545 -2.08474,-77.5 0.26009,-1.65 0.90869,-5.48566 1.44134,-8.52368 0.53266,-3.03803 1.06695,-10.23803 1.18733,-16 0.12037,-5.76198 0.29704,-12.50132 0.39259,-14.97632 0.30901,-8.00429 -1.49223,-49.20628 -2.60117,-59.5 -0.59253,-5.5 -1.71428,-12.475 -2.49279,-15.5 -0.77851,-3.025 -1.48345,-7.525 -1.56655,-10 -0.0832,-2.475 -0.58956,-6.525 -1.12549,-9 -2.1445,-9.90338 -9.89679,-38.99158 -12.47416,-46.80559 -2.27124,-6.88595 -2.9969,-8.10591 -4.24538,-7.13738 -1.87593,1.45529 -1.83398,1.56593 -4.76135,-12.55703 -3.66798,-17.6961 -5.23989,-33.79357 -4.04265,-41.39964 2.52096,-16.01566 8.43265,-32.78552 19.60014,-55.60036 4.03846,-8.25041 12.12933,-30.18117 14.38819,-39 4.56861,-17.8362 5.61511,-24.18115 6.15376,-37.31022 0.5704,-13.90311 0.52034,-14.35393 -1.75946,-15.84656 -3.81988,-2.50093 -2.47991,-5.49762 3.65916,-8.18331 13.72174,-6.00294 14.66158,-6.59959 18.70085,-11.87226 5.07686,-6.62709 6.92132,-13.37883 6.11398,-22.38045 -0.78092,-8.70694 -5.31416,-21.41945 -9.21527,-25.84228 -2.94238,-3.3359 -3.27315,-3.4414 -11.45436,-3.65365 -4.63345,-0.1202 -9.86872,0.18784 -11.63392,0.68454 -1.76518,0.4967 -5.15832,1.34624 -7.5403,1.88786 -6.059,1.37771 -15.70697,8.26553 -17.19957,12.27901 -1.68362,4.52712 -4.69993,4.65207 -9.26614,0.38383 -7.97557,-7.45509 -17.04117,-10.00275 -35.13611,-9.87411 -14.60251,0.10381 -25.14678,1.47849 -30.30525,3.95094 -4.0579,1.94495 -24.11626,20.84927 -24.11626,22.72875 0,0.75968 -0.40078,1.53124 -0.89064,1.71458 -2.24269,0.83937 -11.23374,22.28634 -13.13562,31.33333 -0.57812,2.75 -1.46277,16.925 -1.96588,31.5 -0.50312,14.575 -1.25427,27.2875 -1.66921,28.25 -0.41494,0.9625 -1.42504,1.75 -2.2447,1.75 -1.94111,0 -2.07284,-0.44882 2.37289,8.08471 7.54717,14.48676 13.78677,31.38686 15.37227,41.63616 1.36912,8.85049 1.37947,28.55758 0.0186,35.39264 -0.58984,2.96257 -2.4333,7.97378 -4.0966,11.13601 -2.88113,5.47758 -2.93447,5.82541 -1.12782,7.3537 1.04299,0.88229 2.20971,2.93782 2.59272,4.56783 0.383,1.63002 1.37016,4.17086 2.19367,5.64631 0.82352,1.47545 1.50027,3.24514 1.5039,3.93264 0.003,0.6875 0.44975,1.25 0.99139,1.25 0.54165,0 1.30719,1.4625 1.70121,3.25 1.49063,6.76245 5.94035,19.36928 7.88282,22.33333 1.11134,1.69583 2.36331,4.97929 2.78215,7.29658 0.68458,3.78761 0.45832,4.47589 -2.2397,6.81316 -6.66593,5.77462 -23.72507,14.18843 -35.25917,17.39031 -1.80757,0.50179 -6.34517,3.3883 -10.08356,6.41448 -6.91767,5.59976 -10.53563,6.7144 -14.72711,4.53721 -1.02173,-0.5307 -4.02404,-1.89557 -6.67184,-3.03302 -2.64778,-1.13746 -6.82953,-3.17544 -9.29277,-4.52885 l -4.47861,-2.46075 -2.02842,2.74378 c -3.8312,5.1823 -11.90035,19.85622 -14.73554,26.79687 -4.92701,12.0615 -5.82097,19.60136 -5.21051,43.9469 0.61599,24.5668 3.25007,65.33283 4.71687,73 0.95718,5.00335 2.24301,16.47704 2.68959,24 0.61815,10.4134 1.73883,24.20002 2.11345,26 0.22894,1.1 0.72222,7.4 1.09617,14 0.37397,6.6 0.87401,12.5712 1.11121,13.2692 0.2372,0.6981 0.49969,12.9606 0.58331,27.25 0.0835,14.2895 0.5583,25.9808 1.05485,25.9808 1.20789,0 0.43235,16.0852 -2.26609,47 -0.55209,6.325 -1.50002,19.9943 -2.10652,30.3762 -0.60651,10.3819 -1.28758,19.1569 -1.5135,19.5 -0.22592,0.3431 -0.7036,4.4488 -1.0615,9.1238 -1.74283,22.7648 -2.57558,34.6355 -2.52547,36 0.14592,3.9733 -1.60406,28.2536 -2.45056,34 -0.5266,3.575 -0.97878,10.775 -1.00482,16 -0.026,5.225 -0.47475,11.3 -0.99715,13.5 -0.5224,2.2 -1.25132,8.5 -1.61985,14 -0.60159,8.9785 -1.41999,14.2322 -4.82904,31 -0.5591,2.75 -1.76333,12.425 -2.67605,21.5 -0.91272,9.075 -2.16263,20.775 -2.77757,26 -1.76498,14.9967 -4.15602,41.1479 -5.25727,57.5 -0.55562,8.25 -1.28325,19.05 -1.61699,24 -1.23477,18.3148 -2.7194,33.0977 -3.66563,36.5 -1.05457,3.7918 -2.28586,11.9468 -5.43555,36 -1.11632,8.525 -2.79178,20.1975 -3.72326,25.9389 -0.93147,5.7414 -1.64627,12.0414 -1.58843,14 0.0579,1.9586 0.0575,15.4381 -9.2e-4,29.9545 -0.0714,17.7575 0.30515,27.5735 1.15072,30 2.42984,6.9728 9.02361,14.0376 18.15769,19.4548 3.72924,2.2117 4.01113,1.2203 1.58173,-5.5633 -0.84402,-2.3567 -2.6369,-11.0349 -3.98419,-19.2849 -2.09105,-12.8044 -2.4393,-18.7325 -2.37923,-40.5 0.045,-16.2949 0.52398,-27.0041 1.32691,-29.6668 1.0392,-3.4461 2.4936,-16.4013 2.50722,-22.3332 0.005,-1.7979 2.26932,-15.2398 4.54996,-27 0.90661,-4.675 1.9261,-11.2 2.26553,-14.5 0.33942,-3.3 1.03784,-7.35 1.55201,-9 0.51418,-1.65 1.18697,-5.025 1.49509,-7.5 0.30812,-2.475 1.26161,-8.1 2.11889,-12.5 2.46647,-12.6593 2.60702,-13.9235 3.83562,-34.5 1.9285,-32.2981 4.93989,-58.5271 9.64417,-84 1.67596,-9.075 3.35339,-19.65 3.72767,-23.5 0.37424,-3.85 1.11005,-9.7 1.63513,-13 1.63805,-10.2949 2.1657,-18.9572 3.25879,-53.5 1.40301,-44.3362 2.03094,-56.7483 3.09875,-61.2514 0.48926,-2.0632 0.72052,-9.2632 0.51393,-16 -0.20659,-6.7367 -0.68973,-23.4986 -1.07365,-37.2486 -0.38391,-13.75 -0.84541,-30.2038 -1.02556,-36.564 -0.18015,-6.3602 -0.64945,-15.1352 -1.0429,-19.5 -0.39344,-4.3648 -0.85684,-14.461 -1.02974,-22.436 -0.423,-19.5091 -2.28793,-43.3116 -4.34846,-55.5 -3.9721,-23.49573 -6.91298,-56.75117 -8.57799,-97 -0.38678,-9.35 -1.01546,-21.5 -1.39706,-27 -0.52813,-7.61206 -0.2592,-11.91035 1.12623,-18 4.47318,-19.66175 9.92687,-31.61243 17.23798,-37.77359 2.46286,-2.07547 5.45768,-4.66297 6.65517,-5.75 1.19749,-1.08703 2.9513,-1.97641 3.89733,-1.97641 0.94606,0 1.99721,-0.675 2.3359,-1.5 0.98097,-2.38953 3.63194,-1.74829 6.20117,1.5 1.30507,1.65 2.89269,3 3.52804,3 0.63536,0 3.02157,1.18546 5.30268,2.63437 2.28111,1.4489 5.40172,3.23991 6.93467,3.98003 7.77891,3.75568 24.19252,20.00403 36.38835,36.02196 2.87423,3.775 6.41167,8.21364 7.86095,9.86364 1.4493,1.65 3.48279,4.575 4.51889,6.5 1.0361,1.925 2.51075,4.175 3.27704,5 5.30374,5.71026 17.75064,32.17414 22.81126,48.5 1.87535,6.05 4.31509,13.925 5.42163,17.5 1.10654,3.575 2.57405,8.975 3.26115,12 0.68709,3.025 2.63199,10.225 4.32198,16 5.4431,18.59996 24.34141,92.0507 25.9865,101 0.25278,1.375 2.24938,10.15 4.43692,19.5 5.25855,22.4761 13.85588,65.0106 17.5984,87.0663 1.12609,6.6365 2.52991,13.8365 3.11958,16 1.44541,5.3032 2.60954,17.2851 2.56825,26.4337 -0.0209,4.6133 0.44069,7.7753 1.19904,8.2153 1.95558,1.1346 1.32401,46.4174 -0.98727,70.7847 -0.33909,3.575 -1.29005,9.875 -2.11324,14 -1.57555,7.8951 -1.9094,9.7281 -3.09626,17 -1.82772,11.1987 -7.5839,34.1703 -10.36839,41.3781 -1.68485,4.3614 -3.06337,8.6322 -3.06337,9.4907 0,1.5475 -5.28143,17.6607 -14.62881,44.6312 -5.51302,15.907 -6.73761,20.0893 -9.87704,33.7326 -2.66832,11.5961 -2.61947,10.7674 -0.63479,10.7674 1.63267,0 1.99797,0.9283 1.77086,4.5 -1.23067,19.3523 -1.28268,26.805 -0.29313,42 0.64472,9.9 1.45301,28.125 1.7962,40.5 0.34318,12.375 0.79895,26.775 1.0128,32 0.21386,5.225 0.67256,22.1 1.01936,37.5 0.34678,15.4 0.90216,30.4233 1.23417,33.3852 l 0.60364,5.3852 9.71826,-0.6239 9.71827,-0.6239 4.82626,-4.5113 z"
     id="path4535" />
  <path
     style="fill:#000000"
     d="m 324.3162,583.52764 c -2.64779,-0.73555 -6.01771,-1.65041 -7.4887,-2.03302 -6.50251,-1.69132 -12.41926,-4.98634 -17.2109,-9.58469 -4.28408,-4.11126 -5.01753,-5.33892 -4.29231,-7.18426 1.46595,-3.7301 5.11373,-3.38219 7.71292,0.73561 4.84468,7.67525 25.8856,13.69587 38.94364,11.14328 13.4704,-2.63321 27.76514,-9.76803 31.38614,-15.66554 2.24873,-3.66248 6.38364,-5.57992 7.28712,-3.37917 0.88915,2.16589 -2.60561,9.29693 -6.51764,13.29919 -4.60887,4.71516 -9.5884,7.4071 -18.26072,9.87173 -16.22507,4.61109 -22.89959,5.2026 -31.55955,2.79687 z"
     id="path4533" />
  <path
     style="fill:#1f0000;fill-opacity:1"
     d="m 187.88022,1602.409 c 0.93418,-1.3328 4.26549,-3.7773 7.40288,-5.4324 3.13742,-1.6551 6.5522,-3.885 7.58844,-4.9553 1.03626,-1.0703 3.63119,-2.4661 5.76653,-3.1017 2.13536,-0.6357 5.3267,-1.7295 7.0919,-2.4306 4.6559,-1.8494 5.37892,-2.0548 14.9774,-4.2532 11.46516,-2.626 21.30434,-3.802 25.67556,-3.0688 2.3536,0.3947 7.66243,0.7437 11.79739,0.7754 5.08052,0.039 8.31147,0.577 9.96497,1.6596 3.57811,2.3427 3.48008,2.5062 6.05439,-10.102 1.89264,-9.2696 2.74446,-37.0641 1.55268,-50.6621 -1.89459,-21.6168 -3.16334,-43.8133 -3.73467,-65.3379 -0.26279,-9.9 -0.68836,-21.825 -0.9457,-26.5 -1.55918,-28.324 -0.98332,-88.4843 0.94669,-98.904 1.31953,-7.1237 2.32423,-16.0244 4.80815,-42.596 0.90338,-9.6639 2.72378,-20.6063 4.74127,-28.5 0.35142,-1.375 1.12343,-4.75 1.71553,-7.5 0.59213,-2.75 1.76531,-7.3392 2.60707,-10.1983 3.08934,-10.493 2.22395,-24.9268 -2.59618,-43.3017 -3.0053,-11.4565 -5.5226,-21.3182 -5.90984,-23.1522 -0.19188,-0.9087 -1.08191,-2.9773 -1.97786,-4.5968 -0.89596,-1.6195 -1.37934,-3.837 -1.0742,-4.9277 0.3478,-1.2432 -1.84013,-6.2441 -5.86402,-13.4032 -3.53034,-6.2811 -7.42149,-13.9339 -8.647,-17.0063 -1.22551,-3.0724 -4.16483,-8.4724 -6.53181,-12 -2.367,-3.5276 -6.40107,-10.4638 -8.96466,-15.4138 -10.1247,-19.5497 -19.72119,-39.1986 -21.00112,-43 -0.74075,-2.2 -3.43783,-9.1561 -5.99352,-15.458 -2.55571,-6.302 -4.65935,-12.152 -4.67477,-13 -0.0154,-0.8481 -0.97839,-3.342 -2.13991,-5.542 l -2.11187,-4 0.58757,12.5 c 0.32315,6.875 0.75949,17.675 0.96962,24 0.21013,6.325 0.68412,16.9 1.05333,23.5 0.3692,6.6 0.88108,17.4 1.1375,24 0.60228,15.5017 0.6857,69.4582 0.10873,70.331 -0.24323,0.368 -0.76172,6.744 -1.15221,14.169 -0.39047,7.425 -0.88579,15.75 -1.1007,18.5 -0.2149,2.75 -0.66433,15.8 -0.9987,29 -0.33438,13.2 -0.84624,27.15 -1.13749,31 -0.29125,3.85 -0.77945,10.6 -1.08489,15 -0.6185,8.9102 -2.37543,21.055 -7.01628,48.5 -1.72056,10.175 -3.62426,23.225 -4.23044,29 -0.60619,5.775 -1.30788,12.2269 -1.55932,14.3377 -0.25143,2.1107 -0.75297,7.7357 -1.1145,12.5 -0.36154,4.7642 -0.87288,10.0123 -1.13631,11.6623 -0.26344,1.65 -0.7202,9.075 -1.01502,16.5 -0.29482,7.425 -1.69652,20.25 -3.11491,28.5 -1.41837,8.25 -3.13153,18.825 -3.80703,23.5 -0.67551,4.675 -2.59777,15.475 -4.2717,24 -1.67393,8.525 -3.58494,21.125 -4.24668,28 -0.66173,6.875 -1.75221,16.1 -2.42327,20.5 -1.33838,8.7752 -1.8151,55.9542 -0.59348,58.7331 0.95396,2.1702 3.37263,1.3855 5.62246,-1.8241 z"
     id="path4529" />
  <path
     style="fill:#180000;fill-opacity:1"
     d="m 349.57948,1570.75 c -0.37883,-13.8875 -0.89661,-28.4 -1.15063,-32.25 -1.20801,-18.3093 -2.02895,-40.0365 -1.88919,-50 l 0.1543,-11 -3.50122,11.8905 -3.50121,11.8905 2.39165,2.2356 c 2.04774,1.9141 2.26461,2.7926 1.5083,6.1095 -0.48586,2.1306 -1.201,9.9489 -1.58924,17.3739 -0.38823,7.425 -1.3757,18 -2.19436,23.5 -1.93706,13.0135 -3.16932,27.137 -3.18016,36.4485 l -0.009,7.4485 4.27925,0.3904 c 2.3536,0.2147 4.47986,0.5754 4.72503,0.8015 0.24516,0.2261 1.39056,0.4111 2.54533,0.4111 2.04898,0 2.08298,-0.6085 1.4108,-25.25 z"
     id="path4527" />
  <path
     style="fill:#ffe4cd;fill-opacity:1"
     d="m 298.20137,1268.2651 c 4.66359,-11.0392 11.97958,-25.1196 14.9317,-28.7374 2.63043,-3.2236 2.80766,-4.0027 2.1055,-9.2559 -0.42169,-3.1547 -1.37214,-7.319 -2.1121,-9.2539 -0.73998,-1.9348 -2.22426,-5.9929 -3.29839,-9.0179 -2.67814,-7.5422 -11.05564,-22.9662 -11.12839,-20.4887 -0.0325,1.1062 1.19131,7.6312 2.71951,14.5 3.38889,15.2318 3.50814,23.9306 0.47188,34.4214 -1.26274,4.3629 -2.48644,8.2208 -2.71934,8.573 -0.23287,0.3523 -0.9316,3.3076 -1.55272,6.5674 -0.62115,3.2598 -1.82358,9.3019 -2.67213,13.4269 -1.81852,8.8405 -2.08801,14.6026 -0.4209,9 0.57278,-1.925 2.22671,-6.3057 3.67538,-9.7349 z"
     id="path4525" />
  <path
     style="fill:#ffe4cd;fill-opacity:1"
     d="m 249.64312,791.38101 c 4.15551,-3.44914 7.92791,-5.26087 21.26891,-10.21458 10.36797,-3.84977 17.6141,-7.94879 19.32061,-10.92934 1.08162,-1.88912 1.07605,-2.97078 -0.0286,-5.54216 -0.75485,-1.75721 -1.99865,-5.21993 -2.76399,-7.69493 -0.76536,-2.475 -2.01252,-5.85 -2.7715,-7.5 -0.75898,-1.65 -1.51062,-4.04987 -1.67031,-5.33304 -0.15969,-1.28317 -0.76146,-2.86363 -1.33725,-3.51214 -0.57578,-0.64851 -2.11721,-3.87364 -3.42537,-7.16696 -5.29246,-13.32379 -10.2945,-16.29339 -37.89996,-22.50038 -5.2956,-1.19069 -13.72039,-3.34989 -18.72177,-4.7982 -8.55306,-2.47683 -9.563,-3.07782 -16.99529,-10.11353 -8.29227,-7.84981 -15.39228,-17.21273 -21.25142,-28.02461 -1.9221,-3.54687 -5.55628,-8.94687 -8.07595,-12 -2.51967,-3.05313 -5.36828,-6.67614 -6.33025,-8.05114 -3.14601,-4.49683 -7.89322,-9.07595 -11.08204,-10.68964 -1.72068,-0.87075 -4.42194,-2.21555 -6.00284,-2.98846 -4.07348,-1.99157 -13.60705,-2.60832 -20.9857,-1.35763 -5.59748,0.94878 -9.24657,2.33479 -17.93193,6.81096 -1.36093,0.70138 -3.80507,3.85138 -5.43145,7 -3.22779,6.24888 -4.26823,7.30346 -6.43776,6.52526 -2.148297,-0.77058 -1.745675,-3.90185 1.32377,-10.29511 8.25252,-17.18904 42.71577,-23.8241 59.76315,-11.50594 3.38004,2.44237 4.3541,1.78678 5.5708,-3.74944 1.03202,-4.69592 2.01827,-7.66762 4.72928,-14.25 1.61119,-3.91195 7.48905,-15.08758 10.90235,-20.72871 4.52464,-7.47783 12.50685,-20.47164 14.91008,-24.27129 2.93191,-4.63553 32.4995,-60.61576 33.80347,-64 0.63576,-1.65 1.44813,-4.575 1.80529,-6.5 1.43492,-7.73412 4.11626,-17.57146 5.11062,-18.75 0.58006,-0.6875 1.6854,-1.25 2.4563,-1.25 2.27596,0 2.78331,3.44772 1.19628,8.12935 -0.81488,2.40386 -2.07883,6.39565 -2.80876,8.87065 -3.79438,12.86562 -7.05632,20.78039 -13.78745,33.45389 l -7.41116,13.95388 1.49454,4.04612 c 4.47699,12.12027 16.03934,30.95012 26.12516,42.54611 2.15268,2.475 6.67617,8.4375 10.05223,13.25 3.37605,4.8125 6.53437,8.75 7.01851,8.75 1.15154,0 2.03394,-10.49518 2.64841,-31.5 0.43159,-14.75308 1.48267,-23.23069 4.46341,-36 0.38517,-1.65 1.29795,-3.9 2.0284,-5 0.73045,-1.1 1.66256,-3.125 2.07138,-4.5 3.55468,-11.95623 15.34596,-26.70295 31.31503,-39.16407 4.75845,-3.71315 16.07891,-5.92627 33.28763,-6.50762 15.34425,-0.51837 25.1968,0.91022 33.67097,4.88222 2.26351,1.06094 4.36732,1.69358 4.67513,1.40586 0.30781,-0.28772 0.21799,-2.22549 -0.19959,-4.30614 C 376.27534,485.18206 369.21487,479 364.38724,479 c -3.83841,0 -6.21267,-1.98492 -5.62421,-4.70196 0.31845,-1.47038 1.26058,-1.73874 5.16995,-1.47262 2.62931,0.17898 6.45026,1.23426 8.491,2.34508 2.40024,1.30649 3.85059,1.62667 4.10732,0.90672 0.72692,-2.03842 3.54285,-4.07722 5.63134,-4.07722 2.50412,0 2.66927,2.3901 0.44112,6.38373 -1.24452,2.2306 -1.36553,3.70278 -0.53428,6.5 0.59105,1.98895 1.07731,5.00377 1.08058,6.6996 0.003,1.69584 0.31301,3.37033 0.68826,3.7211 0.37526,0.35077 4.07909,-1.59923 8.23073,-4.33333 4.15163,-2.73411 8.16053,-4.9711 8.90865,-4.9711 0.74813,0 3.60537,-0.7125 6.34943,-1.58333 2.74406,-0.87084 7.09362,-1.58334 9.66571,-1.58334 2.57209,0 4.67654,-0.24721 4.67654,-0.54937 0,-0.52941 -2.44603,-2.68452 -6.96752,-6.13885 C 405.65292,469.23191 398.61337,454 404.46734,454 c 1.36662,0 2.27779,0.92084 2.72109,2.75 0.88344,3.64518 5.46887,8.14069 18.32927,17.96976 12.962,9.90673 17.00422,14.46721 20.49746,23.12546 8.07884,20.02398 7.00231,35.80132 -3.34157,48.97293 l -3.83214,4.87974 5.0541,3.37469 c 5.69402,3.80197 10.75991,8.79723 20.69337,20.4049 C 472.02025,584.16131 500.37973,611 502.1243,611 c 0.59292,0 3.04505,1.4625 5.4492,3.25 12.52544,9.31281 21.79989,13.48077 36.99532,16.6258 4.44557,0.92011 4.86399,0.80704 8.19117,-2.2134 5.69852,-5.17317 8.74334,-13.00482 10.06156,-25.87953 1.31471,-12.84023 0.91154,-21.01461 -1.56754,-31.78287 -0.94965,-4.125 -2.63674,-12.225 -3.74904,-18 -1.11232,-5.775 -2.98174,-14.82458 -4.15428,-20.11019 -1.17254,-5.2856 -2.39014,-15.1856 -2.70577,-22 C 550.32928,504.07542 549.52593,494 548.8597,488.5 c -2.96464,-24.47431 -1.64362,-56.30827 2.90929,-70.10866 1.60861,-4.87581 1.58449,-5.28601 -0.52897,-9 -1.21792,-2.14024 -4.11653,-6.36634 -6.44138,-9.39134 -2.32483,-3.025 -5.98775,-8.3125 -8.13981,-11.75 -2.15205,-3.4375 -4.35281,-6.25 -4.89057,-6.25 -0.53776,0 -0.97774,1.37958 -0.97774,3.06574 0,3.67773 -1.69123,6.93426 -3.6012,6.93426 -2.11927,0 -3.70191,-3.89057 -4.17362,-10.25984 -0.33739,-4.55566 -1.10079,-6.54177 -3.65155,-9.5 -1.77374,-2.05709 -4.25786,-4.23011 -5.52027,-4.82894 -1.26241,-0.59883 -3.14109,-1.74429 -4.17483,-2.54546 -1.03376,-0.80117 -5.12813,-2.94126 -9.0986,-4.75575 -9.16743,-4.18947 -11.04025,-7.26463 -10.03114,-16.47123 0.37843,-3.45262 2.12779,-10.42951 3.88749,-15.5042 3.72065,-10.72973 3.76595,-11.37177 1.16523,-16.51059 l -1.96163,-3.87602 -3.94926,11.87602 c -4.64082,13.95562 -6.41225,17.82673 -10.00038,21.85397 -2.54737,2.85909 -2.62513,3.35802 -1.94803,12.5 1.24454,16.80352 4.97525,29.02204 8.86136,29.02204 0.96287,0 4.41331,0.78455 7.66763,1.74344 4.70064,1.38504 7.47269,3.18372 13.48517,8.75 7.14429,6.61408 7.64208,7.37067 8.88645,13.50656 3.03109,14.94582 3.57463,20.96407 2.93514,32.5 -0.67438,12.16507 -4.21771,38.5102 -5.91788,44 -0.51099,1.65 -1.18494,4.575 -1.49763,6.5 -0.3127,1.925 -1.54275,6.64857 -2.73346,10.49682 -1.1907,3.84825 -2.16492,8.06175 -2.16492,9.36333 0,1.30158 -1.00549,6.25301 -2.23442,11.00318 -2.50776,9.6933 -3.22179,27.89736 -1.36287,34.7463 1.34569,4.95795 6.9747,16.39774 10.06421,20.45341 2.45485,3.22254 2.07985,6.34174 -0.89111,7.41191 -1.30048,0.46845 -2.83485,-0.447 -5.29243,-3.15762 -1.90356,-2.09953 -3.46815,-4.5047 -3.4769,-5.34482 -0.009,-0.84013 -0.64903,-2.41513 -1.42284,-3.5 -4.29808,-6.02597 -6.87469,-15.14474 -7.62139,-26.97251 -0.13889,-2.2 -0.33071,-5.0125 -0.42628,-6.25 -0.0955,-1.2375 -0.86344,-2.25 -1.70637,-2.25 -0.84296,0 -1.87447,-1.0125 -2.29225,-2.25 -0.65697,-1.94595 -6.004,-8.43119 -12.56043,-15.23415 -3.36035,-3.48669 -13.88829,-18.74662 -17.48495,-25.34391 -1.89744,-3.48043 -3.9071,-6.85543 -4.46591,-7.5 -0.55881,-0.64457 -4.61236,-7.69694 -9.00788,-15.67194 -13.56037,-24.6032 -19.86725,-33.96688 -30.26601,-44.93524 -7.31978,-7.72073 -13.32424,-14.79925 -13.32424,-15.70765 0,-2.16097 -13.44211,-13.71177 -18.53772,-15.92947 -6.42364,-2.79568 -9.99071,-3.01157 -15.32647,-0.92764 -5.25538,2.05254 -7.94802,1.89633 -8.61843,-0.5 -0.30774,-1.1 -0.9848,-2 -1.50457,-2 -1.35607,0 -1.1123,1.2092 0.6937,3.44113 3.36001,4.15242 0.49101,13.78649 -4.84818,16.28022 -3.46212,1.61701 -11.93623,1.63416 -14.16093,0.0287 -0.95266,-0.6875 -2.27369,-3.18653 -2.93564,-5.55339 -1.13026,-4.04143 -0.99617,-4.61974 2.20273,-9.5 1.87342,-2.85814 3.94493,-5.56837 4.60333,-6.02274 0.8727,-0.60227 0.85101,-0.95849 -0.08,-1.31459 -3.17807,-1.21552 -9.57897,-6.849 -12.66512,-11.14666 -2.91745,-4.06272 -4.29896,-7.88766 -6.40235,-17.72585 -0.32616,-1.52553 -1.90371,-2.3334 -6.51228,-3.33493 -3.34503,-0.72694 -10.94679,-3.54182 -16.89278,-6.25529 -12.08852,-5.51662 -12.60183,-5.78706 -21.30626,-11.22539 -3.41884,-2.13601 -6.47567,-3.641 -6.79297,-3.34441 -0.3173,0.29658 -0.0704,2.0319 0.5487,3.85625 4.26272,12.56172 2.76893,33.12468 -2.90116,39.93645 -2.55764,3.07262 -3.93665,16.02453 -1.6176,15.1927 2.68004,-0.96132 8.83279,0.72047 12.13344,3.31653 2.63416,2.07186 3.24094,3.31398 3.24094,6.63453 l 0,4.08542 2.40708,-2.08927 c 1.32814,-1.15278 4.21873,-2.22929 6.44881,-2.40165 3.47351,-0.26846 4.81496,0.31022 9.54197,4.11624 4.62623,3.72489 5.39901,4.06676 4.86317,2.15144 -0.47279,-1.68998 0.23916,-3.12748 2.76091,-5.57465 6.90338,-6.6992 11.82643,-6.91397 19.03053,-0.83024 3.49961,2.95536 4.15903,4.14017 4.15903,7.47279 0,8.3469 -11.11602,13.29627 -20.31149,9.04361 -4.05192,-1.87395 -4.29427,-1.88485 -4.29427,-0.19328 0,5.20924 -4.58096,7.99932 -13.29355,8.0966 -8.65016,0.0966 -14.52165,-4.91622 -14.52165,-12.3979 0,-1.65113 -0.46259,-1.84211 -2.94199,-1.21461 -4.28201,1.08372 -10.07385,0.5932 -12.81436,-1.08527 -3.57784,-2.1913 -5.96237,-7.19788 -5.2854,-11.09728 L 262.13241,398 l -4.47945,-0.0153 c -2.4637,-0.008 -5.18544,-0.43268 -6.0483,-0.9428 -0.98956,-0.58501 -2.06382,-0.54351 -2.90931,0.11241 -1.89572,1.47062 -16.14813,1.44524 -20.87964,-0.0372 -6.51484,-2.04116 -11.56219,-1.58205 -19.07254,1.73485 -11.19994,4.94639 -16.18544,10.83522 -23.43532,27.68162 -1.6648,3.86847 -4.04423,8.59347 -5.28761,10.5 -1.2434,1.90653 -2.26252,4.26003 -2.26471,5.22999 -0.002,0.96996 -0.42551,2.54496 -0.94068,3.5 -0.51518,0.95504 -1.81645,4.43643 -2.8917,7.73643 -1.07526,3.3 -2.29653,6.675 -2.71394,7.5 -1.71492,3.38946 -10.59061,27.86129 -11.78744,32.5 -1.71178,6.63461 -10.52516,26.6202 -15.99554,36.27215 -2.40892,4.25032 -8.25721,14.70285 -12.99621,23.22785 -4.739,8.525 -12.085,20.9 -16.32446,27.5 -4.23944,6.6 -9.48337,15.07911 -11.65314,18.84247 -2.16978,3.76336 -6.853062,10.88507 -10.407297,15.82601 -7.186387,9.99022 -12.040711,19.80501 -15.001762,30.33152 -2.680726,9.52997 -3.588755,20.99671 -2.076869,26.2271 1.684084,5.82611 11.457032,17.65364 17.592044,21.29045 14.129674,8.37601 33.294654,14.99269 51.918054,17.92464 8.68022,1.36656 39.37231,8.04496 45.78964,9.96352 13.50948,4.03888 23.87275,9.85516 29.12597,16.34663 0.86833,1.07302 1.58257,5.53115 1.84241,11.5 0.23337,5.36121 0.89658,11.09766 1.4738,12.74766 1.51528,4.33153 7.92805,10.5 10.91582,10.5 3.04922,0 7.24639,2.6105 7.24639,4.50701 0,4.3615 -11.24979,3.17412 -16.81437,-1.7747 -1.89293,-1.68347 -4.36787,-4.89942 -5.49988,-7.14658 -2.17277,-4.31321 -9.47792,-12.20161 -10.45428,-11.28897 -0.56894,0.53181 6.03799,19.88003 8.43553,24.70324 2.1771,4.37976 10.72985,9.84061 20.39556,13.02238 6.22644,2.04962 7.3361,1.819 12.70994,-2.64137 z"
     id="path4523" />
  <path
     style="fill:#000000"
     d="m 311.44905,442.65264 c -0.27804,-0.25252 -7.96749,-0.78064 -17.08767,-1.1736 -9.12017,-0.39296 -17.17378,-1.15875 -17.89692,-1.70176 -0.96688,-0.72604 -1.01267,-1.51497 -0.17308,-2.98139 1.06829,-1.86585 1.87527,-1.95316 12.54786,-1.35752 17.57571,0.98091 25.84862,2.08508 25.84862,3.44996 0,1.15723 -2.67987,4.27193 -3.23881,3.76431 z"
     id="path4521" />
  <path
     style="fill:#000000"
     d="m 340.84972,435.54545 c -3.15117,-2.94551 -3.28561,-4.14507 -0.61435,-5.48138 1.53403,-0.76742 2.5803,-0.54523 4.40732,0.93593 2.97144,2.40893 5.27207,1.47057 8.55016,-3.48735 2.20851,-3.34024 6.42725,-4.90288 6.42725,-2.38068 0,1.45294 -3.9919,7.70603 -6.77842,10.61803 -2.97992,3.11408 -8.54317,3.01919 -11.99196,-0.20455 z"
     id="path4519" />
  <path
     style="fill:#550000"
     d="m 154.38649,487 c 7.09962,-18.31776 12.88886,-34.28173 14.31297,-39.46835 0.90133,-3.28259 3.30677,-9.20993 5.34543,-13.17187 2.03865,-3.96193 3.70664,-7.46451 3.70664,-7.78351 0,-2.37842 11.36404,-21.84861 14.55384,-24.93534 3.7089,-3.58904 12.04243,-7.83158 20.64224,-10.50882 4.57177,-1.42326 11.89421,-1.45626 15.79158,-0.0712 4.41764,1.56997 10.73564,2.21881 14.75027,1.51482 2.91137,-0.51054 3.66271,-1.1838 4.21816,-3.77985 1.86701,-8.72585 10.17441,-15.92454 15.99146,-13.85723 3.95101,1.40414 4.6698,0.18821 7.05759,-11.93867 0.48732,-2.475 0.71866,-5.625 0.51406,-7 -0.20458,-1.375 -0.69962,-5.2 -1.10007,-8.5 -0.40045,-3.3 -2.14595,-8.8307 -3.87887,-12.29044 -1.73291,-3.45974 -2.92633,-6.83711 -2.65205,-7.50526 0.27429,-0.66816 -0.16308,-1.7927 -0.97195,-2.49899 -1.22084,-1.06599 -1.47068,-0.87565 -1.47068,1.12042 0,6.1147 -8.92678,10.67429 -20.89813,10.67429 -5.87258,0 -7.14179,-0.37999 -11.3853,-3.4087 -4.11322,-2.93573 -4.96308,-4.19051 -6.12485,-9.04311 -1.4085,-5.88309 -0.86203,-10.17614 2.6327,-20.6824 0.84784,-2.54882 1.5415,-4.91132 1.5415,-5.25 0,-2.72692 -12.39907,3.28038 -18.05318,8.74672 -3.11195,3.00857 -3.51729,3.9562 -2.93442,6.86039 0.37196,1.8533 2.05388,4.91209 3.73759,6.7973 2.39653,2.6833 2.81832,3.79138 1.94231,5.10254 -1.02802,1.53871 -1.37338,1.50017 -4.24764,-0.47393 -4.66723,-3.20554 -8.61945,-11.10618 -7.93652,-15.86541 1.41987,-9.89521 17.88641,-20.22883 35.51547,-22.28785 8.55228,-0.99888 26.32167,-4.28391 31.55954,-5.83441 2.6478,-0.7838 8.6655,-3.07193 13.3727,-5.08473 7.23578,-3.09404 9.96935,-5.03004 17.68697,-12.52646 12.26637,-11.91477 14.16862,-16.72615 15.439,-39.04995 1.01673,-17.86682 1.93554,-26.88452 3.31136,-32.5 2.40533,-9.81737 7.71714,-23.73619 10.09756,-26.45916 1.22165,-1.39746 3.71952,-4.67834 5.5508,-7.29084 1.8313,-2.6125 3.94629,-4.75 4.70001,-4.75 0.75372,0 1.52425,-1.0125 1.71226,-2.25 0.2244,-1.47682 1.07712,-2.25 2.4815,-2.25 1.54683,0 2.96325,1.59293 5.11243,5.7495 3.40138,6.57843 9.18857,11.32934 21.60408,17.73561 4.39251,2.26648 8.93982,5.25389 10.10517,6.6387 3.39027,4.02877 5.59592,12.74816 5.24334,20.72808 -0.17369,3.93146 0.0504,7.68444 0.49802,8.33994 1.43924,2.10774 -1.7742,9.40218 -5.49208,12.46688 -3.25769,2.68538 -3.47228,3.19664 -2.37007,5.647 0.66657,1.48186 2.1474,3.81929 3.29078,5.19429 1.93446,2.32639 2.08048,2.35843 2.1026,0.46144 0.013,-1.12121 0.98663,-3.80385 2.16343,-5.96144 1.17679,-2.15759 2.13963,-4.41821 2.13963,-5.02361 0,-0.6054 0.96283,-2.96352 2.13962,-5.24025 1.1768,-2.27674 2.13963,-4.74627 2.13963,-5.48783 0,-0.74157 0.4983,-1.81409 1.10734,-2.38338 3.21648,-3.00658 1.95416,-18.36037 -1.79787,-21.86755 -0.93709,-0.87594 -1.42192,-1.85612 -1.07738,-2.17817 0.96008,-0.89743 -5.56598,-8.91017 -11.4399,-14.04598 -6.34421,-5.54701 -10.14119,-12.86666 -10.73776,-20.69986 -0.55098,-7.23451 -2.78009,-9.67087 -8.92069,-9.75009 -2.86217,-0.0369 -5.41296,0.69438 -7.53347,2.15983 -2.75697,1.9053 -3.55358,2.04178 -5.68726,0.9744 -2.13139,-1.06625 -2.70591,-0.96972 -4.07481,0.68468 -1.54168,1.86319 -1.83972,1.77599 -9.14762,-2.67655 -4.15471,-2.53137 -9.23897,-5.21585 -11.29837,-5.9655 -5.3686,-1.95425 -14.58153,-6.84934 -16.09124,-8.54971 C 302.16761,125.65269 301.01621,125 300.31722,125 c -0.69898,0 -4.17939,-1.06545 -7.73423,-2.36767 -9.32198,-3.41485 -20.60065,-4.01199 -32.19469,-1.70453 -27.75084,5.52302 -41.8058,11.472 -51.71581,21.88953 -6.27508,6.59645 -18.99731,29.65207 -19.6899,35.68267 -0.0632,0.55 -0.72506,2.35 -1.47087,4 -3.70937,8.2064 -4.62949,17.39061 -4.25009,42.42226 0.32814,21.64975 0.60826,25.00186 2.28961,27.39962 1.68437,2.40208 1.85261,4.44959 1.39311,16.95506 -0.57535,15.65818 -1.45103,22.45882 -3.00766,23.35809 -1.86831,1.07933 -3.33155,-1.5137 -3.16024,-5.60032 0.20681,-4.93367 -1.05841,-5.12696 -4.04018,-0.61721 -2.10997,3.19119 -14.73915,12.92896 -20.08425,15.48602 -1.30776,0.62562 -6.82509,2.49598 -12.26073,4.15634 -9.10422,2.78096 -18.91835,7.71958 -45.262135,22.77654 -17.424688,9.95919 -31.727405,30.22962 -35.928198,50.91897 -1.465122,7.21588 -0.843156,19.47315 1.193605,23.52279 l 1.397271,2.77815 3.291453,-2.95336 c 1.8103,-1.62435 5.45783,-3.70387 8.105623,-4.62116 2.647792,-0.91729 5.839989,-2.12329 7.093772,-2.68 3.272715,-1.45317 6.694531,-0.0942 7.521922,2.9872 0.407603,1.51804 -0.109131,5.6391 -1.20625,9.62007 -3.901205,14.15579 -1.955272,23.26352 9.954487,46.59094 3.28533,6.43491 9.0886,14.6556 12.35383,17.5 11.80405,10.28271 16.56657,13.90834 21.07415,16.04344 2.89156,1.36964 5.25736,2.27939 5.25736,2.02168 0,-0.25771 1.56461,0.17789 3.47691,0.96801 1.91228,0.79011 4.84103,1.33089 6.5083,1.20172 2.62999,-0.20375 3.31367,-0.96317 5.1631,-5.73485 z"
     id="path4513" />
  <path
     style="fill:#4d4d4d"
     d="m 587.10787,425.68805 c 3.96809,-1.9216 8.95125,-7.59133 11.59105,-13.18805 1.03768,-2.2 3.5658,-7.375 5.61804,-11.5 4.14155,-8.32445 7.77951,-19.11444 7.77951,-23.07359 0,-1.66493 -1.70744,-4.31835 -4.81416,-7.48139 -2.64779,-2.69579 -4.81417,-5.25879 -4.81417,-5.69557 0,-0.43677 -2.04603,-2.87424 -4.5467,-5.41659 -4.16084,-4.23013 -7.19272,-6.58106 -20.72373,-16.06914 l -4.61528,-3.23627 -2.44422,4.77391 c -3.99735,7.8074 -10.55756,16.66389 -14.07207,18.99775 -4.84002,3.21408 -6.18389,1.38817 -6.97887,-9.4821 l -0.6448,-8.81701 -3.06896,3.75 c -3.42628,4.1866 -5.68093,4.64035 -9.33072,1.87781 -2.47255,-1.8715 -2.47459,-1.87073 -5.52334,2.06329 -1.88502,2.43237 -3.74241,3.81081 -4.86309,3.60907 -2.44174,-0.43955 -6.38055,-10.99404 -7.29905,-19.55861 -0.39763,-3.70786 -1.0456,-6.96656 -1.43991,-7.24156 -1.64632,-1.14817 -5.45815,-10.01371 -6.60939,-15.37205 -1.18612,-5.52066 -0.45954,-16.13949 1.89172,-27.64684 0.3912,-1.91461 0.33812,-3.15944 -0.11796,-2.76629 -0.45609,0.39315 -1.70307,0.27767 -2.77108,-0.25661 -1.45441,-0.72758 -2.1915,-0.55445 -2.93636,0.68967 -1.53825,2.56931 -4.856,0.93027 -4.06677,-2.00906 1.0338,-3.85019 4.94677,-33.83953 4.9469,-37.91357 1.1e-4,-3.1975 -0.44977,-3.93485 -2.94185,-4.82167 -1.76353,-0.62756 -4.18812,-0.71337 -6.05291,-0.21424 -2.9688,0.79465 -3.22487,1.33457 -5.60646,11.82167 -1.37256,6.04394 -3.16744,13.91399 -3.98861,17.48899 -1.24097,5.40262 -3.77942,17.55955 -5.53899,26.52682 -0.60666,3.09174 -7.69808,10.30501 -12.27808,12.48907 -2.25936,1.07742 -6.70755,2.04959 -9.96007,2.17681 -5.5867,0.21852 -5.8997,0.37224 -6.32935,3.10861 -0.43073,2.74324 -0.29641,2.84954 2.85374,2.25868 3.84497,-0.72119 7.11152,-0.83591 7.7159,-0.27098 0.23316,0.21795 0.50633,3.19071 0.60703,6.60614 0.17958,6.0901 1.06978,8.2249 2.51705,6.03601 0.43607,-0.65954 3.13086,-0.96699 6.71666,-0.76631 l 5.98841,0.33515 2.45976,-8 c 1.35287,-4.4 2.63682,-10.09039 2.85322,-12.6453 0.49846,-5.88486 1.17229,-6.8547 4.76255,-6.8547 4.2985,0 7.57844,2.63272 10.44217,8.38165 3.21867,6.46147 3.23144,11.45089 0.0516,20.1932 -2.89411,7.957 -4.33305,16.9645 -3.3155,20.75422 0.54342,2.02385 2.44467,3.38418 8.45991,6.05305 4.26743,1.89339 10.47051,5.50698 13.78463,8.0302 3.3141,2.52323 6.64306,4.58768 7.3977,4.58768 0.75462,0 2.08531,1.07958 2.9571,2.39907 0.87177,1.31949 3.46061,4.4435 5.75295,6.94225 2.29236,2.49874 5.18087,6.12324 6.4189,8.05443 1.23805,1.93119 5.06521,7.46968 8.50483,12.30776 10.94914,15.40082 19.9461,28.76906 19.95144,29.64514 0.009,1.37977 12.01976,0.10685 15.66957,-1.6606 z"
     id="path4511" />
  <path
     style="fill:#ffffff"
     d="M 302.59091,419.359 C 304.10555,415.66951 299.30418,409 295.1335,409 c -2.29122,0 -6.03147,3.70454 -6.0856,6.02749 -0.0196,0.84013 0.69178,2.49821 1.58081,3.68463 2.41927,3.2286 10.7181,3.67737 11.9622,0.64688 z"
     id="path4509" />
  <path
     style="fill:#ffffff"
     d="m 328.91862,413.09794 c 0.79527,-0.74337 0.67975,-1.8463 -0.38888,-3.71274 -3.73019,-6.51507 -11.07277,-7.0385 -12.30928,-0.8775 -0.96102,4.78846 2.4515,7.56944 7.8833,6.42432 2.02592,-0.4271 4.1926,-1.25244 4.81486,-1.83408 z"
     id="path4507" />
  <path
     style="fill:#ffffff"
     d="m 277.17964,408.05854 c 2.57314,-1.52186 2.51582,-5.70938 -0.10945,-7.99557 -3.13662,-2.7315 -5.8147,-2.6061 -7.90084,0.36997 -3.36444,4.79972 2.82531,10.69222 8.01029,7.6256 z"
     id="path4505" />
  <path
     style="fill:#ffffff"
     d="m 352.23379,404.28439 c 3.93529,-2.17293 4.13862,-6.02989 0.48695,-9.23659 -3.17103,-2.78463 -5.14278,-2.24499 -7.42551,2.03226 -2.05209,3.84506 -2.17977,6.09238 -0.43857,7.71994 1.7579,1.64319 3.71518,1.50639 7.37713,-0.51561 z"
     id="path4503" />
  <path
     style="fill:#2b0000"
     d="m 415.46062,397.32397 c 7.62896,-4.1586 8.94019,-5.55984 12.45399,-13.3088 7.76846,-17.13176 0.90604,-45.51153 -14.24344,-58.90427 -5.86773,-5.18731 -10.7738,-7.09568 -18.26644,-7.10532 -17.01999,-0.0219 -17.84427,-16.77663 -1.47616,-30.00558 15.43391,-12.47392 15.71284,-13.38377 7.08569,-23.11314 -5.58494,-6.29847 -12.50915,-15.88404 -12.50915,-17.31709 0,-0.78353 -1.08859,-2.24477 -2.41908,-3.24719 C 384.75552,243.32016 383.058,241.375 382.31373,240 l -1.35321,-2.5 0.65103,2.5 c 1.71643,6.59116 0.68087,25.48141 -2.19282,40 -3.12102,15.76825 -14.46831,43.09103 -28.24074,68 -1.54396,2.79247 -11.18711,8 -14.81413,8 -3.09514,0 -3.48913,0.31127 -3.48913,2.7566 0,7.07425 5.87057,17.02617 12.40577,21.03053 1.9863,1.21708 3.84034,2.21287 4.12011,2.21287 0.27978,0 1.00664,-1.72854 1.61522,-3.8412 1.49809,-5.2004 4.3774,-7.36724 10.46561,-7.87594 4.50894,-0.37675 5.56344,-0.0565 9.20275,2.7945 3.52579,2.76212 4.05127,3.69248 3.69529,6.54267 -0.4438,3.55342 0.52905,4.37997 5.15526,4.37997 5.00997,0 16.24945,6.55452 22.72065,13.25 1.99342,2.0625 4.26276,3.75 5.04298,3.75 0.78023,0 4.45325,-1.65421 8.16225,-3.67603 z"
     id="path4501" />
  <path
     style="fill:#ffffff"
     d="m 261.26744,392.96482 c 1.42402,-0.71238 2.0693,-2.09723 2.0693,-4.44099 0,-3.69035 -0.22483,-3.93992 -4.38428,-4.86652 -2.26597,-0.50479 -3.00725,-0.15209 -4.01181,1.9088 -1.75163,3.59354 -1.52709,6.17399 0.63994,7.35379 2.39456,1.30369 3.15853,1.30973 5.68685,0.0449 z"
     id="path4499" />
  <path
     style="fill:#ffffff"
     d="m 366.22221,382.34501 c 2.52404,-2.13515 2.48416,-4.01063 -0.11288,-5.30983 -2.73038,-1.36589 -3.27978,-1.3073 -3.27978,0.34981 0,0.76174 -1.21889,2.13151 -2.70863,3.04393 -1.48975,0.91242 -2.42416,2.08917 -2.07649,2.61501 1.01365,1.53308 6.04788,1.10283 8.17778,-0.69892 z"
     id="path4497" />
  <path
     style="fill:#ffe4cd;fill-opacity:1"
     d="m 559.14688,351.49114 c 0.62139,-1.09513 2.97684,-4.63977 5.23434,-7.87699 3.56727,-5.11543 4.30185,-7.20973 5.61206,-16 0.82914,-5.56278 1.92827,-11.5463 2.44253,-13.29671 1.09853,-3.73915 0.68254,-4.31744 -3.10577,-4.31744 -4.24099,0 -5.89258,1.84138 -8.07237,9 -1.0886,3.575 -3.07303,8.75 -4.40987,11.5 -2.43324,5.00543 -3.1276,9.78892 -2.73237,18.82332 0.17378,3.97175 0.53682,4.76468 2.05634,4.49115 1.01492,-0.1827 2.35371,-1.2282 2.97511,-2.32333 z"
     id="path4495" />
  <path
     style="fill:#ffe4cd;fill-opacity:1"
     d="m 339.76265,348.38525 c 2.08848,-0.74912 9.15931,-9.13253 9.15931,-10.85957 0,-1.33242 3.92187,-8.71316 6.65572,-12.52568 3.12125,-4.35278 11.16709,-24.03917 15.20623,-37.20622 3.73698,-12.18214 5.83026,-25.82851 5.9172,-38.57516 0.0399,-5.85403 -1.83663,-7.6594 -5.09579,-4.9024 -2.2299,1.88635 -13.39757,2.1342 -23.75319,0.52718 -5.35847,-0.83155 -7.49718,-1.68298 -9.32241,-3.71126 -1.30272,-1.44768 -2.38591,-3.19464 -2.40708,-3.88214 -0.0212,-0.6875 -0.75142,-1.25 -1.62281,-1.25 -2.78737,0 -3.1037,-4.7222 -0.6813,-10.17073 1.2461,-2.80279 2.26564,-5.93467 2.26564,-6.95974 0,-2.28936 6.44518,-9.10356 11.21909,-11.86146 2.15542,-1.24519 5.74334,-2.12926 9.24022,-2.27682 5.61888,-0.23709 5.72856,-0.30096 6.41631,-3.73623 0.38485,-1.92226 1.04225,-4.89988 1.46089,-6.61693 0.71672,-2.93969 0.55199,-3.16043 -2.82208,-3.78167 -5.62229,-1.0352 -8.23972,-0.75511 -13.5849,1.45369 -4.88868,2.02016 -7.06492,3.82324 -13.711,11.3599 -2.14137,2.42832 -4.03919,3.65175 -5.30991,3.423 -3.06405,-0.55157 -2.8873,-3.02931 0.46045,-6.45513 1.67803,-1.71717 3.97682,-4.19217 5.10841,-5.5 3.15713,-3.64887 10.53445,-7.96102 15.35022,-8.97243 2.38429,-0.50076 6.98827,-0.73391 10.23108,-0.51812 l 5.89604,0.39235 0,-3.31841 c 0,-3.72074 -2.15793,-6.22267 -6.62164,-7.67718 -1.65367,-0.53886 -3.0067,-1.38572 -3.0067,-1.88192 0,-0.49619 -0.57723,-0.90217 -1.28275,-0.90217 -1.24372,0 -10.51027,-8.66686 -12.7238,-11.90037 -0.80622,-1.17773 -1.24326,-1.26994 -1.657,-0.34963 -0.30908,0.6875 -1.12363,1.25394 -1.81008,1.25875 -2.20965,0.0155 -12.48118,16.6526 -12.48118,20.21615 0,0.78246 -1.24532,5.21445 -2.76734,9.84887 -2.42353,7.37938 -2.82504,10.6625 -3.23176,26.42623 -0.49334,19.12062 -1.8456,29.99482 -4.27022,34.33868 -0.81701,1.46372 -1.4972,3.11132 -1.51153,3.66132 -0.0818,3.14237 -15.66938,19.53029 -22.98814,24.1686 -1.7652,1.1187 -5.61653,2.8534 -8.55853,3.8549 -2.942,1.00149 -5.8305,2.12011 -6.41889,2.48582 -2.16588,1.34616 -14.03561,4.92799 -18.16687,5.48207 -2.3426,0.31419 -4.72447,1.00608 -5.29303,1.53753 -1.07279,1.00279 2.83441,13.97676 5.14443,17.08218 3.59292,4.83007 11.71256,12.10728 14.53502,13.02698 1.78503,0.58166 3.24555,1.48237 3.24555,2.00156 0,1.59814 3.44496,4.44865 10.4909,8.68058 8.56934,5.14692 27.56471,14.29321 31.76679,15.29573 3.46256,0.82609 18.41863,0.31375 21.33043,-0.7307 z"
     id="path4493" />
  <path
     style="fill:#000000"
     d="m 322.75607,338.27056 c -5.2548,-1.24769 -13.33905,-7.7482 -13.39461,-10.77056 -0.0202,-1.1 -0.99326,-3.35 -2.16229,-5 -2.742,-3.87008 -2.68721,-5.09377 0.53276,-11.89956 1.73693,-3.67117 3.56019,-5.96393 5.20858,-6.54975 1.39491,-0.49573 2.95988,-2.05994 4.15154,-3.47601 1.19165,-1.41607 3.05573,-2.57468 3.46862,-2.57468 0.41289,0 2.11784,-0.90996 3.7888,-2.02214 2.35405,-1.56684 3.98687,-1.88032 7.25203,-1.39227 2.62945,0.39302 4.48934,0.21334 4.94635,-0.47787 1.08948,-1.64774 5.48739,-1.33955 7.11971,0.49893 4.06969,4.58365 6.53257,10.21877 5.82036,13.31707 -0.3257,1.41696 -0.78665,6.99916 -1.02431,12.40491 -0.49215,11.19422 -1.17753,12.38098 -9.40189,16.27946 -4.82536,2.2873 -11.01584,2.91846 -16.30565,1.66247 z"
     id="path4491"
     inkscape:connector-curvature="0"
     sodipodi:nodetypes="scssssssscscsss" />
  <path
     style="fill:#000000"
     d="m 325.42868,291.54804 c -1.93006,-2.17381 -0.91617,-4.80259 2.01301,-5.2193 3.79168,-0.53941 5.59691,-2.23263 4.44018,-4.16469 -1.29565,-2.1641 0.5357,-5.26526 2.65946,-4.50348 2.01398,0.7224 5.7017,7.37494 5.04525,9.10145 -0.4069,1.07022 -10.59719,6.23798 -12.30063,6.23798 -0.31246,0 -1.14825,-0.65338 -1.85727,-1.45196 z"
     id="path4483" />
  <path
     style="fill:#ffe4cd;fill-opacity:1"
     d="m 531.49242,338 c 6.66267,-10.74528 13.95055,-31.61569 15.19005,-43.5 1.10171,-10.5631 0.94348,-10.86584 -5.31617,-10.17286 -8.93922,0.98963 -10.67671,3.1106 -14.32348,17.48491 -2.39135,9.42584 -1.91413,9.62861 1.48179,0.62963 4.11582,-10.90663 5.28373,-12.83523 6.97712,-11.52156 1.70839,1.32532 1.51361,3.86387 -0.67064,8.74065 -2.64392,5.9031 -3.18091,7.3686 -5.13885,14.02434 -1.00071,3.4018 -2.60723,6.92145 -3.57004,7.82142 -2.76956,2.58882 -2.67938,14.77013 0.15103,20.40252 1.70847,3.39979 1.71579,3.40251 2.69108,1 0.53789,-1.32498 1.67554,-3.53405 2.52811,-4.90905 z"
     id="path4481" />
  <path
     style="fill:#ffe4cd;fill-opacity:1"
     d="m 543.41062,341.00632 c 1.00232,-1.64652 2.17528,-2.99652 2.60656,-3 2.03421,-0.0164 14.70467,-28.36162 13.27511,-29.69789 -0.33068,-0.3091 0.12903,-1.88201 1.02156,-3.49535 2.07741,-3.7551 1.64384,-10.4844 -0.63832,-9.90726 -8.0551,2.03709 -8.47096,2.38241 -9.73291,8.08214 -1.2743,5.75559 -7.84867,26.0497 -9.56056,29.51204 -2.73614,5.53392 -3.1312,7.58917 -1.83246,9.53307 1.78958,2.67857 2.72575,2.48083 4.86102,-1.02675 z"
     id="path4479" />
  <path
     style="fill:#ffc400;fill-opacity:1"
     d="m 248.8471,330.31962 c 5.93827,-2.64696 6.06382,-5.08141 1.07372,-20.81962 -4.98475,-15.72132 -4.96774,-15.68652 -7.37962,-15.081 -1.21301,0.30453 -3.04103,0.55984 -4.06226,0.56735 -2.33739,0.0172 -8.30646,10.75179 -8.30646,14.93808 0,1.63981 -0.55225,4.11439 -1.22719,5.49908 -0.98054,2.0116 -0.8619,3.41168 0.59024,6.96593 1.82599,4.46925 5.03502,7.19943 10.17281,8.65484 4.14836,1.17511 5.03438,1.10486 9.13876,-0.72466 z"
     id="path4477" />
  <path
     style="fill:#4d4d4d"
     d="m 443.93855,324.85678 3.82987,-3.14323 -5.29336,0.7406 c -6.67469,0.93386 -7.15322,1.23174 -5.79352,3.60654 1.52394,2.66166 2.80618,2.44894 7.25701,-1.20391 z"
     id="path4475" />
  <path
     style="fill:#ffe4cd;fill-opacity:1"
     d="m 523.97861,297 c 2.15775,-7.975 4.06381,-17.2 4.2357,-20.5 0.17189,-3.3 0.61145,-9.77239 0.97682,-14.3831 0.61703,-7.78652 0.52628,-8.34272 -1.27523,-7.81572 -10.52161,3.07787 -17.45185,7.53179 -17.45185,11.21591 0,1.71028 0.48643,2.17676 1.90762,1.82937 1.34837,-0.3296 2.78589,0.78759 4.90341,3.81078 2.97447,4.24665 3.33195,7.7867 1.44833,14.34276 -2.84453,9.90064 -3.16298,12.42389 -2.59754,20.58187 0.6938,10.00998 1.82591,13.07799 3.10597,8.41708 0.45298,-1.64942 2.58903,-9.52395 4.74677,-17.49895 z"
     id="path4473" />
  <path
     style="fill:#4d4d4d"
     d="m 472.49451,297.56144 c 2.17936,-1.5538 4.62623,-4.30999 5.43746,-6.12488 0.81126,-1.81489 1.96373,-3.58213 2.56104,-3.9272 0.5973,-0.34506 1.08602,-1.67721 1.08602,-2.96032 0,-1.2831 1.02124,-6.99405 2.26942,-12.69098 1.24818,-5.69693 2.44534,-11.25806 2.66033,-12.35806 0.21502,-1.1 0.8658,-4.25 1.44621,-7 0.58041,-2.75 1.21398,-6.8 1.40795,-9 0.19397,-2.2 1.02387,-5.97071 1.84425,-8.37935 1.48695,-4.36573 1.48108,-4.38812 -1.88675,-7.20091 -5.10983,-4.26767 -10.68519,-5.26965 -23.78255,-4.27407 l -11.23915,0.85433 -0.71022,7 c -0.39063,3.85 -1.49517,9.025 -2.45457,11.5 -0.95936,2.475 -2.22538,7.875 -2.81335,12 -0.58796,4.125 -2.09665,12.42327 -3.35262,18.4406 -1.77753,8.51606 -1.98456,11.03377 -0.93418,11.36104 0.74216,0.23125 2.22475,2.3293 3.29462,4.66233 1.06988,2.33304 3.53161,5.93075 5.4705,7.99492 3.42677,3.64818 3.69582,3.74151 9.6292,3.34034 4.61118,-0.31178 7.07297,-1.1036 10.06639,-3.23779 z"
     id="path4471" />
  <path
     style="fill:#000000"
     d="m 462.6787,292.42565 c -0.35546,-0.8659 -0.14329,-3.2284 0.47151,-5.25 0.6148,-2.02161 1.56323,-5.92565 2.10761,-8.67565 2.56946,-12.97977 5.95864,-28.13067 6.56036,-29.32722 1.07488,-2.13747 2.77954,-1.85351 3.14135,0.52327 0.18387,1.20783 -1.17601,8.63283 -3.02194,16.5 -1.84592,7.86717 -3.45586,16.77895 -3.57763,19.80395 -0.12176,3.025 -0.5956,6.0625 -1.05301,6.75 -1.16298,1.74806 -3.85492,1.55941 -4.62825,-0.32435 z"
     id="path4469" />
  <path
     style="fill:#000000"
     d="m 452.17437,281.02307 c -0.35526,-0.53731 -0.0782,-2.89981 0.61566,-5.25 0.69386,-2.35019 1.87364,-8.32307 2.62169,-13.27307 1.32775,-8.78578 2.97363,-16.95385 5.03251,-24.97476 0.96852,-3.77313 1.09892,-3.87459 2.57024,-2 0.87034,1.10887 1.25465,2.85172 0.87645,3.97476 -1.17541,3.49023 -3.74236,16.72822 -4.75076,24.5 -1.5074,11.61749 -3.23313,18 -4.86693,18 -0.79911,0 -1.7436,-0.43962 -2.09886,-0.97693 z"
     id="path4467" />
  <path
     style="fill:#000000"
     d="m 475.16014,264.51435 c 0,-2.39799 2.3282,-10.73488 4.02036,-14.39621 1.1309,-2.44698 1.80683,-3.01306 2.44507,-2.04775 0.48515,0.73377 0.74103,1.5806 0.5686,1.88186 -0.17242,0.30126 -1.17539,4.03525 -2.22883,8.29775 -1.22522,4.95759 -2.43596,7.75 -3.36028,7.75 -0.79471,0 -1.44492,-0.66854 -1.44492,-1.48565 z"
     id="path4465" />
  <path
     style="fill:#000000"
     d="m 509.39422,278 c 0,-0.55 -0.4814,-1 -1.06981,-1 -0.5884,0 -1.06982,0.45 -1.06982,1 0,0.55 0.48142,1 1.06982,1 0.58841,0 1.06981,-0.45 1.06981,-1 z"
     id="path4463" />
  <path
     style="fill:#009900;fill-opacity:1"
     d="m 354.06565,236.75 c 1.04446,-3.66735 -0.22475,-8.30657 -2.49537,-9.12103 -0.87579,-0.31414 -2.83725,1.06879 -4.79793,3.38279 l -3.31649,3.91416 2.22197,1.78704 c 1.22209,0.98287 3.29444,2.07968 4.60524,2.43736 1.31076,0.35768 2.48982,0.69518 2.6201,0.75 0.13027,0.0548 0.6534,-1.36282 1.16248,-3.15032 z"
     id="path4459" />
  <path
     style="fill:#ffffff"
     d="m 366.65075,232.49648 c 2.79268,-4.84729 1.77869,-6.99648 -3.30095,-6.99648 -3.25783,0 -4.16885,0.35411 -3.85894,1.5 0.22309,0.825 0.64231,3.60737 0.93157,6.18304 0.47696,4.24685 0.70901,4.57617 2.49133,3.53573 1.08096,-0.63102 2.76262,-2.53105 3.73699,-4.22229 z"
     id="path4457" />
  <path
     style="fill:#4d4d4d"
     d="m 502.48969,225.25 c 0.94257,-3.1625 2.44874,-7.91507 3.34708,-10.56126 2.20086,-6.48304 2.20292,-10.91979 0.007,-14.05313 -3.73624,-5.3301 -9.03936,-7.16302 -23.885,-8.2554 l -8.71416,-0.64121 -2.28529,4.3805 c -1.25692,2.40928 -3.70309,6.6305 -5.4359,9.3805 -4.96038,7.87209 -4.82432,8.02285 7.2301,8.0106 12.33635,-0.0125 18.3951,1.7736 23.84508,7.02962 3.14374,3.03184 3.46759,3.78135 2.35401,5.44809 -1.31749,1.97198 -0.77264,5.01169 0.89831,5.01169 0.50903,0 1.69667,-2.5875 2.63923,-5.75 z"
     id="path4455" />
  <path
     style="fill:#000000"
     d="m 510.19644,225.41653 c -1.01948,-0.95296 -3.06341,0.5906 -2.30363,1.7397 0.45159,0.683 1.04998,0.66575 1.81829,-0.0524 0.62987,-0.58876 0.84828,-1.34803 0.48534,-1.68727 z"
     id="path4453" />
  <path
     style="fill:#008080"
     d="m 353.28624,215.75 c 1.9718,-1.5125 3.96286,-2.75 4.42456,-2.75 0.46173,0 0.83949,-0.45 0.83949,-1 0,-4.06322 -12.22398,3.05602 -15.54037,9.05071 -2.75336,4.97695 -1.68431,5.57967 2.57062,1.44929 2.26633,-2.2 5.7339,-5.2375 7.7057,-6.75 z"
     id="path4451" />
  <path
     style="fill:#2b0000"
     d="m 373.88281,201 c 0.74613,0 1.93429,0.54 2.64038,1.2 0.99848,0.93333 1.28377,0.307 1.28377,-2.8185 0,-5.29271 -2.75136,-13.78941 -5.02291,-15.51167 -0.99369,-0.75341 -1.49679,-0.88541 -1.11801,-0.29333 0.37878,0.59207 -0.0209,3.91962 -0.88812,7.39455 -0.86724,3.47493 -1.32961,6.5491 -1.02751,6.83149 0.3021,0.28239 0.0182,1.1115 -0.63071,1.84246 -0.68325,0.76954 -0.86579,2.49218 -0.4336,4.09201 l 0.74639,2.76299 1.54686,-2.75 c 0.85077,-1.5125 2.15733,-2.75 2.90346,-2.75 z"
     id="path4449" />
  <path
     style="fill:#4d4d4d"
     d="m 501.90552,182.60858 c 0,-4.67428 -13.35498,-6.90174 -20.59394,-3.43484 -2.68199,1.28446 -2.33352,3.81508 0.53491,3.88458 6.13502,0.14866 18.49155,1.14317 18.89555,1.5208 0.89403,0.83568 1.16348,0.37931 1.16348,-1.97054 z"
     id="path4447" />
  <path
     style="fill:#4d4d4d"
     d="m 518.21856,170.92207 c 0.45948,-2.43214 1.99828,-9.37207 3.41955,-15.42207 5.63498,-23.98688 9.2251,-40.36112 10.46934,-47.75 0.83774,-4.9749 1.79332,-7.75 2.66862,-7.75 2.08142,0 1.62935,-4.8619 -0.7927,-8.525117 C 532.79743,89.681231 530.27,87.10803 528.36684,85.756658 524.29723,82.866966 515.27261,79 512.59833,79 c -1.03015,0 -3.56899,-0.66239 -5.64188,-1.471977 -5.51072,-2.152264 -5.69742,-1.835542 -9.86026,16.727932 C 495.70937,100.44018 492.56837,111.125 490.1162,118 c -2.45219,6.875 -4.84518,14.525 -5.31773,17 -0.81815,4.28489 -1.31795,5.90737 -4.31276,14 -4.28528,11.57976 -6.60608,17.49921 -7.41169,18.90437 -0.8262,1.44104 0.29731,1.51064 11.59663,0.71836 l 12.51145,-0.87727 7.97825,3.23734 c 4.38802,1.78053 8.44159,3.64343 9.00792,4.13977 1.87948,1.64719 3.2053,0.2722 4.05029,-4.2005 z"
     id="path4445" />
  <path
     style="fill:#000000"
     d="m 532.50669,126.27083 c -0.35548,-0.33229 -0.60835,0.25834 -0.56188,1.3125 0.0514,1.16495 0.30482,1.4019 0.64633,0.60417 0.30905,-0.72187 0.27103,-1.58437 -0.0844,-1.91667 z"
     id="path4443" />
  <path
     style="fill:#4d4d4d"
     d="m 492.16273,81.371093 c -1.58082,-1.780472 -2.55909,-1.729165 -4.67106,0.244978 -2.21983,2.074966 -1.62056,3.674257 1.65539,4.417808 3.05557,0.693533 5.04301,-2.379405 3.01567,-4.662786 z"
     id="path4441" />
  <path
     style="fill:#000000"
     d="m 13,1027.059 c 0,-0.5824 0.481418,-1.059 1.069816,-1.059 0.588398,0 1.069814,0.1984 1.069814,0.441 0,0.2425 -0.481416,0.7191 -1.069814,1.059 C 13.481418,1027.8399 13,1027.6415 13,1027.059 z"
     id="path4437" />
  <path
     style="fill:#aa0000"
     d="m 342.55962,330.65599 c 2.44189,-1.65345 3.07935,-6.57179 0.95674,-8.45116 -1.70395,-1.50869 -3.07984,-0.25374 -6.64134,1.58402 -1.94713,1.00473 -12.46569,1.30077 -16.52141,1.35397 -10.78314,0.14154 -2.74315,8.8567 8.26035,8.9932 4.43507,0.055 6.34822,-0.26583 10.36229,-1.96404 z"
     id="path4489"
     inkscape:connector-curvature="0"
     sodipodi:nodetypes="cassssc" />
  <path
     style="fill:#aa0000"
     d="m 322.66237,308.54641 c 2.7208,-1.72818 3.32259,-1.83059 5.71937,-1.74637 2.02552,0.0712 5.60179,0.68051 6.75614,-0.0753 1.20396,-0.78826 4.67548,0.058 6.58558,0.284 7.09126,0.83886 3.81503,-1.50737 2.98864,-4.77349 -0.39209,-1.54963 -3.48062,-5.63294 -4.7117,-5.41796 -1.08724,0.18986 -2.29437,1.22464 -5.02907,1.82219 -1.73104,0.37824 -2.85779,-3.45478 -11.23302,0.83775 -8.37523,4.29253 -12.88862,13.1011 -12.74154,13.15013 2.81585,0.62575 5.12138,-0.3414 6.20812,-0.96239 z"
     id="path4485"
     inkscape:connector-curvature="0"
     sodipodi:nodetypes="ccssssszcsc" />
  <path
     style="fill:url(#radialGradient4438);fill-opacity:1"
     id="path4430"
     d="m 319.64687,302.90143 c 0.70344,-0.75364 1.54357,-1.33877 2.39803,-1.90519 0.81849,-0.58639 1.80843,-0.8406 2.774,-1.06863 1.03385,-0.24047 2.09689,-0.25877 3.10741,-0.59663 0.40804,-0.17788 0.15459,-0.0811 -0.0824,0.0735 0.54325,-0.37404 1.02443,-0.42076 1.62304,-0.40898 0.031,1.9e-4 0.0619,3.8e-4 0.0929,5.7e-4 2.3053,0.0327 2.25028,3.91386 -0.055,3.88118 l 0,0 c -0.0296,-6.7e-4 -0.0593,-0.001 -0.0889,-0.002 -0.57455,-0.003 0.71596,-0.034 0.80206,-0.38333 -0.38154,0.25498 -0.7932,0.42506 -1.24164,0.53079 -1.07642,0.27396 -2.17444,0.37308 -3.26221,0.58486 -0.5567,0.143 -1.11939,0.30157 -1.60764,0.60863 -0.64367,0.39431 -1.25621,0.81492 -1.73737,1.40753 -1.61698,1.61698 -4.33932,-1.10535 -2.72233,-2.72233 z"
     inkscape:connector-curvature="0" />
  <path
     style="fill:url(#radialGradient4448);fill-opacity:1"
     id="path4440"
     d="m 323.36656,326.37773 c 0.71674,0.1391 1.4429,0.22625 2.17064,0.28132 0.76487,0.0533 1.53292,0.0579 2.29939,0.0519 1.14942,0.008 2.29903,-0.009 3.44597,0.0693 1.64629,0.18185 3.30007,0.27068 4.95545,0.30339 0.63762,0.008 1.25966,0.0656 1.87311,-0.11812 0.31635,-0.12113 0.29242,-0.13483 -0.14133,0.10265 -0.10376,0.0335 -0.31875,0.36553 -0.37272,0.58114 0.32362,-2.28019 4.16252,-1.73534 3.8389,0.54485 l 0,0 c -0.12402,0.67214 -0.3577,1.31484 -0.89885,1.77906 -0.44669,0.38044 -0.93165,0.61374 -1.50281,0.72892 -0.97287,0.21764 -1.9406,0.25157 -2.93253,0.1421 -1.69724,-0.0886 -3.39566,-0.15706 -5.09003,-0.29361 -1.0595,-0.0816 -2.12202,-0.005 -3.1837,-0.0205 -0.89371,-0.0109 -1.78817,0.008 -2.68106,-0.041 -0.80505,-0.10078 -1.60761,-0.218 -2.41277,-0.31736 -2.25352,-0.37558 -1.62118,-4.16958 0.63234,-3.794 z"
     inkscape:connector-curvature="0" />
  <path
     sodipodi:type="arc"
     style="fill:#000000;fill-opacity:1"
     id="path4450"
     sodipodi:cx="348.68976"
     sodipodi:cy="236.93768"
     sodipodi:rx="4.1346612"
     sodipodi:ry="3.5833728"
     d="m 352.82442,236.93768 a 4.1346612,3.5833728 0 1 1 -8.26932,0 4.1346612,3.5833728 0 1 1 8.26932,0 z"
     transform="matrix(0.99832489,0,0,1.6791097,-0.80106201,-162.78891)" />
  <path
     style="fill:url(#radialGradient4462);fill-opacity:1"
     id="path4454"
     d="m 345.50142,234.79795 c 0.30171,0.12959 0.14945,0.0663 0.45683,0.18982 1.49497,0.59799 0.4882,3.11491 -1.00677,2.51692 l 0,0 c -0.30778,-0.12253 -0.15387,-0.0634 -0.46172,-0.17759 -1.50223,-0.6009 -0.49057,-3.13004 1.01166,-2.52915 z"
     inkscape:connector-curvature="0" />
  <path
     style="fill:url(#radialGradient4479);fill-opacity:1"
     id="path4454-1"
     d="m 349.93843,228.49238 c 0.40153,0.1733 0.19889,0.0887 0.60798,0.25384 1.98959,0.79967 0.64972,4.16548 -1.33988,3.3658 l 0,0 c -0.40961,-0.16386 -0.20478,-0.0847 -0.61449,-0.23748 -1.99926,-0.80358 -0.65288,-4.18571 1.34639,-3.38216 z"
     inkscape:connector-curvature="0" />
</svg>
