<?xml version="1.0" encoding="UTF-8" standalone="no"?>
<!-- Created with Inkscape (http://www.inkscape.org/) -->

<svg
   xmlns:dc="http://purl.org/dc/elements/1.1/"
   xmlns:cc="http://creativecommons.org/ns#"
   xmlns:rdf="http://www.w3.org/1999/02/22-rdf-syntax-ns#"
   xmlns:svg="http://www.w3.org/2000/svg"
   xmlns="http://www.w3.org/2000/svg"
   xmlns:sodipodi="http://sodipodi.sourceforge.net/DTD/sodipodi-0.dtd"
   xmlns:inkscape="http://www.inkscape.org/namespaces/inkscape"
   id="svg2985"
   version="1.1"
   inkscape:version="0.48.3.1 r9886"
   width="1388.7217"
   height="1485.8351"
   sodipodi:docname="hellman.svg">
  <metadata
     id="metadata2991">
    <rdf:RDF>
      <cc:Work
         rdf:about="">
        <dc:format>image/svg+xml</dc:format>
        <dc:type
           rdf:resource="http://purl.org/dc/dcmitype/StillImage" />
        <dc:title></dc:title>
      </cc:Work>
    </rdf:RDF>
  </metadata>
  <defs
     id="defs2989" />
  <sodipodi:namedview
     pagecolor="#ffffff"
     bordercolor="#666666"
     borderopacity="1"
     objecttolerance="10"
     gridtolerance="10"
     guidetolerance="10"
     inkscape:pageopacity="0"
     inkscape:pageshadow="2"
     inkscape:window-width="1364"
     inkscape:window-height="744"
     id="namedview2987"
     showgrid="false"
     inkscape:zoom="0.4118896"
     inkscape:cx="858.40918"
     inkscape:cy="912.30342"
     inkscape:window-x="0"
     inkscape:window-y="22"
     inkscape:window-maximized="1"
     inkscape:current-layer="svg2985"
     fit-margin-top="0"
     fit-margin-left="0"
     fit-margin-right="0"
     fit-margin-bottom="0" />
  <rect
     style="fill:#061200;fill-opacity:1"
     id="rect3264"
     width="1133.799"
     height="806.0412"
     x="254.92271"
     y="0" />
  <path
     id="path3138-2"
     style="fill:#ffffff"
     d="m 952.38261,493.96559 c 2.6187,-4.16717 7.9163,-6.25996 12.8336,-5.06993 3.7586,0.90967 2.7883,4.12307 -1.747,5.78574 -3.5742,1.31031 -5.8794,5.91712 -5.8794,11.74944 0,3.1954 0.5492,3.82877 3.3209,3.82877 2.7732,0 3.472,-0.80701 4.2353,-4.89212 1.1691,-6.25592 2.7842,-8.15353 6.9396,-8.15353 3.1872,0 3.3197,0.31531 2.8783,6.84896 l -0.4625,6.84897 5.3289,0.0861 c 5.9859,0.0965 7.7416,2.39948 3.9448,5.17298 -3.2417,2.36779 -10.0738,2.41775 -13.3644,0.0978 -1.7958,-1.26621 -3.5437,-1.46411 -5.7583,-0.65229 -5.2032,1.90754 -8.3428,1.35454 -11.9261,-2.1006 -2.7846,-2.68507 -3.3347,-4.36847 -3.0913,-9.45811 0.1631,-3.40544 1.3994,-7.94702 2.7476,-10.09237 z m -92.5122,-10.81844 c 0.388,-1.8586 1.3129,-3.7642 2.0554,-4.2347 3.0348,-1.9232 4.3992,-0.7395 7.2434,6.2847 2.6009,6.4231 2.7325,7.2639 1.3014,8.3104 -1.225,0.8957 -1.4707,2.3008 -1.065,6.0916 0.2901,2.71 0.9072,5.32 1.3714,5.8 0.4642,0.4799 0.379,1.893 -0.1892,3.1401 -1.0957,2.4049 -5.3974,5.2353 -6.413,4.2197 -0.3321,-0.3321 -0.7559,-3.2203 -0.9417,-6.4182 -0.1859,-3.1979 -1.1772,-8.9643 -2.203,-12.8143 -1.2105,-4.543 -1.6175,-8.1861 -1.1597,-10.3793 z m 22.8319,14.90838 c -1.4301,0.0301 -3.0142,0.46947 -4.25,1.40625 -2.1994,1.6671 -4.6875,9.4555 -4.6875,14.6875 0,4.1532 2.6671,7.49865 6.7813,8.53125 3.0312,0.7608 10.3219,-2.0749 13.1874,-5.125 l 2.2813,-2.40625 2.4687,2.9375 c 2.7926,3.3188 5.0325,3.6529 9.4376,1.375 1.6737,-0.8656 3.1552,-1.4281 3.2812,-1.25 1.7055,2.41 5.5625,9.9615 5.5625,10.875 0,1.3579 -4.2972,0.87575 -12.5,-1.40625 -4.7751,-1.3284 -5.0303,-1.30575 -5.7813,0.65625 -0.9892,2.5858 0.5504,3.50527 1.7188,4.6875 1.8378,1.85959 4.7929,2.20711 7.3438,2.78125 1.4652,0.32982 4.4687,0.375 4.4687,0.375 2.9196,-0.1089 4.609,-1.01525 7.625,-4.03125 l 3.875,-3.875 1.375,3.125 c 1.2427,2.8208 1.8048,3.11025 5.6563,3.03125 4.8276,-0.099 11.5034,-4.6036 12.0312,-8.125 0.4562,-3.0434 -2.2932,-3.4412 -4.6875,-0.6875 -1.2101,1.3917 -3.2106,2.40625 -4.6875,2.40625 -2.2166,0 -2.5226,-0.3805 -2.25,-2.75 0.2152,-1.8706 0.9594,-2.83305 2.3438,-3.03125 2.273,-0.3255 4.8849,-3.7675 3.9687,-5.25 -1.7132,-2.772 -8.1497,0.79435 -11.5625,6.40625 -1.6331,2.6855 -1.9339,2.79425 -2.5625,1.15625 -0.3903,-1.0173 -2.1979,-4.3305 -4.0313,-7.375 -2.2047,-3.6615 -3.3437,-6.79465 -3.3437,-9.28125 0,-2.0675 -0.5625,-4.1227 -1.25,-4.5625 -0.6875,-0.4398 -1.25,-1.7125 -1.25,-2.8125 0,-1.5794 -0.7714,-2.072 -3.6563,-2.3125 -2.9228,-0.2437 -4.3719,0.3481 -7.25,2.875 -1.9783,1.737 -3.5937,3.7945 -3.5937,4.5625 0,1.8269 -1.4114,1.7516 -2.9687,-0.125 -0.6816,-0.8211 -2.9584,-1.9418 -5.0313,-2.5 -2.3984,-0.6458 -3.9497,-1.7321 -4.2813,-3 -0.3494,-1.33667 -1.9426,-2.00739 -3.7812,-1.96875 z m 23.6875,6.21875 c 1.1869,-0.11949 1.787,1.55406 1.9375,5.125 0.216,5.126 -1.3256,6.8965 -4.0625,4.625 -1.9696,-1.6345 -1.9003,-6.44355 0.125,-8.46875 0.7855,-0.7855 1.4605,-1.22694 2,-1.28125 z m -24.375,3.5625 c 1.4543,-0.0314 3.3397,0.39972 5.5625,1.34375 2.9999,1.274 4.1875,2.36735 4.1875,3.84375 0,4.2346 -9.8305,5.0538 -12,1 -2.0538,-3.83762 -0.9495,-6.11848 2.25,-6.1875 z M 1067.7104,185.91186 c 1.3043,-2.4194 4.8468,-8.1148 7.8721,-12.6564 5.2197,-7.8359 8.7971,-16.5351 7.3818,-17.9504 -0.6372,-0.63719 -3.6589,0.7015 -10.5875,4.6906 -3.8977,2.2442 -6.3137,1.2825 -4.4223,-1.7602 3.4468,-5.54479 16.3656,-10.32479 20.3542,-7.53109 4.1541,2.9097 2.1337,10.13759 -6.3524,22.72479 -2.5645,3.8039 -4.9182,7.9339 -5.2304,9.1777 -0.3122,1.2437 -1.202,2.5048 -1.9773,2.8024 -0.7754,0.2975 -1.4098,1.6497 -1.4098,3.0049 0,3.0555 2.3532,3.9172 8.75,3.204 11.2426,-1.2534 22.1509,-1.7714 24.123,-1.1455 3.0646,0.9727 2.964,5.5301 -0.123,5.5677 -3.2359,0.039 -22.36,0.9728 -28.25,1.3788 -5.6741,0.3912 -12.5,-2.5802 -12.5,-5.4414 0,-0.9168 1.0672,-3.6464 2.3716,-6.0659 z m -13.1841,-66.68639 c 0.6669,-0.6669 2.6445,-1.2125 4.3946,-1.2125 2.602,0 4.4003,-1.2306 9.8637,-6.75 7.3383,-7.4134 12.0812,-16.028502 15.0292,-27.298902 2.1736,-8.3097 4.7039,-11.9183 7.233,-10.3152 1.4032,0.8894 1.7224,2.1799 1.4711,5.9482 -0.1765,2.6468 -0.8094,5.7251 -1.4064,6.8406 -2.148,4.0137 -4.3914,16.566502 -5.2855,29.575302 -0.7783,11.3251 -2.3404,19 -3.8669,19 -0.6809,0 -1.9327,-0.5625 -2.7817,-1.25 -1.3059,-1.0575 -1.4377,-3.0212 -0.8557,-12.75 0.3783,-6.325 0.6072,-11.6173 0.5086,-11.7606 -0.099,-0.1433 -3.2188,2.6329 -6.9336,6.1694 -7.745,7.373 -11.5198,9.3446 -15.3198,8.0013 -3.0298,-1.071 -3.7346,-2.5136 -2.0506,-4.1976 z m -7.1875,18.7875 c 1.4564,-0.7794 2.6116,-0.7392 4.25,0.1481 1.4168,0.7672 7.6195,1.2929 16.75,1.4196 25.4778,0.3535 46.3687,1.4934 47.7058,2.6031 4.3573,3.6162 -1.7666,4.9572 -16.2058,3.5489 -11.7084,-1.142 -30.5,-1.414 -30.5,-0.4416 0,0.462 -0.4699,0.5495 -1.0442,0.1945 -0.5744,-0.3549 -4.963,-0.756 -9.7526,-0.8914 -8.9444,-0.2527 -13.2032,-1.5691 -13.2032,-4.0812 0,-0.7863 0.9,-1.9113 2,-2.5 z m -47.38619,-9.0944 c 1.77319,-1.4717 11.23189,-1.8532 15.63619,-0.6308 2.8651,0.7952 3.8681,4.1109 1.5,4.9587 -0.9863,0.3531 -14.5436,0.241 -17.99999,-0.1489 -1.3404,-0.1512 -0.7918,-2.805 0.8638,-4.179 z m -2.8521,16.7417 c 0.419,-0.2589 5.25649,-0.5843 10.74999,-0.7229 5.4936,-0.1387 11.0603,-0.6399 12.3704,-1.1138 5.2081,-1.8837 8.422,1.8186 3.5183,4.0528 -3.0862,1.4062 -21.1151,2.676 -24.81369,1.7477 -2.4362,-0.6114 -3.5024,-2.9271 -1.825,-3.9638 z m -43.0443,303.60269 c 1.3371,-1.9707 2.3884,-2.25 8.4703,-2.25 7.1669,0 10.8123,-1.1279 10.8123,-3.3453 0,-1.6273 -5.8517,-7.6547 -7.4315,-7.6547 -0.6569,0 -2.5012,1.3642 -4.0986,3.0315 -3.9715,4.1452 -5.7142,3.5488 -5.9359,-2.0315 -0.098,-2.475 -0.7732,-8.9588 -1.4998,-14.4085 -1.2458,-9.3446 -1.2156,-9.9857 0.532,-11.2635 1.0191,-0.7452 2.3205,-1.1991 2.8919,-1.0086 0.5715,0.1904 1.6608,4.6346 2.4209,9.8759 l 1.3819,9.5296 4.1196,-0.4547 c 3.5541,-0.3924 4.6441,0 7.9414,2.8262 4.6739,4.0123 6.9995,8.2581 6.1368,11.2036 -0.9455,3.2281 -7.4309,8.6042 -11.2421,9.3192 -5.4189,1.0165 -14.0544,0.9462 -15.0748,-0.1228 -0.6062,-0.6351 -0.3975,-1.8123 0.5756,-3.2464 z m -8.6605,-349.785092 c 4.6817,-2.8935 20.8317,12.002502 25.2673,23.305302 3.6171,9.2171 1.5347,21.1957 -5.5352,31.8393 -5.8173,8.75779 -8.416,11.47089 -10.2961,10.74939 -2.0559,-0.7889 -2.0132,-0.9208 2.5733,-7.9604 6.1708,-9.47139 7.8748,-14.80729 7.5071,-23.50859 -0.226,-5.3475 -0.9287,-8.4954 -2.5428,-11.3899 -4.0621,-7.2846 -10.2667,-14.4878 -15.3091,-17.7731 -2.8012,-1.825 -3.5248,-4.1123 -1.6645,-5.262002 z m -12.8462,240.807092 c 0.5914,-1.2254 1.9211,-2.4964 2.9548,-2.8245 2.696,-0.8557 7.3624,0.3733 9.2228,2.429 1.3733,1.5176 1.403,2.0266 0.2132,3.6538 -1.1977,1.6379 -1.7406,1.7274 -4.0629,0.6692 -2.5024,-1.1402 -2.6592,-1.0711 -2.3596,1.0396 0.2277,1.6038 2.0158,3.1384 6.1521,5.2801 6.8886,3.5668 8.0501,5.2651 7.1688,10.4818 -0.5488,3.248 -1.1858,4.0672 -3.8291,4.9239 -1.7439,0.5652 -4.4696,0.9202 -6.0571,0.7889 -3.3149,-0.2744 -5.9847,-3.4954 -4.6659,-5.6293 0.7188,-1.163 1.3873,-1.1884 3.8995,-0.1478 3.4812,1.442 5.1527,0.7902 5.1527,-2.0093 0,-1.4127 -1.594,-2.672 -5.75,-4.5426 -8.5847,-3.8639 -10.9672,-8.0463 -8.0393,-14.1128 z m -4.9402,-219.12281 c -4.3594,0.0926 -7.8519,4.08556 -10.375,11.84375 -1.3192,4.056 -0.3661,11.8945 1.8124,14.8125 1.2238,1.6391 4.1921,3.41155 7.7188,4.59375 5.6343,1.8882 5.7802,1.8745 10.2812,0 6.2403,-2.5986 8.7813,-6.24575 8.7813,-12.59375 0,-4.5318 -0.3506,-5.3049 -3.5,-7.9375 -1.925,-1.6091 -5.1004,-3.6329 -7.0625,-4.5 -2.5378,-1.1216 -3.548,-2.19765 -3.5,-3.71875 0.054,-1.7108 -0.6058,-2.21245 -3.2812,-2.46875 -0.2982,-0.0286 -0.5844,-0.0374 -0.875,-0.0312 z m -1.1563,8.84375 c 3.045,0 9.6677,3.7512 11.4687,6.5 2.0169,3.0781 1.232,8.44575 -1.625,11.03125 -2.6261,2.3766 -8.461,1.0284 -11.125,-2.5625 -3.7366,-5.0373 -2.8938,-14.96875 1.2813,-14.96875 z m -7.0828,221.00706 c 5.4246,0 7.1671,0.3537 7.6254,1.548 0.9849,2.5665 -2.6207,4.5181 -7.1568,3.8739 -6.3608,-0.9033 -7.5,-1.4333 -7.5,-3.4893 0,-1.7269 0.7484,-1.9326 7.0314,-1.9326 z m -20.8328,-225.99999 c 3.0513,-12.3635 8.3604,-23.0224 12.3793,-24.8535 3.2362,-1.474502 5.8783,-0.761402 6.2404,1.6843 0.2167,1.4636 -0.4217,2.4876 -2,3.208 -3.4765,1.5868 -6.7457,7.2948 -9.3642,16.35 -3.764,13.0163 -2.5419,19.7683 4.1561,22.9624 3.8499,1.8358 4.0703,3.9529 0.4665,4.4808 -3.2921,0.4822 -7.7454,-1.6496 -10.6454,-5.096 -2.1749,-2.5847 -2.4981,-3.8594 -2.3124,-9.1203 0.1187,-3.3637 0.6046,-7.6907 1.0797,-9.6157 z m -16.1157,233.99292 c -0.2822,0.0271 -0.546,0.13984 -0.75,0.34375 -0.3217,0.3217 -0.9362,3.1912 -1.3437,6.375 -1.3679,10.6884 -0.9829,15.7149 2.375,32.75 3.5289,17.902 4.8702,20.72365 8.25,17.34375 1.5341,-1.5345 1.5383,-2.18865 -0.031,-9.46875 -0.9285,-4.3076 -1.8505,-8.74195 -2.0312,-9.84375 -0.1807,-1.1018 -0.8272,-3.8018 -1.4375,-6 -1.6857,-6.0723 -1.5393,-6.34375 3.2813,-6.34375 7.5555,0 14.6494,-5.266 14.8124,-11 0.1629,-5.7229 -5.371,-9.3999 -14.4374,-9.5625 -4.8219,-0.0865 -5.7813,-0.3847 -5.7813,-1.875 0,-1.45746 -1.6833,-2.83628 -2.9063,-2.71875 z m 9.1876,9.46875 c 2.888,-0.11417 5.8851,0.99018 6.8437,2.78125 0.8597,1.6065 0.5691,2.4599 -1.625,4.75 -3.1441,3.2817 -5.2251,4.0055 -8.2813,2.875 -1.7854,-0.6605 -2.2187,-1.6013 -2.2187,-4.875 0,-3.4071 0.4008,-4.2019 2.5,-5 0.854,-0.32473 1.8186,-0.49319 2.7813,-0.53125 z m -32.1757,47.65412 c 0.388,-1.8586 1.3129,-3.7642 2.0554,-4.2347 3.0348,-1.9232 4.3992,-0.7395 7.2434,6.2847 2.6009,6.4231 2.7325,7.2639 1.3014,8.3104 -1.225,0.8957 -1.4707,2.3008 -1.065,6.0916 0.2901,2.71 0.9072,5.32 1.3714,5.8 0.4642,0.4799 0.379,1.893 -0.1892,3.1401 -1.0957,2.4049 -5.3974,5.2353 -6.413,4.2197 -0.3321,-0.3321 -0.7559,-3.2203 -0.9417,-6.4182 -0.1859,-3.1979 -1.1772,-8.9643 -2.203,-12.8143 -1.2105,-4.543 -1.6175,-8.1861 -1.1597,-10.3793 z m 55.951,53.8875 c 4.1502,0.3982 10.6752,0.5878 14.5,0.4214 3.8248,-0.1665 9.0917,-0.3302 11.7042,-0.3639 3.472,-0.045 4.75,-0.4544 4.75,-1.5227 0,-2.7411 7.4493,-3.6739 26.0789,-3.2657 9.856,0.216 18.1861,0.6588 18.5114,0.9841 0.3253,0.3254 -0.023,1.8631 -0.7742,3.4173 -1.1876,2.4575 -1.8837,2.8021 -5.3409,2.6442 -2.1863,-0.1 -9.6357,-0.3056 -16.5541,-0.4572 -11.5273,-0.2524 -12.8039,-0.099 -15.2689,1.8404 -1.4794,1.1638 -5.0187,2.4362 -7.865,2.8277 -7.0359,0.9677 -37.007,0.7771 -49.2872,-0.3134 -12.0327,-1.0685 -25.9741,-0.8193 -37.5,0.6704 -15.8845,2.0529 -21.6317,1.2324 -20.2158,-2.8863 l 0,4e-4 c 0.8796,-2.5584 2.4376,-2.9689 11.3293,-2.9847 4.7375,-0.01 11.0375,-0.5052 14,-1.104 5.6655,-1.1451 37.607,-1.4522 40.9422,-0.3936 z m -33.1191,-38.97912 c -1.4301,0.0301 -3.0142,0.46947 -4.25,1.40625 -2.1994,1.6671 -4.6875,9.4555 -4.6875,14.6875 0,4.1532 2.6671,7.49865 6.7813,8.53125 3.0312,0.7608 10.3219,-2.0749 13.1874,-5.125 l 2.2813,-2.40625 2.4687,2.9375 c 2.7926,3.3188 5.0325,3.6529 9.4376,1.375 1.6737,-0.8656 3.1552,-1.4281 3.2812,-1.25 1.7055,2.41 5.5625,9.9615 5.5625,10.875 0,1.3579 -4.2972,0.87575 -12.5,-1.40625 -4.7751,-1.3284 -5.0303,-1.30575 -5.7813,0.65625 -0.9892,2.5858 0.5504,3.50527 1.7188,4.6875 1.8378,1.85959 4.7929,2.20711 7.3438,2.78125 1.4652,0.32982 4.4687,0.375 4.4687,0.375 2.9196,-0.1089 4.609,-1.01525 7.625,-4.03125 l 3.875,-3.875 1.375,3.125 c 1.2427,2.8208 1.8048,3.11025 5.6563,3.03125 4.8276,-0.099 11.5034,-4.6036 12.0312,-8.125 0.4562,-3.0434 -2.2932,-3.4412 -4.6875,-0.6875 -1.2101,1.3917 -3.2106,2.40625 -4.6875,2.40625 -2.2166,0 -2.5226,-0.3805 -2.25,-2.75 0.2152,-1.8706 0.9594,-2.83305 2.3438,-3.03125 2.273,-0.3255 4.8849,-3.7675 3.9687,-5.25 -1.7132,-2.772 -8.1497,0.79435 -11.5625,6.40625 -1.6331,2.6855 -1.9339,2.79425 -2.5625,1.15625 -0.3903,-1.0173 -2.1979,-4.3305 -4.0313,-7.375 -2.2047,-3.6615 -3.3437,-6.79465 -3.3437,-9.28125 0,-2.0675 -0.5625,-4.1227 -1.25,-4.5625 -0.6875,-0.4398 -1.25,-1.7125 -1.25,-2.8125 0,-1.5794 -0.7714,-2.072 -3.6563,-2.3125 -2.9228,-0.2437 -4.3719,0.3481 -7.25,2.875 -1.9783,1.737 -3.5937,3.7945 -3.5937,4.5625 0,1.8269 -1.4114,1.7516 -2.9687,-0.125 -0.6816,-0.8211 -2.9584,-1.9418 -5.0313,-2.5 -2.3984,-0.6458 -3.9497,-1.7321 -4.2813,-3 -0.3494,-1.33667 -1.9426,-2.00739 -3.7812,-1.96875 z m 23.6875,6.21875 c 1.1869,-0.11949 1.787,1.55406 1.9375,5.125 0.216,5.126 -1.3256,6.8965 -4.0625,4.625 -1.9696,-1.6345 -1.9003,-6.44355 0.125,-8.46875 0.7855,-0.7855 1.4605,-1.22694 2,-1.28125 z m -24.375,3.5625 c 1.4543,-0.0314 3.3397,0.39972 5.5625,1.34375 2.9999,1.274 4.1875,2.36735 4.1875,3.84375 0,4.2346 -9.8305,5.0538 -12,1 -2.0538,-3.83762 -0.9495,-6.11848 2.25,-6.1875 z m -44.4892,-138.11393 c 0.4125,-0.2346 2.2707,-0.4577 4.1293,-0.4958 2.2678,-0.047 4.3331,-0.9831 6.2791,-2.8474 3.429,-3.2852 7.9353,-12.3813 8.5887,-17.3366 1.3349,-10.1226 1.7888,-11.51 3.8644,-11.81 3.3843,-0.4891 4.1809,1.7424 4.7469,13.2983 0.2963,6.05 1.1619,13.3275 1.9235,16.1721 1.5267,5.7026 0.7724,8.4163 -2.1287,7.6577 -1.9603,-0.5126 -4.3689,-7.8339 -5.0256,-15.2761 -0.07,-0.7955 -1.3097,0.9257 -2.7544,3.825 -1.4448,2.8993 -4.2138,6.8126 -6.1534,8.6964 -2.8649,2.7823 -4.3046,3.4249 -7.6732,3.4249 -2.2806,0 -4.6866,-0.54 -5.3466,-1.2 -1.3504,-1.3504 -1.582,-3.4647 -0.45,-4.1085 z m -3,60.1807 c 1.5125,-0.593 6.7251,-1.1957 11.5836,-1.3392 6.9174,-0.2043 8.9527,0.05 9.3828,1.1703 1.0424,2.7164 -1.556,3.4985 -12.6168,3.7979 -9.0824,0.2458 -11.0996,0.041 -11.0996,-1.1252 0,-0.784 1.2375,-1.9107 2.75,-2.5038 z m -6.2608,-317.910513 c -0.7469,0.0342 -1.4882,0.45694 -2.2813,1.25 -1.5973,1.5975 -1.5373,2.1605 0.7813,7.25 1.1296,2.4798 4.25,6.29105 7.25,8.84375 5.086,4.327801 14.7377,9.687501 17.4375,9.687501 1.8073,0 1.6382,0.9987 -0.75,4.5 -3.8648,5.666 -8.6627,16.0065 -10.2188,22 -0.8567,3.300002 -3.3884,11.175002 -5.625,17.500002 -7.4863,21.1708 -4.7552,25.00865 12.4376,17.53125 8.5304,-3.71 14.9701,-5.13625 18.875,-4.15625 3.9163,0.983 6.7545,7.05965 7.3437,15.65625 0.6732,9.8223 0.1499,10.26444 -12.2187,10.46874 -8.5422,0.1411 -9.6687,0.3818 -12.9376,2.875 -4.6067,3.5137 -6.5937,7.4213 -6.5937,13 0,3.7535 0.5049,4.85285 3.0937,7.03125 1.6922,1.4239 3.6048,2.6415 4.25,2.6875 0.6453,0.0459 2.2813,0.213 3.6563,0.375 5.2623,0.6201 21,-9.5898 21,-13.625 0,-2.7046 -2.4378,-2.242 -6.1875,1.1875 -3.5147,3.2147 -10.4698,6.96875 -12.9062,6.96875 -4.6323,0 -7.3051,-5.522 -4.875,-10.0625 1.391,-2.5994 6.3666,-5.0239 9.1874,-4.5 1.2637,0.2347 2.4762,0.459 2.7188,0.5 0.2427,0.0409 -0.4323,0.75445 -1.5,1.59375 -1.2336,0.9698 -0.4797,0.82135 2.0625,-0.40625 2.2,-1.0623 6.5635,-2.23195 9.6875,-2.59375 3.2102,-0.3717 6.2412,-1.3109 6.9688,-2.1875 0.8828,-1.0639 1.2664,-4.76769 1.1874,-11.74999 -0.2635,-23.1631 -9.54,-28.5267 -32.3437,-18.75 -5.2225,2.239 -9.8512,3.68005 -10.3125,3.21875 -0.9243,-0.9244 2.0937,-12.80645 3.4688,-13.65625 0.4732,-0.2926 0.8437,-1.5175 0.8437,-2.75 0,-1.2326 0.4061,-2.665 0.875,-3.1875 0.4689,-0.5225 1.4258,-3.21875 2.125,-5.96875 3.1473,-12.378202 5.7559,-18.380952 11.6563,-26.593752 3.5269,-4.9104 3.5538,-4.90625 9.3437,-4.90625 6.3172,0 14.2553,-2.1683 17.8437,-4.875 2.757,-2.0797 4.4847,-8.663501 3,-11.437501 -0.9339,-1.7451 -1.7228,-1.85265 -8.1562,-1.21875 -8.7463,0.8619 -12.1181,2.22205 -17.2188,6.90625 -2.175,1.997401 -4.6437,3.625001 -5.4687,3.625001 -2.6802,-0.009 -11.9271,-4.823101 -15.25,-7.937501 -1.7821,-1.6702 -3.5337,-3.0625 -3.9063,-3.0625 -0.3725,-0.002 -1.8501,-2.475 -3.2812,-5.5 -1.8102,-3.82642 -3.4193,-5.606439 -5.0625,-5.53125 z m 48.2813,17.59375 c 0.3984,-0.004 0.7591,0.0457 1.0624,0.125 4.2127,1.1017 2.08,3.344701 -4.9687,5.250001 -2.5466,0.6884 -5.392,1.09675 -6.3437,0.90625 -1.5979,-0.3199 -1.5957,-0.4816 0.1562,-2.0625 2.5095,-2.264501 7.3048,-4.194021 10.0938,-4.218751 z m -81.7449,304.444563 c 1.7447,0 4.7094,-0.7295 6.5883,-1.6211 4.0486,-1.9211 11.6564,-11.1414 14.1305,-17.1252 1.2698,-3.0712 2.3321,-4.2472 3.8389,-4.25 1.1459,0 2.317,0.2299 2.6025,0.5154 0.2855,0.2855 -0.1929,3.998 -1.0631,8.25 -0.8703,4.252 -1.5441,11.633 -1.4973,16.4021 0.075,7.6668 -0.1315,8.7279 -1.7833,9.1598 -1.7484,0.4573 -4.069,-2.0518 -3.7372,-4.0405 0.073,-0.4348 0.079,-3.9021 0.014,-7.7053 l -0.1184,-6.9147 -4.5841,4.6498 c -6.372,6.4633 -16.3523,9.0293 -17.229,4.4297 -0.2609,-1.369 0.3571,-1.75 2.8387,-1.75 z m -1.2756,-43.6138 c 9.1873,0.5889 17.4132,1.4522 33.75,3.5416 9.0641,1.1593 39.6517,0.6734 55,-0.8737 17.6763,-1.7819 30.5,-0.297 30.5,3.5315 0,0.6074 -0.8958,1.9151 -1.9907,2.906 -1.9319,1.7484 -2.055,1.72 -4.1635,-0.9605 l -2.1727,-2.7622 -13.0866,0.7115 c -12.9986,0.7068 -15.4901,0.9022 -25.0865,1.9681 -5.7986,0.644 -35.3225,0.7774 -36.3242,0.164 -0.6549,-0.4009 -15.5192,-1.3837 -31.745,-2.099 -4.362,-0.1923 -8.6058,-0.5683 -9.4308,-0.8356 -0.825,-0.2673 -2.2875,-0.7401 -3.25,-1.0506 -0.9625,-0.3105 -1.75,-1.5324 -1.75,-2.7154 0,-2.0968 0.245,-2.1351 9.75,-1.5257 z m -23.5319,158.2065 c 1.5142,-0.9921 6.235,-1.9309 12.3656,-2.4592 8.6612,-0.7463 10.1427,-0.6422 11.7053,0.8227 1.8835,1.7659 1.5019,4.5263 -0.745,5.3885 -0.7157,0.2747 -2.9442,0.1289 -4.9521,-0.324 -2.1357,-0.4817 -6.5568,-0.3736 -10.6531,0.2605 -6.0244,0.9325 -7.2235,0.8627 -8.5861,-0.4999 -1.445,-1.4451 -1.3692,-1.7244 0.8654,-3.1886 z m -3.4681,-19.8012 c 0.4125,-0.1146 5.025,-0.2372 10.25,-0.2723 5.225,-0.035 10.9625,-0.4476 12.75,-0.9166 2.8189,-0.7395 3.2458,-0.6039 3.2182,1.0224 -0.07,4.1256 -2.0252,4.9846 -11.9682,5.2582 -10.0325,0.276 -15,-0.8362 -15,-3.3584 0,-0.8387 0.3375,-1.6186 0.75,-1.7333 z m -66.193,-24.0415 c 0.427,-0.4125 1.796,-0.75 3.0423,-0.75 2.7389,0 3.5214,2.0631 3.4959,9.2173 -0.01,2.9055 0.233,6.5579 0.5408,8.1165 0.4778,2.4192 0.9168,2.7443 2.9994,2.2216 4.614,-1.1581 10.5824,1.3396 15.6146,6.5345 6.1027,6.2998 6.4256,10.1101 1.3286,15.6748 -3.3921,3.7032 -3.4937,3.737 -11.8248,3.931 -6.8983,0.1607 -8.9983,-0.1662 -11.7258,-1.8249 l -3.3226,-2.0206 2.112,-2.112 c 1.9898,-1.9898 2.2199,-2.0144 3.9761,-0.4251 1.2472,1.1287 3.59,1.6869 7.0807,1.6869 4.2054,0 5.6926,-0.4758 7.6713,-2.4545 3.1852,-3.1852 3.1015,-5.7899 -0.3087,-9.6065 -1.9355,-2.1662 -3.7664,-3.1445 -6.1123,-3.2658 -3.5497,-0.1836 -4.5908,0.8468 -5.5672,5.5101 -0.6596,3.15 -4.148,4.6828 -6.0753,2.6695 -0.7123,-0.744 -1.5385,-4.7278 -1.8362,-8.8528 -0.2977,-4.125 -0.8391,-11.1 -1.2032,-15.5 -0.364,-4.4 -0.3126,-8.3375 0.1144,-8.75 z m -8.9752,-93.143 c 2.7942,-1.0723 3.4182,-0.6659 3.4182,2.2263 0,3.7479 0.9476,4.5241 3.1214,2.5568 1.2965,-1.1733 1.6175,-2.4457 1.1751,-4.6577 -0.4208,-2.104 -0.265,-2.831 0.5048,-2.3552 0.6471,0.3999 1.7674,-0.5762 2.6743,-2.33 2.8863,-5.5814 9.7368,-5.186 10.3223,0.5957 0.2263,2.235 -0.4341,3.5933 -2.75,5.6569 -3.4319,3.0578 -3.5826,3.5867 -1.7402,6.1063 1.2328,1.686 1.4926,1.6328 4.5359,-0.928 1.7756,-1.494 3.8766,-3.9701 4.669,-5.5025 2.3565,-4.5569 4.3745,-5.9756 8.4998,-5.9756 4.2856,0 5.4319,1.0247 4.4848,4.0089 -0.4634,1.46 -1.5152,1.9911 -3.9433,1.9911 -2.6998,0 -3.5298,0.5277 -4.4951,2.8581 -1.4647,3.536 -7.7602,9.6842 -10.8767,10.6222 -1.6632,0.5005 -3.3697,-0.031 -6.0418,-1.8831 -3.3113,-2.2947 -4.0675,-2.4509 -6.8248,-1.4102 -2.5219,0.9519 -3.3715,0.8999 -4.5502,-0.2789 -3.8034,-3.8033 -5.0402,-10.2049 -2.1835,-11.3011 z m -4.0741,-15.2483 c 1.5822,-0.6072 6.4923,2.0716 6.4923,3.5419 0,2.1439 -2.7766,3.1583 -5.3881,1.9684 -2.8585,-1.3024 -3.5162,-4.5847 -1.1042,-5.5103 z m -21.3565,152.1513 c 1.9356,-3.1943 5.8512,-4.7985 9.4858,-3.8863 2.7781,0.6973 2.0609,3.1605 -1.2913,4.435 -2.6418,1.0044 -4.3457,4.5357 -4.3457,9.0064 0,2.4494 0.406,2.9349 2.4547,2.9349 2.0497,0 2.5662,-0.6186 3.1304,-3.75 0.8641,-4.7954 2.0579,-6.25 5.1293,-6.25 2.3558,0 2.4537,0.2417 2.1275,5.25 l -0.3419,5.25 3.9388,0.066 c 4.4244,0.074 5.7221,1.8393 2.9157,3.9653 -2.396,1.815 -7.4459,1.8533 -9.8781,0.075 -1.3273,-0.9706 -2.6193,-1.1223 -4.2562,-0.5 -3.8458,1.4622 -6.1664,1.0383 -8.8149,-1.6102 -2.0582,-2.0582 -2.4648,-3.3486 -2.2849,-7.25 0.1205,-2.6104 1.0343,-6.0917 2.0308,-7.7362 z m -10.8487,-324.7398 c 4.4251,-4.81999 7.0772,-5.42739 9.7317,-2.22909 1.5798,1.90359 -1.7226,6.77369 -4.1608,6.13599 -1.8915,-0.4946 -4.3275,1.5354 -3.198,2.6649 0.3619,0.3619 1.3827,0.658 2.2686,0.658 2.0551,0 6.9196,5.4872 8.7774,9.9008 1.3537,3.216 1.2994,3.533 -0.9993,5.8317 -1.851,1.851 -3.8707,2.5613 -8.4681,2.9782 -5.6005,0.5078 -6.0885,0.3861 -6.745,-1.6823 -0.925,-2.9145 0.6674,-4.5395 3.1477,-3.2121 2.292,1.2266 8.3433,-1.0172 8.3433,-3.0937 0,-2.0166 -4.0524,-5.3537 -7.4944,-6.1718 -6.8781,-1.6346 -7.2425,-5.2025 -1.2031,-11.7806 z m -27.532,303.94148 c -3.898,-0.064 -5.8476,1.98484 -7.5626,6.78125 -0.5898,1.65 -1.0377,4.9172 -0.9687,7.25 0.2212,7.5198 7.5385,11.7721 14.5313,8.4375 l 3.4062,-1.625 2.875,3.46875 c 8.8008,10.7087 12.1333,20.68215 8.1562,24.28125 -4.2292,3.8275 -14.8981,1.10465 -17.8124,-4.53125 -1.0051,-1.9434 -2.0325,-2.72695 -3.0313,-2.34375 -0.8328,0.3196 -1.7075,0.5625 -1.9375,0.5625 -1.3163,0 -0.03,2.98325 2.4688,5.71875 3.654,4.0007 9.3838,6.47525 14.8437,6.40625 7.2264,-0.0915 13.2777,-4.44335 13.2187,-9.53125 -0.034,-2.9336 -4.3506,-12.46065 -10.4374,-22.96875 -2.0273,-3.4999 -2.9138,-6.5304 -3.1563,-10.8125 -0.1857,-3.2777 -0.6028,-6.35265 -0.9063,-6.84375 -0.3034,-0.491 -3.442,-1.80735 -7,-2.90625 -2.7246,-0.84156 -4.9157,-1.31468 -6.6874,-1.34375 z m 2.0624,5.28125 c 2.4366,0 2.8161,0.5289 3.9376,5.25 1.1857,4.9916 1.1511,5.31295 -1,6.96875 -2.6756,2.0595 -5.1618,2.26085 -6.5,0.53125 -1.6214,-2.0954 -1.9515,-4.11265 -1.25,-7.34375 0.9756,-4.4943 1.7928,-5.40625 4.8124,-5.40625 z m -12.2432,-128.99273 c 0.8744,0 2.3369,-0.9131 3.25,-2.0291 1.7558,-2.1458 5.5375,-2.6502 10.6603,-1.4219 4.3345,1.0394 5.7182,2.4454 5.0452,5.1268 -0.3314,1.3207 -0.1325,2.3242 0.4608,2.3242 0.5742,0 1.3158,-1.3588 1.6479,-3.0196 0.5987,-2.9933 5.4164,-7.9945 7.6728,-7.9651 2.2063,0.029 3.6431,1.5837 4.2452,4.594 0.4876,2.4381 -0.079,3.9023 -2.985,7.7089 -4.0918,5.3606 -4.2955,6.2322 -1.7717,7.5829 1.354,0.7247 3.132,0.2968 7,-1.6845 5.153,-2.6395 5.1848,-2.6852 5.1848,-7.4362 0,-4.0237 0.2997,-4.7804 1.893,-4.7804 1.9816,0 3.107,1.8407 3.107,5.0818 0,2.2381 0.3663,2.3309 2.9155,0.7389 1.5178,-0.9479 2.4147,-0.8344 4.571,0.5785 2.3461,1.5372 2.8916,1.5774 4.3481,0.3203 2.8837,-2.4889 6.1409,-2.744 8.2396,-0.6453 1.0592,1.0592 1.9258,2.5803 1.9258,3.3803 0,0.8 1.1583,2.6128 2.5739,4.0285 3.052,3.052 2.7574,4.8999 -0.8497,5.3285 -2.147,0.2551 -3.1076,-0.4587 -5.3073,-3.9431 -2.985,-4.7286 -2.3719,-4.9132 -7.4783,2.2521 -1.2175,1.7085 -2.1535,2.0424 -4.25,1.5162 -1.6013,-0.4019 -2.7014,-1.3748 -2.7204,-2.4058 -0.03,-1.6321 -0.1077,-1.631 -1.3602,0.019 -1.8661,2.4583 -5.4955,2.2283 -6.4715,-0.41 -0.7872,-2.1282 -0.8198,-2.1311 -2.2177,-0.1997 -3.1503,4.3527 -12.0795,5.3342 -16.0271,1.7616 -0.9042,-0.8182 -2.704,-3.9434 -3.9997,-6.9448 -1.5912,-3.6861 -2.9339,-5.4571 -4.1374,-5.4571 -0.98,0 -2.6552,-0.5455 -3.7227,-1.2121 -1.0675,-0.6667 -2.1651,-0.988 -2.4391,-0.7141 -0.2739,0.274 0.2513,3.2952 1.1673,6.7138 1.5487,5.7802 1.5496,6.3313 0.013,7.8683 -1.537,1.537 -1.8379,1.5314 -4.2963,-0.079 -2.3378,-1.5318 -5.3873,-6.8518 -5.9026,-10.2976 -0.1004,-0.6715 -0.4956,-1.534 -0.8782,-1.9166 -1.3172,-1.3173 -0.6931,-4.3623 0.8941,-4.3623 z m -3.4385,-235.59349 c 0.6642,-0.4104 1.9687,0.4107 3.0834,1.941 3.1144,4.2754 8.0084,3.1599 13.1451,-2.9959 3.8334,-4.594002 6.5732,-11.252902 6.5984,-16.036502 0.028,-5.3077 1.5323,-9.3151 3.4972,-9.3151 1.8907,0 1.7143,-1.3135 2.2157,16.5 0.2322,8.25 0.4628,16.350002 0.5124,18.000002 0.2011,6.6896 -0.1052,7.6539 -2.3253,7.3196 -1.9403,-0.2923 -2.1452,-1.0308 -2.3954,-8.6318 -0.2833,-8.605302 -0.9179,-10.839802 -2.1532,-7.5809 -0.3947,1.0412 -1.3363,2.5187 -2.0924,3.2834 -0.7562,0.7647 -2.0519,2.4237 -2.8795,3.6867 -1.3581,2.0727 -5.8546,3.9199 -9.1076,3.7415 -3.2517,-0.1783 -3.9498,-0.4848 -6.5102,-2.859 -2.852,-2.6445 -3.5692,-5.8288 -1.5886,-7.053 z m -5.4981,181.78499 c 0.3224,-1.4845 1.0984,-2.1946 2.1741,-1.9896 1.3151,0.2507 1.7936,1.8694 2.2377,7.5699 0.5076,6.5145 0.9074,7.6044 3.9361,10.7292 4.0508,4.1794 8.8655,5.4063 12.1601,3.0988 3.1018,-2.1726 6.0768,-2.0937 5.6622,0.1502 -0.1778,0.9625 -2.4494,2.7659 -5.0479,4.0074 -4.6819,2.2371 -4.7716,2.2413 -9.921,0.4614 -7.5564,-2.6118 -10.7765,-6.9659 -11.2982,-15.2771 -0.2224,-3.5429 -0.1788,-7.4805 0.097,-8.7502 z m -0.6621,-107.2912 c 1.0464,-1.9798 3.546,-5.0426 5.5547,-6.8063 3.3065,-2.9031 3.8501,-3.0752 5.7438,-1.8178 1.1928,0.792 2.7092,3.6091 3.5291,6.5563 0.7907,2.8421 1.7602,5.1675 2.1545,5.1675 0.3943,0 1.5314,-0.9 2.5269,-2 0.9955,-1.1 2.5796,-2 3.5201,-2 3.1679,0 6.9525,4.0055 8.1035,8.5764 0.9269,3.6812 1.5135,4.4236 3.4951,4.4236 1.3971,0 2.3813,0.5904 2.3813,1.4286 0,2.0314 -2.8035,4.5714 -5.0457,4.5714 -2.0436,0 -4.9543,-4.599 -4.9543,-7.8279 0,-2.6452 -2.0824,-4.1004 -4.5347,-3.1688 -2.593,0.9851 -4.0257,2.8095 -4.8188,6.1364 -0.6529,2.739 -3.3844,4.5223 -4.7836,3.1232 -0.4415,-0.4415 -0.9422,-4.2723 -1.1128,-8.5128 -0.3373,-8.3862 -1.5919,-10.9562 -4.2655,-8.7373 -0.8801,0.7304 -2.2288,2.8326 -2.9972,4.6717 -1.578,3.7765 -4.2428,5.3121 -5.573,3.2112 -1.2363,-1.9525 -1.0915,-2.8933 1.0766,-6.9954 z m -9.0822,-39.34389 c 0.4998,-0.3089 4.4373,-0.055 8.75,0.5646 9.9734,1.4326 31.5065,1.6458 46.3412,0.4589 18.529,-1.4825 22,-0.8525 22,3.9929 0,3.4055 -2.4115,4.2869 -7.8613,2.8732 -4.6386,-1.2032 -9.8578,-1.1891 -29.7336,0.081 -5.5522,0.3546 -14.3272,0.1593 -19.5,-0.434 -5.1728,-0.5934 -11.472,-1.2368 -13.9983,-1.4298 -2.5263,-0.193 -5.1138,-0.6726 -5.75,-1.0658 -1.3741,-0.8492 -1.5409,-4.2414 -0.248,-5.0405 z m 0.3929,323.31132 c -5.2178,-0.072 -7.6979,1.60365 -9.3438,5.625 -0.4502,1.1 -0.8712,4.97715 -0.9062,8.59375 -0.055,5.7439 0.2492,6.8485 2.4062,8.875 2.2185,2.084 3.0951,2.259 8.5626,1.6875 7.4008,-0.7735 14.4464,-5.14225 16.5937,-10.28125 1.2059,-2.8854 1.2055,-3.84565 0.031,-6.65625 -1.747,-4.181 -4.8454,-6.19905 -11.1563,-7.21875 -2.4131,-0.38993 -4.4482,-0.601 -6.1875,-0.625 z m 5.9375,6.875 c 3.8986,-0.1441 6.6537,2.0609 6.7187,5.375 0.035,1.7583 -5.5498,5.8658 -10.7187,7.875 -2.594,1.0088 -3.5538,0.9928 -4.75,0 -0.992,-0.8233 -1.5,-3.0664 -1.5,-6.625 0,-2.9577 0.1125,-5.3925 0.25,-5.4375 1.1927,-0.3876 6.9768,-1.0757 10,-1.1875 z m -4.5313,-130.71875 c -2.0782,-0.0157 -4.3091,0.55592 -6.7812,1.71875 -3.3208,1.5621 -3.8899,2.3943 -5.25,7.75 -0.838,3.3 -1.5477,8.30415 -1.5938,11.09375 -0.077,4.7052 2.1421,13.5404 4,15.9375 0.441,0.5689 1.2778,3.9232 1.8438,7.4375 1.1539,7.165 2.7455,9.02405 5.1875,6.09375 1.2948,-1.5535 1.4133,-2.82275 0.6875,-6.71875 -3.852,-20.6767 -3.9043,-19.96685 1.9688,-20.53125 6.3467,-0.6098 10.4195,-2.6944 12.0937,-6.1875 1.9855,-4.1425 0.093,-9.6737 -4.625,-13.5625 -2.4334,-2.00582 -4.8593,-3.0111 -7.5313,-3.03125 z m -0.9374,6.03125 c 1.6295,-0.053 3.4416,0.40225 4.875,1.40625 2.6467,1.8539 3.5551,6.1948 1.6874,8.0625 -2.0601,2.0602 -8.0551,2.95315 -9.8437,1.46875 -1.6964,-1.4078 -1.9249,-6.6427 -0.4063,-9.25 0.6238,-1.07085 2.058,-1.63451 3.6876,-1.6875 z m -11.7758,-43.75383 c 1.0167,-2.8592 2.1697,-7.8092 2.5622,-11 0.8613,-7.0011 3.2235,-9.4487 5.3266,-5.5191 1.3292,2.4836 -2.9923,24.253 -5.0753,25.5669 -2.0846,1.3149 -4.8248,0.1183 -4.7351,-2.0678 0.04,-0.9798 0.9049,-4.1207 1.9216,-6.98 z m -11.9437,132.1671 c 0.6178,-0.3818 1.4611,-0.3059 1.8741,0.1686 2.3035,2.6474 4.1149,42.3058 2.1759,47.6395 -0.5393,1.4837 -0.9123,1.5661 -2.2614,0.5 -1.3682,-1.0811 -1.7149,-4.8242 -2.2637,-24.4453 -0.467,-16.6921 -0.3342,-23.3627 0.4751,-23.8628 z m -0.8475,-157.0943 c 0.6619,-0.4091 9.9994,-0.6524 20.75,-0.5407 19.5308,0.2029 49.1012,-1.1089 52.1731,-2.3144 1.1879,-0.4662 1.8098,0.091 2.3054,2.0659 0.3733,1.4874 0.2766,3.1064 -0.215,3.598 -0.4915,0.4915 -9.8539,1.0992 -20.8053,1.3504 -10.9514,0.2513 -26.8867,0.645 -35.4117,0.8751 -8.525,0.23 -16.5125,0.1834 -17.75,-0.1036 -2.4225,-0.5617 -3.0827,-3.6722 -1.0465,-4.9307 z m -11.0935,-70.8393 c 3.1566,1.0019 9.4429,-2.2792 12.2936,-6.4166 1.9155,-2.7801 2.5433,-5.0742 2.7101,-9.9033 0.2356,-6.821 1.9258,-10.5285 3.9092,-8.5748 1.1256,1.1087 1.3557,5.9995 0.9109,19.3598 -0.119,3.575 0.1283,9.1214 0.5496,12.3254 0.9261,7.0438 -0.1442,8.7821 -3.8946,6.3248 -2.3801,-1.5596 -2.4815,-1.9929 -1.9067,-8.1487 0.3339,-3.5758 0.2907,-6.5015 -0.096,-6.5015 -0.3868,0 -2.4686,1.4187 -4.6264,3.1527 -5.427,4.3613 -11.9596,4.2088 -11.9596,-0.2791 0,-1.5882 0.4415,-1.8683 2.11,-1.3387 z m -2.0271,133.48908 c -1.88504,0.048 -3.75304,0.69287 -5.37504,1.96875 -1.7221,1.3546 -2.6705,1.64445 -2.9374,0.84375 -0.2295,-0.6885 -1.1286,-0.92565 -2.1563,-0.53125 -1.3295,0.5102 -1.6353,1.3708 -1.1875,3.4375 0.3279,1.5129 1.0174,5.675 1.5312,9.25 0.514,3.575 1.4405,9.14215 2.0313,12.34375 0.5908,3.2015 1.1975,8.19085 1.375,11.09375 0.1775,2.903 0.6407,5.7311 1,6.3125 0.6667,1.0787 4.3035,0.5913 5.09374,-0.6875 0.2402,-0.3885 -0.2111,-4.9424 -1.00004,-10.125 -1.6723,-10.9877 -1.7243,-12.2226 -0.6562,-11.5625 1.24164,0.7674 8.46864,-2.85115 10.68754,-5.34375 1.4251,-1.6008 1.9772,-3.5592 1.9063,-6.8125 -0.083,-3.7983 -0.6166,-5.022 -3.25,-7.375 -2.1503,-1.92127 -4.6389,-2.87415 -7.0626,-2.8125 z m -0.125,6.25 c 4.0804,-0.38789 5.7821,6.37591 1.8126,9.15625 -1.2225,0.8562 -3.02254,1.5625 -4.00004,1.5625 -1.3626,0 -1.7453,-0.7588 -1.6563,-3.25 0.1784,-4.9972 0.8415,-6.59625 3.00004,-7.28125 0.2921,-0.0927 0.5717,-0.16164 0.8437,-0.1875 z M 536.50097,192.50216 c 1.2858,0.4226 4.4996,0.9805 7.1419,1.2398 5.0373,0.4944 6.0793,2.3709 2.5504,4.593 -2.6982,1.699 -11.2685,-1.4719 -11.6923,-4.3261 -0.2944,-1.9819 -0.037,-2.176 2,-1.5067 z m -1.4679,17.1354 c 2.5656,-0.5112 10.8571,-0.9283 14.1777,-0.7133 1.162,0.075 1.1617,0.4055 0,2.1582 -1.1642,1.7534 -2.5163,2.0969 -8.8566,2.25 -6.2629,0.1512 -7.5349,-0.09 -7.8036,-1.4776 -0.2199,-1.1354 0.5637,-1.8346 2.4845,-2.2173 z m -27.0601,-74.62439 c 1.9263,-5.5369 8.5897,-14.6189 11.3741,-15.5026 1.9092,-0.606 1.8251,-0.809 -1.1717,-2.8285 -7.2727,-4.9011 -8.8973,-13.944 -4.7519,-26.449302 3.3136,-9.9959 7,-15.155 14.0016,-19.595 3.69,-2.34 8.5766,-1.1773 10.4741,2.4922 1.3551,2.6205 1.3115,3.0113 -0.5435,4.8663 -1.1093,1.1093 -2.3919,2.0169 -2.8502,2.0169 -1.635,0 -2.1308,-1.3383 -1.0004,-2.7004 0.8667,-1.0442 0.8602,-1.6732 -0.026,-2.5598 -3.1484,-3.1484 -12.2772,6.1203 -15.5054,15.743 -2.8348,8.45 -3.0654,14.517602 -0.6952,18.287602 2.0038,3.187 3.3759,4.031 9.5608,5.8806 2.2531,0.6738 3,1.496 3,3.3022 0,1.8832 -1.1892,3.0549 -5.4808,5.4002 -6.2735,3.4283 -8.3518,5.5242 -11.0533,11.1466 -3.6359,7.567 -2.4145,14.0514 3.8213,20.2872 6.3114,6.31139 11.7045,8.36469 22.4625,8.55189 7.2938,0.1269 9.2503,0.4643 9.2503,1.5956 0,1.8223 -8.3062,4.262 -15,4.4059 -9.1841,0.1973 -19.9106,-7.1798 -24.8001,-17.05619 -2.8419,-5.7406 -3.1792,-11.2098 -1.0658,-17.2844 z m -0.145,-101.944772 c -2.07,0.0164 -4.715,2.9342 -6.03125,6.625 -1.8116,5.0798 -1.7889,7.466849 0.1875,12.406249 2.82295,7.055 12.62355,9.24245 19.75005,4.40625 2.0261,-1.375 3.9134,-2.5 4.1874,-2.5 0.2742,0 2.9822,1.833 6,4.0625 4.8306,3.5684 6.0272,4.0172 10.0938,3.75 3.7151,-0.2442 5.0293,-0.854 6.7188,-3.125 5.1616,-6.9391 -0.4802,-21.249799 -9.3126,-23.624999 -2.9894,-0.8039 -9.0778,0.7806 -9.125,2.375 -0.017,0.5952 -1.1921,2.40075 -2.625,4.03125 l -2.5937,2.96875 -4.1563,-4.78125 c -3.7879,-4.3665 -8.3031,-6.63175 -13.0937,-6.59375 z m 0.6563,6.1875 c 0.3565,0.0355 0.631,0.37865 1.0312,1.09375 0.5093,0.9102 2.0047,1.65625 3.3438,1.65625 1.3389,0 3.9226,1.348 5.7187,2.999999 l 3.25,3 -2.7813,2.5 c -3.5072,3.1204 -8.8681,3.3506 -11.7187,0.5 -2.4502,-2.4502 -2.6231,-8.858849 -0.3125,-10.906249 0.6851,-0.60705 1.1122,-0.87924 1.4688,-0.84375 z m 28.0624,2.03125 c 2.6899,-0.0988 6.7813,1.7107 6.7813,3.25 0,0.712399 0.4682,1.468649 1.0313,1.656249 1.3528,0.451 2.2846,6.9878 1.2187,8.5625 -0.4598,0.6793 -2.1585,1.4561 -3.7813,1.75 -2.3091,0.4182 -4.0007,-0.20655 -7.7187,-2.96875 -2.6125,-1.9409 -4.7287,-3.87415 -4.7187,-4.28125 0.041,-1.7893 4.3025,-7.202849 6.125,-7.781249 0.3096,-0.0983 0.6783,-0.17338 1.0624,-0.1875 z M 498.58875,318.22506 c 1.7046,-1.4086 6.73782,-2.2607 16.25002,-2.7509 13.9994,-0.7216 15.2139,-0.485 13.9826,2.7239 -0.7827,2.0395 -8.9713,3.6808 -19.9826,4.0054 -8.55422,0.2522 -11.50002,-0.2926 -11.50002,-2.1269 0,-0.4502 0.5625,-1.2833 1.25,-1.8515 z m -3.3521,23.9206 c 0.476,-0.7522 2.8312,-1.5881 5.2338,-1.8577 2.40262,-0.2696 5.88582,-1.1168 7.74042,-1.8825 1.8547,-0.7658 4.3562,-1.3923 5.5589,-1.3923 1.2027,0 3.0395,-0.6235 4.0818,-1.3857 2.8575,-2.0895 6.4872,-0.116 6.4872,3.5272 0,2.1569 -0.5747,2.9646 -2.4431,3.4336 -1.3438,0.3372 -2.8155,0.3831 -3.2705,0.1019 -0.455,-0.2812 -4.4181,0.3578 -8.8069,1.42 -11.29412,2.7335 -17.06282,1.9564 -14.58162,-1.9645 z m -3.5825,-144.1325 c 3.6124,-7.2157 5.0381,-9.001 7.1752,-8.9847 2.594,0.02 3.92712,0.9475 5.41182,3.7663 l 1.2018,2.2816 2.5828,-2.0316 c 1.4205,-1.1174 3.382,-2.0316 4.359,-2.0316 2.453,0 6.954,5.6119 6.954,8.6703 0,1.699 0.6683,2.6917 2.0566,3.0547 1.2849,0.3361 1.8477,1.082 1.5,1.9882 -0.3061,0.7977 -0.5566,1.6386 -0.5566,1.8686 0,0.23 -1.2542,0.4182 -2.7872,0.4182 -2.0976,0 -2.8256,-0.5098 -2.9424,-2.0605 -0.2959,-3.9277 -2.3752,-8.7657 -4.0424,-9.4055 -1.9174,-0.7358 -4.0286,1.6411 -4.8549,5.466 -0.9391,4.3468 -1.2896,5.0307 -2.8935,5.6462 -2.1722,0.8336 -2.80412,-0.087 -2.6659,-3.8821 0.065,-1.7953 -0.36062,-4.756 -0.94662,-6.5794 -0.9968,-3.1021 -1.1799,-3.2116 -2.8479,-1.7021 -0.9804,0.8873 -2.534,4.2916 -3.4526,7.5653 -1.7273,6.1562 -3.8517,7.7494 -4.9363,3.7021 -0.8008,-2.9882 -0.8791,-2.628 1.6851,-7.75 z m -27.0654,-69.87999 c 1.2375,-0.4567 6.1571,-1.1209 10.9324,-1.4759 8.2403,-0.6125 8.7166,-0.5378 9.3528,1.4668 1.224,3.8565 -1.5551,5.2013 -11.2378,5.438 -4.8386,0.1183 -9.3599,-0.2369 -10.0474,-0.7894 -1.9434,-1.5616 -1.477,-3.7252 1,-4.6395 z m -2.8206,18.3343 c 2.2588,-1.48 18.4379,-4.9203 19.2624,-4.0959 0.2034,0.2035 0.7749,1.7819 1.2698,3.5077 1.1737,4.0922 -0.3427,4.9095 -9.1877,4.9518 -3.6994,0.018 -7.6585,0.3281 -8.798,0.6898 -2.024,0.6423 -4.9759,-0.9043 -4.9759,-2.6071 0,-0.47 1.0932,-1.5708 2.4294,-2.4463 z m -55.0198,-53.999702 c 1.3473,-1.8427 1.6453,-1.7076 6.75,3.0588 5.9356,5.542302 14.6975,18.161702 20.3213,29.267802 2.7869,5.5037 3.8496,9.0435 4.353,14.5 1.4893,16.14069 -1.6256,30.69079 -8.189,38.25149 -2.8563,3.2904 -3.3973,3.5262 -5.8949,2.5698 -3.4272,-1.3123 -3.461,-2.5017 -0.1523,-5.3591 3.02,-2.6081 5.741,-7.5736 7.278,-13.2817 1.5661,-5.8163 2.1618,-19.26909 1.0704,-24.17329 -2.2702,-10.2004 -11.6148,-25.8176 -21.6821,-36.236 -2.8952,-2.996202 -5.264,-5.722702 -5.264,-6.058902 0,-0.3362 0.6343,-1.4787 1.4096,-2.5389 z m -15.2946,32.795402 c 1.6323,-2.5487 2.7674,-3.25 5.2607,-3.25 5.6961,0 9.4953,4.2023 6.2411,6.9031 -1.0667,0.8852 -1.5172,0.7988 -1.9686,-0.3776 -0.9453,-2.4633 -4.5591,-1.8151 -5.8655,1.0522 -1.8578,4.0773 -0.041,5.7525 7.6,7.0058 7.5734,1.2422 11.9835,4.4975 13.0037,9.5987 1.0001,5.0001 -4.667,10.70649 -10.7078,10.78239 -3.1417,0.039 -5.066,-1.459 -6.1141,-4.76119 -0.6141,-1.9352 -0.336,-2.2034 2.2848,-2.2034 1.6412,0 3.1684,0.553 3.3936,1.2288 0.3002,0.9005 1.1242,0.7607 3.0834,-0.523 3.1665,-2.0748 3.2651,-2.7539 0.8355,-5.7543 -1.4199,-1.7535 -3.3877,-2.4566 -8.6482,-3.0899 -3.9604,-0.4768 -7.5849,-1.5211 -8.6618,-2.4957 -2.6023,-2.3551 -2.4624,-9.8599 0.2632,-14.1159 z m -21.4185,-0.25 c 0.333,-3.1085 3.7722,-18.3348 6.3341,-28.043002 1.0509,-3.982 4.3021,-7.957 6.5084,-7.957 1.8807,0 1.8762,2.9623 -0.01,5.6533 -1.7133,2.4461 -3.4362,7.541702 -6.5413,19.346702 -1.8633,7.0839 -2.1538,10.2507 -1.7441,19.0085 0.6505,13.9012 3.0295,19.7982 9.3372,23.14439 6.8419,3.6296 5.7369,7.2442 -1.1663,3.8151 -8.5763,-4.2601 -14.3179,-20.04499 -12.7193,-34.96799 z M 309.07797,47.068397 c -0.68616,-0.0643 -1.35497,0.28569 -1.875,1.09375 -0.9894,1.5373 -0.1188,9.32275 1.375,12.34375 1.528,3.0901 8.9083,10.500051 12.25,12.281251 1.65,0.8795 5.1385,2.0882 7.75,2.6875 l 4.75,1.0625 -1.75,3.09375 c -12.0444,21.276502 -12.8403,22.941002 -15.9375,32.875002 -0.8574,2.75 -1.90785,5.9 -2.34375,7 -1.9251,4.8578 -4.02295,18.50745 -3.28125,21.34375 0.2764,1.0571 1.63405,2.4259 3.03125,3.0625 2.2415,1.0213 3.13445,0.7507 7.65625,-2.3125 10.497,-7.1111 19.65845,-6.82045 22.78125,0.71875 1.3935,3.3642 0.15065,4.6625 -4.46875,4.6875 -3.8713,0.021 -11.9537,3.65545 -13.4375,6.03125 -2.8083,4.49689 -5.25,12.80114 -5.25,17.96874 0.004,6.3874 2.5872,11.51985 6.5625,13.03125 3.2116,1.2211 10.4688,1.23745 12.375,0.0312 2.2764,-1.4405 -0.62335,-4.33935 -3.59375,-3.59375 -1.2737,0.3196 -3.8531,-0.0824 -5.75,-0.875 -2.7503,-1.1491 -3.5901,-2.1484 -4.125,-5 -1.2163,-6.4832 1.8193,-16.3973 5.8125,-19 1.2346,-0.80469 5.14375,-1.93479 8.71875,-2.49999 8.03,-1.2695 11.31745,-4.22015 10.34375,-9.34375 -1.5318,-8.0607 -6.71115,-13.43725 -13.34375,-13.84375 -6.5446,-0.4011 -13.6268,1.03445 -16.5625,3.34375 -1.4499,1.1447 -2.92985,1.6227 -3.40625,1.125 -2.318,-2.4213 7.8274,-36.059802 11.875,-39.375002 0.3358,-0.275 1.49375,-2.28345 2.59375,-4.46875 1.1,-2.1854 3.125,-5.3335 4.5,-7 1.375,-1.6665 3.00255,-3.93305 3.59375,-5.03125 0.5912,-1.0982 2.6173,-2.79 4.5,-3.75 5.9097,-3.0135 11.96545,-8.70225 12.59375,-11.843751 0.323,-1.6147 0.9585,-3.17275 1.4375,-3.46875 1.4447,-0.8929 1.00835,-7.84215 -0.65625,-10.21875 -2.9316,-4.1854 -7.7003,-2.08405 -11.5,5.03125 -1.2547,2.3497 -3.3787,6.3702 -4.6875,8.9375 -3.5384,6.940701 -4.33095,7.360501 -10.96875,5.875001 -9.8753,-2.21 -14.9704,-7.010851 -17.5,-16.468751 -0.88034,-3.29156 -2.55294,-5.3898 -4.0625,-5.5312 z m 43.90625,8.75 c 0.20831,-0.0409 0.29975,0.26278 0.3125,0.875 0.0249,1.1982 -0.64375,2.8625 -1.46875,3.6875 -0.825,0.825 -1.5,1.9732 -1.5,2.5625 0,0.5893 -0.45,1.0625 -1,1.0625 -1.2533,0 -1.35,0.3224 1.5,-5 1.12862,-2.10769 1.80906,-3.11927 2.15625,-3.1875 z"
     inkscape:connector-curvature="0" />
  <path
     style="fill:#000000"
     d="m 15.244672,1483.085 c 0.49618,-1.5125 1.75534,-6.35 2.79815,-10.75 1.04282,-4.4 4.94344,-17.45 8.66806,-29 3.72463,-11.55 8.0494,-25.275 9.61062,-30.5 1.56122,-5.225 3.13518,-10.175 3.49771,-11 0.80414,-1.83 0.77368,-1.7378 3.63304,-11 1.27343,-4.125 3.0511,-9.75 3.95037,-12.5 5.77071,-17.647 18.92759,-71.7507 21.39973,-88 0.41838,-2.75 1.43926,-7.475 2.26861,-10.5 0.82937,-3.025 2.4946,-11.125 3.70054,-18 1.20594,-6.875 3.14365,-16.325 4.30603,-21 10.47638,-42.1352 15.97057,-67.4668 20.49613,-94.5 1.196978,-7.15 2.856188,-16.15 3.687138,-20 0.83096,-3.85 1.85212,-9.925 2.26923,-13.5 0.41713,-3.575 0.98701,-7.4 1.26642,-8.5 1.87259,-7.3723 1.15695,-29.5355 -1.34665,-41.7067 -0.1931,-0.9387 -1.11411,-8.8137 -2.04671,-17.5 -0.93259,-8.6863 -2.66567,-19.2808 -3.851278,-23.5433 -5.20449,-18.7112 -7.04551,-24.61655 -9.43051,-30.25001 -1.3971,-3.3 -3.99988,-11.175 -5.78395,-17.5 -1.78407,-6.325 -4.40911,-14.65 -5.8334,-18.5 -3.46946,-9.37835 -6.5818,-19.69777 -8.14319,-27 -0.70563,-3.3 -2.46665,-9.6 -3.91339,-14 -1.44674,-4.4 -3.27955,-10.025 -4.0729,-12.5 -0.79334,-2.475 -3.65624,-11.025 -6.362,-19 -2.70575,-7.975 -6.45708,-19.675 -8.33627,-26 -1.8792,-6.325 -5.12885,-15.325 -7.22147,-20 -3.38575,-7.56391 -7.1588,-18.03509 -8.43039,-23.39649 -0.85116,-3.5887 -2.72505,-8.27505 -4.85701,-12.14672 -1.17499,-2.13382 -2.13635,-4.46497 -2.13635,-5.18034 0,-0.71537 -1.66523,-4.55772 -3.70053,-8.53856 -4.3366,-8.482 -6.95453,-15.47401 -8.13907,-21.73789 -0.46804,-2.475 -1.62979,-7.875 -2.58168,-12 -2.2468197,-9.73653 -3.8261397,-23.10079 -3.1289697,-26.47738 0.30206,-1.463 -0.0331,-5.89159 -0.74501,-9.84131 -0.71182,-3.94972 -1.41327,-11.23131 -1.55876,-16.18131 -0.19362,-6.58661 -0.93861,-10.60893 -2.77826,-15 -1.38253,-3.3 -2.46070005,-7.28605 -2.39593005,-8.8579 0.17312,-4.20162 4.94723005,-11.21506 13.03017975,-19.1421 3.92573,-3.85 11.00065,-11.1625 15.72206,-16.25 4.7214,-5.0875 8.85269,-9.25846 9.18066,-9.2688 0.32795,-0.0103 8.61585,-7.25027 18.41754,-16.08873 9.80171,-8.83846 19.14941,-16.7125 20.77267,-17.49787 1.62326,-0.78536 4.33555,-2.65794 6.02728,-4.16127 1.69175,-1.50333 7.16811,-6.34323 12.1697,-10.75533 12.302848,-10.85284 20.311028,-19.65596 21.067758,-23.15908 0.3449,-1.59667 -0.1982,-6.48411 -1.20691,-10.86098 -1.00869,-4.37687 -1.85929,-12.51866 -1.89021,-18.09287 -0.0466,-8.40515 0.31301,-10.71434 2.10715,-13.52972 1.18984,-1.86713 2.51052,-4.67541 2.93481,-6.24063 l 0.77146,-2.84584 8.61492,0.46174 8.61494,0.46174 -0.53348,-10.08618 c -0.84478,-15.97195 -2.6889,-22.99275 -8.06154,-30.69118 -4.12086,-5.90478 -10.64313,-12.47007 -11.55219,-11.62841 -1.08377,1.00341 -6.81652,-2.41102 -7.52678,-4.48296 -0.3363,-0.98099 -0.32716,-2.61292 0.0203,-3.6265 0.53382,-1.55726 -2.1243,-6.04383 -4.83279,-8.15713 -0.35247,-0.275 -2.51177,-3.65 -4.798458,-7.5 -2.2867,-3.85 -5.57329,-8.92743 -7.30353,-11.28318 -4.32552,-5.88929 -9.01965,-14.30512 -12.34831,-22.13856 -3.5027,-8.24303 -10.20792,-18.48297 -14.45707,-22.07826 -3.76082,-3.18209 -10.90363,-25.09889 -14.50283,-44.5 -1.66082,-8.95246 -0.0862,-34.5995 2.67026,-43.4934 0.59547,-1.92137 1.08269,-5.11672 1.08269,-7.10077 0,-1.98406 0.43641,-4.91203 0.9698,-6.50661 0.53339,-1.59457 1.78931,-6.49922 2.79095,-10.89922 1.96958,-8.65203 3.01996,-11.82455 5.95956,-18 1.04723,-2.2 2.71222,-6.21156 3.69996,-8.91459 1.64386,-4.49856 3.62235,-7.74581 13.03582,-21.39545 4.05604,-5.88132 24.377078,-25.30775 35.108308,-33.56273 24.71934,-19.01529 36.79372,-24.39118 72.90521,-32.45968 19.93262,-4.4536 32.41462,-5.59298 52.33065,-4.77684 28.21442,1.15619 37.32673,2.56901 54.82387,8.50014 6.12128,2.07498 23.81651,12.08237 26.84776,15.18354 1.03522,1.05908 2.27328,1.92561 2.75125,1.92561 3.81059,0 23.47687,24.0856 30.39487,37.22508 5.87591,11.16018 7.28407,14.95115 7.28407,19.60969 0,2.21072 0.84614,4.37022 2.25723,5.7609 l 2.25723,2.22457 -2.17938,2.0178 c -2.82103,2.61188 -3.76868,8.78506 -3.04026,19.80483 0.94092,14.23479 -1.42235,24.94123 -7.22841,32.74717 l -2.1496,2.89004 3.14122,2.10996 c 9.11608,6.12327 12.72349,10.84228 15.46163,20.22598 1.63709,5.61041 1.51096,9.59343 -0.5485,17.32009 -2.02343,7.59146 -6.15671,14.1675 -10.38017,16.5148 -2.25552,1.25357 -2.72609,2.03997 -2.001,3.34405 0.52141,0.93777 1.81817,3.73004 2.88166,6.20504 1.06352,2.475 2.64685,5.2875 3.51851,6.25 0.87168,0.9625 1.27432,1.75 0.89476,1.75 -0.37955,0 0.33843,1.82696 1.59551,4.05991 2.7596,4.90189 2.32101,11.02774 -1.32642,18.52648 -1.31451,2.70248 -2.92644,6.03551 -3.58208,7.40672 -0.65563,1.3712 -3.33032,6.0962 -5.94377,10.5 -2.61344,4.40379 -6.4538,11.15689 -8.53413,15.00689 -2.08033,3.85 -5.30248,9.25 -7.16035,12 -5.11709,7.57429 -9.86679,17.85194 -13.6331,29.5 -1.8673,5.775 -4.00835,12.075 -4.75792,14 -0.74955,1.925 -2.43478,8.9 -3.74493,15.5 -1.31016,6.6 -3.34468,15.63034 -4.52117,20.06743 -1.17648,4.43709 -2.31291,11.86209 -2.52538,16.5 -0.21248,4.63791 -0.43326,8.74707 -0.4906,9.13147 -0.0573,0.38439 -2.89899,1.44548 -6.31473,2.35796 -10.38768,2.77496 -11.57665,4.10592 -5.38421,6.02724 4.90529,1.52195 4.94562,4.22214 0.14202,9.51215 -2.19935,2.42206 -5.39388,7.14796 -7.09895,10.50199 -3.29429,6.48009 -6.18203,18.59796 -4.55399,19.10984 0.98682,0.31027 2.35645,1.12441 12.44578,7.39809 7.51401,4.6723 25.4771,22.18782 28.92458,28.20387 1.46574,2.55781 17.81204,18.47849 45.73066,44.53996 7.27655,6.7925 20.27758,17.56057 28.8912,23.92905 8.6136,6.36847 16.44548,12.28597 17.40415,13.15 6.3865,5.75595 16.74486,13.52058 25.66148,19.23583 5.719,3.66568 13.07138,8.43291 16.3386,10.59383 3.26724,2.16092 8.12759,5.01172 10.80078,6.33512 2.67319,1.32339 5.14742,2.7667 5.49828,3.20734 0.79492,0.9983 6.38256,-1.26868 6.38256,-2.58949 0,-0.55397 1.73072,-0.72004 4.05029,-0.38866 2.43238,0.3475 4.73495,0.099 5.76427,-0.62219 2.20328,-1.54365 7.93575,-14.00512 11.13275,-24.20083 0.68985,-2.2 1.79024,-4.9 2.4453,-6 1.04858,-1.76079 3.12707,-9.17216 4.20667,-15 0.20377,-1.1 1.38886,-5.82255 2.63351,-10.49455 1.24467,-4.67201 3.23179,-14.12201 4.41583,-21 1.18405,-6.878 3.80589,-20.60545 5.8263,-30.50545 2.02044,-9.9 4.68377,-23.175 5.91855,-29.5 1.23478,-6.325 3.18573,-15.1 4.33544,-19.5 1.14971,-4.4 2.64019,-10.61334 3.31217,-13.80742 0.67197,-3.19408 2.56694,-9.49408 4.21103,-14 1.64409,-4.50592 3.35293,-10.44258 3.79743,-13.19258 0.44448,-2.75 1.22346,-5.71856 1.73107,-6.5968 0.54902,-0.9499 0.46882,-2.01724 -0.19796,-2.63459 -1.5854,-1.46786 4.79963,-5.6524 11.2127,-7.34844 2.8217,-0.74624 5.13037,-1.6128 5.13037,-1.92568 0,-0.97683 4.24456,-0.91697 4.90283,0.0691 0.34378,0.515 1.74828,0.93637 3.12112,0.93637 3.56764,0 5.46046,-6.69908 4.44471,-15.73068 -0.41874,-3.72313 -0.98501,-22.51932 -1.2584,-41.76932 -0.27337,-19.25 -0.69612,-38.15 -0.93942,-42 -1.35908,-21.50665 -1.35204,-26.18471 0.0459,-30.5 3.69766,-11.41388 8.5416,-24.14612 11.79388,-31 1.95738,-4.125 3.89134,-8.93747 4.2977,-10.69439 0.75803,-3.27746 7.18796,-9.48528 11.87074,-11.46073 1.39234,-0.58733 2.58836,-2.02162 2.67203,-3.2041 0.46167,-6.52827 0.23843,-9.53834 -0.97466,-13.14078 -0.74091,-2.2 -1.56962,-6.025 -1.84163,-8.5 -0.45558,-4.14418 -0.24135,-4.63774 2.70879,-6.24201 3.66273,-1.99171 8.71301,-2.49935 14.37186,-1.44459 l 3.91185,0.72913 1.91789,-9.27127 c 2.35771,-11.39751 3.07902,-13.26065 6.21713,-16.05957 1.36392,-1.21643 3.35122,-4.05114 4.41632,-6.29935 2.9929,-6.31745 6.4157,-9.42871 11.1173,-10.10524 2.2826,-0.32845 7.208,-2.11084 10.9453,-3.96085 6.808,-3.37015 10.4741,-3.65458 13.9964,-1.08592 1.8648,1.35992 1.6951,4.67989 -0.2751,5.37985 -0.8939,0.31758 -2.3087,1.99095 -3.1442,3.71862 -2.4704,5.10885 -7.1118,16.41511 -7.1066,17.31176 0,0.45619 -1.2495,4.65444 -2.7825,9.32944 -1.5331,4.675 -3.7599,11.65 -4.9487,15.5 -1.1888,3.85 -2.6435,7.83132 -3.2328,8.84738 -1.3189,2.27417 -1.7836,1.86622 9.0258,7.92229 7.1869,4.02656 9.8381,4.99348 13.4344,4.89952 2.9755,-0.0778 5.3908,0.54594 7.1908,1.85687 1.4908,1.08567 3.6058,1.97431 4.7002,1.97475 6.6878,0.003 16.4874,6.02713 16.5469,10.17227 0.058,4.04081 -9.3956,9.6345 -16.7173,9.89163 -1.188,0.0417 -3.0766,0.40904 -4.1968,0.81625 -1.8899,0.68704 -1.8031,0.98825 1.2044,4.17972 1.7825,1.89163 3.5824,4.45182 3.9995,5.68932 0.9687,2.87284 1.8079,2.83031 4.9334,-0.25 2.9558,-2.91307 7.5951,-3.28763 9.2894,-0.75 0.6427,0.9625 2.7681,4.45 4.7233,7.75 1.955,3.3 3.8926,6.45 4.3057,7 1.2499,1.6642 4.4423,10.14822 4.9548,13.1678 0.2644,1.55771 2.7484,6.9699 5.5202,12.02709 4.4635,8.14438 5.097,10.11704 5.544,17.26635 0.413,6.605 0.058,9.29474 -1.9517,14.80445 -1.3511,3.70314 -3.5777,8.37746 -4.9481,10.38738 -2.4433,3.58349 -10.1564,23.04717 -10.1564,25.62929 0,0.72151 -2.0656,4.69067 -4.5903,8.82034 -2.5246,4.12966 -5.062,8.36603 -5.6384,9.41414 -0.5765,1.04811 -2.6407,2.69968 -4.5871,3.67017 -2.3117,1.15262 -3.9689,2.98665 -4.7789,5.28876 -2.9314,8.33089 -9.028,17.49479 -16.1242,24.23652 -4.0583,3.85554 -9.2251,9.71083 -11.4817,13.01174 -2.2567,3.30092 -5.1891,7.08939 -6.5165,8.41882 l -2.4136,2.41715 5.3838,4.64765 c 6.2101,5.3611 6.2575,5.64824 3.8447,23.29235 -1.4819,10.83527 -1.3504,12.47304 0.9361,11.66069 3.3507,-1.19047 5.8317,3.72459 3.755,7.4392 -0.492,0.87994 -1.9068,5.09772 -3.1442,9.37285 -2.8693,9.91331 -4.6771,13.09376 -8.3749,14.73412 -2.4749,1.09788 -3.0887,2.15595 -3.658,6.30618 -0.9131,6.65427 -3.6461,16.52924 -6.7772,24.48696 -1.4066,3.575 -3.609,9.65 -4.894,13.5 -1.2852,3.85 -2.7493,7.9 -3.2536,9 -0.5044,1.1 -2.24276,6.5 -3.86303,12 -5.13798,17.44079 -8.14206,26.8387 -10.38871,32.5 -3.85933,9.72489 -10.37342,28.39336 -11.16592,32 -0.42303,1.925 -2.24075,7.325 -4.03942,12 -1.79868,4.675 -3.38443,9.175 -3.524,10 -0.13948,0.825 -0.51964,2.175 -0.84475,3 -0.32519,0.825 -1.86611,6.675 -3.42429,13 -1.55817,6.325 -3.77272,14.425 -4.92122,18 -1.1485,3.575 -3.12314,10.55 -4.3881,15.5 -1.26494,4.95 -3.91272,12.375 -5.88396,16.5 -1.97122,4.125 -4.1682,9.34672 -4.88216,11.60382 -2.49438,7.88561 -10.69492,17.32076 -24.86536,28.6089 -11.03986,8.79431 -14.09155,11.83862 -17.04122,17 -1.9762,3.458 -4.52788,7.21628 -5.6704,8.35173 -1.14251,1.13545 -2.0773,2.51332 -2.0773,3.06194 0,0.54862 -1.43842,1.98212 -3.1965,3.18555 -3.82315,2.61702 -10.35782,2.8924 -13.91379,0.58637 -1.35841,-0.88094 -5.84617,-1.99421 -9.97278,-2.47395 -4.8073,-0.55888 -9.34192,-1.84616 -12.62153,-3.58299 -2.81523,-1.4909 -8.03481,-4.21752 -11.59906,-6.05915 -9.4458,-4.88059 -10.50617,-5.54987 -12.72589,-8.03222 -1.10656,-1.2375 -2.85153,-2.25 -3.87769,-2.25 -1.02616,0 -2.37111,-0.4679 -2.98878,-1.03978 -0.61769,-0.57189 -2.66072,-1.80939 -4.54009,-2.75 -1.87932,-0.94058 -8.58353,-6.21018 -14.89821,-11.71018 -6.31467,-5.5 -13.47279,-11.26185 -15.90692,-12.80411 -2.43414,-1.54227 -5.16395,-3.39005 -6.06627,-4.10619 -0.9023,-0.71613 -5.04282,-2.97755 -9.20112,-5.02537 -4.15829,-2.04782 -8.28959,-4.30828 -9.18065,-5.02323 -2.03561,-1.6333 -8.18224,-4.5411 -9.59915,-4.5411 -0.58619,0 -0.86736,1.4625 -0.6248,3.25 0.24257,1.7875 0.69025,9.55 0.99486,17.25 0.57599,14.55934 0.87183,17.64891 2.01089,21 0.37389,1.1 0.91965,3.575 1.21278,5.5 0.29312,1.925 1.00387,6.425 1.57945,10 0.57556,3.575 1.31984,9.99191 1.65394,14.25979 0.33411,4.26789 1.12974,9.89289 1.76809,12.5 0.63833,2.60712 1.62028,11.26521 2.1821,19.24021 3.23615,45.93758 3.41163,48.96229 4.80861,82.88721 0.37114,9.013 0.84278,17.1948 1.04809,18.1818 0.2053,0.987 0.66063,10.7128 1.01184,21.6128 0.35119,10.9 1.08597,24.7682 1.63284,30.8182 0.54686,6.05 1.28228,15.05 1.63428,20 0.35201,4.95 0.86612,10.3514 1.14248,12.0032 0.27636,1.6517 0.97594,13.3517 1.55461,26 0.57866,12.6482 1.26546,23.938 1.52622,25.0884 0.26075,1.1504 0.8071,9.0254 1.2141,17.5 0.407,8.4746 1.68219,21.4834 2.83375,28.9084 3.9899,25.7258 5.44652,38.5641 5.89984,52 0.25052,7.425 1.16636,18.45 2.03523,24.5 0.86885,6.05 1.86758,19.775 2.21941,30.5 0.60382,18.4068 1.77909,29.394 5.41016,50.5777 0.8558,4.9927 1.83189,11.5177 2.16908,14.5 1.14763,10.1501 5.88201,34.3925 8.67538,44.4223 3.56769,12.8101 4.5857,18.0855 5.45143,28.25 l 0.70268,8.25 -3.39247,0 c -2.79318,0 -3.3954,-0.3975 -3.40901,-2.25 -0.008,-1.2375 -0.40308,-2.8136 -0.87549,-3.5025 -0.68425,-0.9978 -43.57353,-1.2012 -210.86854,-1 l -210.009578,0.2525 -1.03341,3.25 c -0.89077,2.8014 -1.51664,3.25 -4.53415,3.25 -3.31762,0 -3.45354,-0.1438 -2.59863,-2.75 z"
     id="path3049"
     inkscape:connector-curvature="0" />
  <path
     style="fill:#ffffff"
     d="m 443.54503,1470.085 c -0.37854,-2.6125 -1.60701,-8.35 -2.72996,-12.75 -1.12294,-4.4 -2.28995,-9.8 -2.59335,-12 -0.30339,-2.2 -1.23875,-7.6 -2.07856,-12 -0.83981,-4.4 -2.04066,-11.15 -2.66854,-15 -3.77614,-23.1539 -5.78847,-35.9958 -6.81648,-43.5 -0.64043,-4.675 -1.32301,-9.625 -1.51683,-11 -0.19383,-1.375 -0.6507,-10.375 -1.01528,-20 -0.7711,-20.3577 -1.24527,-26.4366 -2.65139,-33.9908 -0.56401,-3.0301 -1.29092,-12.9342 -1.61535,-22.0092 -0.32445,-9.075 -1.06161,-18.0184 -1.63815,-19.8741 -0.57653,-1.8558 -1.34159,-5.9058 -1.70011,-9 -0.35854,-3.0943 -1.3252,-9.2259 -2.14816,-13.6259 -0.82297,-4.4 -1.82269,-10.7 -2.22161,-14 -0.39892,-3.3 -0.87985,-6.7912 -1.06871,-7.7582 -0.18887,-0.967 -0.63795,-8.167 -0.99794,-16 -0.35999,-7.833 -0.85756,-14.9168 -1.1057,-15.7418 -0.24814,-0.825 -0.96264,-10.275 -1.58778,-21 -1.47731,-25.3448 -2.02322,-32.5944 -3.27564,-43.5 -1.45172,-12.6408 -1.97135,-19.1714 -2.66559,-33.5 -0.3331,-6.875 -1.31438,-22.85 -2.1806,-35.5 -0.86624,-12.65 -1.84574,-30.6097 -2.1767,-39.9104 -0.33096,-9.3007 -0.8015,-17.2097 -1.04565,-17.5754 -0.24414,-0.3658 -0.5216,-5.86127 -0.61656,-12.21222 -0.0949,-6.35095 -0.57569,-13.51702 -1.06828,-15.92459 -0.49259,-2.40757 -1.19071,-9.1024 -1.55135,-14.8774 -0.36065,-5.775 -1.15949,-13.51996 -1.7752,-17.21103 -1.66279,-9.96815 -1.80692,-11.15885 -3.06116,-25.28897 -0.63465,-7.15 -1.65119,-15.925 -2.25895,-19.5 -0.60777,-3.575 -1.38895,-14.6 -1.73598,-24.5 -0.34701,-9.9 -1.05665,-18.75792 -1.57698,-19.68426 -0.52032,-0.92634 -0.94604,-2.88191 -0.94604,-4.34571 0,-4.1607 -2.92209,-7.74601 -9.37864,-11.50726 -3.26929,-1.90452 -7.96354,-5.03777 -10.43168,-6.96277 -4.64134,-3.61998 -29.88842,-25.17968 -38.48854,-32.86722 -15.68877,-14.02399 -46.2992,-36.00108 -59.96959,-43.05582 -3.56426,-1.83937 -8.18158,-4.54001 -10.26073,-6.00142 -4.80416,-3.37678 -15.33691,-8.38111 -25.53185,-12.13072 -11.52993,-4.2406 -26.95792,-11.58892 -30.92137,-14.72779 -1.88694,-1.49436 -11.01675,-9.78028 -20.28845,-18.41314 -15.32824,-14.27208 -17.27959,-16.49484 -21.50838,-24.5 -4.35274,-8.23982 -4.64435,-9.31646 -4.55123,-16.80389 0.13459,-10.82278 6.30178,-27.5 10.16943,-27.5 2.35431,0 2.44163,3.12314 0.31751,11.35627 -2.49439,9.6683 -1.53384,17.86235 3.18192,27.14373 3.57611,7.03838 5.89923,9.72224 19.32661,22.32776 21.92088,20.57914 25.9408,23.12143 54.68472,34.58391 5.04937,2.01358 12.5829,5.64798 16.7412,8.07645 4.1583,2.42847 10.96278,6.24952 15.12108,8.49123 13.07944,7.05102 31.69237,19.93737 46.34089,32.08336 3.02656,2.5095 6.9051,5.5471 8.619,6.75024 1.71391,1.20313 10.21951,8.43871 18.90135,16.07907 19.264,16.95307 27.4131,23.56995 33.0664,26.84912 2.37617,1.37828 5.31574,3.34345 6.5324,4.36703 1.21664,1.02359 6.07699,3.82325 10.80077,6.22148 29.17449,14.81168 46.33046,26.26086 59.22442,39.52389 2.7311,2.80926 21.67017,14.58692 29.28998,18.21457 2.97021,1.41406 9.07987,4.44854 13.57702,6.74328 4.49715,2.29475 10.8156,4.63216 14.041,5.19425 3.22541,0.56209 7.47328,1.72475 9.43972,2.58369 3.26859,1.42772 3.8101,1.41929 6.31147,-0.0982 1.50487,-0.91293 3.69931,-3.53441 4.87654,-5.82552 1.17722,-2.29111 2.77851,-5.21959 3.55839,-6.50774 1.8306,-3.02357 13.11986,-13.87987 18.02241,-17.3312 6.91455,-4.86777 15.82479,-13.51621 17.97845,-17.4502 1.1672,-2.13209 3.46102,-7.02652 5.09738,-10.87652 1.63636,-3.85 3.3494,-7.45 3.80677,-8 1.62343,-1.95223 8.51689,-25.64985 14.4009,-49.50597 0.88257,-3.57828 2.32087,-8.52828 3.19622,-11 0.87536,-2.47172 3.64611,-10.56903 6.15718,-17.99403 2.51107,-7.425 7.18935,-20.925 10.39612,-30 7.0464,-19.94102 9.44979,-27.07695 11.11443,-33 2.19272,-7.80238 9.8625,-30.07709 14.17721,-41.17396 2.2828,-5.87068 5.1244,-15.09568 6.315,-20.5 1.1905,-5.40432 2.6349,-11.28854 3.2097,-13.07604 0.5748,-1.7875 0.7766,-3.25 0.4483,-3.25 -0.3283,0 -0.01,-0.65529 0.7085,-1.4562 1.3231,-1.47603 0.7101,-3.5438 -1.0505,-3.5438 -0.5292,0 -3.1448,-1.36381 -5.8124,-3.03069 -2.6676,-1.66688 -7.30929,-3.97688 -10.31487,-5.13333 -3.00557,-1.15645 -5.46468,-2.54272 -5.46468,-3.0806 0,-0.56259 -1.49721,-0.71791 -3.52503,-0.36568 -7.01376,1.21828 -14.83624,-5.53503 -14.83624,-12.80832 0,-4.45581 3.97451,-11.14834 9.00556,-15.16432 4.32025,-3.44849 4.76551,-3.57299 11.42574,-3.19467 7.47253,0.42445 8.99052,1.49251 11.49522,8.08776 0.8943,2.35482 2.3749,3.44619 6.7761,4.99452 3.0975,1.08969 5.9058,1.72758 6.2407,1.41754 1.2146,-1.12458 2.5292,-8.35396 2.5543,-14.04783 0.022,-5.08096 -0.3361,-6.10362 -2.8048,-8 -1.5567,-1.19588 -4.8374,-3.78024 -7.2904,-5.74303 -11.31743,-9.05564 -24.37855,-14.36306 -51.44343,-20.90412 -5.04935,-1.22033 -11.36781,-2.87511 -14.041,-3.67729 -2.67319,-0.80217 -9.00001,-1.71888 -14.05961,-2.03713 -10.91673,-0.68667 -11.17159,-0.51682 -14.17463,9.44616 -5.64709,18.73509 -12.02733,42.67115 -13.39189,50.24108 -0.84272,4.675 -2.27893,12.1 -3.19156,16.5 -0.91265,4.4 -2.13495,11.15 -2.71624,15 -0.58129,3.85 -1.81658,11.05 -2.7451,16 -3.58772,19.12654 -5.9195,31.21536 -7.04039,36.5 -0.64163,3.025 -1.54453,7.975 -2.00647,11 -0.94633,6.19714 -2.33699,10.28035 -11.84122,34.76786 -3.68615,9.49732 -6.40946,17.70625 -6.05177,18.24208 0.35768,0.53582 0.20962,1.70332 -0.32902,2.59445 -0.61314,1.01438 -0.44725,3.91528 0.44365,7.75792 1.89871,8.18971 1.84252,11.17664 -0.24664,13.1109 -2.9438,2.72556 -4.12742,1.20401 -5.87605,-7.55367 -1.18845,-5.95216 -2.13801,-8.41954 -3.24023,-8.41954 -1.28723,0 -1.5305,2.26699 -1.39507,13 0.0901,7.15 0.47761,15.475 0.86084,18.5 0.57594,4.54611 0.33905,5.91517 -1.36594,7.89382 -1.13451,1.3166 -2.5499,2.11506 -3.14532,1.77435 -2.12621,-1.21664 -3.67514,-13.04548 -3.43927,-26.26477 0.13177,-7.38489 -0.0234,-13.67045 -0.34455,-13.9679 -0.32127,-0.29745 -1.60315,0.65862 -2.84864,2.12461 -2.66995,3.14264 -6.07536,2.81087 -11.68067,-1.13797 -1.891,-1.33218 -3.91615,-2.42214 -4.50031,-2.42214 -0.58419,0 -1.22415,-0.35126 -1.42217,-0.78059 -0.19802,-0.42932 -3.51925,-2.81629 -7.38053,-5.30438 -3.86128,-2.48809 -9.56719,-6.18683 -12.67983,-8.21942 -3.11262,-2.03258 -5.9346,-3.69561 -6.27104,-3.69561 -0.72605,0 -8.86811,-6.15637 -24.46703,-18.5 -6.25542,-4.95 -16.45257,-12.91014 -22.66032,-17.68921 -16.17659,-12.45359 -63.4151,-56.38875 -72.18461,-67.13679 -11.28434,-13.83025 -29.00167,-28.5748 -39.9499,-33.24675 -11.03586,-4.70933 -29.51947,-9.48589 -36.9752,-9.55518 -13.68156,-0.12716 -49.44019,11.4455 -56.17272,18.17933 -2.37447,2.37493 -3.98012,3.01026 -8.10058,3.20532 -4.56054,0.21589 -5.11737,0.0181 -4.94599,-1.75672 0.10617,-1.1 1.01371,-2.45 2.01667,-3 1.00296,-0.55 3.93353,-2.575 6.51238,-4.5 4.68248,-3.49528 12.28077,-7.32167 20.43992,-10.29323 23.00793,-8.37951 34.91116,-11.11045 44.28316,-10.15982 7.76808,0.78794 26.41753,4.82552 29.62118,6.41295 3.09452,1.53334 4.08352,0.74076 4.94129,-3.9599 0.40039,-2.19424 1.17174,-4.24344 1.71409,-4.55378 0.54236,-0.31034 0.9861,-1.28178 0.9861,-2.15875 0,-1.95291 4.91724,-11.78146 7.77,-15.53065 1.14802,-1.50874 1.78842,-3.1909 1.42314,-3.73813 -1.09939,-1.64697 -9.37857,-5.7827 -15.13356,-7.55972 -2.97022,-0.91715 -6.15336,-2.28359 -7.07367,-3.03655 -2.47958,-2.02868 -16.33228,-4.5257 -17.99963,-3.24452 -0.93019,0.71476 -2.4302,0.66146 -4.87628,-0.17326 -1.94304,-0.66307 -4.99092,-1.56045 -6.77304,-1.99419 -7.62735,-1.85633 -29.34229,-8.14797 -31.33645,-9.07936 -2.0703,-0.96694 -8.77316,-2.25095 -28.0678,-5.37674 -4.75234,-0.76989 -9.36967,-1.64703 -10.26073,-1.9492 -3.63604,-1.23301 -27.37309,-4.55434 -36.94701,-5.1697 -10.49009,-0.67424 -11.23699,-0.45457 -12.11977,3.56455 -0.0604,0.275 -0.52602,1.1081 -1.03471,1.85132 -1.80113,2.63154 1.59503,31.24895 4.16544,35.09959 1.06047,1.58867 -2.9172,8.99293 -4.84743,9.02329 -0.90198,0.0142 -2.36009,1.11571 -3.24023,2.44782 -4.25087,6.43375 -14.51719,15.95977 -42.720828,39.64024 -2.33347,1.95924 -9.08715,8.17151 -15.00816,13.80503 -5.92101,5.63352 -13.21153,12.39415 -16.20116,15.02362 -2.98963,2.62947 -9.39194,9.01721 -14.22737,14.19497 -4.83545,5.17777 -11.53579,12.09985 -14.88966,15.38241 -3.35388,3.28257 -6.3763297,6.99519 -6.7165597,8.25027 -0.34024,1.25508 0.19604,4.16702 1.19172,6.47098 1.14051,2.63908 2.2027597,9.57646 2.8709597,18.74973 0.58334,8.0084 1.47855,20.18573 1.98935,27.06073 0.51082,6.875 1.88495,15.875 3.05367,20 1.1687,4.125 2.44801,9.57863 2.84291,12.11917 0.75122,4.83277 4.20082,14.3352 7.95777,21.9208 l 2.20894,4.46003 0.168,-4 c 0.0925,-2.2 0.33727,-5.575 0.54415,-7.5 0.20689,-1.925 0.90906,-9.8 1.56038,-17.5 0.65133,-7.7 1.44207,-16.7 1.75721,-20 0.31514,-3.3 0.79636,-10.25523 1.06937,-15.45606 0.51237,-9.76069 1.28699,-11.73985 4.19096,-10.70811 2.00132,0.71104 2.09333,3.15478 0.66504,17.66417 -1.94318,19.74 -3.58853,48.49087 -3.37644,59 0.21137,10.47284 1.25118,14.86181 5.3488,22.57691 1.19092,2.24229 2.13869,5.86301 2.10614,8.04604 -0.0336,2.25562 1.43199,7.40295 3.39491,11.92309 3.75819,8.65432 7.71628,20.07198 9.6906,27.95396 0.68884,2.75 3.46229,11.525 6.16322,19.5 8.88049,26.22124 12.11094,36.89967 14.97482,49.5 1.00005,4.4 3.71532,13.4 6.03392,20 2.31861,6.6 5.62279,16.725 7.34265,22.5 1.71985,5.775 4.66029,14.53893 6.53432,19.4754 1.87403,4.93647 4.655908,13.71151 6.181958,19.50001 1.52605,5.7885 3.16084,11.2099 3.63288,12.0475 0.91895,1.6307 1.4945,5.9662 3.15472,23.7646 0.57909,6.2082 1.26367,11.6082 1.52127,12 1.74512,2.6547 3.49022,33.0239 2.35338,40.9552 -0.21736,1.5165 -0.94604,6.8073 -1.61927,11.7573 -0.67323,4.95 -2.38693,14.85 -3.80821,22 -1.4213,7.15 -3.36558,17.275 -4.32064,22.5 -4.12973,22.5933 -9.081638,45.5798 -15.079928,70 -4.08279,16.6218 -6.63989,28.4976 -9.79706,45.5 -1.53195,8.25 -3.55382,18.375 -4.49307,22.5 -0.93924,4.125 -1.83479,8.4 -1.99012,9.5 -1.88083,13.3199 -16.15582,68.7205 -23.96321,93 -2.12231,6.6 -4.69815,14.7 -5.72408,18 -1.02594,3.3 -4.40564,13.875 -7.51048,23.5 -7.31037,22.6622 -10.84448,34.7562 -10.84448,37.1106 0,1.8461 4.80815,1.8894 209.601148,1.8894 l 209.60116,0 -0.68826,-4.75 z"
     id="path3047"
     inkscape:connector-curvature="0" />
  <path
     style="fill:#000000"
     d="m 227.64837,573.23972 c -3.50764,-0.78575 -6.62216,-1.20216 -6.92112,-0.92536 -0.29898,0.2768 -1.07435,0.11611 -1.72304,-0.35709 -3.66146,-2.67089 -23.3782,-4.88584 -49.76893,-5.59098 -22.37373,-0.59781 -25.49517,-1.24324 -23.95729,-4.95376 0.54814,-1.32252 2.7982,-1.56872 13.91868,-1.523 24.09441,0.0991 46.79081,1.95486 66.18863,5.41195 12.95675,2.30916 14.58104,2.96697 14.58104,5.90508 0,3.88912 -2.32198,4.27238 -12.31797,2.03316 z"
     id="path3045"
     inkscape:connector-curvature="0" />
  <path
     style="fill:#ffffff"
     d="m 660.25468,608.9365 c 0.9671,-2.13298 1.4434,-4.35004 1.0584,-4.9268 -0.385,-0.57677 -2.9902,-1.95755 -5.7892,-3.06842 -2.7991,-1.11087 -6.4347,-2.89418 -8.0789,-3.9629 -5.2596,-3.41843 -8.2504,-3.47877 -10.33689,-0.20856 -1.00842,1.58056 -1.83347,3.32809 -1.83347,3.8834 0,1.13425 20.59656,12.20733 22.63996,12.1716 0.3199,-0.006 1.3729,-1.75534 2.3401,-3.88832 z"
     id="path3043"
     inkscape:connector-curvature="0" />
  <path
     style="fill:#ffffff"
     d="m 631.76432,596.53074 c 2.11036,-1.47031 1.60835,-4.82046 -0.81004,-5.406 -2.66444,-0.64512 -2.80241,-3.1299 -0.27005,-4.86219 1.48708,-1.0172 1.60995,-1.55607 0.57611,-2.52691 -1.89172,-1.77639 -6.66352,-1.48853 -11.64683,0.7026 -3.57727,1.57288 -4.37906,2.46423 -4.66158,5.18228 -0.27361,2.63271 0.38973,3.95937 3.35028,6.70043 3.5482,3.28511 3.85483,3.37377 7.90175,2.2841 2.31569,-0.62352 4.81785,-1.55696 5.56036,-2.07431 z"
     id="path3041"
     inkscape:connector-curvature="0" />
  <path
     style="fill:#1c0b00;fill-opacity:1"
     d="m 650.52868,548.58499 c 0.7089,-1.2375 2.7916,-4.117 4.6282,-6.39889 1.8367,-2.28189 4.3069,-5.43189 5.4893,-7 1.1825,-1.56811 5.3064,-5.87894 9.1643,-9.57962 6.0612,-5.81437 7.7749,-8.36298 12.6133,-18.75882 7.3151,-15.71729 9.0278,-22.33003 8.9551,-34.57521 -0.033,-5.4656 0.9469,-16.194 2.1762,-23.84088 2.0215,-12.575 2.0774,-14.12631 0.5843,-16.23622 -2.1046,-2.97378 -1.082,-10.02173 1.6505,-11.37567 2.2775,-1.12854 2.9661,-0.45283 6.8615,6.73207 3.252,5.99835 3.4652,7.28324 1.2081,7.28324 -0.8911,0 -1.6962,0.5625 -1.7891,1.25 -0.093,0.6875 -0.2943,2.375 -0.4474,3.75 -0.153,1.375 -0.8051,6.91202 -1.449,12.30448 -0.6441,5.39247 -1.1385,14.84247 -1.0989,21 0.04,6.15754 -0.2869,12.05684 -0.7255,13.10956 -0.5576,1.33806 -0.4173,1.69646 0.4661,1.19099 0.6948,-0.39769 1.2635,-1.59651 1.2635,-2.66405 0,-1.06754 0.4861,-1.94098 1.0801,-1.94098 0.5941,0 1.0804,-0.5625 1.0808,-1.25 0,-3.07693 7.9499,-23.50058 12.6173,-32.4211 4.7317,-9.04327 5.1314,-10.38842 5.0012,-16.8289 -0.1354,-6.69497 -3.714,-18.5 -5.6081,-18.5 -1.1716,0 -4.1693,-6.77097 -5.534,-12.5 -1.6936,-7.10896 -4.2324,-13.75104 -5.9246,-15.5 -0.7982,-0.825 -2.274,-3.4125 -3.2794,-5.75 -1.0054,-2.3375 -2.2408,-4.25 -2.7456,-4.25 -1.6356,0 -19.431,16.3277 -24.5225,22.5 -2.7221,3.3 -7.3578,8.925 -10.3015,12.5 -6.2949,7.6447 -7.9888,9.05026 -10.0321,8.32433 -2.2341,-0.79377 -1.8412,-4.09241 0.6337,-5.31869 1.1817,-0.5856 4.5264,-4.32707 7.4325,-8.31437 2.906,-3.9873 6.0704,-7.8541 7.0318,-8.5929 0.9615,-0.73879 1.7482,-1.7662 1.7482,-2.28313 0,-0.51693 3.3632,-4.12235 7.4738,-8.01205 l 7.4738,-7.07219 -1.7582,-3.6155 c -0.9671,-1.98853 -2.6291,-4.5445 -3.6935,-5.67995 -1.0644,-1.13545 -1.9354,-2.82295 -1.9354,-3.75 0,-2.24092 -1.8434,-2.12497 -7.0364,0.44261 -3.723,1.8407 -6.6269,4.06909 -15.5204,11.91023 -0.9597,0.84611 -5.7354,5.59072 -10.6127,10.54357 -10.6949,10.86052 -20.30565,16.55306 -17.84608,10.57027 0.3736,-0.90872 8.6027,-9.02514 18.28688,-18.03646 9.6842,-9.01133 17.6076,-16.53728 17.6076,-16.72432 0,-0.18705 -1.3365,-0.99975 -2.9702,-1.806 -1.6336,-0.80625 -4.8811,-3.06781 -7.2166,-5.02568 -2.3356,-1.95787 -5.2721,-3.55977 -6.5257,-3.55977 -2.6838,0 -10.32611,7.01391 -13.00199,11.93293 -1.02718,1.88811 -3.2684,4.81311 -4.98068,6.5 -1.7122,1.68689 -3.41388,3.93131 -3.78157,4.98761 -0.36769,1.0563 -2.31053,4.29718 -4.31753,7.20197 -2.00691,2.90478 -3.64903,5.55806 -3.64903,5.89618 0,1.68414 -5.90844,7.48131 -7.62495,7.48131 -3.18079,0 -3.30648,-1.53889 -0.33542,-4.10464 1.52563,-1.31745 3.95547,-4.42036 5.39968,-6.89536 4.40382,-7.54694 9.10752,-14.36938 11.72055,-17 1.36589,-1.375 3.50608,-4.38941 4.75604,-6.6987 2.4485,-4.52364 5.42303,-7.60167 11.4783,-11.8778 4.4408,-3.13606 5.4922,-2.90892 13.8326,2.9881 3.0157,2.13227 5.9681,3.47216 7.0205,3.18616 0.9989,-0.27146 6.6765,-0.59933 12.617,-0.72861 12.9189,-0.28115 18.7339,-1.32115 21.4901,-3.84345 1.7607,-1.61133 1.8351,-2.07266 0.5293,-3.28163 -0.8357,-0.77371 -2.8511,-1.71621 -4.4789,-2.09445 -1.6278,-0.37825 -2.9595,-1.1406 -2.9595,-1.69411 0,-0.56305 -2.4979,-0.95203 -5.6704,-0.88299 -7.6322,0.16607 -19.6599,-4.13794 -26.0642,-9.32684 -3.1587,-2.55934 -10.682,-5.74568 -13.566,-5.74568 -2.7757,0 -14.52455,5.2112 -17.88393,7.93239 -1.18805,0.96239 -6.53445,4.15901 -11.88085,7.10359 -12.55677,6.9158 -12.92052,7.222 -14.53066,12.23013 -0.7486,2.32864 -2.31369,6.03389 -3.47793,8.23389 -1.16423,2.2 -3.81448,8.95 -5.88945,15 -2.07494,6.05 -4.53437,12.66251 -5.46539,14.69447 -2.03085,4.43239 -2.23965,10.8368 -1.0858,33.30553 1.52929,29.77933 1.39929,92.65509 -0.19708,95.33565 -0.76505,1.2846 -1.15886,2.55055 -0.87516,2.81322 0.58487,0.54151 5.65078,1.89203 27.20112,7.25152 14.34034,3.56638 29.73083,9.64043 36.05823,14.23089 3.3159,2.40558 4.0911,2.35334 5.6578,-0.38128 z"
     id="path3039"
     inkscape:connector-curvature="0" />
  <path
     style="fill:#000000"
     d="m 670.79838,430.4228 c -3.0427,-2.62049 -4.6336,-3.27889 -7.2432,-2.99757 -1.8393,0.19828 -3.6561,-0.10677 -4.0374,-0.67788 -1.269,-1.90109 2.9085,-4.91236 6.8149,-4.91236 2.9817,0 4.7587,0.94012 8.9397,4.72957 3.9004,3.535 4.9307,5.05046 4.0796,6 -1.8532,2.06734 -4.4097,1.42718 -8.5536,-2.14176 z"
     id="path3037"
     inkscape:connector-curvature="0" />
  <path
     style="fill:#000000"
     d="m 634.33082,412.28776 c -3.38264,-2.6353 -3.53478,-5.47505 -0.29077,-5.42587 2.62316,0.0398 9.26413,5.46141 8.35603,6.82182 -1.2618,1.8902 -4.5855,1.31491 -8.06526,-1.39595 z"
     id="path3035"
     inkscape:connector-curvature="0" />
  <path
     style="fill:#000000"
     d="m 614.32339,404.95292 c -4.70426,-0.69047 -7.35021,-3.31482 -5.27718,-5.23413 2.03861,-1.88746 12.72738,1.20724 12.72738,3.68493 0,2.14701 -1.3974,2.4376 -7.4502,1.5492 z"
     id="path3033"
     inkscape:connector-curvature="0" />
  <path
     style="fill:#000000"
     d="m 592.34152,400.81577 c -2.78973,-1.0519 -2.98896,-1.89098 -1.03618,-4.3636 1.20567,-1.52659 1.79608,-1.59546 4.36977,-0.50975 2.07226,0.87419 2.87874,1.88027 2.65625,3.31373 -0.36403,2.34582 -2.45849,2.89116 -5.98984,1.55962 z"
     id="path3031"
     inkscape:connector-curvature="0" />
  <path
     style="fill:#ffebd0;fill-opacity:1"
     d="m 228.08548,526.83499 c 0,-0.55 -0.4698,-1 -1.04402,-1 -0.57421,0 -3.50664,-2.025 -6.51651,-4.5 -3.00987,-2.475 -6.11077,-4.5 -6.89088,-4.5 -0.7801,0 -3.10816,-1.51944 -5.17347,-3.37653 -2.06532,-1.85709 -4.69155,-3.66305 -5.8361,-4.01325 -1.14454,-0.35019 -4.51978,-2.76825 -7.50051,-5.37347 -3.38267,-2.9565 -6.52935,-4.81309 -8.37243,-4.93987 -3.3225,-0.22855 -9.76254,-4.14035 -16.99024,-10.32017 -8.36544,-7.15261 -15.2817,-12.00284 -16.29161,-11.42496 -0.53412,0.30564 -4.05972,-1.04347 -7.83466,-2.99802 -7.84182,-4.06027 -8.77043,-4.27752 -7.28274,-1.70384 2.8197,4.87805 5.49402,17.70425 5.75246,27.58922 l 0.27474,10.50849 4.86035,0.5913 c 2.67319,0.32522 8.01957,1.21375 11.88084,1.97453 3.86128,0.76078 8.68072,1.65105 10.70988,1.97838 2.02916,0.32733 3.9733,0.75227 4.3203,0.94432 0.34702,0.19204 2.81809,0.62719 5.49129,0.96701 13.19716,1.67763 28.40985,4.7982 36.18258,7.42211 10.21882,3.44965 10.26073,3.45854 10.26073,2.17475 z"
     id="path3029"
     inkscape:connector-curvature="0" />
  <path
     style="fill:#ffebd0;fill-opacity:1"
     d="m 265.47264,513.60052 c 4.06134,-1.71328 6.22245,-6.35384 6.41061,-13.76553 0.28241,-11.12342 -0.14947,-10.76511 13.17141,-10.92758 6.34337,-0.0774 12.52399,-0.3548 13.73472,-0.6165 3.35595,-0.7254 5.27893,1.01396 5.20614,4.70905 -0.0362,1.83426 -0.13678,6.45649 -0.22365,10.27161 -0.12876,5.65346 0.22889,7.29477 1.9335,8.87298 2.06856,1.91521 2.10571,1.87211 3.39388,-3.93658 3.00631,-13.55631 5.78364,-24.35287 8.17366,-31.77433 1.3995,-4.34574 2.31417,-8.2465 2.03257,-8.66836 -1.7493,-2.62058 7.4478,-24.20609 15.7877,-37.05362 2.92619,-4.50774 5.32034,-8.65114 5.32034,-9.20754 0,-0.55641 0.67626,-1.72208 1.50282,-2.59039 1.89674,-1.99255 14.53293,-24.79627 17.7111,-31.96209 1.31319,-2.96085 2.38737,-6.33585 2.38708,-7.5 -5.3e-4,-2.05943 -3.28905,-10.90049 -5.35049,-14.38464 -0.56364,-0.9526 -1.84413,-3.44169 -2.84556,-5.5313 -1.65651,-3.45657 -2.10676,-3.74114 -4.99121,-3.15458 -5.16363,1.05005 -13.52754,0.66911 -19.53682,-0.88979 -3.08996,-0.80159 -7.98779,-1.76323 -10.88404,-2.13698 -2.89625,-0.37375 -7.87811,-1.98802 -11.07079,-3.58726 -4.83692,-2.42286 -5.80487,-2.63323 -5.80487,-1.26165 0,1.68595 4.03714,10.29947 15.1528,32.32955 8.98465,17.80665 15.36387,32.15825 15.33182,34.4927 -0.0676,4.93016 -2.34785,7.56824 -9.09503,10.52258 -7.53274,3.29831 -20.64423,6.30706 -25.3249,5.81142 -2.57029,-0.27218 -3.13986,-0.84647 -3.41272,-3.44105 -0.29334,-2.78936 0.0307,-3.18069 3.10523,-3.75 1.888,-0.34961 5.04442,-0.63565 7.01425,-0.63565 1.96984,0 3.84142,-0.38935 4.15908,-0.86522 0.31765,-0.47587 2.3104,-1.12557 4.42833,-1.44378 5.62144,-0.8446 11.32276,-4.40007 11.32276,-7.06112 0,-1.21385 -0.91909,-3.87609 -2.04243,-5.91609 -1.12334,-2.04 -2.35749,-4.87129 -2.74255,-6.29176 -0.71491,-2.63724 -5.69668,-13.12566 -9.22504,-19.42203 -1.07872,-1.925 -3.51161,-7.1 -5.4064,-11.5 -1.89479,-4.4 -4.86879,-10.81458 -6.60888,-14.25462 -3.47518,-6.87015 -4.2798,-11.17781 -2.93901,-15.73428 0.78477,-2.66694 0.14545,-6.2217 -2.07028,-11.5111 -0.34559,-0.825 -0.53039,-2.0625 -0.41065,-2.75 0.46474,-2.66849 -7.9023,-1.36282 -14.36837,2.24217 -3.44505,1.9207 -6.77117,3.20181 -7.39139,2.84692 -0.74836,-0.42823 -0.92511,0.75277 -0.52548,3.51136 0.33119,2.28613 0.0438,5.84076 -0.63844,7.89916 -2.08748,6.29734 -15.00075,16.85425 -22.8566,18.68581 -0.59404,0.1385 -2.29517,0.56531 -3.78027,0.94848 -3.49602,0.90198 -14.5955,1.73003 -24.84178,1.85326 -9.50241,0.11428 -15.32535,-2.01079 -23.28523,-8.49789 -6.2498,-5.09342 -9.948,-10.44441 -10.85738,-15.70975 -0.38697,-2.24062 -1.16079,-4.33545 -1.71957,-4.6552 -0.55879,-0.31974 -4.01869,-0.74141 -7.68869,-0.93704 -3.66999,-0.19563 -10.80401,-1.06319 -15.85337,-1.92791 -5.04937,-0.86472 -13.31196,-1.79575 -18.36132,-2.06894 -5.04935,-0.2732 -12.9545,-0.95964 -17.567,-1.52542 -7.15923,-0.87818 -8.6324,-0.8009 -10.06786,0.52814 -1.9669,1.82107 -3.2817,1.97359 -4.26858,0.49517 -0.38979,-0.58393 -1.7798,-1.43873 -3.08893,-1.89955 -3.23775,-1.13973 -11.045018,-10.73282 -12.237948,-15.03724 -2.61198,-9.42472 -10.46219,-1.7422 -14.49946,14.18971 -3.22781,12.73759 -3.51629,36.60034 -0.54171,44.80876 1.09621,3.025 2.51795,6.09109 3.15943,6.81354 1.44033,1.62215 5.05562,10.63181 5.89301,14.68599 1.2455,6.02994 7.69428,7.35356 12.622678,2.59081 6.35617,-6.14253 10.63946,-4.20228 7.09601,3.21436 -2.84473,5.9542 -7.0073,9.04442 -11.149708,8.27736 -2.50015,-0.46296 -2.97651,-0.27342 -2.45788,0.97792 0.8167,1.97049 14.658258,21.44002 15.242458,21.44002 0.23961,0 0.41436,-4.14657 0.38835,-9.21459 -0.032,-6.23793 -0.538,-9.86323 -1.56631,-11.22251 -2.06402,-2.72833 -1.94217,-3.26008 1.18118,-5.15486 2.46368,-1.49458 2.9273,-1.50028 5.29308,-0.0651 3.29599,1.9995 3.97594,6.77229 3.95694,27.77521 -0.0122,13.56345 0.23091,15.81086 1.84839,17.08297 4.33217,3.40715 19.15112,11.17351 40.41611,21.1814 3.97724,1.8718 8.59457,4.27096 10.26073,5.33148 1.66616,1.06051 5.45956,2.75354 8.42977,3.76228 2.97021,1.00875 5.78905,2.43925 6.2641,3.1789 0.47505,0.73964 1.56864,1.34481 2.43018,1.34481 0.86155,0 1.56645,0.41968 1.56645,0.93261 0,0.51294 0.85056,1.19513 1.89013,1.51598 1.03957,0.32085 4.226,2.56184 7.08094,4.97999 2.85494,2.41815 6.74322,5.13577 8.64061,6.03915 1.89741,0.90338 5.04619,2.56818 6.9973,3.69957 3.61365,2.09543 17.36949,7.00121 26.15465,9.32758 2.67319,0.70789 6.56146,2.01643 8.64061,2.90788 4.09289,1.75486 11.8939,1.46012 16.86569,-0.63723 z"
     id="path3027"
     inkscape:connector-curvature="0" />
  <path
     style="fill:#000000"
     d="m 267.1788,478.21353 c -1.40169,-0.96582 -1.56322,-1.66575 -0.68939,-2.98698 0.99885,-1.51027 3.35717,-1.74524 18.90134,-1.88315 9.76806,-0.0867 18.60409,0.22606 19.63565,0.69496 1.0907,0.49578 1.7891,1.81938 1.669,3.16306 l -0.20655,2.31052 -18.73969,-0.0185 c -13.36733,-0.0132 -19.26452,-0.38013 -20.57036,-1.27991 z"
     id="path3025"
     inkscape:connector-curvature="0" />
  <path
     style="fill:#000000"
     d="m 235.52878,468.2042 c -1.27578,-1.42325 -0.91461,-2.0759 2.83797,-5.12833 2.36488,-1.92365 6.35566,-4.35685 8.86841,-5.40711 4.08211,-1.70623 20.06499,-4.51575 35.60477,-6.25871 7.8473,-0.88017 25.07837,1.12331 28.3434,3.29551 3.39326,2.25752 5.0635,6.67137 3.2782,8.66305 -1.38859,1.5491 -5.37026,2.03432 -5.37026,0.65444 0,-1.85736 -6.90789,-5.32912 -12.51208,-6.2883 -9.2208,-1.57818 -43.52303,2.24222 -44.50013,4.95619 -0.20429,0.56743 -1.02771,0.79853 -1.82982,0.51356 -0.80209,-0.28498 -3.38129,1.0903 -5.73152,3.05617 -4.71521,3.94408 -6.79297,4.39332 -8.98894,1.94353 z"
     id="path3023"
     inkscape:connector-curvature="0" />
  <path
     style="fill:#000000"
     d="m 200.81354,442.14566 c -1.05882,-0.25618 -1.90057,-1.41466 -1.91386,-2.63399 -0.0384,-3.51419 -3.81231,-9.81912 -8.97118,-14.98738 -5.17016,-5.17957 -12.05301,-7.77172 -20.70016,-7.79588 -6.78352,-0.019 -14.43648,-2.84512 -20.98336,-7.74895 -3.31409,-2.48236 -6.17266,-4.83876 -6.35236,-5.23646 -0.1797,-0.3977 -1.20605,-1.66177 -2.28075,-2.80905 -2.62214,-2.79919 -5.84703,-10.80264 -5.08936,-12.63067 0.7444,-1.79607 3.28559,-1.91464 4.67842,-0.21829 0.56448,0.6875 1.86528,3.35356 2.89066,5.92458 3.48062,8.72726 16.5062,16.70646 27.57137,16.88962 6.00865,0.0995 15.47517,2.24949 18.42998,4.1858 1.46877,0.9625 3.16989,1.76877 3.78027,1.79171 1.21782,0.0458 13.83655,16.31308 15.00937,19.34919 0.72092,1.86625 -1.819,6.72576 -3.39375,6.4931 -0.43183,-0.0638 -1.63572,-0.3218 -2.67529,-0.57333 z"
     id="path3021"
     inkscape:connector-curvature="0" />
  <path
     style="fill:#000000"
     d="m 275.8824,380.58499 c -0.58908,-0.6875 -1.31091,-3.3297 -1.60405,-5.87156 -0.29316,-2.54187 -1.32879,-6.0985 -2.30143,-7.90364 -3.49142,-6.47986 -1.05714,-9.63323 3.2614,-4.2248 3.63133,4.54778 7.20738,16.52007 5.42685,18.16859 -1.55062,1.43566 -3.46602,1.36814 -4.78277,-0.16859 z"
     id="path3019"
     inkscape:connector-curvature="0" />
  <path
     style="fill:#000000"
     d="m 92.154732,376.51233 c -1.47076,-1.64077 -1.51806,-1.52817 4.88442,-11.62808 l 2.82139,-4.45074 -3.39235,-2.62208 c -3.26947,-2.52711 -4.35966,-5.3049 -2.49971,-6.36919 5.46438,-3.12679 20.028638,17.42258 15.391228,21.71617 -1.63714,1.51576 -4.90394,-0.38397 -5.05316,-2.93853 -0.26342,-4.50947 -0.48224,-5.38489 -1.34599,-5.38489 -0.50381,0 -1.75441,1.72133 -2.77908,3.82519 -1.024678,2.10385 -2.940558,5.07633 -4.257518,6.6055 -2.10301,2.44189 -2.56181,2.59364 -3.76923,1.24665 z"
     id="path3017"
     inkscape:connector-curvature="0" />
  <path
     style="fill:#ffebd0;fill-opacity:1"
     d="m 70.493872,370.08741 c -2.03423,-5.15279 -2.40689,-18.51511 -0.76004,-27.25242 1.11268,-5.9033 1.65191,-9.18475 2.87573,-17.5 3.14243,-21.35111 6.33719,-28.74241 12.6702,-29.31336 2.51132,-0.22641 3.47577,0.1003 3.47577,1.17742 0,0.81993 1.21509,2.3757 2.7002,3.45728 1.4851,1.08158 2.70018,2.2796 2.70018,2.66229 0,1.29902 4.85022,4.44967 6.901438,4.4831 1.12259,0.0183 2.5807,0.71353 3.24023,1.54495 1.3157,1.65861 1.64566,1.73908 14.16007,3.45329 4.75235,0.65097 13.01493,1.80051 18.36132,2.55452 11.00959,1.55272 27.44026,2.75743 39.42281,2.89053 6.49875,0.0722 8.11251,-0.20663 8.16095,-1.41002 0.0918,-2.28117 4.56078,-9.90159 9.13322,-15.57386 5.53344,-6.86438 17.63743,-12.50298 28.36477,-13.21362 4.02553,-0.26667 7.58396,-0.88156 7.90762,-1.36642 0.32366,-0.48487 -0.90364,-2.62585 -2.72734,-4.75774 -1.8237,-2.13189 -3.31582,-4.3533 -3.31582,-4.93646 0,-2.06393 -9.63364,-7.98066 -12.16793,-7.47321 -1.3272,0.26575 -7.83746,2.98538 -14.46724,6.04361 -11.98767,5.52976 -15.52206,6.11505 -15.45349,2.55908 0.0418,-2.1683 1.63669,-4.09535 5.90607,-7.13617 1.78213,-1.2693 4.99343,-3.80489 7.13624,-5.63466 2.1428,-1.82976 6.37428,-4.14178 9.4033,-5.13783 4.63507,-1.52418 6.24177,-1.62908 10.14499,-0.66237 8.89062,2.20196 10.52185,3.2554 17.02967,10.99763 3.6023,4.28561 7.04196,8.35072 7.64367,9.03359 1.13945,1.29311 8.6567,1.45428 10.79379,0.23142 0.67551,-0.38655 1.7957,-1.75666 2.48927,-3.0447 1.65675,-3.07673 5.79497,-3.94836 10.04937,-2.11669 4.92266,2.11938 6.10894,5.15155 3.5435,9.05731 -1.13113,1.7221 -2.50177,3.13109 -3.04588,3.13109 -0.54408,0 -1.99294,1.575 -3.21968,3.5 -1.22673,1.925 -3.06678,3.5 -4.08902,3.5 -1.5353,0 -1.37543,0.47838 0.91905,2.75 3.02052,2.99042 8.42725,11.96741 8.42725,13.99204 0,1.47231 1.75094,1.68001 2.66163,0.31574 1.45234,-2.17572 10.03055,-2.24735 18.2773,-0.15263 4.53599,1.15217 8.47829,2.09485 8.76067,2.09485 0.39575,0 4.84733,-8.0109 8.95386,-16.11304 0.1709,-0.33718 -1.45209,-0.8779 -3.60663,-1.20161 -2.15454,-0.32371 -4.60302,-1.11544 -5.44108,-1.7594 -1.95545,-1.50256 -1.89538,-4.88692 0.13072,-7.36708 0.87218,-1.06762 1.58577,-2.96975 1.58577,-4.22695 0,-1.3409 1.12765,-2.9699 2.72786,-3.94067 2.43203,-1.47537 2.92987,-1.49203 4.59033,-0.15362 5.37972,4.3363 13.97927,2.09686 20.82891,-5.42415 4.67341,-5.13148 9.48764,-7.70938 15.94116,-8.53609 6.93262,-0.88809 12.07575,1.75508 12.07575,6.20598 0,1.84766 -0.51173,2.2786 -2.43017,2.04647 -1.33659,-0.16173 -3.26069,-0.61312 -4.27577,-1.00311 -2.69368,-1.03489 -8.71094,1.10593 -11.9753,4.26056 -2.397,2.31644 -6.78716,11.05269 -5.90204,11.74487 0.15486,0.1211 3.92681,0.90985 8.38212,1.75278 4.45532,0.84293 8.9233,1.8369 9.92883,2.20883 2.68719,0.99394 7.90285,-9.14316 9.25802,-17.99377 1.47462,-9.63081 0.93494,-48.14888 -0.72858,-52 -5.45165,-12.62079 -13.65095,-24.5 -16.91046,-24.5 -0.85129,0 -1.54781,-0.61431 -1.54781,-1.36514 0,-0.75083 -0.97207,-2.50931 -2.16015,-3.90773 -1.18809,-1.39842 -2.16016,-3.1859 -2.16016,-3.97218 0,-2.19497 -13.78566,-13.39873 -18.4243,-14.97363 -0.92572,-0.31429 -5.4839,-2.86867 -10.1293,-5.67638 -4.64539,-2.80772 -9.37299,-5.10494 -10.50575,-5.10494 -1.13276,0 -3.13605,-0.63979 -4.45175,-1.42177 -6.64177,-3.94748 -44.38614,-8.13212 -63.95657,-7.09074 -19.37689,1.03109 -44.66384,5.55163 -58.8642,10.52313 -22.44931,7.85943 -39.9578,18.82893 -60.52611,37.92112 -17.593218,16.33061 -24.583108,26.01755 -33.241968,46.06826 -4.4859,10.38773 -10.27773,35.90337 -13.24341,58.34333 -2.02858,15.34936 0.33789,34.35431 6.74351,54.15667 0.71165,2.2 1.20365,4.34256 1.09334,4.76124 -0.25273,0.95928 5.34374,10.94633 5.86409,10.46458 0.21113,-0.19549 -0.52534,-2.65852 -1.6366,-5.4734 z"
     id="path3015"
     inkscape:connector-curvature="0" />
  <path
     style="fill:#006666;fill-opacity:1"
     d="m 205.57297,350.27553 c -8.82167,-9.27892 -12.20919,-25.90419 -7.81377,-38.34839 1.24482,-3.52433 2.0651,-6.59138 1.82284,-6.81568 -0.24227,-0.22431 -1.69008,1.109 -3.21735,2.96291 -9.12598,11.07771 -10.6116,26.69489 -3.46563,36.43146 3.41966,4.65938 15.03809,12.1478 16.68819,10.75604 0.22171,-0.187 -1.58471,-2.43085 -4.01428,-4.98634 z"
     id="path3013"
     inkscape:connector-curvature="0" />
  <path
     style="fill:#009494;fill-opacity:1"
     d="m 250.17109,352.17891 c 6.17931,-2.69811 12.32738,-8.18314 13.47114,-12.01835 1.06105,-3.55792 -0.10521,-14.13117 -2.242,-20.32557 -2.8502,-8.26262 -9.88961,-19 -12.45636,-19 -0.77935,0 -1.417,-0.44396 -1.417,-0.98658 0,-0.54262 -1.82263,-1.7031 -4.05029,-2.57885 -5.77279,-2.26943 -16.46177,-1.55645 -20.75833,1.38462 -1.78948,1.22493 -4.83766,2.50511 -6.77375,2.84483 -1.93607,0.33973 -4.38996,1.02968 -5.45309,1.53323 -2.16493,1.02543 -6.52874,9.1596 -8.26529,15.40658 -3.48055,12.52072 5.27506,28.75292 18.33653,33.99446 5.11266,2.05169 7.20658,2.3166 15.64407,1.97915 6.47045,-0.25878 11.15933,-1.00874 13.96437,-2.23352 z"
     id="path3011"
     inkscape:connector-curvature="0" />
  <path
     style="fill:#009494;fill-opacity:1"
     d="m 352.33545,348.31532 c 7.21585,-3.45482 13.20199,-13.96216 13.37696,-23.48033 0.11267,-6.12866 -4.09992,-15.29677 -8.39401,-18.26843 -1.87216,-1.2956 -7.25659,-4.29551 -11.96543,-6.66647 -7.90223,-3.97887 -9.02504,-4.27122 -14.58104,-3.7966 -8.31425,0.71024 -12.55503,3.19507 -15.75511,9.2315 -3.76562,7.10322 -4.83366,20.57582 -2.15824,27.22456 3.69416,9.18039 10.86632,15.67006 19.06294,17.24897 5.85111,1.12709 16.58024,0.3423 20.41393,-1.4932 z"
     id="path3009"
     inkscape:connector-curvature="0" />
  <path
     style="fill:#006666;fill-opacity:1"
     d="m 309.06217,341.58499 c -1.18663,-1.7875 -2.65632,-4.9375 -3.26598,-7 -0.60968,-2.0625 -1.54711,-3.75 -2.08319,-3.75 -1.68661,0 -2.47829,2.12592 -1.2241,3.28713 0.66109,0.61208 1.20199,2.10787 1.20199,3.32398 0,1.2414 1.45737,3.34648 3.32311,4.8 4.32748,3.37138 4.65497,3.26568 2.04817,-0.66111 z"
     id="path3007"
     inkscape:connector-curvature="0" />
  <path
     style="fill:#1c0b00;fill-opacity:1"
     d="m 622.38319,332.57477 c -0.69214,-1.82332 -0.41619,-5.68753 0.74269,-10.40191 l 1.02315,-4.16213 -4.56853,-1.18428 c -2.51267,-0.65135 -5.47726,-1.02454 -6.58811,-0.82931 -2.74012,0.48159 -3.1519,4.86496 -1.02315,10.89068 0.93705,2.65263 1.70385,6.45142 1.70385,8.44175 l 0,3.61878 4.59029,-2.5669 c 2.52467,-1.41179 4.37859,-3.1248 4.11981,-3.80668 z"
     id="path3005"
     inkscape:connector-curvature="0" />
  <path
     style="fill:#ffffff"
     d="m 640.38738,325.72911 c 3.6544,-0.69883 6.3873,-1.6556 6.0731,-2.12616 -0.3141,-0.47056 -0.083,-1.39999 0.5134,-2.0654 1.617,-1.8039 9.6724,-24.61021 10.4508,-29.58818 0.2248,-1.43791 2.1367,-6.62758 4.2488,-11.5326 2.1119,-4.90502 3.6279,-9.11447 3.3688,-9.35434 -0.259,-0.23986 -1.9726,0.25748 -3.8081,1.10521 -1.8353,0.84772 -5.9153,2.23527 -9.0665,3.08344 -5.1218,1.37855 -6.006,2.0398 -8.3359,6.23401 -1.4335,2.58053 -3.9453,6.25181 -5.5818,8.1584 -1.63648,1.90658 -3.0126,3.96713 -3.058,4.579 -0.046,0.61188 -0.27989,1.7875 -0.52104,2.6125 -0.24107,0.825 -0.94408,3.975 -1.56231,7 -0.61822,3.025 -1.81068,8.425 -2.64989,12 -0.83921,3.575 -1.76894,8.18414 -2.06609,10.24254 l -0.54019,3.74255 2.94536,-1.41019 c 1.61999,-0.77561 5.93527,-1.98196 9.58956,-2.68078 z"
     id="path3003"
     inkscape:connector-curvature="0" />
  <path
     style="fill:#006666;fill-opacity:1"
     d="m 305.24267,316.83499 c 0.87737,-5.225 1.9159,-10.5125 2.30785,-11.75 1.50238,-4.74354 -1.31774,-1.96816 -3.74193,3.68257 -2.20978,5.15096 -2.43712,6.83075 -1.72552,12.75 0.95761,7.96559 1.06161,7.81147 3.1596,-4.68257 z"
     id="path3001"
     inkscape:connector-curvature="0" />
  <path
     style="fill:#000000"
     d="m 275.60889,321.83499 c 2.67319,-1.64529 5.83242,-3.00025 7.0205,-3.01103 1.79071,-0.0162 1.88306,-0.18538 0.54003,-0.98897 -2.42125,-1.44872 -11.053,-1.13819 -13.36189,0.4807 -1.46168,1.02486 -1.82966,2.12318 -1.32951,3.96819 0.87073,3.21205 1.21828,3.19017 7.13087,-0.44889 z"
     id="path2999"
     inkscape:connector-curvature="0" />
  <path
     style="fill:#000000"
     d="m 85.515302,304.71696 c 0,-0.55 -0.48603,-0.72189 -1.08008,-0.38197 -0.59404,0.33992 -1.08007,1.06803 -1.08007,1.61803 0,0.55 0.48603,0.72189 1.08007,0.38197 0.59405,-0.33992 1.08008,-1.06803 1.08008,-1.61803 z"
     id="path2995"
     inkscape:connector-curvature="0" />
</svg>
